solid CATIA STL
  facet normal  0.000000e+000  0.000000e+000  9.999999e-001
    outer loop
      vertex  2.500000e+001  2.000000e+001  1.500000e+001
      vertex  1.000000e+001  4.000000e+001  1.500000e+001
      vertex  5.500000e+000  3.500000e+001  1.500000e+001
    endloop
  endfacet
  facet normal  0.000000e+000  0.000000e+000  1.000000e+000
    outer loop
      vertex  2.500000e+001  2.000000e+001  1.500000e+001
      vertex  5.500000e+000  3.500000e+001  1.500000e+001
      vertex  5.500000e+000  2.400000e+001  1.500000e+001
    endloop
  endfacet
  facet normal  0.000000e+000  0.000000e+000  1.000000e+000
    outer loop
      vertex  2.500000e+001  2.000000e+001  1.500000e+001
      vertex  5.500000e+000  2.400000e+001  1.500000e+001
      vertex -5.500000e+000  2.400000e+001  1.500000e+001
    endloop
  endfacet
  facet normal  0.000000e+000  0.000000e+000  1.000000e+000
    outer loop
      vertex  2.500000e+001  2.000000e+001  1.500000e+001
      vertex -5.500000e+000  2.400000e+001  1.500000e+001
      vertex  1.285879e-015  2.100000e+001  1.500000e+001
    endloop
  endfacet
  facet normal  0.000000e+000  0.000000e+000  1.000000e+000
    outer loop
      vertex  2.500000e+001  2.000000e+001  1.500000e+001
      vertex  1.285879e-015  2.100000e+001  1.500000e+001
      vertex  1.830271e+000  2.092009e+001  1.500000e+001
    endloop
  endfacet
  facet normal  0.000000e+000  0.000000e+000  1.000000e+000
    outer loop
      vertex  2.500000e+001  2.000000e+001  1.500000e+001
      vertex  1.830271e+000  2.092009e+001  1.500000e+001
      vertex  3.646612e+000  2.068096e+001  1.500000e+001
    endloop
  endfacet
  facet normal  0.000000e+000  0.000000e+000  1.000000e+000
    outer loop
      vertex  2.500000e+001  2.000000e+001  1.500000e+001
      vertex  3.646612e+000  2.068096e+001  1.500000e+001
      vertex  5.435200e+000  2.028444e+001  1.500000e+001
    endloop
  endfacet
  facet normal  0.000000e+000  0.000000e+000  9.999999e-001
    outer loop
      vertex  2.500000e+001  2.000000e+001  1.500000e+001
      vertex  5.435200e+000  2.028444e+001  1.500000e+001
      vertex  7.182423e+000  1.973355e+001  1.500000e+001
    endloop
  endfacet
  facet normal  -0.000000e+000  0.000000e+000  1.000000e+000
    outer loop
      vertex  2.500000e+001  2.000000e+001  1.500000e+001
      vertex  7.182423e+000  1.973355e+001  1.500000e+001
      vertex  8.874984e+000  1.903246e+001  1.500000e+001
    endloop
  endfacet
  facet normal  -0.000000e+000  0.000000e+000  1.000000e+000
    outer loop
      vertex  2.500000e+001  2.000000e+001  1.500000e+001
      vertex  8.874984e+000  1.903246e+001  1.500000e+001
      vertex  1.050000e+001  1.818653e+001  1.500000e+001
    endloop
  endfacet
  facet normal  -0.000000e+000  0.000000e+000  1.000000e+000
    outer loop
      vertex  2.500000e+001  2.000000e+001  1.500000e+001
      vertex  1.050000e+001  1.818653e+001  1.500000e+001
      vertex  1.204510e+001  1.720219e+001  1.500000e+001
    endloop
  endfacet
  facet normal  -0.000000e+000  0.000000e+000  1.000000e+000
    outer loop
      vertex  2.500000e+001  2.000000e+001  1.500000e+001
      vertex  1.204510e+001  1.720219e+001  1.500000e+001
      vertex  1.349854e+001  1.608693e+001  1.500000e+001
    endloop
  endfacet
  facet normal  -0.000000e+000  0.000000e+000  1.000000e+000
    outer loop
      vertex  2.500000e+001  2.000000e+001  1.500000e+001
      vertex  1.349854e+001  1.608693e+001  1.500000e+001
      vertex  1.484924e+001  1.484924e+001  1.500000e+001
    endloop
  endfacet
  facet normal  -0.000000e+000  0.000000e+000  1.000000e+000
    outer loop
      vertex  2.500000e+001  2.000000e+001  1.500000e+001
      vertex  1.484924e+001  1.484924e+001  1.500000e+001
      vertex  1.608693e+001  1.349854e+001  1.500000e+001
    endloop
  endfacet
  facet normal  -0.000000e+000  0.000000e+000  9.999999e-001
    outer loop
      vertex  2.500000e+001  2.000000e+001  1.500000e+001
      vertex  1.608693e+001  1.349854e+001  1.500000e+001
      vertex  1.720219e+001  1.204510e+001  1.500000e+001
    endloop
  endfacet
  facet normal  -0.000000e+000  0.000000e+000  1.000000e+000
    outer loop
      vertex  2.500000e+001  2.000000e+001  1.500000e+001
      vertex  1.720219e+001  1.204510e+001  1.500000e+001
      vertex  1.818653e+001  1.050000e+001  1.500000e+001
    endloop
  endfacet
  facet normal  -0.000000e+000  0.000000e+000  1.000000e+000
    outer loop
      vertex  2.500000e+001  2.000000e+001  1.500000e+001
      vertex  1.818653e+001  1.050000e+001  1.500000e+001
      vertex  1.903246e+001  8.874984e+000  1.500000e+001
    endloop
  endfacet
  facet normal  -0.000000e+000  0.000000e+000  1.000000e+000
    outer loop
      vertex  2.500000e+001  2.000000e+001  1.500000e+001
      vertex  1.903246e+001  8.874984e+000  1.500000e+001
      vertex  1.973355e+001  7.182423e+000  1.500000e+001
    endloop
  endfacet
  facet normal  -0.000000e+000  0.000000e+000  1.000000e+000
    outer loop
      vertex  2.500000e+001  2.000000e+001  1.500000e+001
      vertex  1.973355e+001  7.182423e+000  1.500000e+001
      vertex  2.028444e+001  5.435200e+000  1.500000e+001
    endloop
  endfacet
  facet normal  -0.000000e+000  0.000000e+000  1.000000e+000
    outer loop
      vertex  2.500000e+001  2.000000e+001  1.500000e+001
      vertex  2.028444e+001  5.435200e+000  1.500000e+001
      vertex  2.068096e+001  3.646612e+000  1.500000e+001
    endloop
  endfacet
  facet normal  -0.000000e+000  0.000000e+000  1.000000e+000
    outer loop
      vertex  2.500000e+001  2.000000e+001  1.500000e+001
      vertex  2.068096e+001  3.646612e+000  1.500000e+001
      vertex  2.500000e+001 -2.000000e+001  1.500000e+001
    endloop
  endfacet
  facet normal  0.000000e+000  0.000000e+000  1.000000e+000
    outer loop
      vertex  1.000000e+001 -4.000000e+001  1.500000e+001
      vertex  2.500000e+001 -2.000000e+001  1.500000e+001
      vertex  7.182423e+000 -1.973355e+001  1.500000e+001
    endloop
  endfacet
  facet normal  0.000000e+000  0.000000e+000  1.000000e+000
    outer loop
      vertex  1.000000e+001 -4.000000e+001  1.500000e+001
      vertex  7.182423e+000 -1.973355e+001  1.500000e+001
      vertex  5.435200e+000 -2.028444e+001  1.500000e+001
    endloop
  endfacet
  facet normal  0.000000e+000  0.000000e+000  1.000000e+000
    outer loop
      vertex  1.000000e+001 -4.000000e+001  1.500000e+001
      vertex  5.435200e+000 -2.028444e+001  1.500000e+001
      vertex  5.500000e+000 -2.400000e+001  1.500000e+001
    endloop
  endfacet
  facet normal  0.000000e+000  0.000000e+000  1.000000e+000
    outer loop
      vertex  1.000000e+001 -4.000000e+001  1.500000e+001
      vertex  5.500000e+000 -2.400000e+001  1.500000e+001
      vertex  5.500000e+000 -3.500000e+001  1.500000e+001
    endloop
  endfacet
  facet normal  0.000000e+000  0.000000e+000  9.999999e-001
    outer loop
      vertex  1.000000e+001 -4.000000e+001  1.500000e+001
      vertex  5.500000e+000 -3.500000e+001  1.500000e+001
      vertex -5.500000e+000 -3.500000e+001  1.500000e+001
    endloop
  endfacet
  facet normal  0.000000e+000  0.000000e+000  1.000000e+000
    outer loop
      vertex  1.000000e+001 -4.000000e+001  1.500000e+001
      vertex -5.500000e+000 -3.500000e+001  1.500000e+001
      vertex -1.000000e+001 -4.000000e+001  1.500000e+001
    endloop
  endfacet
  facet normal  0.000000e+000  -0.000000e+000  1.000000e+000
    outer loop
      vertex -1.000000e+001 -4.000000e+001  1.500000e+001
      vertex -5.500000e+000 -3.500000e+001  1.500000e+001
      vertex -5.500000e+000 -2.400000e+001  1.500000e+001
    endloop
  endfacet
  facet normal  0.000000e+000  -0.000000e+000  1.000000e+000
    outer loop
      vertex -1.000000e+001 -4.000000e+001  1.500000e+001
      vertex -5.500000e+000 -2.400000e+001  1.500000e+001
      vertex -5.435200e+000 -2.028444e+001  1.500000e+001
    endloop
  endfacet
  facet normal  0.000000e+000  0.000000e+000  1.000000e+000
    outer loop
      vertex -1.000000e+001 -4.000000e+001  1.500000e+001
      vertex -5.435200e+000 -2.028444e+001  1.500000e+001
      vertex -7.182423e+000 -1.973355e+001  1.500000e+001
    endloop
  endfacet
  facet normal  0.000000e+000  0.000000e+000  1.000000e+000
    outer loop
      vertex -1.000000e+001 -4.000000e+001  1.500000e+001
      vertex -7.182423e+000 -1.973355e+001  1.500000e+001
      vertex -2.500000e+001 -2.000000e+001  1.500000e+001
    endloop
  endfacet
  facet normal  0.000000e+000  0.000000e+000  1.000000e+000
    outer loop
      vertex -2.500000e+001  2.000000e+001  1.500000e+001
      vertex -2.500000e+001 -2.000000e+001  1.500000e+001
      vertex -2.068096e+001  3.646612e+000  1.500000e+001
    endloop
  endfacet
  facet normal  0.000000e+000  -0.000000e+000  1.000000e+000
    outer loop
      vertex -2.500000e+001  2.000000e+001  1.500000e+001
      vertex -2.068096e+001  3.646612e+000  1.500000e+001
      vertex -2.028444e+001  5.435200e+000  1.500000e+001
    endloop
  endfacet
  facet normal  0.000000e+000  -0.000000e+000  1.000000e+000
    outer loop
      vertex -2.500000e+001  2.000000e+001  1.500000e+001
      vertex -2.028444e+001  5.435200e+000  1.500000e+001
      vertex -1.973355e+001  7.182423e+000  1.500000e+001
    endloop
  endfacet
  facet normal  0.000000e+000  -0.000000e+000  9.999999e-001
    outer loop
      vertex -2.500000e+001  2.000000e+001  1.500000e+001
      vertex -1.973355e+001  7.182423e+000  1.500000e+001
      vertex -1.903246e+001  8.874984e+000  1.500000e+001
    endloop
  endfacet
  facet normal  0.000000e+000  -0.000000e+000  1.000000e+000
    outer loop
      vertex -2.500000e+001  2.000000e+001  1.500000e+001
      vertex -1.903246e+001  8.874984e+000  1.500000e+001
      vertex -1.818653e+001  1.050000e+001  1.500000e+001
    endloop
  endfacet
  facet normal  0.000000e+000  -0.000000e+000  1.000000e+000
    outer loop
      vertex -2.500000e+001  2.000000e+001  1.500000e+001
      vertex -1.818653e+001  1.050000e+001  1.500000e+001
      vertex -1.720219e+001  1.204510e+001  1.500000e+001
    endloop
  endfacet
  facet normal  0.000000e+000  -0.000000e+000  9.999999e-001
    outer loop
      vertex -2.500000e+001  2.000000e+001  1.500000e+001
      vertex -1.720219e+001  1.204510e+001  1.500000e+001
      vertex -1.608693e+001  1.349854e+001  1.500000e+001
    endloop
  endfacet
  facet normal  0.000000e+000  -0.000000e+000  1.000000e+000
    outer loop
      vertex -2.500000e+001  2.000000e+001  1.500000e+001
      vertex -1.608693e+001  1.349854e+001  1.500000e+001
      vertex -1.484924e+001  1.484924e+001  1.500000e+001
    endloop
  endfacet
  facet normal  0.000000e+000  -0.000000e+000  1.000000e+000
    outer loop
      vertex -2.500000e+001  2.000000e+001  1.500000e+001
      vertex -1.484924e+001  1.484924e+001  1.500000e+001
      vertex -1.349854e+001  1.608693e+001  1.500000e+001
    endloop
  endfacet
  facet normal  0.000000e+000  -0.000000e+000  1.000000e+000
    outer loop
      vertex -2.500000e+001  2.000000e+001  1.500000e+001
      vertex -1.349854e+001  1.608693e+001  1.500000e+001
      vertex -1.204510e+001  1.720219e+001  1.500000e+001
    endloop
  endfacet
  facet normal  0.000000e+000  -0.000000e+000  1.000000e+000
    outer loop
      vertex -2.500000e+001  2.000000e+001  1.500000e+001
      vertex -1.204510e+001  1.720219e+001  1.500000e+001
      vertex -1.050000e+001  1.818653e+001  1.500000e+001
    endloop
  endfacet
  facet normal  0.000000e+000  -0.000000e+000  1.000000e+000
    outer loop
      vertex -2.500000e+001  2.000000e+001  1.500000e+001
      vertex -1.050000e+001  1.818653e+001  1.500000e+001
      vertex -8.874984e+000  1.903246e+001  1.500000e+001
    endloop
  endfacet
  facet normal  0.000000e+000  -0.000000e+000  1.000000e+000
    outer loop
      vertex -2.500000e+001  2.000000e+001  1.500000e+001
      vertex -8.874984e+000  1.903246e+001  1.500000e+001
      vertex -7.182423e+000  1.973355e+001  1.500000e+001
    endloop
  endfacet
  facet normal  0.000000e+000  -0.000000e+000  1.000000e+000
    outer loop
      vertex -2.500000e+001  2.000000e+001  1.500000e+001
      vertex -7.182423e+000  1.973355e+001  1.500000e+001
      vertex -5.435200e+000  2.028444e+001  1.500000e+001
    endloop
  endfacet
  facet normal  0.000000e+000  -0.000000e+000  9.999999e-001
    outer loop
      vertex -2.500000e+001  2.000000e+001  1.500000e+001
      vertex -5.435200e+000  2.028444e+001  1.500000e+001
      vertex -3.646612e+000  2.068096e+001  1.500000e+001
    endloop
  endfacet
  facet normal  0.000000e+000  -0.000000e+000  1.000000e+000
    outer loop
      vertex -2.500000e+001  2.000000e+001  1.500000e+001
      vertex -3.646612e+000  2.068096e+001  1.500000e+001
      vertex -1.830271e+000  2.092009e+001  1.500000e+001
    endloop
  endfacet
  facet normal  0.000000e+000  -0.000000e+000  1.000000e+000
    outer loop
      vertex -2.500000e+001  2.000000e+001  1.500000e+001
      vertex -1.830271e+000  2.092009e+001  1.500000e+001
      vertex  1.285879e-015  2.100000e+001  1.500000e+001
    endloop
  endfacet
  facet normal  0.000000e+000  0.000000e+000  1.000000e+000
    outer loop
      vertex -2.500000e+001  2.000000e+001  1.500000e+001
      vertex  1.285879e-015  2.100000e+001  1.500000e+001
      vertex -5.500000e+000  2.400000e+001  1.500000e+001
    endloop
  endfacet
  facet normal  0.000000e+000  -0.000000e+000  1.000000e+000
    outer loop
      vertex -2.500000e+001  2.000000e+001  1.500000e+001
      vertex -5.500000e+000  2.400000e+001  1.500000e+001
      vertex -5.500000e+000  3.500000e+001  1.500000e+001
    endloop
  endfacet
  facet normal  0.000000e+000  0.000000e+000  9.999999e-001
    outer loop
      vertex -2.500000e+001  2.000000e+001  1.500000e+001
      vertex -5.500000e+000  3.500000e+001  1.500000e+001
      vertex -1.000000e+001  4.000000e+001  1.500000e+001
    endloop
  endfacet
  facet normal  0.000000e+000  0.000000e+000  1.000000e+000
    outer loop
      vertex -2.500000e+001 -2.000000e+001  1.500000e+001
      vertex -7.182423e+000 -1.973355e+001  1.500000e+001
      vertex -8.874984e+000 -1.903246e+001  1.500000e+001
    endloop
  endfacet
  facet normal  0.000000e+000  0.000000e+000  1.000000e+000
    outer loop
      vertex -2.500000e+001 -2.000000e+001  1.500000e+001
      vertex -8.874984e+000 -1.903246e+001  1.500000e+001
      vertex -1.050000e+001 -1.818653e+001  1.500000e+001
    endloop
  endfacet
  facet normal  0.000000e+000  0.000000e+000  1.000000e+000
    outer loop
      vertex -2.500000e+001 -2.000000e+001  1.500000e+001
      vertex -1.050000e+001 -1.818653e+001  1.500000e+001
      vertex -1.204510e+001 -1.720219e+001  1.500000e+001
    endloop
  endfacet
  facet normal  0.000000e+000  0.000000e+000  1.000000e+000
    outer loop
      vertex -2.500000e+001 -2.000000e+001  1.500000e+001
      vertex -1.204510e+001 -1.720219e+001  1.500000e+001
      vertex -1.349854e+001 -1.608693e+001  1.500000e+001
    endloop
  endfacet
  facet normal  0.000000e+000  0.000000e+000  1.000000e+000
    outer loop
      vertex -2.500000e+001 -2.000000e+001  1.500000e+001
      vertex -1.349854e+001 -1.608693e+001  1.500000e+001
      vertex -1.484924e+001 -1.484924e+001  1.500000e+001
    endloop
  endfacet
  facet normal  0.000000e+000  0.000000e+000  1.000000e+000
    outer loop
      vertex -2.500000e+001 -2.000000e+001  1.500000e+001
      vertex -1.484924e+001 -1.484924e+001  1.500000e+001
      vertex -1.608693e+001 -1.349854e+001  1.500000e+001
    endloop
  endfacet
  facet normal  0.000000e+000  0.000000e+000  9.999999e-001
    outer loop
      vertex -2.500000e+001 -2.000000e+001  1.500000e+001
      vertex -1.608693e+001 -1.349854e+001  1.500000e+001
      vertex -1.720219e+001 -1.204510e+001  1.500000e+001
    endloop
  endfacet
  facet normal  0.000000e+000  0.000000e+000  1.000000e+000
    outer loop
      vertex -2.500000e+001 -2.000000e+001  1.500000e+001
      vertex -1.720219e+001 -1.204510e+001  1.500000e+001
      vertex -1.818653e+001 -1.050000e+001  1.500000e+001
    endloop
  endfacet
  facet normal  0.000000e+000  0.000000e+000  1.000000e+000
    outer loop
      vertex -2.500000e+001 -2.000000e+001  1.500000e+001
      vertex -1.818653e+001 -1.050000e+001  1.500000e+001
      vertex -1.903246e+001 -8.874984e+000  1.500000e+001
    endloop
  endfacet
  facet normal  0.000000e+000  0.000000e+000  1.000000e+000
    outer loop
      vertex -2.500000e+001 -2.000000e+001  1.500000e+001
      vertex -1.903246e+001 -8.874984e+000  1.500000e+001
      vertex -1.973355e+001 -7.182423e+000  1.500000e+001
    endloop
  endfacet
  facet normal  0.000000e+000  0.000000e+000  1.000000e+000
    outer loop
      vertex -2.500000e+001 -2.000000e+001  1.500000e+001
      vertex -1.973355e+001 -7.182423e+000  1.500000e+001
      vertex -2.028444e+001 -5.435200e+000  1.500000e+001
    endloop
  endfacet
  facet normal  0.000000e+000  0.000000e+000  1.000000e+000
    outer loop
      vertex -2.500000e+001 -2.000000e+001  1.500000e+001
      vertex -2.028444e+001 -5.435200e+000  1.500000e+001
      vertex -2.068096e+001 -3.646612e+000  1.500000e+001
    endloop
  endfacet
  facet normal  0.000000e+000  0.000000e+000  1.000000e+000
    outer loop
      vertex -2.500000e+001 -2.000000e+001  1.500000e+001
      vertex -2.068096e+001 -3.646612e+000  1.500000e+001
      vertex -2.092009e+001 -1.830271e+000  1.500000e+001
    endloop
  endfacet
  facet normal  0.000000e+000  0.000000e+000  1.000000e+000
    outer loop
      vertex -2.500000e+001 -2.000000e+001  1.500000e+001
      vertex -2.092009e+001 -1.830271e+000  1.500000e+001
      vertex -2.100000e+001  2.571758e-015  1.500000e+001
    endloop
  endfacet
  facet normal  0.000000e+000  -0.000000e+000  1.000000e+000
    outer loop
      vertex -2.500000e+001 -2.000000e+001  1.500000e+001
      vertex -2.100000e+001  2.571758e-015  1.500000e+001
      vertex -2.092009e+001  1.830271e+000  1.500000e+001
    endloop
  endfacet
  facet normal  0.000000e+000  -0.000000e+000  1.000000e+000
    outer loop
      vertex -2.500000e+001 -2.000000e+001  1.500000e+001
      vertex -2.092009e+001  1.830271e+000  1.500000e+001
      vertex -2.068096e+001  3.646612e+000  1.500000e+001
    endloop
  endfacet
  facet normal  0.000000e+000  0.000000e+000  1.000000e+000
    outer loop
      vertex -5.500000e+000 -2.400000e+001  1.500000e+001
      vertex  5.500000e+000 -2.400000e+001  1.500000e+001
      vertex -3.857637e-015 -2.100000e+001  1.500000e+001
    endloop
  endfacet
  facet normal  0.000000e+000  0.000000e+000  1.000000e+000
    outer loop
      vertex -5.500000e+000 -2.400000e+001  1.500000e+001
      vertex -3.857637e-015 -2.100000e+001  1.500000e+001
      vertex -1.830271e+000 -2.092009e+001  1.500000e+001
    endloop
  endfacet
  facet normal  0.000000e+000  0.000000e+000  1.000000e+000
    outer loop
      vertex -5.500000e+000 -2.400000e+001  1.500000e+001
      vertex -1.830271e+000 -2.092009e+001  1.500000e+001
      vertex -3.646612e+000 -2.068096e+001  1.500000e+001
    endloop
  endfacet
  facet normal  0.000000e+000  0.000000e+000  1.000000e+000
    outer loop
      vertex -5.500000e+000 -2.400000e+001  1.500000e+001
      vertex -3.646612e+000 -2.068096e+001  1.500000e+001
      vertex -5.435200e+000 -2.028444e+001  1.500000e+001
    endloop
  endfacet
  facet normal  0.000000e+000  0.000000e+000  1.000000e+000
    outer loop
      vertex  2.500000e+001 -2.000000e+001  1.500000e+001
      vertex  2.068096e+001  3.646612e+000  1.500000e+001
      vertex  2.092009e+001  1.830271e+000  1.500000e+001
    endloop
  endfacet
  facet normal  0.000000e+000  0.000000e+000  1.000000e+000
    outer loop
      vertex  2.500000e+001 -2.000000e+001  1.500000e+001
      vertex  2.092009e+001  1.830271e+000  1.500000e+001
      vertex  2.100000e+001  0.000000e+000  1.500000e+001
    endloop
  endfacet
  facet normal  0.000000e+000  0.000000e+000  1.000000e+000
    outer loop
      vertex  2.500000e+001 -2.000000e+001  1.500000e+001
      vertex  2.100000e+001  0.000000e+000  1.500000e+001
      vertex  2.092009e+001 -1.830271e+000  1.500000e+001
    endloop
  endfacet
  facet normal  0.000000e+000  0.000000e+000  1.000000e+000
    outer loop
      vertex  2.500000e+001 -2.000000e+001  1.500000e+001
      vertex  2.092009e+001 -1.830271e+000  1.500000e+001
      vertex  2.068096e+001 -3.646612e+000  1.500000e+001
    endloop
  endfacet
  facet normal  0.000000e+000  0.000000e+000  1.000000e+000
    outer loop
      vertex  2.500000e+001 -2.000000e+001  1.500000e+001
      vertex  2.068096e+001 -3.646612e+000  1.500000e+001
      vertex  2.028444e+001 -5.435200e+000  1.500000e+001
    endloop
  endfacet
  facet normal  0.000000e+000  0.000000e+000  1.000000e+000
    outer loop
      vertex  2.500000e+001 -2.000000e+001  1.500000e+001
      vertex  2.028444e+001 -5.435200e+000  1.500000e+001
      vertex  1.973355e+001 -7.182423e+000  1.500000e+001
    endloop
  endfacet
  facet normal  0.000000e+000  0.000000e+000  9.999999e-001
    outer loop
      vertex  2.500000e+001 -2.000000e+001  1.500000e+001
      vertex  1.973355e+001 -7.182423e+000  1.500000e+001
      vertex  1.903246e+001 -8.874984e+000  1.500000e+001
    endloop
  endfacet
  facet normal  0.000000e+000  0.000000e+000  1.000000e+000
    outer loop
      vertex  2.500000e+001 -2.000000e+001  1.500000e+001
      vertex  1.903246e+001 -8.874984e+000  1.500000e+001
      vertex  1.818653e+001 -1.050000e+001  1.500000e+001
    endloop
  endfacet
  facet normal  0.000000e+000  0.000000e+000  1.000000e+000
    outer loop
      vertex  2.500000e+001 -2.000000e+001  1.500000e+001
      vertex  1.818653e+001 -1.050000e+001  1.500000e+001
      vertex  1.720219e+001 -1.204510e+001  1.500000e+001
    endloop
  endfacet
  facet normal  0.000000e+000  0.000000e+000  9.999999e-001
    outer loop
      vertex  2.500000e+001 -2.000000e+001  1.500000e+001
      vertex  1.720219e+001 -1.204510e+001  1.500000e+001
      vertex  1.608693e+001 -1.349854e+001  1.500000e+001
    endloop
  endfacet
  facet normal  0.000000e+000  0.000000e+000  1.000000e+000
    outer loop
      vertex  2.500000e+001 -2.000000e+001  1.500000e+001
      vertex  1.608693e+001 -1.349854e+001  1.500000e+001
      vertex  1.484924e+001 -1.484924e+001  1.500000e+001
    endloop
  endfacet
  facet normal  0.000000e+000  0.000000e+000  1.000000e+000
    outer loop
      vertex  2.500000e+001 -2.000000e+001  1.500000e+001
      vertex  1.484924e+001 -1.484924e+001  1.500000e+001
      vertex  1.349854e+001 -1.608693e+001  1.500000e+001
    endloop
  endfacet
  facet normal  0.000000e+000  0.000000e+000  1.000000e+000
    outer loop
      vertex  2.500000e+001 -2.000000e+001  1.500000e+001
      vertex  1.349854e+001 -1.608693e+001  1.500000e+001
      vertex  1.204510e+001 -1.720219e+001  1.500000e+001
    endloop
  endfacet
  facet normal  0.000000e+000  0.000000e+000  1.000000e+000
    outer loop
      vertex  2.500000e+001 -2.000000e+001  1.500000e+001
      vertex  1.204510e+001 -1.720219e+001  1.500000e+001
      vertex  1.050000e+001 -1.818653e+001  1.500000e+001
    endloop
  endfacet
  facet normal  0.000000e+000  0.000000e+000  1.000000e+000
    outer loop
      vertex  2.500000e+001 -2.000000e+001  1.500000e+001
      vertex  1.050000e+001 -1.818653e+001  1.500000e+001
      vertex  8.874984e+000 -1.903246e+001  1.500000e+001
    endloop
  endfacet
  facet normal  0.000000e+000  0.000000e+000  1.000000e+000
    outer loop
      vertex  2.500000e+001 -2.000000e+001  1.500000e+001
      vertex  8.874984e+000 -1.903246e+001  1.500000e+001
      vertex  7.182423e+000 -1.973355e+001  1.500000e+001
    endloop
  endfacet
  facet normal  0.000000e+000  0.000000e+000  1.000000e+000
    outer loop
      vertex  5.500000e+000 -2.400000e+001  1.500000e+001
      vertex  5.435200e+000 -2.028444e+001  1.500000e+001
      vertex  3.646612e+000 -2.068096e+001  1.500000e+001
    endloop
  endfacet
  facet normal  0.000000e+000  0.000000e+000  1.000000e+000
    outer loop
      vertex  5.500000e+000 -2.400000e+001  1.500000e+001
      vertex  3.646612e+000 -2.068096e+001  1.500000e+001
      vertex  1.830271e+000 -2.092009e+001  1.500000e+001
    endloop
  endfacet
  facet normal  0.000000e+000  0.000000e+000  1.000000e+000
    outer loop
      vertex  5.500000e+000 -2.400000e+001  1.500000e+001
      vertex  1.830271e+000 -2.092009e+001  1.500000e+001
      vertex -3.857637e-015 -2.100000e+001  1.500000e+001
    endloop
  endfacet
  facet normal  0.000000e+000  -0.000000e+000  1.000000e+000
    outer loop
      vertex -1.000000e+001  4.000000e+001  1.500000e+001
      vertex -5.500000e+000  3.500000e+001  1.500000e+001
      vertex  1.000000e+001  4.000000e+001  1.500000e+001
    endloop
  endfacet
  facet normal  0.000000e+000  0.000000e+000  9.999999e-001
    outer loop
      vertex  1.000000e+001  4.000000e+001  1.500000e+001
      vertex -5.500000e+000  3.500000e+001  1.500000e+001
      vertex  5.500000e+000  3.500000e+001  1.500000e+001
    endloop
  endfacet
  facet normal  0.000000e+000  0.000000e+000 -1.000000e+000
    outer loop
      vertex  2.500000e+001  2.000000e+001  0.000000e+000
      vertex  2.500000e+001 -2.000000e+001  0.000000e+000
      vertex  2.068096e+001  3.646612e+000  0.000000e+000
    endloop
  endfacet
  facet normal  0.000000e+000  0.000000e+000 -1.000000e+000
    outer loop
      vertex  2.500000e+001  2.000000e+001  0.000000e+000
      vertex  2.068096e+001  3.646612e+000  0.000000e+000
      vertex  2.028444e+001  5.435200e+000  0.000000e+000
    endloop
  endfacet
  facet normal  0.000000e+000  0.000000e+000 -1.000000e+000
    outer loop
      vertex  2.500000e+001  2.000000e+001  0.000000e+000
      vertex  2.028444e+001  5.435200e+000  0.000000e+000
      vertex  1.973355e+001  7.182423e+000  0.000000e+000
    endloop
  endfacet
  facet normal  0.000000e+000  0.000000e+000 -9.999999e-001
    outer loop
      vertex  2.500000e+001  2.000000e+001  0.000000e+000
      vertex  1.973355e+001  7.182423e+000  0.000000e+000
      vertex  1.903246e+001  8.874984e+000  0.000000e+000
    endloop
  endfacet
  facet normal  0.000000e+000  0.000000e+000 -1.000000e+000
    outer loop
      vertex  2.500000e+001  2.000000e+001  0.000000e+000
      vertex  1.903246e+001  8.874984e+000  0.000000e+000
      vertex  1.818653e+001  1.050000e+001  0.000000e+000
    endloop
  endfacet
  facet normal  0.000000e+000  0.000000e+000 -1.000000e+000
    outer loop
      vertex  2.500000e+001  2.000000e+001  0.000000e+000
      vertex  1.818653e+001  1.050000e+001  0.000000e+000
      vertex  1.720219e+001  1.204510e+001  0.000000e+000
    endloop
  endfacet
  facet normal  0.000000e+000  0.000000e+000 -9.999999e-001
    outer loop
      vertex  2.500000e+001  2.000000e+001  0.000000e+000
      vertex  1.720219e+001  1.204510e+001  0.000000e+000
      vertex  1.608693e+001  1.349854e+001  0.000000e+000
    endloop
  endfacet
  facet normal  0.000000e+000  0.000000e+000 -1.000000e+000
    outer loop
      vertex  2.500000e+001  2.000000e+001  0.000000e+000
      vertex  1.608693e+001  1.349854e+001  0.000000e+000
      vertex  1.484924e+001  1.484924e+001  0.000000e+000
    endloop
  endfacet
  facet normal  0.000000e+000  0.000000e+000 -1.000000e+000
    outer loop
      vertex  2.500000e+001  2.000000e+001  0.000000e+000
      vertex  1.484924e+001  1.484924e+001  0.000000e+000
      vertex  1.349854e+001  1.608693e+001  0.000000e+000
    endloop
  endfacet
  facet normal  0.000000e+000  0.000000e+000 -1.000000e+000
    outer loop
      vertex  2.500000e+001  2.000000e+001  0.000000e+000
      vertex  1.349854e+001  1.608693e+001  0.000000e+000
      vertex  1.204510e+001  1.720219e+001  0.000000e+000
    endloop
  endfacet
  facet normal  0.000000e+000  0.000000e+000 -1.000000e+000
    outer loop
      vertex  2.500000e+001  2.000000e+001  0.000000e+000
      vertex  1.204510e+001  1.720219e+001  0.000000e+000
      vertex  1.050000e+001  1.818653e+001  0.000000e+000
    endloop
  endfacet
  facet normal  0.000000e+000  0.000000e+000 -1.000000e+000
    outer loop
      vertex  2.500000e+001  2.000000e+001  0.000000e+000
      vertex  1.050000e+001  1.818653e+001  0.000000e+000
      vertex  8.874984e+000  1.903246e+001  0.000000e+000
    endloop
  endfacet
  facet normal  0.000000e+000  0.000000e+000 -1.000000e+000
    outer loop
      vertex  2.500000e+001  2.000000e+001  0.000000e+000
      vertex  8.874984e+000  1.903246e+001  0.000000e+000
      vertex  7.182423e+000  1.973355e+001  0.000000e+000
    endloop
  endfacet
  facet normal  0.000000e+000  0.000000e+000 -1.000000e+000
    outer loop
      vertex  2.500000e+001  2.000000e+001  0.000000e+000
      vertex  7.182423e+000  1.973355e+001  0.000000e+000
      vertex  5.435200e+000  2.028444e+001  0.000000e+000
    endloop
  endfacet
  facet normal  0.000000e+000  0.000000e+000 -9.999999e-001
    outer loop
      vertex  2.500000e+001  2.000000e+001  0.000000e+000
      vertex  5.435200e+000  2.028444e+001  0.000000e+000
      vertex  3.646612e+000  2.068096e+001  0.000000e+000
    endloop
  endfacet
  facet normal  0.000000e+000  0.000000e+000 -1.000000e+000
    outer loop
      vertex  2.500000e+001  2.000000e+001  0.000000e+000
      vertex  3.646612e+000  2.068096e+001  0.000000e+000
      vertex  1.830271e+000  2.092009e+001  0.000000e+000
    endloop
  endfacet
  facet normal  0.000000e+000  0.000000e+000 -1.000000e+000
    outer loop
      vertex  2.500000e+001  2.000000e+001  0.000000e+000
      vertex  1.830271e+000  2.092009e+001  0.000000e+000
      vertex  1.285879e-015  2.100000e+001  0.000000e+000
    endloop
  endfacet
  facet normal  0.000000e+000  0.000000e+000 -1.000000e+000
    outer loop
      vertex  2.500000e+001  2.000000e+001  0.000000e+000
      vertex  1.285879e-015  2.100000e+001  0.000000e+000
      vertex -5.500000e+000  2.400000e+001  0.000000e+000
    endloop
  endfacet
  facet normal  0.000000e+000  0.000000e+000 -1.000000e+000
    outer loop
      vertex  2.500000e+001  2.000000e+001  0.000000e+000
      vertex -5.500000e+000  2.400000e+001  0.000000e+000
      vertex  5.500000e+000  2.400000e+001  0.000000e+000
    endloop
  endfacet
  facet normal  0.000000e+000  0.000000e+000 -1.000000e+000
    outer loop
      vertex  2.500000e+001  2.000000e+001  0.000000e+000
      vertex  5.500000e+000  2.400000e+001  0.000000e+000
      vertex  5.500000e+000  3.500000e+001  0.000000e+000
    endloop
  endfacet
  facet normal  0.000000e+000  0.000000e+000 -9.999999e-001
    outer loop
      vertex  2.500000e+001  2.000000e+001  0.000000e+000
      vertex  5.500000e+000  3.500000e+001  0.000000e+000
      vertex  1.000000e+001  4.000000e+001  0.000000e+000
    endloop
  endfacet
  facet normal  0.000000e+000  0.000000e+000 -1.000000e+000
    outer loop
      vertex  1.000000e+001 -4.000000e+001  0.000000e+000
      vertex -1.000000e+001 -4.000000e+001  0.000000e+000
      vertex -5.500000e+000 -3.500000e+001  0.000000e+000
    endloop
  endfacet
  facet normal  0.000000e+000  0.000000e+000 -9.999999e-001
    outer loop
      vertex  1.000000e+001 -4.000000e+001  0.000000e+000
      vertex -5.500000e+000 -3.500000e+001  0.000000e+000
      vertex  5.500000e+000 -3.500000e+001  0.000000e+000
    endloop
  endfacet
  facet normal  0.000000e+000  0.000000e+000 -1.000000e+000
    outer loop
      vertex  1.000000e+001 -4.000000e+001  0.000000e+000
      vertex  5.500000e+000 -3.500000e+001  0.000000e+000
      vertex  5.500000e+000 -2.400000e+001  0.000000e+000
    endloop
  endfacet
  facet normal  0.000000e+000  0.000000e+000 -1.000000e+000
    outer loop
      vertex  1.000000e+001 -4.000000e+001  0.000000e+000
      vertex  5.500000e+000 -2.400000e+001  0.000000e+000
      vertex  5.435200e+000 -2.028444e+001  0.000000e+000
    endloop
  endfacet
  facet normal  0.000000e+000  0.000000e+000 -1.000000e+000
    outer loop
      vertex  1.000000e+001 -4.000000e+001  0.000000e+000
      vertex  5.435200e+000 -2.028444e+001  0.000000e+000
      vertex  7.182423e+000 -1.973355e+001  0.000000e+000
    endloop
  endfacet
  facet normal  0.000000e+000  0.000000e+000 -1.000000e+000
    outer loop
      vertex  1.000000e+001 -4.000000e+001  0.000000e+000
      vertex  7.182423e+000 -1.973355e+001  0.000000e+000
      vertex  2.500000e+001 -2.000000e+001  0.000000e+000
    endloop
  endfacet
  facet normal  0.000000e+000  0.000000e+000 -1.000000e+000
    outer loop
      vertex -1.000000e+001 -4.000000e+001  0.000000e+000
      vertex -2.500000e+001 -2.000000e+001  0.000000e+000
      vertex -7.182423e+000 -1.973355e+001  0.000000e+000
    endloop
  endfacet
  facet normal  0.000000e+000  -0.000000e+000 -1.000000e+000
    outer loop
      vertex -1.000000e+001 -4.000000e+001  0.000000e+000
      vertex -7.182423e+000 -1.973355e+001  0.000000e+000
      vertex -5.435200e+000 -2.028444e+001  0.000000e+000
    endloop
  endfacet
  facet normal  0.000000e+000  0.000000e+000 -1.000000e+000
    outer loop
      vertex -1.000000e+001 -4.000000e+001  0.000000e+000
      vertex -5.435200e+000 -2.028444e+001  0.000000e+000
      vertex -5.500000e+000 -2.400000e+001  0.000000e+000
    endloop
  endfacet
  facet normal  0.000000e+000  -0.000000e+000 -1.000000e+000
    outer loop
      vertex -1.000000e+001 -4.000000e+001  0.000000e+000
      vertex -5.500000e+000 -2.400000e+001  0.000000e+000
      vertex -5.500000e+000 -3.500000e+001  0.000000e+000
    endloop
  endfacet
  facet normal  0.000000e+000  -0.000000e+000 -9.999999e-001
    outer loop
      vertex -2.500000e+001  2.000000e+001  0.000000e+000
      vertex -1.000000e+001  4.000000e+001  0.000000e+000
      vertex -5.500000e+000  3.500000e+001  0.000000e+000
    endloop
  endfacet
  facet normal  0.000000e+000  -0.000000e+000 -1.000000e+000
    outer loop
      vertex -2.500000e+001  2.000000e+001  0.000000e+000
      vertex -5.500000e+000  3.500000e+001  0.000000e+000
      vertex -5.500000e+000  2.400000e+001  0.000000e+000
    endloop
  endfacet
  facet normal  0.000000e+000  -0.000000e+000 -1.000000e+000
    outer loop
      vertex -2.500000e+001  2.000000e+001  0.000000e+000
      vertex -5.500000e+000  2.400000e+001  0.000000e+000
      vertex  1.285879e-015  2.100000e+001  0.000000e+000
    endloop
  endfacet
  facet normal  0.000000e+000  0.000000e+000 -1.000000e+000
    outer loop
      vertex -2.500000e+001  2.000000e+001  0.000000e+000
      vertex  1.285879e-015  2.100000e+001  0.000000e+000
      vertex -1.830271e+000  2.092009e+001  0.000000e+000
    endloop
  endfacet
  facet normal  0.000000e+000  0.000000e+000 -1.000000e+000
    outer loop
      vertex -2.500000e+001  2.000000e+001  0.000000e+000
      vertex -1.830271e+000  2.092009e+001  0.000000e+000
      vertex -3.646612e+000  2.068096e+001  0.000000e+000
    endloop
  endfacet
  facet normal  0.000000e+000  0.000000e+000 -1.000000e+000
    outer loop
      vertex -2.500000e+001  2.000000e+001  0.000000e+000
      vertex -3.646612e+000  2.068096e+001  0.000000e+000
      vertex -5.435200e+000  2.028444e+001  0.000000e+000
    endloop
  endfacet
  facet normal  0.000000e+000  0.000000e+000 -9.999999e-001
    outer loop
      vertex -2.500000e+001  2.000000e+001  0.000000e+000
      vertex -5.435200e+000  2.028444e+001  0.000000e+000
      vertex -7.182423e+000  1.973355e+001  0.000000e+000
    endloop
  endfacet
  facet normal  -0.000000e+000  0.000000e+000 -1.000000e+000
    outer loop
      vertex -2.500000e+001  2.000000e+001  0.000000e+000
      vertex -7.182423e+000  1.973355e+001  0.000000e+000
      vertex -8.874984e+000  1.903246e+001  0.000000e+000
    endloop
  endfacet
  facet normal  -0.000000e+000  0.000000e+000 -1.000000e+000
    outer loop
      vertex -2.500000e+001  2.000000e+001  0.000000e+000
      vertex -8.874984e+000  1.903246e+001  0.000000e+000
      vertex -1.050000e+001  1.818653e+001  0.000000e+000
    endloop
  endfacet
  facet normal  -0.000000e+000  0.000000e+000 -1.000000e+000
    outer loop
      vertex -2.500000e+001  2.000000e+001  0.000000e+000
      vertex -1.050000e+001  1.818653e+001  0.000000e+000
      vertex -1.204510e+001  1.720219e+001  0.000000e+000
    endloop
  endfacet
  facet normal  -0.000000e+000  0.000000e+000 -1.000000e+000
    outer loop
      vertex -2.500000e+001  2.000000e+001  0.000000e+000
      vertex -1.204510e+001  1.720219e+001  0.000000e+000
      vertex -1.349854e+001  1.608693e+001  0.000000e+000
    endloop
  endfacet
  facet normal  -0.000000e+000  0.000000e+000 -1.000000e+000
    outer loop
      vertex -2.500000e+001  2.000000e+001  0.000000e+000
      vertex -1.349854e+001  1.608693e+001  0.000000e+000
      vertex -1.484924e+001  1.484924e+001  0.000000e+000
    endloop
  endfacet
  facet normal  -0.000000e+000  0.000000e+000 -1.000000e+000
    outer loop
      vertex -2.500000e+001  2.000000e+001  0.000000e+000
      vertex -1.484924e+001  1.484924e+001  0.000000e+000
      vertex -1.608693e+001  1.349854e+001  0.000000e+000
    endloop
  endfacet
  facet normal  -0.000000e+000  0.000000e+000 -9.999999e-001
    outer loop
      vertex -2.500000e+001  2.000000e+001  0.000000e+000
      vertex -1.608693e+001  1.349854e+001  0.000000e+000
      vertex -1.720219e+001  1.204510e+001  0.000000e+000
    endloop
  endfacet
  facet normal  -0.000000e+000  0.000000e+000 -1.000000e+000
    outer loop
      vertex -2.500000e+001  2.000000e+001  0.000000e+000
      vertex -1.720219e+001  1.204510e+001  0.000000e+000
      vertex -1.818653e+001  1.050000e+001  0.000000e+000
    endloop
  endfacet
  facet normal  -0.000000e+000  0.000000e+000 -1.000000e+000
    outer loop
      vertex -2.500000e+001  2.000000e+001  0.000000e+000
      vertex -1.818653e+001  1.050000e+001  0.000000e+000
      vertex -1.903246e+001  8.874984e+000  0.000000e+000
    endloop
  endfacet
  facet normal  -0.000000e+000  0.000000e+000 -1.000000e+000
    outer loop
      vertex -2.500000e+001  2.000000e+001  0.000000e+000
      vertex -1.903246e+001  8.874984e+000  0.000000e+000
      vertex -1.973355e+001  7.182423e+000  0.000000e+000
    endloop
  endfacet
  facet normal  -0.000000e+000  0.000000e+000 -1.000000e+000
    outer loop
      vertex -2.500000e+001  2.000000e+001  0.000000e+000
      vertex -1.973355e+001  7.182423e+000  0.000000e+000
      vertex -2.028444e+001  5.435200e+000  0.000000e+000
    endloop
  endfacet
  facet normal  -0.000000e+000  0.000000e+000 -1.000000e+000
    outer loop
      vertex -2.500000e+001  2.000000e+001  0.000000e+000
      vertex -2.028444e+001  5.435200e+000  0.000000e+000
      vertex -2.068096e+001  3.646612e+000  0.000000e+000
    endloop
  endfacet
  facet normal  -0.000000e+000  0.000000e+000 -1.000000e+000
    outer loop
      vertex -2.500000e+001  2.000000e+001  0.000000e+000
      vertex -2.068096e+001  3.646612e+000  0.000000e+000
      vertex -2.500000e+001 -2.000000e+001  0.000000e+000
    endloop
  endfacet
  facet normal  0.000000e+000  0.000000e+000 -1.000000e+000
    outer loop
      vertex -2.500000e+001 -2.000000e+001  0.000000e+000
      vertex -2.068096e+001  3.646612e+000  0.000000e+000
      vertex -2.092009e+001  1.830271e+000  0.000000e+000
    endloop
  endfacet
  facet normal  0.000000e+000  0.000000e+000 -1.000000e+000
    outer loop
      vertex -2.500000e+001 -2.000000e+001  0.000000e+000
      vertex -2.092009e+001  1.830271e+000  0.000000e+000
      vertex -2.100000e+001  2.571758e-015  0.000000e+000
    endloop
  endfacet
  facet normal  0.000000e+000  -0.000000e+000 -1.000000e+000
    outer loop
      vertex -2.500000e+001 -2.000000e+001  0.000000e+000
      vertex -2.100000e+001  2.571758e-015  0.000000e+000
      vertex -2.092009e+001 -1.830271e+000  0.000000e+000
    endloop
  endfacet
  facet normal  0.000000e+000  -0.000000e+000 -1.000000e+000
    outer loop
      vertex -2.500000e+001 -2.000000e+001  0.000000e+000
      vertex -2.092009e+001 -1.830271e+000  0.000000e+000
      vertex -2.068096e+001 -3.646612e+000  0.000000e+000
    endloop
  endfacet
  facet normal  0.000000e+000  -0.000000e+000 -1.000000e+000
    outer loop
      vertex -2.500000e+001 -2.000000e+001  0.000000e+000
      vertex -2.068096e+001 -3.646612e+000  0.000000e+000
      vertex -2.028444e+001 -5.435200e+000  0.000000e+000
    endloop
  endfacet
  facet normal  0.000000e+000  -0.000000e+000 -1.000000e+000
    outer loop
      vertex -2.500000e+001 -2.000000e+001  0.000000e+000
      vertex -2.028444e+001 -5.435200e+000  0.000000e+000
      vertex -1.973355e+001 -7.182423e+000  0.000000e+000
    endloop
  endfacet
  facet normal  0.000000e+000  -0.000000e+000 -9.999999e-001
    outer loop
      vertex -2.500000e+001 -2.000000e+001  0.000000e+000
      vertex -1.973355e+001 -7.182423e+000  0.000000e+000
      vertex -1.903246e+001 -8.874984e+000  0.000000e+000
    endloop
  endfacet
  facet normal  0.000000e+000  -0.000000e+000 -1.000000e+000
    outer loop
      vertex -2.500000e+001 -2.000000e+001  0.000000e+000
      vertex -1.903246e+001 -8.874984e+000  0.000000e+000
      vertex -1.818653e+001 -1.050000e+001  0.000000e+000
    endloop
  endfacet
  facet normal  0.000000e+000  -0.000000e+000 -1.000000e+000
    outer loop
      vertex -2.500000e+001 -2.000000e+001  0.000000e+000
      vertex -1.818653e+001 -1.050000e+001  0.000000e+000
      vertex -1.720219e+001 -1.204510e+001  0.000000e+000
    endloop
  endfacet
  facet normal  0.000000e+000  -0.000000e+000 -9.999999e-001
    outer loop
      vertex -2.500000e+001 -2.000000e+001  0.000000e+000
      vertex -1.720219e+001 -1.204510e+001  0.000000e+000
      vertex -1.608693e+001 -1.349854e+001  0.000000e+000
    endloop
  endfacet
  facet normal  0.000000e+000  -0.000000e+000 -1.000000e+000
    outer loop
      vertex -2.500000e+001 -2.000000e+001  0.000000e+000
      vertex -1.608693e+001 -1.349854e+001  0.000000e+000
      vertex -1.484924e+001 -1.484924e+001  0.000000e+000
    endloop
  endfacet
  facet normal  0.000000e+000  -0.000000e+000 -1.000000e+000
    outer loop
      vertex -2.500000e+001 -2.000000e+001  0.000000e+000
      vertex -1.484924e+001 -1.484924e+001  0.000000e+000
      vertex -1.349854e+001 -1.608693e+001  0.000000e+000
    endloop
  endfacet
  facet normal  0.000000e+000  -0.000000e+000 -1.000000e+000
    outer loop
      vertex -2.500000e+001 -2.000000e+001  0.000000e+000
      vertex -1.349854e+001 -1.608693e+001  0.000000e+000
      vertex -1.204510e+001 -1.720219e+001  0.000000e+000
    endloop
  endfacet
  facet normal  0.000000e+000  -0.000000e+000 -1.000000e+000
    outer loop
      vertex -2.500000e+001 -2.000000e+001  0.000000e+000
      vertex -1.204510e+001 -1.720219e+001  0.000000e+000
      vertex -1.050000e+001 -1.818653e+001  0.000000e+000
    endloop
  endfacet
  facet normal  0.000000e+000  -0.000000e+000 -1.000000e+000
    outer loop
      vertex -2.500000e+001 -2.000000e+001  0.000000e+000
      vertex -1.050000e+001 -1.818653e+001  0.000000e+000
      vertex -8.874984e+000 -1.903246e+001  0.000000e+000
    endloop
  endfacet
  facet normal  0.000000e+000  -0.000000e+000 -1.000000e+000
    outer loop
      vertex -2.500000e+001 -2.000000e+001  0.000000e+000
      vertex -8.874984e+000 -1.903246e+001  0.000000e+000
      vertex -7.182423e+000 -1.973355e+001  0.000000e+000
    endloop
  endfacet
  facet normal  0.000000e+000  -0.000000e+000 -1.000000e+000
    outer loop
      vertex -5.500000e+000 -2.400000e+001  0.000000e+000
      vertex -5.435200e+000 -2.028444e+001  0.000000e+000
      vertex -3.646612e+000 -2.068096e+001  0.000000e+000
    endloop
  endfacet
  facet normal  0.000000e+000  -0.000000e+000 -1.000000e+000
    outer loop
      vertex -5.500000e+000 -2.400000e+001  0.000000e+000
      vertex -3.646612e+000 -2.068096e+001  0.000000e+000
      vertex -1.830271e+000 -2.092009e+001  0.000000e+000
    endloop
  endfacet
  facet normal  0.000000e+000  -0.000000e+000 -1.000000e+000
    outer loop
      vertex -5.500000e+000 -2.400000e+001  0.000000e+000
      vertex -1.830271e+000 -2.092009e+001  0.000000e+000
      vertex -3.857637e-015 -2.100000e+001  0.000000e+000
    endloop
  endfacet
  facet normal  0.000000e+000  -0.000000e+000 -1.000000e+000
    outer loop
      vertex -5.500000e+000 -2.400000e+001  0.000000e+000
      vertex -3.857637e-015 -2.100000e+001  0.000000e+000
      vertex  5.500000e+000 -2.400000e+001  0.000000e+000
    endloop
  endfacet
  facet normal  0.000000e+000  0.000000e+000 -1.000000e+000
    outer loop
      vertex  2.500000e+001 -2.000000e+001  0.000000e+000
      vertex  7.182423e+000 -1.973355e+001  0.000000e+000
      vertex  8.874984e+000 -1.903246e+001  0.000000e+000
    endloop
  endfacet
  facet normal  0.000000e+000  0.000000e+000 -1.000000e+000
    outer loop
      vertex  2.500000e+001 -2.000000e+001  0.000000e+000
      vertex  8.874984e+000 -1.903246e+001  0.000000e+000
      vertex  1.050000e+001 -1.818653e+001  0.000000e+000
    endloop
  endfacet
  facet normal  0.000000e+000  0.000000e+000 -1.000000e+000
    outer loop
      vertex  2.500000e+001 -2.000000e+001  0.000000e+000
      vertex  1.050000e+001 -1.818653e+001  0.000000e+000
      vertex  1.204510e+001 -1.720219e+001  0.000000e+000
    endloop
  endfacet
  facet normal  0.000000e+000  0.000000e+000 -1.000000e+000
    outer loop
      vertex  2.500000e+001 -2.000000e+001  0.000000e+000
      vertex  1.204510e+001 -1.720219e+001  0.000000e+000
      vertex  1.349854e+001 -1.608693e+001  0.000000e+000
    endloop
  endfacet
  facet normal  0.000000e+000  0.000000e+000 -1.000000e+000
    outer loop
      vertex  2.500000e+001 -2.000000e+001  0.000000e+000
      vertex  1.349854e+001 -1.608693e+001  0.000000e+000
      vertex  1.484924e+001 -1.484924e+001  0.000000e+000
    endloop
  endfacet
  facet normal  0.000000e+000  0.000000e+000 -1.000000e+000
    outer loop
      vertex  2.500000e+001 -2.000000e+001  0.000000e+000
      vertex  1.484924e+001 -1.484924e+001  0.000000e+000
      vertex  1.608693e+001 -1.349854e+001  0.000000e+000
    endloop
  endfacet
  facet normal  0.000000e+000  0.000000e+000 -9.999999e-001
    outer loop
      vertex  2.500000e+001 -2.000000e+001  0.000000e+000
      vertex  1.608693e+001 -1.349854e+001  0.000000e+000
      vertex  1.720219e+001 -1.204510e+001  0.000000e+000
    endloop
  endfacet
  facet normal  0.000000e+000  0.000000e+000 -1.000000e+000
    outer loop
      vertex  2.500000e+001 -2.000000e+001  0.000000e+000
      vertex  1.720219e+001 -1.204510e+001  0.000000e+000
      vertex  1.818653e+001 -1.050000e+001  0.000000e+000
    endloop
  endfacet
  facet normal  0.000000e+000  0.000000e+000 -1.000000e+000
    outer loop
      vertex  2.500000e+001 -2.000000e+001  0.000000e+000
      vertex  1.818653e+001 -1.050000e+001  0.000000e+000
      vertex  1.903246e+001 -8.874984e+000  0.000000e+000
    endloop
  endfacet
  facet normal  0.000000e+000  0.000000e+000 -1.000000e+000
    outer loop
      vertex  2.500000e+001 -2.000000e+001  0.000000e+000
      vertex  1.903246e+001 -8.874984e+000  0.000000e+000
      vertex  1.973355e+001 -7.182423e+000  0.000000e+000
    endloop
  endfacet
  facet normal  0.000000e+000  0.000000e+000 -1.000000e+000
    outer loop
      vertex  2.500000e+001 -2.000000e+001  0.000000e+000
      vertex  1.973355e+001 -7.182423e+000  0.000000e+000
      vertex  2.028444e+001 -5.435200e+000  0.000000e+000
    endloop
  endfacet
  facet normal  0.000000e+000  0.000000e+000 -1.000000e+000
    outer loop
      vertex  2.500000e+001 -2.000000e+001  0.000000e+000
      vertex  2.028444e+001 -5.435200e+000  0.000000e+000
      vertex  2.068096e+001 -3.646612e+000  0.000000e+000
    endloop
  endfacet
  facet normal  0.000000e+000  0.000000e+000 -1.000000e+000
    outer loop
      vertex  2.500000e+001 -2.000000e+001  0.000000e+000
      vertex  2.068096e+001 -3.646612e+000  0.000000e+000
      vertex  2.092009e+001 -1.830271e+000  0.000000e+000
    endloop
  endfacet
  facet normal  0.000000e+000  0.000000e+000 -1.000000e+000
    outer loop
      vertex  2.500000e+001 -2.000000e+001  0.000000e+000
      vertex  2.092009e+001 -1.830271e+000  0.000000e+000
      vertex  2.100000e+001  0.000000e+000  0.000000e+000
    endloop
  endfacet
  facet normal  0.000000e+000  0.000000e+000 -1.000000e+000
    outer loop
      vertex  2.500000e+001 -2.000000e+001  0.000000e+000
      vertex  2.100000e+001  0.000000e+000  0.000000e+000
      vertex  2.092009e+001  1.830271e+000  0.000000e+000
    endloop
  endfacet
  facet normal  0.000000e+000  0.000000e+000 -1.000000e+000
    outer loop
      vertex  2.500000e+001 -2.000000e+001  0.000000e+000
      vertex  2.092009e+001  1.830271e+000  0.000000e+000
      vertex  2.068096e+001  3.646612e+000  0.000000e+000
    endloop
  endfacet
  facet normal  0.000000e+000  0.000000e+000 -1.000000e+000
    outer loop
      vertex  5.500000e+000 -2.400000e+001  0.000000e+000
      vertex -3.857637e-015 -2.100000e+001  0.000000e+000
      vertex  1.830271e+000 -2.092009e+001  0.000000e+000
    endloop
  endfacet
  facet normal  0.000000e+000  0.000000e+000 -1.000000e+000
    outer loop
      vertex  5.500000e+000 -2.400000e+001  0.000000e+000
      vertex  1.830271e+000 -2.092009e+001  0.000000e+000
      vertex  3.646612e+000 -2.068096e+001  0.000000e+000
    endloop
  endfacet
  facet normal  0.000000e+000  0.000000e+000 -1.000000e+000
    outer loop
      vertex  5.500000e+000 -2.400000e+001  0.000000e+000
      vertex  3.646612e+000 -2.068096e+001  0.000000e+000
      vertex  5.435200e+000 -2.028444e+001  0.000000e+000
    endloop
  endfacet
  facet normal  -0.000000e+000  0.000000e+000 -1.000000e+000
    outer loop
      vertex -1.000000e+001  4.000000e+001  0.000000e+000
      vertex  1.000000e+001  4.000000e+001  0.000000e+000
      vertex -5.500000e+000  3.500000e+001  0.000000e+000
    endloop
  endfacet
  facet normal  0.000000e+000  0.000000e+000 -9.999999e-001
    outer loop
      vertex -5.500000e+000  3.500000e+001  0.000000e+000
      vertex  1.000000e+001  4.000000e+001  0.000000e+000
      vertex  5.500000e+000  3.500000e+001  0.000000e+000
    endloop
  endfacet
  facet normal  9.999999e-001  -0.000000e+000  0.000000e+000
    outer loop
      vertex -5.500000e+000 -2.400000e+001  1.500000e+001
      vertex -5.500000e+000 -3.500000e+001  1.500000e+001
      vertex -5.500000e+000 -2.400000e+001  0.000000e+000
    endloop
  endfacet
  facet normal  9.999999e-001  0.000000e+000  0.000000e+000
    outer loop
      vertex -5.500000e+000 -2.400000e+001  0.000000e+000
      vertex -5.500000e+000 -3.500000e+001  1.500000e+001
      vertex -5.500000e+000 -3.500000e+001  0.000000e+000
    endloop
  endfacet
  facet normal  0.000000e+000  9.999999e-001  0.000000e+000
    outer loop
      vertex  5.500000e+000 -3.500000e+001  0.000000e+000
      vertex -5.500000e+000 -3.500000e+001  0.000000e+000
      vertex  5.500000e+000 -3.500000e+001  1.500000e+001
    endloop
  endfacet
  facet normal  0.000000e+000  9.999999e-001  0.000000e+000
    outer loop
      vertex  5.500000e+000 -3.500000e+001  1.500000e+001
      vertex -5.500000e+000 -3.500000e+001  0.000000e+000
      vertex -5.500000e+000 -3.500000e+001  1.500000e+001
    endloop
  endfacet
  facet normal -9.999999e-001  -0.000000e+000  0.000000e+000
    outer loop
      vertex  5.500000e+000 -3.500000e+001  1.500000e+001
      vertex  5.500000e+000 -2.400000e+001  1.500000e+001
      vertex  5.500000e+000 -3.500000e+001  0.000000e+000
    endloop
  endfacet
  facet normal -9.999999e-001  0.000000e+000  0.000000e+000
    outer loop
      vertex  5.500000e+000 -3.500000e+001  0.000000e+000
      vertex  5.500000e+000 -2.400000e+001  1.500000e+001
      vertex  5.500000e+000 -2.400000e+001  0.000000e+000
    endloop
  endfacet
  facet normal  0.000000e+000 -9.999999e-001  0.000000e+000
    outer loop
      vertex -5.500000e+000 -2.400000e+001  0.000000e+000
      vertex  5.500000e+000 -2.400000e+001  0.000000e+000
      vertex -5.500000e+000 -2.400000e+001  1.500000e+001
    endloop
  endfacet
  facet normal  0.000000e+000 -9.999999e-001  0.000000e+000
    outer loop
      vertex -5.500000e+000 -2.400000e+001  1.500000e+001
      vertex  5.500000e+000 -2.400000e+001  0.000000e+000
      vertex  5.500000e+000 -2.400000e+001  1.500000e+001
    endloop
  endfacet
  facet normal  9.999999e-001  -0.000000e+000  0.000000e+000
    outer loop
      vertex -5.500000e+000  3.500000e+001  1.500000e+001
      vertex -5.500000e+000  2.400000e+001  1.500000e+001
      vertex -5.500000e+000  3.500000e+001  0.000000e+000
    endloop
  endfacet
  facet normal  9.999999e-001  0.000000e+000  0.000000e+000
    outer loop
      vertex -5.500000e+000  3.500000e+001  0.000000e+000
      vertex -5.500000e+000  2.400000e+001  1.500000e+001
      vertex -5.500000e+000  2.400000e+001  0.000000e+000
    endloop
  endfacet
  facet normal  0.000000e+000  9.999999e-001  0.000000e+000
    outer loop
      vertex  5.500000e+000  2.400000e+001  0.000000e+000
      vertex -5.500000e+000  2.400000e+001  0.000000e+000
      vertex  5.500000e+000  2.400000e+001  1.500000e+001
    endloop
  endfacet
  facet normal  0.000000e+000  9.999999e-001  0.000000e+000
    outer loop
      vertex  5.500000e+000  2.400000e+001  1.500000e+001
      vertex -5.500000e+000  2.400000e+001  0.000000e+000
      vertex -5.500000e+000  2.400000e+001  1.500000e+001
    endloop
  endfacet
  facet normal -9.999999e-001  -0.000000e+000  0.000000e+000
    outer loop
      vertex  5.500000e+000  2.400000e+001  1.500000e+001
      vertex  5.500000e+000  3.500000e+001  1.500000e+001
      vertex  5.500000e+000  2.400000e+001  0.000000e+000
    endloop
  endfacet
  facet normal -9.999999e-001  0.000000e+000  0.000000e+000
    outer loop
      vertex  5.500000e+000  2.400000e+001  0.000000e+000
      vertex  5.500000e+000  3.500000e+001  1.500000e+001
      vertex  5.500000e+000  3.500000e+001  0.000000e+000
    endloop
  endfacet
  facet normal  0.000000e+000 -9.999999e-001  0.000000e+000
    outer loop
      vertex -5.500000e+000  3.500000e+001  0.000000e+000
      vertex  5.500000e+000  3.500000e+001  0.000000e+000
      vertex -5.500000e+000  3.500000e+001  1.500000e+001
    endloop
  endfacet
  facet normal  0.000000e+000 -9.999999e-001  0.000000e+000
    outer loop
      vertex -5.500000e+000  3.500000e+001  1.500000e+001
      vertex  5.500000e+000  3.500000e+001  0.000000e+000
      vertex  5.500000e+000  3.500000e+001  1.500000e+001
    endloop
  endfacet
  facet normal  4.361985e-002 -9.990482e-001  0.000000e+000
    outer loop
      vertex  1.285879e-015  2.100000e+001  0.000000e+000
      vertex -1.830271e+000  2.092009e+001  1.500000e+001
      vertex -1.830271e+000  2.092009e+001  0.000000e+000
    endloop
  endfacet
  facet normal  1.305254e-001 -9.914449e-001  0.000000e+000
    outer loop
      vertex -1.830271e+000  2.092009e+001  0.000000e+000
      vertex -1.830271e+000  2.092009e+001  1.500000e+001
      vertex -3.646612e+000  2.068096e+001  1.500000e+001
    endloop
  endfacet
  facet normal  1.305254e-001 -9.914449e-001  0.000000e+000
    outer loop
      vertex -1.830271e+000  2.092009e+001  0.000000e+000
      vertex -3.646612e+000  2.068096e+001  1.500000e+001
      vertex -3.646612e+000  2.068096e+001  0.000000e+000
    endloop
  endfacet
  facet normal  2.164397e-001 -9.762960e-001  0.000000e+000
    outer loop
      vertex -3.646612e+000  2.068096e+001  0.000000e+000
      vertex -3.646612e+000  2.068096e+001  1.500000e+001
      vertex -5.435200e+000  2.028444e+001  1.500000e+001
    endloop
  endfacet
  facet normal  2.164397e-001 -9.762960e-001  0.000000e+000
    outer loop
      vertex -3.646612e+000  2.068096e+001  0.000000e+000
      vertex -5.435200e+000  2.028444e+001  1.500000e+001
      vertex -5.435200e+000  2.028444e+001  0.000000e+000
    endloop
  endfacet
  facet normal  3.007059e-001 -9.537169e-001  0.000000e+000
    outer loop
      vertex -5.435200e+000  2.028444e+001  0.000000e+000
      vertex -5.435200e+000  2.028444e+001  1.500000e+001
      vertex -7.182423e+000  1.973355e+001  1.500000e+001
    endloop
  endfacet
  facet normal  3.007059e-001 -9.537169e-001  0.000000e+000
    outer loop
      vertex -5.435200e+000  2.028444e+001  0.000000e+000
      vertex -7.182423e+000  1.973355e+001  1.500000e+001
      vertex -7.182423e+000  1.973355e+001  0.000000e+000
    endloop
  endfacet
  facet normal  3.826837e-001 -9.238793e-001  0.000000e+000
    outer loop
      vertex -7.182423e+000  1.973355e+001  0.000000e+000
      vertex -7.182423e+000  1.973355e+001  1.500000e+001
      vertex -8.874984e+000  1.903246e+001  1.500000e+001
    endloop
  endfacet
  facet normal  3.826837e-001 -9.238793e-001  0.000000e+000
    outer loop
      vertex -7.182423e+000  1.973355e+001  0.000000e+000
      vertex -8.874984e+000  1.903246e+001  1.500000e+001
      vertex -8.874984e+000  1.903246e+001  0.000000e+000
    endloop
  endfacet
  facet normal  4.617487e-001 -8.870108e-001  0.000000e+000
    outer loop
      vertex -8.874984e+000  1.903246e+001  0.000000e+000
      vertex -8.874984e+000  1.903246e+001  1.500000e+001
      vertex -1.050000e+001  1.818653e+001  1.500000e+001
    endloop
  endfacet
  facet normal  4.617487e-001 -8.870108e-001  0.000000e+000
    outer loop
      vertex -8.874984e+000  1.903246e+001  0.000000e+000
      vertex -1.050000e+001  1.818653e+001  1.500000e+001
      vertex -1.050000e+001  1.818653e+001  0.000000e+000
    endloop
  endfacet
  facet normal  5.372997e-001 -8.433914e-001  0.000000e+000
    outer loop
      vertex -1.050000e+001  1.818653e+001  0.000000e+000
      vertex -1.050000e+001  1.818653e+001  1.500000e+001
      vertex -1.204510e+001  1.720219e+001  1.500000e+001
    endloop
  endfacet
  facet normal  5.372997e-001 -8.433914e-001  0.000000e+000
    outer loop
      vertex -1.050000e+001  1.818653e+001  0.000000e+000
      vertex -1.204510e+001  1.720219e+001  1.500000e+001
      vertex -1.204510e+001  1.720219e+001  0.000000e+000
    endloop
  endfacet
  facet normal  6.087611e-001 -7.933535e-001  0.000000e+000
    outer loop
      vertex -1.204510e+001  1.720219e+001  0.000000e+000
      vertex -1.204510e+001  1.720219e+001  1.500000e+001
      vertex -1.349854e+001  1.608693e+001  1.500000e+001
    endloop
  endfacet
  facet normal  6.087611e-001 -7.933535e-001  0.000000e+000
    outer loop
      vertex -1.204510e+001  1.720219e+001  0.000000e+000
      vertex -1.349854e+001  1.608693e+001  1.500000e+001
      vertex -1.349854e+001  1.608693e+001  0.000000e+000
    endloop
  endfacet
  facet normal  6.755903e-001 -7.372772e-001  0.000000e+000
    outer loop
      vertex -1.349854e+001  1.608693e+001  0.000000e+000
      vertex -1.349854e+001  1.608693e+001  1.500000e+001
      vertex -1.484924e+001  1.484924e+001  1.500000e+001
    endloop
  endfacet
  facet normal  6.755903e-001 -7.372772e-001  0.000000e+000
    outer loop
      vertex -1.349854e+001  1.608693e+001  0.000000e+000
      vertex -1.484924e+001  1.484924e+001  1.500000e+001
      vertex -1.484924e+001  1.484924e+001  0.000000e+000
    endloop
  endfacet
  facet normal  7.372772e-001 -6.755903e-001  0.000000e+000
    outer loop
      vertex -1.484924e+001  1.484924e+001  0.000000e+000
      vertex -1.484924e+001  1.484924e+001  1.500000e+001
      vertex -1.608693e+001  1.349854e+001  1.500000e+001
    endloop
  endfacet
  facet normal  7.372772e-001 -6.755903e-001  0.000000e+000
    outer loop
      vertex -1.484924e+001  1.484924e+001  0.000000e+000
      vertex -1.608693e+001  1.349854e+001  1.500000e+001
      vertex -1.608693e+001  1.349854e+001  0.000000e+000
    endloop
  endfacet
  facet normal  7.933535e-001 -6.087611e-001  0.000000e+000
    outer loop
      vertex -1.608693e+001  1.349854e+001  0.000000e+000
      vertex -1.608693e+001  1.349854e+001  1.500000e+001
      vertex -1.720219e+001  1.204510e+001  1.500000e+001
    endloop
  endfacet
  facet normal  7.933535e-001 -6.087611e-001  0.000000e+000
    outer loop
      vertex -1.608693e+001  1.349854e+001  0.000000e+000
      vertex -1.720219e+001  1.204510e+001  1.500000e+001
      vertex -1.720219e+001  1.204510e+001  0.000000e+000
    endloop
  endfacet
  facet normal  8.433914e-001 -5.372997e-001  0.000000e+000
    outer loop
      vertex -1.720219e+001  1.204510e+001  0.000000e+000
      vertex -1.720219e+001  1.204510e+001  1.500000e+001
      vertex -1.818653e+001  1.050000e+001  1.500000e+001
    endloop
  endfacet
  facet normal  8.433914e-001 -5.372997e-001  0.000000e+000
    outer loop
      vertex -1.720219e+001  1.204510e+001  0.000000e+000
      vertex -1.818653e+001  1.050000e+001  1.500000e+001
      vertex -1.818653e+001  1.050000e+001  0.000000e+000
    endloop
  endfacet
  facet normal  8.870108e-001 -4.617487e-001  0.000000e+000
    outer loop
      vertex -1.818653e+001  1.050000e+001  0.000000e+000
      vertex -1.818653e+001  1.050000e+001  1.500000e+001
      vertex -1.903246e+001  8.874984e+000  1.500000e+001
    endloop
  endfacet
  facet normal  8.870108e-001 -4.617487e-001  0.000000e+000
    outer loop
      vertex -1.818653e+001  1.050000e+001  0.000000e+000
      vertex -1.903246e+001  8.874984e+000  1.500000e+001
      vertex -1.903246e+001  8.874984e+000  0.000000e+000
    endloop
  endfacet
  facet normal  9.238793e-001 -3.826837e-001  0.000000e+000
    outer loop
      vertex -1.903246e+001  8.874984e+000  0.000000e+000
      vertex -1.903246e+001  8.874984e+000  1.500000e+001
      vertex -1.973355e+001  7.182423e+000  1.500000e+001
    endloop
  endfacet
  facet normal  9.238793e-001 -3.826837e-001  0.000000e+000
    outer loop
      vertex -1.903246e+001  8.874984e+000  0.000000e+000
      vertex -1.973355e+001  7.182423e+000  1.500000e+001
      vertex -1.973355e+001  7.182423e+000  0.000000e+000
    endloop
  endfacet
  facet normal  9.537169e-001 -3.007059e-001  0.000000e+000
    outer loop
      vertex -1.973355e+001  7.182423e+000  0.000000e+000
      vertex -1.973355e+001  7.182423e+000  1.500000e+001
      vertex -2.028444e+001  5.435200e+000  1.500000e+001
    endloop
  endfacet
  facet normal  9.537169e-001 -3.007059e-001  0.000000e+000
    outer loop
      vertex -1.973355e+001  7.182423e+000  0.000000e+000
      vertex -2.028444e+001  5.435200e+000  1.500000e+001
      vertex -2.028444e+001  5.435200e+000  0.000000e+000
    endloop
  endfacet
  facet normal  9.762960e-001 -2.164397e-001  0.000000e+000
    outer loop
      vertex -2.028444e+001  5.435200e+000  0.000000e+000
      vertex -2.028444e+001  5.435200e+000  1.500000e+001
      vertex -2.068096e+001  3.646612e+000  1.500000e+001
    endloop
  endfacet
  facet normal  9.762960e-001 -2.164397e-001  0.000000e+000
    outer loop
      vertex -2.028444e+001  5.435200e+000  0.000000e+000
      vertex -2.068096e+001  3.646612e+000  1.500000e+001
      vertex -2.068096e+001  3.646612e+000  0.000000e+000
    endloop
  endfacet
  facet normal  9.914449e-001 -1.305254e-001  0.000000e+000
    outer loop
      vertex -2.068096e+001  3.646612e+000  0.000000e+000
      vertex -2.068096e+001  3.646612e+000  1.500000e+001
      vertex -2.092009e+001  1.830271e+000  1.500000e+001
    endloop
  endfacet
  facet normal  9.914449e-001 -1.305254e-001  0.000000e+000
    outer loop
      vertex -2.068096e+001  3.646612e+000  0.000000e+000
      vertex -2.092009e+001  1.830271e+000  1.500000e+001
      vertex -2.092009e+001  1.830271e+000  0.000000e+000
    endloop
  endfacet
  facet normal  9.990482e-001 -4.361985e-002  0.000000e+000
    outer loop
      vertex -2.092009e+001  1.830271e+000  0.000000e+000
      vertex -2.092009e+001  1.830271e+000  1.500000e+001
      vertex -2.100000e+001  2.571758e-015  1.500000e+001
    endloop
  endfacet
  facet normal  9.990482e-001 -4.361985e-002  0.000000e+000
    outer loop
      vertex -2.092009e+001  1.830271e+000  0.000000e+000
      vertex -2.100000e+001  2.571758e-015  1.500000e+001
      vertex -2.100000e+001  2.571758e-015  0.000000e+000
    endloop
  endfacet
  facet normal  4.361985e-002 -9.990482e-001  0.000000e+000
    outer loop
      vertex -1.830271e+000  2.092009e+001  1.500000e+001
      vertex  1.285879e-015  2.100000e+001  0.000000e+000
      vertex  1.285879e-015  2.100000e+001  1.500000e+001
    endloop
  endfacet
  facet normal -4.361985e-002 -9.990482e-001  -0.000000e+000
    outer loop
      vertex  1.285879e-015  2.100000e+001  1.500000e+001
      vertex  1.285879e-015  2.100000e+001  0.000000e+000
      vertex  1.830271e+000  2.092009e+001  0.000000e+000
    endloop
  endfacet
  facet normal -4.361985e-002 -9.990482e-001  0.000000e+000
    outer loop
      vertex  1.285879e-015  2.100000e+001  1.500000e+001
      vertex  1.830271e+000  2.092009e+001  0.000000e+000
      vertex  1.830271e+000  2.092009e+001  1.500000e+001
    endloop
  endfacet
  facet normal -1.305254e-001 -9.914449e-001  -0.000000e+000
    outer loop
      vertex  1.830271e+000  2.092009e+001  1.500000e+001
      vertex  1.830271e+000  2.092009e+001  0.000000e+000
      vertex  3.646612e+000  2.068096e+001  0.000000e+000
    endloop
  endfacet
  facet normal -1.305254e-001 -9.914449e-001  0.000000e+000
    outer loop
      vertex  1.830271e+000  2.092009e+001  1.500000e+001
      vertex  3.646612e+000  2.068096e+001  0.000000e+000
      vertex  3.646612e+000  2.068096e+001  1.500000e+001
    endloop
  endfacet
  facet normal -2.164397e-001 -9.762960e-001  -0.000000e+000
    outer loop
      vertex  3.646612e+000  2.068096e+001  1.500000e+001
      vertex  3.646612e+000  2.068096e+001  0.000000e+000
      vertex  5.435200e+000  2.028444e+001  0.000000e+000
    endloop
  endfacet
  facet normal -2.164397e-001 -9.762960e-001  0.000000e+000
    outer loop
      vertex  3.646612e+000  2.068096e+001  1.500000e+001
      vertex  5.435200e+000  2.028444e+001  0.000000e+000
      vertex  5.435200e+000  2.028444e+001  1.500000e+001
    endloop
  endfacet
  facet normal -3.007059e-001 -9.537169e-001  -0.000000e+000
    outer loop
      vertex  5.435200e+000  2.028444e+001  1.500000e+001
      vertex  5.435200e+000  2.028444e+001  0.000000e+000
      vertex  7.182423e+000  1.973355e+001  0.000000e+000
    endloop
  endfacet
  facet normal -3.007059e-001 -9.537169e-001  0.000000e+000
    outer loop
      vertex  5.435200e+000  2.028444e+001  1.500000e+001
      vertex  7.182423e+000  1.973355e+001  0.000000e+000
      vertex  7.182423e+000  1.973355e+001  1.500000e+001
    endloop
  endfacet
  facet normal -3.826837e-001 -9.238793e-001  -0.000000e+000
    outer loop
      vertex  7.182423e+000  1.973355e+001  1.500000e+001
      vertex  7.182423e+000  1.973355e+001  0.000000e+000
      vertex  8.874984e+000  1.903246e+001  0.000000e+000
    endloop
  endfacet
  facet normal -3.826837e-001 -9.238793e-001  0.000000e+000
    outer loop
      vertex  7.182423e+000  1.973355e+001  1.500000e+001
      vertex  8.874984e+000  1.903246e+001  0.000000e+000
      vertex  8.874984e+000  1.903246e+001  1.500000e+001
    endloop
  endfacet
  facet normal -4.617487e-001 -8.870108e-001  -0.000000e+000
    outer loop
      vertex  8.874984e+000  1.903246e+001  1.500000e+001
      vertex  8.874984e+000  1.903246e+001  0.000000e+000
      vertex  1.050000e+001  1.818653e+001  0.000000e+000
    endloop
  endfacet
  facet normal -4.617487e-001 -8.870108e-001  0.000000e+000
    outer loop
      vertex  8.874984e+000  1.903246e+001  1.500000e+001
      vertex  1.050000e+001  1.818653e+001  0.000000e+000
      vertex  1.050000e+001  1.818653e+001  1.500000e+001
    endloop
  endfacet
  facet normal -5.372997e-001 -8.433914e-001  -0.000000e+000
    outer loop
      vertex  1.050000e+001  1.818653e+001  1.500000e+001
      vertex  1.050000e+001  1.818653e+001  0.000000e+000
      vertex  1.204510e+001  1.720219e+001  0.000000e+000
    endloop
  endfacet
  facet normal -5.372997e-001 -8.433914e-001  0.000000e+000
    outer loop
      vertex  1.050000e+001  1.818653e+001  1.500000e+001
      vertex  1.204510e+001  1.720219e+001  0.000000e+000
      vertex  1.204510e+001  1.720219e+001  1.500000e+001
    endloop
  endfacet
  facet normal -6.087611e-001 -7.933535e-001  -0.000000e+000
    outer loop
      vertex  1.204510e+001  1.720219e+001  1.500000e+001
      vertex  1.204510e+001  1.720219e+001  0.000000e+000
      vertex  1.349854e+001  1.608693e+001  0.000000e+000
    endloop
  endfacet
  facet normal -6.087611e-001 -7.933535e-001  0.000000e+000
    outer loop
      vertex  1.204510e+001  1.720219e+001  1.500000e+001
      vertex  1.349854e+001  1.608693e+001  0.000000e+000
      vertex  1.349854e+001  1.608693e+001  1.500000e+001
    endloop
  endfacet
  facet normal -6.755903e-001 -7.372772e-001  -0.000000e+000
    outer loop
      vertex  1.349854e+001  1.608693e+001  1.500000e+001
      vertex  1.349854e+001  1.608693e+001  0.000000e+000
      vertex  1.484924e+001  1.484924e+001  0.000000e+000
    endloop
  endfacet
  facet normal -6.755903e-001 -7.372772e-001  0.000000e+000
    outer loop
      vertex  1.349854e+001  1.608693e+001  1.500000e+001
      vertex  1.484924e+001  1.484924e+001  0.000000e+000
      vertex  1.484924e+001  1.484924e+001  1.500000e+001
    endloop
  endfacet
  facet normal -7.372772e-001 -6.755903e-001  -0.000000e+000
    outer loop
      vertex  1.484924e+001  1.484924e+001  1.500000e+001
      vertex  1.484924e+001  1.484924e+001  0.000000e+000
      vertex  1.608693e+001  1.349854e+001  0.000000e+000
    endloop
  endfacet
  facet normal -7.372772e-001 -6.755903e-001  0.000000e+000
    outer loop
      vertex  1.484924e+001  1.484924e+001  1.500000e+001
      vertex  1.608693e+001  1.349854e+001  0.000000e+000
      vertex  1.608693e+001  1.349854e+001  1.500000e+001
    endloop
  endfacet
  facet normal -7.933535e-001 -6.087611e-001  -0.000000e+000
    outer loop
      vertex  1.608693e+001  1.349854e+001  1.500000e+001
      vertex  1.608693e+001  1.349854e+001  0.000000e+000
      vertex  1.720219e+001  1.204510e+001  0.000000e+000
    endloop
  endfacet
  facet normal -7.933535e-001 -6.087611e-001  0.000000e+000
    outer loop
      vertex  1.608693e+001  1.349854e+001  1.500000e+001
      vertex  1.720219e+001  1.204510e+001  0.000000e+000
      vertex  1.720219e+001  1.204510e+001  1.500000e+001
    endloop
  endfacet
  facet normal -8.433914e-001 -5.372997e-001  -0.000000e+000
    outer loop
      vertex  1.720219e+001  1.204510e+001  1.500000e+001
      vertex  1.720219e+001  1.204510e+001  0.000000e+000
      vertex  1.818653e+001  1.050000e+001  0.000000e+000
    endloop
  endfacet
  facet normal -8.433914e-001 -5.372997e-001  0.000000e+000
    outer loop
      vertex  1.720219e+001  1.204510e+001  1.500000e+001
      vertex  1.818653e+001  1.050000e+001  0.000000e+000
      vertex  1.818653e+001  1.050000e+001  1.500000e+001
    endloop
  endfacet
  facet normal -8.870108e-001 -4.617487e-001  -0.000000e+000
    outer loop
      vertex  1.818653e+001  1.050000e+001  1.500000e+001
      vertex  1.818653e+001  1.050000e+001  0.000000e+000
      vertex  1.903246e+001  8.874984e+000  0.000000e+000
    endloop
  endfacet
  facet normal -8.870108e-001 -4.617487e-001  0.000000e+000
    outer loop
      vertex  1.818653e+001  1.050000e+001  1.500000e+001
      vertex  1.903246e+001  8.874984e+000  0.000000e+000
      vertex  1.903246e+001  8.874984e+000  1.500000e+001
    endloop
  endfacet
  facet normal -9.238793e-001 -3.826837e-001  -0.000000e+000
    outer loop
      vertex  1.903246e+001  8.874984e+000  1.500000e+001
      vertex  1.903246e+001  8.874984e+000  0.000000e+000
      vertex  1.973355e+001  7.182423e+000  0.000000e+000
    endloop
  endfacet
  facet normal -9.238793e-001 -3.826837e-001  0.000000e+000
    outer loop
      vertex  1.903246e+001  8.874984e+000  1.500000e+001
      vertex  1.973355e+001  7.182423e+000  0.000000e+000
      vertex  1.973355e+001  7.182423e+000  1.500000e+001
    endloop
  endfacet
  facet normal -9.537169e-001 -3.007059e-001  -0.000000e+000
    outer loop
      vertex  1.973355e+001  7.182423e+000  1.500000e+001
      vertex  1.973355e+001  7.182423e+000  0.000000e+000
      vertex  2.028444e+001  5.435200e+000  0.000000e+000
    endloop
  endfacet
  facet normal -9.537169e-001 -3.007059e-001  0.000000e+000
    outer loop
      vertex  1.973355e+001  7.182423e+000  1.500000e+001
      vertex  2.028444e+001  5.435200e+000  0.000000e+000
      vertex  2.028444e+001  5.435200e+000  1.500000e+001
    endloop
  endfacet
  facet normal -9.762960e-001 -2.164397e-001  -0.000000e+000
    outer loop
      vertex  2.028444e+001  5.435200e+000  1.500000e+001
      vertex  2.028444e+001  5.435200e+000  0.000000e+000
      vertex  2.068096e+001  3.646612e+000  0.000000e+000
    endloop
  endfacet
  facet normal -9.762960e-001 -2.164397e-001  0.000000e+000
    outer loop
      vertex  2.028444e+001  5.435200e+000  1.500000e+001
      vertex  2.068096e+001  3.646612e+000  0.000000e+000
      vertex  2.068096e+001  3.646612e+000  1.500000e+001
    endloop
  endfacet
  facet normal -9.914449e-001 -1.305254e-001  -0.000000e+000
    outer loop
      vertex  2.068096e+001  3.646612e+000  1.500000e+001
      vertex  2.068096e+001  3.646612e+000  0.000000e+000
      vertex  2.092009e+001  1.830271e+000  0.000000e+000
    endloop
  endfacet
  facet normal -9.914449e-001 -1.305254e-001  0.000000e+000
    outer loop
      vertex  2.068096e+001  3.646612e+000  1.500000e+001
      vertex  2.092009e+001  1.830271e+000  0.000000e+000
      vertex  2.092009e+001  1.830271e+000  1.500000e+001
    endloop
  endfacet
  facet normal -9.990482e-001 -4.361985e-002  -0.000000e+000
    outer loop
      vertex  2.092009e+001  1.830271e+000  1.500000e+001
      vertex  2.092009e+001  1.830271e+000  0.000000e+000
      vertex  2.100000e+001  0.000000e+000  0.000000e+000
    endloop
  endfacet
  facet normal -9.990482e-001 -4.361985e-002  0.000000e+000
    outer loop
      vertex  2.092009e+001  1.830271e+000  1.500000e+001
      vertex  2.100000e+001  0.000000e+000  0.000000e+000
      vertex  2.100000e+001  0.000000e+000  1.500000e+001
    endloop
  endfacet
  facet normal -4.361985e-002  9.990482e-001  0.000000e+000
    outer loop
      vertex -3.857637e-015 -2.100000e+001  0.000000e+000
      vertex  1.830271e+000 -2.092009e+001  1.500000e+001
      vertex  1.830271e+000 -2.092009e+001  0.000000e+000
    endloop
  endfacet
  facet normal -1.305254e-001  9.914449e-001  0.000000e+000
    outer loop
      vertex  1.830271e+000 -2.092009e+001  0.000000e+000
      vertex  1.830271e+000 -2.092009e+001  1.500000e+001
      vertex  3.646612e+000 -2.068096e+001  1.500000e+001
    endloop
  endfacet
  facet normal -1.305254e-001  9.914449e-001  0.000000e+000
    outer loop
      vertex  1.830271e+000 -2.092009e+001  0.000000e+000
      vertex  3.646612e+000 -2.068096e+001  1.500000e+001
      vertex  3.646612e+000 -2.068096e+001  0.000000e+000
    endloop
  endfacet
  facet normal -2.164397e-001  9.762960e-001  0.000000e+000
    outer loop
      vertex  3.646612e+000 -2.068096e+001  0.000000e+000
      vertex  3.646612e+000 -2.068096e+001  1.500000e+001
      vertex  5.435200e+000 -2.028444e+001  1.500000e+001
    endloop
  endfacet
  facet normal -2.164397e-001  9.762960e-001  0.000000e+000
    outer loop
      vertex  3.646612e+000 -2.068096e+001  0.000000e+000
      vertex  5.435200e+000 -2.028444e+001  1.500000e+001
      vertex  5.435200e+000 -2.028444e+001  0.000000e+000
    endloop
  endfacet
  facet normal -3.007059e-001  9.537169e-001  0.000000e+000
    outer loop
      vertex  5.435200e+000 -2.028444e+001  0.000000e+000
      vertex  5.435200e+000 -2.028444e+001  1.500000e+001
      vertex  7.182423e+000 -1.973355e+001  1.500000e+001
    endloop
  endfacet
  facet normal -3.007059e-001  9.537169e-001  0.000000e+000
    outer loop
      vertex  5.435200e+000 -2.028444e+001  0.000000e+000
      vertex  7.182423e+000 -1.973355e+001  1.500000e+001
      vertex  7.182423e+000 -1.973355e+001  0.000000e+000
    endloop
  endfacet
  facet normal -3.826837e-001  9.238793e-001  0.000000e+000
    outer loop
      vertex  7.182423e+000 -1.973355e+001  0.000000e+000
      vertex  7.182423e+000 -1.973355e+001  1.500000e+001
      vertex  8.874984e+000 -1.903246e+001  1.500000e+001
    endloop
  endfacet
  facet normal -3.826837e-001  9.238793e-001  0.000000e+000
    outer loop
      vertex  7.182423e+000 -1.973355e+001  0.000000e+000
      vertex  8.874984e+000 -1.903246e+001  1.500000e+001
      vertex  8.874984e+000 -1.903246e+001  0.000000e+000
    endloop
  endfacet
  facet normal -4.617487e-001  8.870108e-001  0.000000e+000
    outer loop
      vertex  8.874984e+000 -1.903246e+001  0.000000e+000
      vertex  8.874984e+000 -1.903246e+001  1.500000e+001
      vertex  1.050000e+001 -1.818653e+001  1.500000e+001
    endloop
  endfacet
  facet normal -4.617487e-001  8.870108e-001  0.000000e+000
    outer loop
      vertex  8.874984e+000 -1.903246e+001  0.000000e+000
      vertex  1.050000e+001 -1.818653e+001  1.500000e+001
      vertex  1.050000e+001 -1.818653e+001  0.000000e+000
    endloop
  endfacet
  facet normal -5.372997e-001  8.433914e-001  0.000000e+000
    outer loop
      vertex  1.050000e+001 -1.818653e+001  0.000000e+000
      vertex  1.050000e+001 -1.818653e+001  1.500000e+001
      vertex  1.204510e+001 -1.720219e+001  1.500000e+001
    endloop
  endfacet
  facet normal -5.372997e-001  8.433914e-001  0.000000e+000
    outer loop
      vertex  1.050000e+001 -1.818653e+001  0.000000e+000
      vertex  1.204510e+001 -1.720219e+001  1.500000e+001
      vertex  1.204510e+001 -1.720219e+001  0.000000e+000
    endloop
  endfacet
  facet normal -6.087611e-001  7.933535e-001  0.000000e+000
    outer loop
      vertex  1.204510e+001 -1.720219e+001  0.000000e+000
      vertex  1.204510e+001 -1.720219e+001  1.500000e+001
      vertex  1.349854e+001 -1.608693e+001  1.500000e+001
    endloop
  endfacet
  facet normal -6.087611e-001  7.933535e-001  0.000000e+000
    outer loop
      vertex  1.204510e+001 -1.720219e+001  0.000000e+000
      vertex  1.349854e+001 -1.608693e+001  1.500000e+001
      vertex  1.349854e+001 -1.608693e+001  0.000000e+000
    endloop
  endfacet
  facet normal -6.755903e-001  7.372772e-001  0.000000e+000
    outer loop
      vertex  1.349854e+001 -1.608693e+001  0.000000e+000
      vertex  1.349854e+001 -1.608693e+001  1.500000e+001
      vertex  1.484924e+001 -1.484924e+001  1.500000e+001
    endloop
  endfacet
  facet normal -6.755903e-001  7.372772e-001  0.000000e+000
    outer loop
      vertex  1.349854e+001 -1.608693e+001  0.000000e+000
      vertex  1.484924e+001 -1.484924e+001  1.500000e+001
      vertex  1.484924e+001 -1.484924e+001  0.000000e+000
    endloop
  endfacet
  facet normal -7.372772e-001  6.755903e-001  0.000000e+000
    outer loop
      vertex  1.484924e+001 -1.484924e+001  0.000000e+000
      vertex  1.484924e+001 -1.484924e+001  1.500000e+001
      vertex  1.608693e+001 -1.349854e+001  1.500000e+001
    endloop
  endfacet
  facet normal -7.372772e-001  6.755903e-001  0.000000e+000
    outer loop
      vertex  1.484924e+001 -1.484924e+001  0.000000e+000
      vertex  1.608693e+001 -1.349854e+001  1.500000e+001
      vertex  1.608693e+001 -1.349854e+001  0.000000e+000
    endloop
  endfacet
  facet normal -7.933535e-001  6.087611e-001  0.000000e+000
    outer loop
      vertex  1.608693e+001 -1.349854e+001  0.000000e+000
      vertex  1.608693e+001 -1.349854e+001  1.500000e+001
      vertex  1.720219e+001 -1.204510e+001  1.500000e+001
    endloop
  endfacet
  facet normal -7.933535e-001  6.087611e-001  0.000000e+000
    outer loop
      vertex  1.608693e+001 -1.349854e+001  0.000000e+000
      vertex  1.720219e+001 -1.204510e+001  1.500000e+001
      vertex  1.720219e+001 -1.204510e+001  0.000000e+000
    endloop
  endfacet
  facet normal -8.433914e-001  5.372997e-001  0.000000e+000
    outer loop
      vertex  1.720219e+001 -1.204510e+001  0.000000e+000
      vertex  1.720219e+001 -1.204510e+001  1.500000e+001
      vertex  1.818653e+001 -1.050000e+001  1.500000e+001
    endloop
  endfacet
  facet normal -8.433914e-001  5.372997e-001  0.000000e+000
    outer loop
      vertex  1.720219e+001 -1.204510e+001  0.000000e+000
      vertex  1.818653e+001 -1.050000e+001  1.500000e+001
      vertex  1.818653e+001 -1.050000e+001  0.000000e+000
    endloop
  endfacet
  facet normal -8.870108e-001  4.617487e-001  0.000000e+000
    outer loop
      vertex  1.818653e+001 -1.050000e+001  0.000000e+000
      vertex  1.818653e+001 -1.050000e+001  1.500000e+001
      vertex  1.903246e+001 -8.874984e+000  1.500000e+001
    endloop
  endfacet
  facet normal -8.870108e-001  4.617487e-001  0.000000e+000
    outer loop
      vertex  1.818653e+001 -1.050000e+001  0.000000e+000
      vertex  1.903246e+001 -8.874984e+000  1.500000e+001
      vertex  1.903246e+001 -8.874984e+000  0.000000e+000
    endloop
  endfacet
  facet normal -9.238793e-001  3.826837e-001  0.000000e+000
    outer loop
      vertex  1.903246e+001 -8.874984e+000  0.000000e+000
      vertex  1.903246e+001 -8.874984e+000  1.500000e+001
      vertex  1.973355e+001 -7.182423e+000  1.500000e+001
    endloop
  endfacet
  facet normal -9.238793e-001  3.826837e-001  0.000000e+000
    outer loop
      vertex  1.903246e+001 -8.874984e+000  0.000000e+000
      vertex  1.973355e+001 -7.182423e+000  1.500000e+001
      vertex  1.973355e+001 -7.182423e+000  0.000000e+000
    endloop
  endfacet
  facet normal -9.537169e-001  3.007059e-001  0.000000e+000
    outer loop
      vertex  1.973355e+001 -7.182423e+000  0.000000e+000
      vertex  1.973355e+001 -7.182423e+000  1.500000e+001
      vertex  2.028444e+001 -5.435200e+000  1.500000e+001
    endloop
  endfacet
  facet normal -9.537169e-001  3.007059e-001  0.000000e+000
    outer loop
      vertex  1.973355e+001 -7.182423e+000  0.000000e+000
      vertex  2.028444e+001 -5.435200e+000  1.500000e+001
      vertex  2.028444e+001 -5.435200e+000  0.000000e+000
    endloop
  endfacet
  facet normal -9.762960e-001  2.164397e-001  0.000000e+000
    outer loop
      vertex  2.028444e+001 -5.435200e+000  0.000000e+000
      vertex  2.028444e+001 -5.435200e+000  1.500000e+001
      vertex  2.068096e+001 -3.646612e+000  1.500000e+001
    endloop
  endfacet
  facet normal -9.762960e-001  2.164397e-001  0.000000e+000
    outer loop
      vertex  2.028444e+001 -5.435200e+000  0.000000e+000
      vertex  2.068096e+001 -3.646612e+000  1.500000e+001
      vertex  2.068096e+001 -3.646612e+000  0.000000e+000
    endloop
  endfacet
  facet normal -9.914449e-001  1.305254e-001  0.000000e+000
    outer loop
      vertex  2.068096e+001 -3.646612e+000  0.000000e+000
      vertex  2.068096e+001 -3.646612e+000  1.500000e+001
      vertex  2.092009e+001 -1.830271e+000  1.500000e+001
    endloop
  endfacet
  facet normal -9.914449e-001  1.305254e-001  0.000000e+000
    outer loop
      vertex  2.068096e+001 -3.646612e+000  0.000000e+000
      vertex  2.092009e+001 -1.830271e+000  1.500000e+001
      vertex  2.092009e+001 -1.830271e+000  0.000000e+000
    endloop
  endfacet
  facet normal -9.990482e-001  4.361985e-002  0.000000e+000
    outer loop
      vertex  2.092009e+001 -1.830271e+000  0.000000e+000
      vertex  2.092009e+001 -1.830271e+000  1.500000e+001
      vertex  2.100000e+001  0.000000e+000  1.500000e+001
    endloop
  endfacet
  facet normal -9.990482e-001  4.361985e-002  0.000000e+000
    outer loop
      vertex  2.092009e+001 -1.830271e+000  0.000000e+000
      vertex  2.100000e+001  0.000000e+000  1.500000e+001
      vertex  2.100000e+001  0.000000e+000  0.000000e+000
    endloop
  endfacet
  facet normal -4.361985e-002  9.990482e-001  0.000000e+000
    outer loop
      vertex  1.830271e+000 -2.092009e+001  1.500000e+001
      vertex -3.857637e-015 -2.100000e+001  0.000000e+000
      vertex -3.857637e-015 -2.100000e+001  1.500000e+001
    endloop
  endfacet
  facet normal  4.361985e-002  9.990482e-001  0.000000e+000
    outer loop
      vertex -3.857637e-015 -2.100000e+001  1.500000e+001
      vertex -3.857637e-015 -2.100000e+001  0.000000e+000
      vertex -1.830271e+000 -2.092009e+001  0.000000e+000
    endloop
  endfacet
  facet normal  4.361985e-002  9.990482e-001  -0.000000e+000
    outer loop
      vertex -3.857637e-015 -2.100000e+001  1.500000e+001
      vertex -1.830271e+000 -2.092009e+001  0.000000e+000
      vertex -1.830271e+000 -2.092009e+001  1.500000e+001
    endloop
  endfacet
  facet normal  1.305254e-001  9.914449e-001  0.000000e+000
    outer loop
      vertex -1.830271e+000 -2.092009e+001  1.500000e+001
      vertex -1.830271e+000 -2.092009e+001  0.000000e+000
      vertex -3.646612e+000 -2.068096e+001  0.000000e+000
    endloop
  endfacet
  facet normal  1.305254e-001  9.914449e-001  -0.000000e+000
    outer loop
      vertex -1.830271e+000 -2.092009e+001  1.500000e+001
      vertex -3.646612e+000 -2.068096e+001  0.000000e+000
      vertex -3.646612e+000 -2.068096e+001  1.500000e+001
    endloop
  endfacet
  facet normal  2.164397e-001  9.762960e-001  0.000000e+000
    outer loop
      vertex -3.646612e+000 -2.068096e+001  1.500000e+001
      vertex -3.646612e+000 -2.068096e+001  0.000000e+000
      vertex -5.435200e+000 -2.028444e+001  0.000000e+000
    endloop
  endfacet
  facet normal  2.164397e-001  9.762960e-001  -0.000000e+000
    outer loop
      vertex -3.646612e+000 -2.068096e+001  1.500000e+001
      vertex -5.435200e+000 -2.028444e+001  0.000000e+000
      vertex -5.435200e+000 -2.028444e+001  1.500000e+001
    endloop
  endfacet
  facet normal  3.007059e-001  9.537169e-001  0.000000e+000
    outer loop
      vertex -5.435200e+000 -2.028444e+001  1.500000e+001
      vertex -5.435200e+000 -2.028444e+001  0.000000e+000
      vertex -7.182423e+000 -1.973355e+001  0.000000e+000
    endloop
  endfacet
  facet normal  3.007059e-001  9.537169e-001  -0.000000e+000
    outer loop
      vertex -5.435200e+000 -2.028444e+001  1.500000e+001
      vertex -7.182423e+000 -1.973355e+001  0.000000e+000
      vertex -7.182423e+000 -1.973355e+001  1.500000e+001
    endloop
  endfacet
  facet normal  3.826837e-001  9.238793e-001  0.000000e+000
    outer loop
      vertex -7.182423e+000 -1.973355e+001  1.500000e+001
      vertex -7.182423e+000 -1.973355e+001  0.000000e+000
      vertex -8.874984e+000 -1.903246e+001  0.000000e+000
    endloop
  endfacet
  facet normal  3.826837e-001  9.238793e-001  -0.000000e+000
    outer loop
      vertex -7.182423e+000 -1.973355e+001  1.500000e+001
      vertex -8.874984e+000 -1.903246e+001  0.000000e+000
      vertex -8.874984e+000 -1.903246e+001  1.500000e+001
    endloop
  endfacet
  facet normal  4.617487e-001  8.870108e-001  0.000000e+000
    outer loop
      vertex -8.874984e+000 -1.903246e+001  1.500000e+001
      vertex -8.874984e+000 -1.903246e+001  0.000000e+000
      vertex -1.050000e+001 -1.818653e+001  0.000000e+000
    endloop
  endfacet
  facet normal  4.617487e-001  8.870108e-001  -0.000000e+000
    outer loop
      vertex -8.874984e+000 -1.903246e+001  1.500000e+001
      vertex -1.050000e+001 -1.818653e+001  0.000000e+000
      vertex -1.050000e+001 -1.818653e+001  1.500000e+001
    endloop
  endfacet
  facet normal  5.372997e-001  8.433914e-001  0.000000e+000
    outer loop
      vertex -1.050000e+001 -1.818653e+001  1.500000e+001
      vertex -1.050000e+001 -1.818653e+001  0.000000e+000
      vertex -1.204510e+001 -1.720219e+001  0.000000e+000
    endloop
  endfacet
  facet normal  5.372997e-001  8.433914e-001  -0.000000e+000
    outer loop
      vertex -1.050000e+001 -1.818653e+001  1.500000e+001
      vertex -1.204510e+001 -1.720219e+001  0.000000e+000
      vertex -1.204510e+001 -1.720219e+001  1.500000e+001
    endloop
  endfacet
  facet normal  6.087611e-001  7.933535e-001  0.000000e+000
    outer loop
      vertex -1.204510e+001 -1.720219e+001  1.500000e+001
      vertex -1.204510e+001 -1.720219e+001  0.000000e+000
      vertex -1.349854e+001 -1.608693e+001  0.000000e+000
    endloop
  endfacet
  facet normal  6.087611e-001  7.933535e-001  -0.000000e+000
    outer loop
      vertex -1.204510e+001 -1.720219e+001  1.500000e+001
      vertex -1.349854e+001 -1.608693e+001  0.000000e+000
      vertex -1.349854e+001 -1.608693e+001  1.500000e+001
    endloop
  endfacet
  facet normal  6.755903e-001  7.372772e-001  0.000000e+000
    outer loop
      vertex -1.349854e+001 -1.608693e+001  1.500000e+001
      vertex -1.349854e+001 -1.608693e+001  0.000000e+000
      vertex -1.484924e+001 -1.484924e+001  0.000000e+000
    endloop
  endfacet
  facet normal  6.755903e-001  7.372772e-001  -0.000000e+000
    outer loop
      vertex -1.349854e+001 -1.608693e+001  1.500000e+001
      vertex -1.484924e+001 -1.484924e+001  0.000000e+000
      vertex -1.484924e+001 -1.484924e+001  1.500000e+001
    endloop
  endfacet
  facet normal  7.372772e-001  6.755903e-001  0.000000e+000
    outer loop
      vertex -1.484924e+001 -1.484924e+001  1.500000e+001
      vertex -1.484924e+001 -1.484924e+001  0.000000e+000
      vertex -1.608693e+001 -1.349854e+001  0.000000e+000
    endloop
  endfacet
  facet normal  7.372772e-001  6.755903e-001  -0.000000e+000
    outer loop
      vertex -1.484924e+001 -1.484924e+001  1.500000e+001
      vertex -1.608693e+001 -1.349854e+001  0.000000e+000
      vertex -1.608693e+001 -1.349854e+001  1.500000e+001
    endloop
  endfacet
  facet normal  7.933535e-001  6.087611e-001  0.000000e+000
    outer loop
      vertex -1.608693e+001 -1.349854e+001  1.500000e+001
      vertex -1.608693e+001 -1.349854e+001  0.000000e+000
      vertex -1.720219e+001 -1.204510e+001  0.000000e+000
    endloop
  endfacet
  facet normal  7.933535e-001  6.087611e-001  -0.000000e+000
    outer loop
      vertex -1.608693e+001 -1.349854e+001  1.500000e+001
      vertex -1.720219e+001 -1.204510e+001  0.000000e+000
      vertex -1.720219e+001 -1.204510e+001  1.500000e+001
    endloop
  endfacet
  facet normal  8.433914e-001  5.372997e-001  0.000000e+000
    outer loop
      vertex -1.720219e+001 -1.204510e+001  1.500000e+001
      vertex -1.720219e+001 -1.204510e+001  0.000000e+000
      vertex -1.818653e+001 -1.050000e+001  0.000000e+000
    endloop
  endfacet
  facet normal  8.433914e-001  5.372997e-001  -0.000000e+000
    outer loop
      vertex -1.720219e+001 -1.204510e+001  1.500000e+001
      vertex -1.818653e+001 -1.050000e+001  0.000000e+000
      vertex -1.818653e+001 -1.050000e+001  1.500000e+001
    endloop
  endfacet
  facet normal  8.870108e-001  4.617487e-001  0.000000e+000
    outer loop
      vertex -1.818653e+001 -1.050000e+001  1.500000e+001
      vertex -1.818653e+001 -1.050000e+001  0.000000e+000
      vertex -1.903246e+001 -8.874984e+000  0.000000e+000
    endloop
  endfacet
  facet normal  8.870108e-001  4.617487e-001  -0.000000e+000
    outer loop
      vertex -1.818653e+001 -1.050000e+001  1.500000e+001
      vertex -1.903246e+001 -8.874984e+000  0.000000e+000
      vertex -1.903246e+001 -8.874984e+000  1.500000e+001
    endloop
  endfacet
  facet normal  9.238793e-001  3.826837e-001  0.000000e+000
    outer loop
      vertex -1.903246e+001 -8.874984e+000  1.500000e+001
      vertex -1.903246e+001 -8.874984e+000  0.000000e+000
      vertex -1.973355e+001 -7.182423e+000  0.000000e+000
    endloop
  endfacet
  facet normal  9.238793e-001  3.826837e-001  -0.000000e+000
    outer loop
      vertex -1.903246e+001 -8.874984e+000  1.500000e+001
      vertex -1.973355e+001 -7.182423e+000  0.000000e+000
      vertex -1.973355e+001 -7.182423e+000  1.500000e+001
    endloop
  endfacet
  facet normal  9.537169e-001  3.007059e-001  0.000000e+000
    outer loop
      vertex -1.973355e+001 -7.182423e+000  1.500000e+001
      vertex -1.973355e+001 -7.182423e+000  0.000000e+000
      vertex -2.028444e+001 -5.435200e+000  0.000000e+000
    endloop
  endfacet
  facet normal  9.537169e-001  3.007059e-001  -0.000000e+000
    outer loop
      vertex -1.973355e+001 -7.182423e+000  1.500000e+001
      vertex -2.028444e+001 -5.435200e+000  0.000000e+000
      vertex -2.028444e+001 -5.435200e+000  1.500000e+001
    endloop
  endfacet
  facet normal  9.762960e-001  2.164397e-001  0.000000e+000
    outer loop
      vertex -2.028444e+001 -5.435200e+000  1.500000e+001
      vertex -2.028444e+001 -5.435200e+000  0.000000e+000
      vertex -2.068096e+001 -3.646612e+000  0.000000e+000
    endloop
  endfacet
  facet normal  9.762960e-001  2.164397e-001  -0.000000e+000
    outer loop
      vertex -2.028444e+001 -5.435200e+000  1.500000e+001
      vertex -2.068096e+001 -3.646612e+000  0.000000e+000
      vertex -2.068096e+001 -3.646612e+000  1.500000e+001
    endloop
  endfacet
  facet normal  9.914449e-001  1.305254e-001  0.000000e+000
    outer loop
      vertex -2.068096e+001 -3.646612e+000  1.500000e+001
      vertex -2.068096e+001 -3.646612e+000  0.000000e+000
      vertex -2.092009e+001 -1.830271e+000  0.000000e+000
    endloop
  endfacet
  facet normal  9.914449e-001  1.305254e-001  -0.000000e+000
    outer loop
      vertex -2.068096e+001 -3.646612e+000  1.500000e+001
      vertex -2.092009e+001 -1.830271e+000  0.000000e+000
      vertex -2.092009e+001 -1.830271e+000  1.500000e+001
    endloop
  endfacet
  facet normal  9.990482e-001  4.361985e-002  0.000000e+000
    outer loop
      vertex -2.092009e+001 -1.830271e+000  1.500000e+001
      vertex -2.092009e+001 -1.830271e+000  0.000000e+000
      vertex -2.100000e+001  2.571758e-015  0.000000e+000
    endloop
  endfacet
  facet normal  9.990482e-001  4.361985e-002  -0.000000e+000
    outer loop
      vertex -2.092009e+001 -1.830271e+000  1.500000e+001
      vertex -2.100000e+001  2.571758e-015  0.000000e+000
      vertex -2.100000e+001  2.571758e-015  1.500000e+001
    endloop
  endfacet
  facet normal  0.000000e+000  1.000000e+000  0.000000e+000
    outer loop
      vertex -1.000000e+001  4.000000e+001  1.500000e+001
      vertex  1.000000e+001  4.000000e+001  1.500000e+001
      vertex -1.000000e+001  4.000000e+001  0.000000e+000
    endloop
  endfacet
  facet normal  0.000000e+000  1.000000e+000  0.000000e+000
    outer loop
      vertex -1.000000e+001  4.000000e+001  0.000000e+000
      vertex  1.000000e+001  4.000000e+001  1.500000e+001
      vertex  1.000000e+001  4.000000e+001  0.000000e+000
    endloop
  endfacet
  facet normal  8.000000e-001  6.000000e-001  0.000000e+000
    outer loop
      vertex  1.000000e+001  4.000000e+001  1.500000e+001
      vertex  2.500000e+001  2.000000e+001  1.500000e+001
      vertex  1.000000e+001  4.000000e+001  0.000000e+000
    endloop
  endfacet
  facet normal  8.000000e-001  6.000000e-001  0.000000e+000
    outer loop
      vertex  1.000000e+001  4.000000e+001  0.000000e+000
      vertex  2.500000e+001  2.000000e+001  1.500000e+001
      vertex  2.500000e+001  2.000000e+001  0.000000e+000
    endloop
  endfacet
  facet normal  1.000000e+000  -0.000000e+000  0.000000e+000
    outer loop
      vertex  2.500000e+001  2.000000e+001  1.500000e+001
      vertex  2.500000e+001 -2.000000e+001  1.500000e+001
      vertex  2.500000e+001  2.000000e+001  0.000000e+000
    endloop
  endfacet
  facet normal  1.000000e+000  0.000000e+000  0.000000e+000
    outer loop
      vertex  2.500000e+001  2.000000e+001  0.000000e+000
      vertex  2.500000e+001 -2.000000e+001  1.500000e+001
      vertex  2.500000e+001 -2.000000e+001  0.000000e+000
    endloop
  endfacet
  facet normal  8.000000e-001 -6.000000e-001  0.000000e+000
    outer loop
      vertex  2.500000e+001 -2.000000e+001  1.500000e+001
      vertex  1.000000e+001 -4.000000e+001  1.500000e+001
      vertex  2.500000e+001 -2.000000e+001  0.000000e+000
    endloop
  endfacet
  facet normal  8.000000e-001 -6.000000e-001  0.000000e+000
    outer loop
      vertex  2.500000e+001 -2.000000e+001  0.000000e+000
      vertex  1.000000e+001 -4.000000e+001  1.500000e+001
      vertex  1.000000e+001 -4.000000e+001  0.000000e+000
    endloop
  endfacet
  facet normal  0.000000e+000 -1.000000e+000  0.000000e+000
    outer loop
      vertex  1.000000e+001 -4.000000e+001  1.500000e+001
      vertex -1.000000e+001 -4.000000e+001  1.500000e+001
      vertex  1.000000e+001 -4.000000e+001  0.000000e+000
    endloop
  endfacet
  facet normal  0.000000e+000 -1.000000e+000  0.000000e+000
    outer loop
      vertex  1.000000e+001 -4.000000e+001  0.000000e+000
      vertex -1.000000e+001 -4.000000e+001  1.500000e+001
      vertex -1.000000e+001 -4.000000e+001  0.000000e+000
    endloop
  endfacet
  facet normal -8.000000e-001 -6.000000e-001  0.000000e+000
    outer loop
      vertex -1.000000e+001 -4.000000e+001  1.500000e+001
      vertex -2.500000e+001 -2.000000e+001  1.500000e+001
      vertex -1.000000e+001 -4.000000e+001  0.000000e+000
    endloop
  endfacet
  facet normal -8.000000e-001 -6.000000e-001  0.000000e+000
    outer loop
      vertex -1.000000e+001 -4.000000e+001  0.000000e+000
      vertex -2.500000e+001 -2.000000e+001  1.500000e+001
      vertex -2.500000e+001 -2.000000e+001  0.000000e+000
    endloop
  endfacet
  facet normal -1.000000e+000  0.000000e+000  0.000000e+000
    outer loop
      vertex -2.500000e+001  2.000000e+001  1.500000e+001
      vertex -2.500000e+001  2.000000e+001  0.000000e+000
      vertex -2.500000e+001 -2.000000e+001  1.500000e+001
    endloop
  endfacet
  facet normal -1.000000e+000  0.000000e+000  0.000000e+000
    outer loop
      vertex -2.500000e+001 -2.000000e+001  1.500000e+001
      vertex -2.500000e+001  2.000000e+001  0.000000e+000
      vertex -2.500000e+001 -2.000000e+001  0.000000e+000
    endloop
  endfacet
  facet normal -8.000000e-001  6.000000e-001  0.000000e+000
    outer loop
      vertex -1.000000e+001  4.000000e+001  1.500000e+001
      vertex -1.000000e+001  4.000000e+001  0.000000e+000
      vertex -2.500000e+001  2.000000e+001  1.500000e+001
    endloop
  endfacet
  facet normal -8.000000e-001  6.000000e-001  0.000000e+000
    outer loop
      vertex -2.500000e+001  2.000000e+001  1.500000e+001
      vertex -1.000000e+001  4.000000e+001  0.000000e+000
      vertex -2.500000e+001  2.000000e+001  0.000000e+000
    endloop
  endfacet
endsolid CATIA STL
