solid CATIA STL
  facet normal -1.000000e+000  0.000000e+000  0.000000e+000
    outer loop
      vertex -1.000000e+001 -4.000000e+001  0.000000e+000
      vertex -1.000000e+001 -9.119720e+000  2.812218e+001
      vertex -1.000000e+001 -1.018008e+001  2.711072e+001
    endloop
  endfacet
  facet normal -9.999999e-001  0.000000e+000  0.000000e+000
    outer loop
      vertex -1.000000e+001 -4.000000e+001  0.000000e+000
      vertex -1.000000e+001 -1.018008e+001  2.711072e+001
      vertex -1.000000e+001 -1.112891e+001  2.599396e+001
    endloop
  endfacet
  facet normal -1.000000e+000  0.000000e+000  0.000000e+000
    outer loop
      vertex -1.000000e+001 -4.000000e+001  0.000000e+000
      vertex -1.000000e+001 -1.112891e+001  2.599396e+001
      vertex -1.000000e+001 -1.195580e+001  2.478414e+001
    endloop
  endfacet
  facet normal -1.000000e+000  0.000000e+000  0.000000e+000
    outer loop
      vertex -1.000000e+001 -4.000000e+001  0.000000e+000
      vertex -1.000000e+001 -1.195580e+001  2.478414e+001
      vertex -1.000000e+001 -1.265171e+001  2.349452e+001
    endloop
  endfacet
  facet normal -1.000000e+000  0.000000e+000  0.000000e+000
    outer loop
      vertex -1.000000e+001 -4.000000e+001  0.000000e+000
      vertex -1.000000e+001 -1.265171e+001  2.349452e+001
      vertex -1.000000e+001 -1.320900e+001  2.213922e+001
    endloop
  endfacet
  facet normal -1.000000e+000  0.000000e+000  0.000000e+000
    outer loop
      vertex -1.000000e+001 -4.000000e+001  0.000000e+000
      vertex -1.000000e+001 -1.320900e+001  2.213922e+001
      vertex -1.000000e+001 -1.362157e+001  2.073309e+001
    endloop
  endfacet
  facet normal -1.000000e+000  0.000000e+000  0.000000e+000
    outer loop
      vertex -1.000000e+001 -4.000000e+001  0.000000e+000
      vertex -1.000000e+001 -1.362157e+001  2.073309e+001
      vertex -1.000000e+001 -1.388490e+001  1.929153e+001
    endloop
  endfacet
  facet normal -1.000000e+000  0.000000e+000  0.000000e+000
    outer loop
      vertex -1.000000e+001 -4.000000e+001  0.000000e+000
      vertex -1.000000e+001 -1.388490e+001  1.929153e+001
      vertex -1.000000e+001 -1.399610e+001  1.783035e+001
    endloop
  endfacet
  facet normal -1.000000e+000  0.000000e+000  -0.000000e+000
    outer loop
      vertex -1.000000e+001 -4.000000e+001  0.000000e+000
      vertex -1.000000e+001 -1.399610e+001  1.783035e+001
      vertex -1.000000e+001 -1.395396e+001  1.636555e+001
    endloop
  endfacet
  facet normal -1.000000e+000  0.000000e+000  -0.000000e+000
    outer loop
      vertex -1.000000e+001 -4.000000e+001  0.000000e+000
      vertex -1.000000e+001 -1.395396e+001  1.636555e+001
      vertex -1.000000e+001 -1.375894e+001  1.491318e+001
    endloop
  endfacet
  facet normal -1.000000e+000  0.000000e+000  -0.000000e+000
    outer loop
      vertex -1.000000e+001 -4.000000e+001  0.000000e+000
      vertex -1.000000e+001 -1.375894e+001  1.491318e+001
      vertex -1.000000e+001 -1.341317e+001  1.348915e+001
    endloop
  endfacet
  facet normal -1.000000e+000  0.000000e+000  -0.000000e+000
    outer loop
      vertex -1.000000e+001 -4.000000e+001  0.000000e+000
      vertex -1.000000e+001 -1.341317e+001  1.348915e+001
      vertex -1.000000e+001 -1.292044e+001  1.210906e+001
    endloop
  endfacet
  facet normal -1.000000e+000  0.000000e+000  -0.000000e+000
    outer loop
      vertex -1.000000e+001 -4.000000e+001  0.000000e+000
      vertex -1.000000e+001 -1.292044e+001  1.210906e+001
      vertex -1.000000e+001 -1.228616e+001  1.078804e+001
    endloop
  endfacet
  facet normal -1.000000e+000  0.000000e+000  -0.000000e+000
    outer loop
      vertex -1.000000e+001 -4.000000e+001  0.000000e+000
      vertex -1.000000e+001 -1.228616e+001  1.078804e+001
      vertex -1.000000e+001 -1.151726e+001  9.540558e+000
    endloop
  endfacet
  facet normal -1.000000e+000  0.000000e+000  -0.000000e+000
    outer loop
      vertex -1.000000e+001 -4.000000e+001  0.000000e+000
      vertex -1.000000e+001 -1.151726e+001  9.540558e+000
      vertex -1.000000e+001 -1.062218e+001  8.380280e+000
    endloop
  endfacet
  facet normal -1.000000e+000  0.000000e+000  -0.000000e+000
    outer loop
      vertex -1.000000e+001 -4.000000e+001  0.000000e+000
      vertex -1.000000e+001 -1.062218e+001  8.380280e+000
      vertex -1.000000e+001 -9.610720e+000  7.319918e+000
    endloop
  endfacet
  facet normal -1.000000e+000  0.000000e+000  -0.000000e+000
    outer loop
      vertex -1.000000e+001 -4.000000e+001  0.000000e+000
      vertex -1.000000e+001 -9.610720e+000  7.319918e+000
      vertex -1.000000e+001 -8.493963e+000  6.371092e+000
    endloop
  endfacet
  facet normal -1.000000e+000  0.000000e+000  -0.000000e+000
    outer loop
      vertex -1.000000e+001 -4.000000e+001  0.000000e+000
      vertex -1.000000e+001 -8.493963e+000  6.371092e+000
      vertex -1.000000e+001 -7.284144e+000  5.544196e+000
    endloop
  endfacet
  facet normal -9.999999e-001  0.000000e+000  -0.000000e+000
    outer loop
      vertex -1.000000e+001 -4.000000e+001  0.000000e+000
      vertex -1.000000e+001 -7.284144e+000  5.544196e+000
      vertex -1.000000e+001 -5.994519e+000  4.848291e+000
    endloop
  endfacet
  facet normal -1.000000e+000  0.000000e+000  -0.000000e+000
    outer loop
      vertex -1.000000e+001 -4.000000e+001  0.000000e+000
      vertex -1.000000e+001 -5.994519e+000  4.848291e+000
      vertex -1.000000e+001 -4.639217e+000  4.291000e+000
    endloop
  endfacet
  facet normal -1.000000e+000  0.000000e+000  -0.000000e+000
    outer loop
      vertex -1.000000e+001 -4.000000e+001  0.000000e+000
      vertex -1.000000e+001 -4.639217e+000  4.291000e+000
      vertex -1.000000e+001 -3.233086e+000  3.878431e+000
    endloop
  endfacet
  facet normal -1.000000e+000  0.000000e+000  -0.000000e+000
    outer loop
      vertex -1.000000e+001 -4.000000e+001  0.000000e+000
      vertex -1.000000e+001 -3.233086e+000  3.878431e+000
      vertex -1.000000e+001 -1.791533e+000  3.615101e+000
    endloop
  endfacet
  facet normal -1.000000e+000  0.000000e+000  -0.000000e+000
    outer loop
      vertex -1.000000e+001 -4.000000e+001  0.000000e+000
      vertex -1.000000e+001 -1.791533e+000  3.615101e+000
      vertex -1.000000e+001  4.000000e+001  0.000000e+000
    endloop
  endfacet
  facet normal -1.000000e+000  -0.000000e+000  0.000000e+000
    outer loop
      vertex -1.000000e+001 -4.000000e+001  3.500000e+001
      vertex -1.000000e+001  4.000000e+001  3.500000e+001
      vertex -1.000000e+001 -1.134449e+000  3.145396e+001
    endloop
  endfacet
  facet normal -9.999999e-001  -0.000000e+000  0.000000e+000
    outer loop
      vertex -1.000000e+001 -4.000000e+001  3.500000e+001
      vertex -1.000000e+001 -1.134449e+000  3.145396e+001
      vertex -1.000000e+001 -2.586820e+000  3.125894e+001
    endloop
  endfacet
  facet normal -1.000000e+000  -0.000000e+000  0.000000e+000
    outer loop
      vertex -1.000000e+001 -4.000000e+001  3.500000e+001
      vertex -1.000000e+001 -2.586820e+000  3.125894e+001
      vertex -1.000000e+001 -4.010850e+000  3.091317e+001
    endloop
  endfacet
  facet normal -9.999999e-001  -0.000000e+000  0.000000e+000
    outer loop
      vertex -1.000000e+001 -4.000000e+001  3.500000e+001
      vertex -1.000000e+001 -4.010850e+000  3.091317e+001
      vertex -1.000000e+001 -5.390936e+000  3.042044e+001
    endloop
  endfacet
  facet normal -9.999999e-001  -0.000000e+000  0.000000e+000
    outer loop
      vertex -1.000000e+001 -4.000000e+001  3.500000e+001
      vertex -1.000000e+001 -5.390936e+000  3.042044e+001
      vertex -1.000000e+001 -6.711957e+000  2.978616e+001
    endloop
  endfacet
  facet normal -1.000000e+000  -0.000000e+000  0.000000e+000
    outer loop
      vertex -1.000000e+001 -4.000000e+001  3.500000e+001
      vertex -1.000000e+001 -6.711957e+000  2.978616e+001
      vertex -1.000000e+001 -7.959442e+000  2.901726e+001
    endloop
  endfacet
  facet normal -1.000000e+000  -0.000000e+000  0.000000e+000
    outer loop
      vertex -1.000000e+001 -4.000000e+001  3.500000e+001
      vertex -1.000000e+001 -7.959442e+000  2.901726e+001
      vertex -1.000000e+001 -9.119720e+000  2.812218e+001
    endloop
  endfacet
  facet normal -9.999999e-001  -0.000000e+000  0.000000e+000
    outer loop
      vertex -1.000000e+001 -4.000000e+001  3.500000e+001
      vertex -1.000000e+001 -9.119720e+000  2.812218e+001
      vertex -1.000000e+001 -4.000000e+001  0.000000e+000
    endloop
  endfacet
  facet normal -1.000000e+000  0.000000e+000  0.000000e+000
    outer loop
      vertex -1.000000e+001  4.000000e+001  0.000000e+000
      vertex -1.000000e+001 -1.791533e+000  3.615101e+000
      vertex -1.000000e+001 -3.303522e-001  3.503898e+000
    endloop
  endfacet
  facet normal -1.000000e+000  0.000000e+000  0.000000e+000
    outer loop
      vertex -1.000000e+001  4.000000e+001  0.000000e+000
      vertex -1.000000e+001 -3.303522e-001  3.503898e+000
      vertex -1.000000e+001  1.134449e+000  3.546039e+000
    endloop
  endfacet
  facet normal -1.000000e+000  0.000000e+000  0.000000e+000
    outer loop
      vertex -1.000000e+001  4.000000e+001  0.000000e+000
      vertex -1.000000e+001  1.134449e+000  3.546039e+000
      vertex -1.000000e+001  2.586820e+000  3.741062e+000
    endloop
  endfacet
  facet normal -1.000000e+000  0.000000e+000  0.000000e+000
    outer loop
      vertex -1.000000e+001  4.000000e+001  0.000000e+000
      vertex -1.000000e+001  2.586820e+000  3.741062e+000
      vertex -1.000000e+001  4.010850e+000  4.086832e+000
    endloop
  endfacet
  facet normal -1.000000e+000  0.000000e+000  0.000000e+000
    outer loop
      vertex -1.000000e+001  4.000000e+001  0.000000e+000
      vertex -1.000000e+001  4.010850e+000  4.086832e+000
      vertex -1.000000e+001  5.390936e+000  4.579558e+000
    endloop
  endfacet
  facet normal -1.000000e+000  0.000000e+000  0.000000e+000
    outer loop
      vertex -1.000000e+001  4.000000e+001  0.000000e+000
      vertex -1.000000e+001  5.390936e+000  4.579558e+000
      vertex -1.000000e+001  6.711957e+000  5.213844e+000
    endloop
  endfacet
  facet normal -1.000000e+000  0.000000e+000  0.000000e+000
    outer loop
      vertex -1.000000e+001  4.000000e+001  0.000000e+000
      vertex -1.000000e+001  6.711957e+000  5.213844e+000
      vertex -1.000000e+001  7.959442e+000  5.982739e+000
    endloop
  endfacet
  facet normal -1.000000e+000  0.000000e+000  0.000000e+000
    outer loop
      vertex -1.000000e+001  4.000000e+001  0.000000e+000
      vertex -1.000000e+001  7.959442e+000  5.982739e+000
      vertex -1.000000e+001  9.119720e+000  6.877820e+000
    endloop
  endfacet
  facet normal -1.000000e+000  0.000000e+000  0.000000e+000
    outer loop
      vertex -1.000000e+001  4.000000e+001  0.000000e+000
      vertex -1.000000e+001  9.119720e+000  6.877820e+000
      vertex -1.000000e+001  1.018008e+001  7.889280e+000
    endloop
  endfacet
  facet normal -1.000000e+000  0.000000e+000  0.000000e+000
    outer loop
      vertex -1.000000e+001  4.000000e+001  0.000000e+000
      vertex -1.000000e+001  1.018008e+001  7.889280e+000
      vertex -1.000000e+001  1.112891e+001  9.006037e+000
    endloop
  endfacet
  facet normal -1.000000e+000  0.000000e+000  0.000000e+000
    outer loop
      vertex -1.000000e+001  4.000000e+001  0.000000e+000
      vertex -1.000000e+001  1.112891e+001  9.006037e+000
      vertex -1.000000e+001  1.195580e+001  1.021586e+001
    endloop
  endfacet
  facet normal -1.000000e+000  0.000000e+000  0.000000e+000
    outer loop
      vertex -1.000000e+001  4.000000e+001  0.000000e+000
      vertex -1.000000e+001  1.195580e+001  1.021586e+001
      vertex -1.000000e+001  1.265171e+001  1.150548e+001
    endloop
  endfacet
  facet normal -1.000000e+000  0.000000e+000  0.000000e+000
    outer loop
      vertex -1.000000e+001  4.000000e+001  0.000000e+000
      vertex -1.000000e+001  1.265171e+001  1.150548e+001
      vertex -1.000000e+001  1.320900e+001  1.286078e+001
    endloop
  endfacet
  facet normal -1.000000e+000  0.000000e+000  0.000000e+000
    outer loop
      vertex -1.000000e+001  4.000000e+001  0.000000e+000
      vertex -1.000000e+001  1.320900e+001  1.286078e+001
      vertex -1.000000e+001  1.362157e+001  1.426691e+001
    endloop
  endfacet
  facet normal -1.000000e+000  0.000000e+000  0.000000e+000
    outer loop
      vertex -1.000000e+001  4.000000e+001  0.000000e+000
      vertex -1.000000e+001  1.362157e+001  1.426691e+001
      vertex -1.000000e+001  1.388490e+001  1.570847e+001
    endloop
  endfacet
  facet normal -1.000000e+000  0.000000e+000  0.000000e+000
    outer loop
      vertex -1.000000e+001  4.000000e+001  0.000000e+000
      vertex -1.000000e+001  1.388490e+001  1.570847e+001
      vertex -1.000000e+001  1.399610e+001  1.716965e+001
    endloop
  endfacet
  facet normal -1.000000e+000  0.000000e+000  0.000000e+000
    outer loop
      vertex -1.000000e+001  4.000000e+001  0.000000e+000
      vertex -1.000000e+001  1.399610e+001  1.716965e+001
      vertex -1.000000e+001  1.395396e+001  1.863445e+001
    endloop
  endfacet
  facet normal -1.000000e+000  0.000000e+000  0.000000e+000
    outer loop
      vertex -1.000000e+001  4.000000e+001  0.000000e+000
      vertex -1.000000e+001  1.395396e+001  1.863445e+001
      vertex -1.000000e+001  4.000000e+001  3.500000e+001
    endloop
  endfacet
  facet normal -1.000000e+000  0.000000e+000  0.000000e+000
    outer loop
      vertex -1.000000e+001  4.000000e+001  3.500000e+001
      vertex -1.000000e+001  1.395396e+001  1.863445e+001
      vertex -1.000000e+001  1.375894e+001  2.008682e+001
    endloop
  endfacet
  facet normal -1.000000e+000  0.000000e+000  0.000000e+000
    outer loop
      vertex -1.000000e+001  4.000000e+001  3.500000e+001
      vertex -1.000000e+001  1.375894e+001  2.008682e+001
      vertex -1.000000e+001  1.341317e+001  2.151085e+001
    endloop
  endfacet
  facet normal -1.000000e+000  0.000000e+000  0.000000e+000
    outer loop
      vertex -1.000000e+001  4.000000e+001  3.500000e+001
      vertex -1.000000e+001  1.341317e+001  2.151085e+001
      vertex -1.000000e+001  1.292044e+001  2.289094e+001
    endloop
  endfacet
  facet normal -1.000000e+000  0.000000e+000  0.000000e+000
    outer loop
      vertex -1.000000e+001  4.000000e+001  3.500000e+001
      vertex -1.000000e+001  1.292044e+001  2.289094e+001
      vertex -1.000000e+001  1.228616e+001  2.421196e+001
    endloop
  endfacet
  facet normal -1.000000e+000  0.000000e+000  0.000000e+000
    outer loop
      vertex -1.000000e+001  4.000000e+001  3.500000e+001
      vertex -1.000000e+001  1.228616e+001  2.421196e+001
      vertex -1.000000e+001  1.151726e+001  2.545944e+001
    endloop
  endfacet
  facet normal -1.000000e+000  0.000000e+000  0.000000e+000
    outer loop
      vertex -1.000000e+001  4.000000e+001  3.500000e+001
      vertex -1.000000e+001  1.151726e+001  2.545944e+001
      vertex -1.000000e+001  1.062218e+001  2.661972e+001
    endloop
  endfacet
  facet normal -1.000000e+000  0.000000e+000  0.000000e+000
    outer loop
      vertex -1.000000e+001  4.000000e+001  3.500000e+001
      vertex -1.000000e+001  1.062218e+001  2.661972e+001
      vertex -1.000000e+001  9.610720e+000  2.768008e+001
    endloop
  endfacet
  facet normal -1.000000e+000  0.000000e+000  0.000000e+000
    outer loop
      vertex -1.000000e+001  4.000000e+001  3.500000e+001
      vertex -1.000000e+001  9.610720e+000  2.768008e+001
      vertex -1.000000e+001  8.493963e+000  2.862891e+001
    endloop
  endfacet
  facet normal -1.000000e+000  0.000000e+000  0.000000e+000
    outer loop
      vertex -1.000000e+001  4.000000e+001  3.500000e+001
      vertex -1.000000e+001  8.493963e+000  2.862891e+001
      vertex -1.000000e+001  7.284144e+000  2.945580e+001
    endloop
  endfacet
  facet normal -1.000000e+000  0.000000e+000  0.000000e+000
    outer loop
      vertex -1.000000e+001  4.000000e+001  3.500000e+001
      vertex -1.000000e+001  7.284144e+000  2.945580e+001
      vertex -1.000000e+001  5.994519e+000  3.015171e+001
    endloop
  endfacet
  facet normal -1.000000e+000  0.000000e+000  0.000000e+000
    outer loop
      vertex -1.000000e+001  4.000000e+001  3.500000e+001
      vertex -1.000000e+001  5.994519e+000  3.015171e+001
      vertex -1.000000e+001  4.639217e+000  3.070900e+001
    endloop
  endfacet
  facet normal -1.000000e+000  0.000000e+000  0.000000e+000
    outer loop
      vertex -1.000000e+001  4.000000e+001  3.500000e+001
      vertex -1.000000e+001  4.639217e+000  3.070900e+001
      vertex -1.000000e+001  3.233086e+000  3.112157e+001
    endloop
  endfacet
  facet normal -1.000000e+000  0.000000e+000  0.000000e+000
    outer loop
      vertex -1.000000e+001  4.000000e+001  3.500000e+001
      vertex -1.000000e+001  3.233086e+000  3.112157e+001
      vertex -1.000000e+001  1.791533e+000  3.138490e+001
    endloop
  endfacet
  facet normal -1.000000e+000  0.000000e+000  0.000000e+000
    outer loop
      vertex -1.000000e+001  4.000000e+001  3.500000e+001
      vertex -1.000000e+001  1.791533e+000  3.138490e+001
      vertex -1.000000e+001  3.303522e-001  3.149610e+001
    endloop
  endfacet
  facet normal -1.000000e+000  -0.000000e+000  0.000000e+000
    outer loop
      vertex -1.000000e+001  4.000000e+001  3.500000e+001
      vertex -1.000000e+001  3.303522e-001  3.149610e+001
      vertex -1.000000e+001 -1.134449e+000  3.145396e+001
    endloop
  endfacet
  facet normal  1.000000e+000  0.000000e+000  0.000000e+000
    outer loop
      vertex  1.000000e+001 -4.000000e+001  0.000000e+000
      vertex  1.000000e+001  1.134449e+000  3.546039e+000
      vertex  1.000000e+001 -3.303522e-001  3.503898e+000
    endloop
  endfacet
  facet normal  1.000000e+000  0.000000e+000  0.000000e+000
    outer loop
      vertex  1.000000e+001 -4.000000e+001  0.000000e+000
      vertex  1.000000e+001 -3.303522e-001  3.503898e+000
      vertex  1.000000e+001 -1.791533e+000  3.615101e+000
    endloop
  endfacet
  facet normal  1.000000e+000  0.000000e+000  0.000000e+000
    outer loop
      vertex  1.000000e+001 -4.000000e+001  0.000000e+000
      vertex  1.000000e+001 -1.791533e+000  3.615101e+000
      vertex  1.000000e+001 -3.233086e+000  3.878431e+000
    endloop
  endfacet
  facet normal  1.000000e+000  0.000000e+000  0.000000e+000
    outer loop
      vertex  1.000000e+001 -4.000000e+001  0.000000e+000
      vertex  1.000000e+001 -3.233086e+000  3.878431e+000
      vertex  1.000000e+001 -4.639217e+000  4.291000e+000
    endloop
  endfacet
  facet normal  1.000000e+000  0.000000e+000  0.000000e+000
    outer loop
      vertex  1.000000e+001 -4.000000e+001  0.000000e+000
      vertex  1.000000e+001 -4.639217e+000  4.291000e+000
      vertex  1.000000e+001 -5.994519e+000  4.848291e+000
    endloop
  endfacet
  facet normal  1.000000e+000  0.000000e+000  0.000000e+000
    outer loop
      vertex  1.000000e+001 -4.000000e+001  0.000000e+000
      vertex  1.000000e+001 -5.994519e+000  4.848291e+000
      vertex  1.000000e+001 -7.284144e+000  5.544196e+000
    endloop
  endfacet
  facet normal  1.000000e+000  0.000000e+000  0.000000e+000
    outer loop
      vertex  1.000000e+001 -4.000000e+001  0.000000e+000
      vertex  1.000000e+001 -7.284144e+000  5.544196e+000
      vertex  1.000000e+001 -8.493963e+000  6.371092e+000
    endloop
  endfacet
  facet normal  1.000000e+000  0.000000e+000  0.000000e+000
    outer loop
      vertex  1.000000e+001 -4.000000e+001  0.000000e+000
      vertex  1.000000e+001 -8.493963e+000  6.371092e+000
      vertex  1.000000e+001 -9.610720e+000  7.319918e+000
    endloop
  endfacet
  facet normal  1.000000e+000  0.000000e+000  0.000000e+000
    outer loop
      vertex  1.000000e+001 -4.000000e+001  0.000000e+000
      vertex  1.000000e+001 -9.610720e+000  7.319918e+000
      vertex  1.000000e+001 -1.062218e+001  8.380280e+000
    endloop
  endfacet
  facet normal  1.000000e+000  0.000000e+000  0.000000e+000
    outer loop
      vertex  1.000000e+001 -4.000000e+001  0.000000e+000
      vertex  1.000000e+001 -1.062218e+001  8.380280e+000
      vertex  1.000000e+001 -1.151726e+001  9.540558e+000
    endloop
  endfacet
  facet normal  1.000000e+000  0.000000e+000  0.000000e+000
    outer loop
      vertex  1.000000e+001 -4.000000e+001  0.000000e+000
      vertex  1.000000e+001 -1.151726e+001  9.540558e+000
      vertex  1.000000e+001 -1.228616e+001  1.078804e+001
    endloop
  endfacet
  facet normal  1.000000e+000  0.000000e+000  0.000000e+000
    outer loop
      vertex  1.000000e+001 -4.000000e+001  0.000000e+000
      vertex  1.000000e+001 -1.228616e+001  1.078804e+001
      vertex  1.000000e+001 -1.292044e+001  1.210906e+001
    endloop
  endfacet
  facet normal  1.000000e+000  0.000000e+000  0.000000e+000
    outer loop
      vertex  1.000000e+001 -4.000000e+001  0.000000e+000
      vertex  1.000000e+001 -1.292044e+001  1.210906e+001
      vertex  1.000000e+001 -1.341317e+001  1.348915e+001
    endloop
  endfacet
  facet normal  1.000000e+000  0.000000e+000  0.000000e+000
    outer loop
      vertex  1.000000e+001 -4.000000e+001  0.000000e+000
      vertex  1.000000e+001 -1.341317e+001  1.348915e+001
      vertex  1.000000e+001 -1.375894e+001  1.491318e+001
    endloop
  endfacet
  facet normal  1.000000e+000  0.000000e+000  0.000000e+000
    outer loop
      vertex  1.000000e+001 -4.000000e+001  0.000000e+000
      vertex  1.000000e+001 -1.375894e+001  1.491318e+001
      vertex  1.000000e+001 -1.395396e+001  1.636555e+001
    endloop
  endfacet
  facet normal  1.000000e+000  0.000000e+000  0.000000e+000
    outer loop
      vertex  1.000000e+001 -4.000000e+001  0.000000e+000
      vertex  1.000000e+001 -1.395396e+001  1.636555e+001
      vertex  1.000000e+001 -1.399610e+001  1.783035e+001
    endloop
  endfacet
  facet normal  1.000000e+000  0.000000e+000  0.000000e+000
    outer loop
      vertex  1.000000e+001 -4.000000e+001  0.000000e+000
      vertex  1.000000e+001 -1.399610e+001  1.783035e+001
      vertex  1.000000e+001 -4.000000e+001  3.500000e+001
    endloop
  endfacet
  facet normal  1.000000e+000  0.000000e+000  0.000000e+000
    outer loop
      vertex  1.000000e+001  4.000000e+001  0.000000e+000
      vertex  1.000000e+001  9.610720e+000  2.768008e+001
      vertex  1.000000e+001  1.062218e+001  2.661972e+001
    endloop
  endfacet
  facet normal  1.000000e+000  0.000000e+000  0.000000e+000
    outer loop
      vertex  1.000000e+001  4.000000e+001  0.000000e+000
      vertex  1.000000e+001  1.062218e+001  2.661972e+001
      vertex  1.000000e+001  1.151726e+001  2.545944e+001
    endloop
  endfacet
  facet normal  9.999999e-001  0.000000e+000  0.000000e+000
    outer loop
      vertex  1.000000e+001  4.000000e+001  0.000000e+000
      vertex  1.000000e+001  1.151726e+001  2.545944e+001
      vertex  1.000000e+001  1.228616e+001  2.421196e+001
    endloop
  endfacet
  facet normal  1.000000e+000  0.000000e+000  0.000000e+000
    outer loop
      vertex  1.000000e+001  4.000000e+001  0.000000e+000
      vertex  1.000000e+001  1.228616e+001  2.421196e+001
      vertex  1.000000e+001  1.292044e+001  2.289094e+001
    endloop
  endfacet
  facet normal  1.000000e+000  0.000000e+000  0.000000e+000
    outer loop
      vertex  1.000000e+001  4.000000e+001  0.000000e+000
      vertex  1.000000e+001  1.292044e+001  2.289094e+001
      vertex  1.000000e+001  1.341317e+001  2.151085e+001
    endloop
  endfacet
  facet normal  1.000000e+000  0.000000e+000  0.000000e+000
    outer loop
      vertex  1.000000e+001  4.000000e+001  0.000000e+000
      vertex  1.000000e+001  1.341317e+001  2.151085e+001
      vertex  1.000000e+001  1.375894e+001  2.008682e+001
    endloop
  endfacet
  facet normal  1.000000e+000  0.000000e+000  0.000000e+000
    outer loop
      vertex  1.000000e+001  4.000000e+001  0.000000e+000
      vertex  1.000000e+001  1.375894e+001  2.008682e+001
      vertex  1.000000e+001  1.395396e+001  1.863445e+001
    endloop
  endfacet
  facet normal  1.000000e+000  0.000000e+000  0.000000e+000
    outer loop
      vertex  1.000000e+001  4.000000e+001  0.000000e+000
      vertex  1.000000e+001  1.395396e+001  1.863445e+001
      vertex  1.000000e+001  1.399610e+001  1.716965e+001
    endloop
  endfacet
  facet normal  1.000000e+000  0.000000e+000  0.000000e+000
    outer loop
      vertex  1.000000e+001  4.000000e+001  0.000000e+000
      vertex  1.000000e+001  1.399610e+001  1.716965e+001
      vertex  1.000000e+001  1.388490e+001  1.570847e+001
    endloop
  endfacet
  facet normal  1.000000e+000  0.000000e+000  0.000000e+000
    outer loop
      vertex  1.000000e+001  4.000000e+001  0.000000e+000
      vertex  1.000000e+001  1.388490e+001  1.570847e+001
      vertex  1.000000e+001  1.362157e+001  1.426691e+001
    endloop
  endfacet
  facet normal  1.000000e+000  0.000000e+000  0.000000e+000
    outer loop
      vertex  1.000000e+001  4.000000e+001  0.000000e+000
      vertex  1.000000e+001  1.362157e+001  1.426691e+001
      vertex  1.000000e+001  1.320900e+001  1.286078e+001
    endloop
  endfacet
  facet normal  1.000000e+000  0.000000e+000  0.000000e+000
    outer loop
      vertex  1.000000e+001  4.000000e+001  0.000000e+000
      vertex  1.000000e+001  1.320900e+001  1.286078e+001
      vertex  1.000000e+001  1.265171e+001  1.150548e+001
    endloop
  endfacet
  facet normal  1.000000e+000  0.000000e+000  0.000000e+000
    outer loop
      vertex  1.000000e+001  4.000000e+001  0.000000e+000
      vertex  1.000000e+001  1.265171e+001  1.150548e+001
      vertex  1.000000e+001  1.195580e+001  1.021586e+001
    endloop
  endfacet
  facet normal  1.000000e+000  0.000000e+000  0.000000e+000
    outer loop
      vertex  1.000000e+001  4.000000e+001  0.000000e+000
      vertex  1.000000e+001  1.195580e+001  1.021586e+001
      vertex  1.000000e+001  1.112891e+001  9.006037e+000
    endloop
  endfacet
  facet normal  1.000000e+000  0.000000e+000  0.000000e+000
    outer loop
      vertex  1.000000e+001  4.000000e+001  0.000000e+000
      vertex  1.000000e+001  1.112891e+001  9.006037e+000
      vertex  1.000000e+001  1.018008e+001  7.889280e+000
    endloop
  endfacet
  facet normal  1.000000e+000  0.000000e+000  0.000000e+000
    outer loop
      vertex  1.000000e+001  4.000000e+001  0.000000e+000
      vertex  1.000000e+001  1.018008e+001  7.889280e+000
      vertex  1.000000e+001  9.119720e+000  6.877820e+000
    endloop
  endfacet
  facet normal  1.000000e+000  0.000000e+000  0.000000e+000
    outer loop
      vertex  1.000000e+001  4.000000e+001  0.000000e+000
      vertex  1.000000e+001  9.119720e+000  6.877820e+000
      vertex  1.000000e+001  7.959442e+000  5.982739e+000
    endloop
  endfacet
  facet normal  1.000000e+000  0.000000e+000  0.000000e+000
    outer loop
      vertex  1.000000e+001  4.000000e+001  0.000000e+000
      vertex  1.000000e+001  7.959442e+000  5.982739e+000
      vertex  1.000000e+001  6.711957e+000  5.213844e+000
    endloop
  endfacet
  facet normal  1.000000e+000  0.000000e+000  0.000000e+000
    outer loop
      vertex  1.000000e+001  4.000000e+001  0.000000e+000
      vertex  1.000000e+001  6.711957e+000  5.213844e+000
      vertex  1.000000e+001  5.390936e+000  4.579558e+000
    endloop
  endfacet
  facet normal  1.000000e+000  0.000000e+000  0.000000e+000
    outer loop
      vertex  1.000000e+001  4.000000e+001  0.000000e+000
      vertex  1.000000e+001  5.390936e+000  4.579558e+000
      vertex  1.000000e+001  4.010850e+000  4.086832e+000
    endloop
  endfacet
  facet normal  1.000000e+000  0.000000e+000  0.000000e+000
    outer loop
      vertex  1.000000e+001  4.000000e+001  0.000000e+000
      vertex  1.000000e+001  4.010850e+000  4.086832e+000
      vertex  1.000000e+001  2.586820e+000  3.741062e+000
    endloop
  endfacet
  facet normal  1.000000e+000  0.000000e+000  0.000000e+000
    outer loop
      vertex  1.000000e+001  4.000000e+001  0.000000e+000
      vertex  1.000000e+001  2.586820e+000  3.741062e+000
      vertex  1.000000e+001  1.134449e+000  3.546039e+000
    endloop
  endfacet
  facet normal  1.000000e+000  0.000000e+000  0.000000e+000
    outer loop
      vertex  1.000000e+001  4.000000e+001  0.000000e+000
      vertex  1.000000e+001  1.134449e+000  3.546039e+000
      vertex  1.000000e+001 -4.000000e+001  0.000000e+000
    endloop
  endfacet
  facet normal  1.000000e+000  -0.000000e+000  0.000000e+000
    outer loop
      vertex  1.000000e+001  4.000000e+001  3.500000e+001
      vertex  1.000000e+001 -4.000000e+001  3.500000e+001
      vertex  1.000000e+001  1.791533e+000  3.138490e+001
    endloop
  endfacet
  facet normal  1.000000e+000  -0.000000e+000  0.000000e+000
    outer loop
      vertex  1.000000e+001  4.000000e+001  3.500000e+001
      vertex  1.000000e+001  1.791533e+000  3.138490e+001
      vertex  1.000000e+001  3.233086e+000  3.112157e+001
    endloop
  endfacet
  facet normal  1.000000e+000  -0.000000e+000  0.000000e+000
    outer loop
      vertex  1.000000e+001  4.000000e+001  3.500000e+001
      vertex  1.000000e+001  3.233086e+000  3.112157e+001
      vertex  1.000000e+001  4.639217e+000  3.070900e+001
    endloop
  endfacet
  facet normal  1.000000e+000  -0.000000e+000  0.000000e+000
    outer loop
      vertex  1.000000e+001  4.000000e+001  3.500000e+001
      vertex  1.000000e+001  4.639217e+000  3.070900e+001
      vertex  1.000000e+001  5.994519e+000  3.015171e+001
    endloop
  endfacet
  facet normal  1.000000e+000  -0.000000e+000  0.000000e+000
    outer loop
      vertex  1.000000e+001  4.000000e+001  3.500000e+001
      vertex  1.000000e+001  5.994519e+000  3.015171e+001
      vertex  1.000000e+001  7.284144e+000  2.945580e+001
    endloop
  endfacet
  facet normal  1.000000e+000  -0.000000e+000  0.000000e+000
    outer loop
      vertex  1.000000e+001  4.000000e+001  3.500000e+001
      vertex  1.000000e+001  7.284144e+000  2.945580e+001
      vertex  1.000000e+001  8.493963e+000  2.862891e+001
    endloop
  endfacet
  facet normal  1.000000e+000  -0.000000e+000  0.000000e+000
    outer loop
      vertex  1.000000e+001  4.000000e+001  3.500000e+001
      vertex  1.000000e+001  8.493963e+000  2.862891e+001
      vertex  1.000000e+001  9.610720e+000  2.768008e+001
    endloop
  endfacet
  facet normal  1.000000e+000  -0.000000e+000  0.000000e+000
    outer loop
      vertex  1.000000e+001  4.000000e+001  3.500000e+001
      vertex  1.000000e+001  9.610720e+000  2.768008e+001
      vertex  1.000000e+001  4.000000e+001  0.000000e+000
    endloop
  endfacet
  facet normal  1.000000e+000  0.000000e+000  -0.000000e+000
    outer loop
      vertex  1.000000e+001 -4.000000e+001  3.500000e+001
      vertex  1.000000e+001 -1.399610e+001  1.783035e+001
      vertex  1.000000e+001 -1.388490e+001  1.929153e+001
    endloop
  endfacet
  facet normal  1.000000e+000  0.000000e+000  -0.000000e+000
    outer loop
      vertex  1.000000e+001 -4.000000e+001  3.500000e+001
      vertex  1.000000e+001 -1.388490e+001  1.929153e+001
      vertex  1.000000e+001 -1.362157e+001  2.073309e+001
    endloop
  endfacet
  facet normal  1.000000e+000  0.000000e+000  -0.000000e+000
    outer loop
      vertex  1.000000e+001 -4.000000e+001  3.500000e+001
      vertex  1.000000e+001 -1.362157e+001  2.073309e+001
      vertex  1.000000e+001 -1.320900e+001  2.213922e+001
    endloop
  endfacet
  facet normal  1.000000e+000  0.000000e+000  -0.000000e+000
    outer loop
      vertex  1.000000e+001 -4.000000e+001  3.500000e+001
      vertex  1.000000e+001 -1.320900e+001  2.213922e+001
      vertex  1.000000e+001 -1.265171e+001  2.349452e+001
    endloop
  endfacet
  facet normal  1.000000e+000  0.000000e+000  -0.000000e+000
    outer loop
      vertex  1.000000e+001 -4.000000e+001  3.500000e+001
      vertex  1.000000e+001 -1.265171e+001  2.349452e+001
      vertex  1.000000e+001 -1.195580e+001  2.478414e+001
    endloop
  endfacet
  facet normal  1.000000e+000  0.000000e+000  -0.000000e+000
    outer loop
      vertex  1.000000e+001 -4.000000e+001  3.500000e+001
      vertex  1.000000e+001 -1.195580e+001  2.478414e+001
      vertex  1.000000e+001 -1.112891e+001  2.599396e+001
    endloop
  endfacet
  facet normal  1.000000e+000  0.000000e+000  -0.000000e+000
    outer loop
      vertex  1.000000e+001 -4.000000e+001  3.500000e+001
      vertex  1.000000e+001 -1.112891e+001  2.599396e+001
      vertex  1.000000e+001 -1.018008e+001  2.711072e+001
    endloop
  endfacet
  facet normal  1.000000e+000  0.000000e+000  -0.000000e+000
    outer loop
      vertex  1.000000e+001 -4.000000e+001  3.500000e+001
      vertex  1.000000e+001 -1.018008e+001  2.711072e+001
      vertex  1.000000e+001 -9.119720e+000  2.812218e+001
    endloop
  endfacet
  facet normal  1.000000e+000  0.000000e+000  -0.000000e+000
    outer loop
      vertex  1.000000e+001 -4.000000e+001  3.500000e+001
      vertex  1.000000e+001 -9.119720e+000  2.812218e+001
      vertex  1.000000e+001 -7.959442e+000  2.901726e+001
    endloop
  endfacet
  facet normal  1.000000e+000  0.000000e+000  -0.000000e+000
    outer loop
      vertex  1.000000e+001 -4.000000e+001  3.500000e+001
      vertex  1.000000e+001 -7.959442e+000  2.901726e+001
      vertex  1.000000e+001 -6.711957e+000  2.978616e+001
    endloop
  endfacet
  facet normal  1.000000e+000  0.000000e+000  -0.000000e+000
    outer loop
      vertex  1.000000e+001 -4.000000e+001  3.500000e+001
      vertex  1.000000e+001 -6.711957e+000  2.978616e+001
      vertex  1.000000e+001 -5.390936e+000  3.042044e+001
    endloop
  endfacet
  facet normal  9.999999e-001  0.000000e+000  -0.000000e+000
    outer loop
      vertex  1.000000e+001 -4.000000e+001  3.500000e+001
      vertex  1.000000e+001 -5.390936e+000  3.042044e+001
      vertex  1.000000e+001 -4.010850e+000  3.091317e+001
    endloop
  endfacet
  facet normal  1.000000e+000  0.000000e+000  -0.000000e+000
    outer loop
      vertex  1.000000e+001 -4.000000e+001  3.500000e+001
      vertex  1.000000e+001 -4.010850e+000  3.091317e+001
      vertex  1.000000e+001 -2.586820e+000  3.125894e+001
    endloop
  endfacet
  facet normal  1.000000e+000  0.000000e+000  -0.000000e+000
    outer loop
      vertex  1.000000e+001 -4.000000e+001  3.500000e+001
      vertex  1.000000e+001 -2.586820e+000  3.125894e+001
      vertex  1.000000e+001 -1.134449e+000  3.145396e+001
    endloop
  endfacet
  facet normal  1.000000e+000  0.000000e+000  -0.000000e+000
    outer loop
      vertex  1.000000e+001 -4.000000e+001  3.500000e+001
      vertex  1.000000e+001 -1.134449e+000  3.145396e+001
      vertex  1.000000e+001  3.303522e-001  3.149610e+001
    endloop
  endfacet
  facet normal  9.999999e-001  -0.000000e+000  -0.000000e+000
    outer loop
      vertex  1.000000e+001 -4.000000e+001  3.500000e+001
      vertex  1.000000e+001  3.303522e-001  3.149610e+001
      vertex  1.000000e+001  1.791533e+000  3.138490e+001
    endloop
  endfacet
  facet normal  0.000000e+000  5.246980e-001 -8.512886e-001
    outer loop
      vertex -1.000000e+001 -6.711957e+000  2.978616e+001
      vertex  1.000000e+001 -7.959442e+000  2.901726e+001
      vertex -1.000000e+001 -7.959442e+000  2.901726e+001
    endloop
  endfacet
  facet normal  0.000000e+000  6.108071e-001 -7.917795e-001
    outer loop
      vertex -1.000000e+001 -7.959442e+000  2.901726e+001
      vertex  1.000000e+001 -7.959442e+000  2.901726e+001
      vertex  1.000000e+001 -9.119720e+000  2.812218e+001
    endloop
  endfacet
  facet normal  0.000000e+000  6.108071e-001 -7.917795e-001
    outer loop
      vertex -1.000000e+001 -7.959442e+000  2.901726e+001
      vertex  1.000000e+001 -9.119720e+000  2.812218e+001
      vertex -1.000000e+001 -9.119720e+000  2.812218e+001
    endloop
  endfacet
  facet normal  0.000000e+000  6.902242e-001 -7.235956e-001
    outer loop
      vertex -1.000000e+001 -9.119720e+000  2.812218e+001
      vertex  1.000000e+001 -9.119720e+000  2.812218e+001
      vertex  1.000000e+001 -1.018008e+001  2.711072e+001
    endloop
  endfacet
  facet normal  0.000000e+000  6.902242e-001 -7.235956e-001
    outer loop
      vertex -1.000000e+001 -9.119720e+000  2.812218e+001
      vertex  1.000000e+001 -1.018008e+001  2.711072e+001
      vertex -1.000000e+001 -1.018008e+001  2.711072e+001
    endloop
  endfacet
  facet normal  0.000000e+000  7.620798e-001 -6.474832e-001
    outer loop
      vertex -1.000000e+001 -1.018008e+001  2.711072e+001
      vertex  1.000000e+001 -1.018008e+001  2.711072e+001
      vertex  1.000000e+001 -1.112891e+001  2.599396e+001
    endloop
  endfacet
  facet normal  0.000000e+000  7.620798e-001 -6.474832e-001
    outer loop
      vertex -1.000000e+001 -1.018008e+001  2.711072e+001
      vertex  1.000000e+001 -1.112891e+001  2.599396e+001
      vertex -1.000000e+001 -1.112891e+001  2.599396e+001
    endloop
  endfacet
  facet normal  0.000000e+000  8.255857e-001 -5.642768e-001
    outer loop
      vertex -1.000000e+001 -1.112891e+001  2.599396e+001
      vertex  1.000000e+001 -1.112891e+001  2.599396e+001
      vertex  1.000000e+001 -1.195580e+001  2.478414e+001
    endloop
  endfacet
  facet normal  0.000000e+000  8.255857e-001 -5.642768e-001
    outer loop
      vertex -1.000000e+001 -1.112891e+001  2.599396e+001
      vertex  1.000000e+001 -1.195580e+001  2.478414e+001
      vertex -1.000000e+001 -1.195580e+001  2.478414e+001
    endloop
  endfacet
  facet normal  0.000000e+000  8.800457e-001 -4.748890e-001
    outer loop
      vertex -1.000000e+001 -1.195580e+001  2.478414e+001
      vertex  1.000000e+001 -1.195580e+001  2.478414e+001
      vertex  1.000000e+001 -1.265171e+001  2.349452e+001
    endloop
  endfacet
  facet normal  0.000000e+000  8.800457e-001 -4.748890e-001
    outer loop
      vertex -1.000000e+001 -1.195580e+001  2.478414e+001
      vertex  1.000000e+001 -1.265171e+001  2.349452e+001
      vertex -1.000000e+001 -1.265171e+001  2.349452e+001
    endloop
  endfacet
  facet normal  0.000000e+000  9.248641e-001 -3.802977e-001
    outer loop
      vertex -1.000000e+001 -1.265171e+001  2.349452e+001
      vertex  1.000000e+001 -1.265171e+001  2.349452e+001
      vertex  1.000000e+001 -1.320900e+001  2.213922e+001
    endloop
  endfacet
  facet normal  0.000000e+000  9.248641e-001 -3.802977e-001
    outer loop
      vertex -1.000000e+001 -1.265171e+001  2.349452e+001
      vertex  1.000000e+001 -1.320900e+001  2.213922e+001
      vertex -1.000000e+001 -1.320900e+001  2.213922e+001
    endloop
  endfacet
  facet normal  0.000000e+000  9.595497e-001 -2.815394e-001
    outer loop
      vertex -1.000000e+001 -1.320900e+001  2.213922e+001
      vertex  1.000000e+001 -1.320900e+001  2.213922e+001
      vertex  1.000000e+001 -1.362157e+001  2.073309e+001
    endloop
  endfacet
  facet normal  0.000000e+000  9.595497e-001 -2.815394e-001
    outer loop
      vertex -1.000000e+001 -1.320900e+001  2.213922e+001
      vertex  1.000000e+001 -1.362157e+001  2.073309e+001
      vertex -1.000000e+001 -1.362157e+001  2.073309e+001
    endloop
  endfacet
  facet normal  0.000000e+000  9.837221e-001 -1.796968e-001
    outer loop
      vertex -1.000000e+001 -1.362157e+001  2.073309e+001
      vertex  1.000000e+001 -1.362157e+001  2.073309e+001
      vertex  1.000000e+001 -1.388490e+001  1.929153e+001
    endloop
  endfacet
  facet normal  0.000000e+000  9.837221e-001 -1.796968e-001
    outer loop
      vertex -1.000000e+001 -1.362157e+001  2.073309e+001
      vertex  1.000000e+001 -1.388490e+001  1.929153e+001
      vertex -1.000000e+001 -1.388490e+001  1.929153e+001
    endloop
  endfacet
  facet normal  0.000000e+000  9.971166e-001 -7.588618e-002
    outer loop
      vertex -1.000000e+001 -1.388490e+001  1.929153e+001
      vertex  1.000000e+001 -1.388490e+001  1.929153e+001
      vertex  1.000000e+001 -1.399610e+001  1.783035e+001
    endloop
  endfacet
  facet normal  0.000000e+000  9.971166e-001 -7.588618e-002
    outer loop
      vertex -1.000000e+001 -1.388490e+001  1.929153e+001
      vertex  1.000000e+001 -1.399610e+001  1.783035e+001
      vertex -1.000000e+001 -1.399610e+001  1.783035e+001
    endloop
  endfacet
  facet normal  -0.000000e+000  9.995865e-001  2.875715e-002
    outer loop
      vertex -1.000000e+001 -1.399610e+001  1.783035e+001
      vertex  1.000000e+001 -1.399610e+001  1.783035e+001
      vertex  1.000000e+001 -1.395396e+001  1.636555e+001
    endloop
  endfacet
  facet normal  0.000000e+000  9.995865e-001  2.875715e-002
    outer loop
      vertex -1.000000e+001 -1.399610e+001  1.783035e+001
      vertex  1.000000e+001 -1.395396e+001  1.636555e+001
      vertex -1.000000e+001 -1.395396e+001  1.636555e+001
    endloop
  endfacet
  facet normal  -0.000000e+000  9.911047e-001  1.330850e-001
    outer loop
      vertex -1.000000e+001 -1.395396e+001  1.636555e+001
      vertex  1.000000e+001 -1.395396e+001  1.636555e+001
      vertex  1.000000e+001 -1.375894e+001  1.491318e+001
    endloop
  endfacet
  facet normal  0.000000e+000  9.911047e-001  1.330850e-001
    outer loop
      vertex -1.000000e+001 -1.395396e+001  1.636555e+001
      vertex  1.000000e+001 -1.375894e+001  1.491318e+001
      vertex -1.000000e+001 -1.375894e+001  1.491318e+001
    endloop
  endfacet
  facet normal  -0.000000e+000  9.717640e-001  2.359548e-001
    outer loop
      vertex -1.000000e+001 -1.375894e+001  1.491318e+001
      vertex  1.000000e+001 -1.375894e+001  1.491318e+001
      vertex  1.000000e+001 -1.341317e+001  1.348915e+001
    endloop
  endfacet
  facet normal  0.000000e+000  9.717640e-001  2.359548e-001
    outer loop
      vertex -1.000000e+001 -1.375894e+001  1.491318e+001
      vertex  1.000000e+001 -1.341317e+001  1.348915e+001
      vertex -1.000000e+001 -1.341317e+001  1.348915e+001
    endloop
  endfacet
  facet normal  -0.000000e+000  9.417769e-001  3.362387e-001
    outer loop
      vertex -1.000000e+001 -1.341317e+001  1.348915e+001
      vertex  1.000000e+001 -1.341317e+001  1.348915e+001
      vertex  1.000000e+001 -1.292044e+001  1.210906e+001
    endloop
  endfacet
  facet normal  0.000000e+000  9.417769e-001  3.362387e-001
    outer loop
      vertex -1.000000e+001 -1.341317e+001  1.348915e+001
      vertex  1.000000e+001 -1.292044e+001  1.210906e+001
      vertex -1.000000e+001 -1.292044e+001  1.210906e+001
    endloop
  endfacet
  facet normal  -0.000000e+000  9.014711e-001  4.328394e-001
    outer loop
      vertex -1.000000e+001 -1.292044e+001  1.210906e+001
      vertex  1.000000e+001 -1.292044e+001  1.210906e+001
      vertex  1.000000e+001 -1.228616e+001  1.078804e+001
    endloop
  endfacet
  facet normal  0.000000e+000  9.014711e-001  4.328394e-001
    outer loop
      vertex -1.000000e+001 -1.292044e+001  1.210906e+001
      vertex  1.000000e+001 -1.228616e+001  1.078804e+001
      vertex -1.000000e+001 -1.228616e+001  1.078804e+001
    endloop
  endfacet
  facet normal  0.000000e+000  5.246980e-001 -8.512886e-001
    outer loop
      vertex  1.000000e+001 -7.959442e+000  2.901726e+001
      vertex -1.000000e+001 -6.711957e+000  2.978616e+001
      vertex  1.000000e+001 -6.711957e+000  2.978616e+001
    endloop
  endfacet
  facet normal  0.000000e+000  4.328390e-001 -9.014713e-001
    outer loop
      vertex  1.000000e+001 -6.711957e+000  2.978616e+001
      vertex -1.000000e+001 -6.711957e+000  2.978616e+001
      vertex -1.000000e+001 -5.390936e+000  3.042044e+001
    endloop
  endfacet
  facet normal  0.000000e+000  4.328390e-001 -9.014713e-001
    outer loop
      vertex  1.000000e+001 -6.711957e+000  2.978616e+001
      vertex -1.000000e+001 -5.390936e+000  3.042044e+001
      vertex  1.000000e+001 -5.390936e+000  3.042044e+001
    endloop
  endfacet
  facet normal  0.000000e+000  3.362392e-001 -9.417766e-001
    outer loop
      vertex  1.000000e+001 -5.390936e+000  3.042044e+001
      vertex -1.000000e+001 -5.390936e+000  3.042044e+001
      vertex -1.000000e+001 -4.010850e+000  3.091317e+001
    endloop
  endfacet
  facet normal  0.000000e+000  3.362392e-001 -9.417766e-001
    outer loop
      vertex  1.000000e+001 -5.390936e+000  3.042044e+001
      vertex -1.000000e+001 -4.010850e+000  3.091317e+001
      vertex  1.000000e+001 -4.010850e+000  3.091317e+001
    endloop
  endfacet
  facet normal  0.000000e+000  2.359548e-001 -9.717640e-001
    outer loop
      vertex  1.000000e+001 -4.010850e+000  3.091317e+001
      vertex -1.000000e+001 -4.010850e+000  3.091317e+001
      vertex -1.000000e+001 -2.586820e+000  3.125894e+001
    endloop
  endfacet
  facet normal  0.000000e+000  2.359548e-001 -9.717640e-001
    outer loop
      vertex  1.000000e+001 -4.010850e+000  3.091317e+001
      vertex -1.000000e+001 -2.586820e+000  3.125894e+001
      vertex  1.000000e+001 -2.586820e+000  3.125894e+001
    endloop
  endfacet
  facet normal  0.000000e+000  1.330843e-001 -9.911048e-001
    outer loop
      vertex  1.000000e+001 -2.586820e+000  3.125894e+001
      vertex -1.000000e+001 -2.586820e+000  3.125894e+001
      vertex -1.000000e+001 -1.134449e+000  3.145396e+001
    endloop
  endfacet
  facet normal  0.000000e+000  1.330843e-001 -9.911048e-001
    outer loop
      vertex  1.000000e+001 -2.586820e+000  3.125894e+001
      vertex -1.000000e+001 -1.134449e+000  3.145396e+001
      vertex  1.000000e+001 -1.134449e+000  3.145396e+001
    endloop
  endfacet
  facet normal  0.000000e+000  2.875717e-002 -9.995864e-001
    outer loop
      vertex  1.000000e+001 -1.134449e+000  3.145396e+001
      vertex -1.000000e+001 -1.134449e+000  3.145396e+001
      vertex -1.000000e+001  3.303522e-001  3.149610e+001
    endloop
  endfacet
  facet normal  0.000000e+000  2.875717e-002 -9.995864e-001
    outer loop
      vertex  1.000000e+001 -1.134449e+000  3.145396e+001
      vertex -1.000000e+001  3.303522e-001  3.149610e+001
      vertex  1.000000e+001  3.303522e-001  3.149610e+001
    endloop
  endfacet
  facet normal  -0.000000e+000 -7.588491e-002 -9.971166e-001
    outer loop
      vertex  1.000000e+001  3.303522e-001  3.149610e+001
      vertex -1.000000e+001  3.303522e-001  3.149610e+001
      vertex -1.000000e+001  1.791533e+000  3.138490e+001
    endloop
  endfacet
  facet normal  0.000000e+000 -7.588491e-002 -9.971166e-001
    outer loop
      vertex  1.000000e+001  3.303522e-001  3.149610e+001
      vertex -1.000000e+001  1.791533e+000  3.138490e+001
      vertex  1.000000e+001  1.791533e+000  3.138490e+001
    endloop
  endfacet
  facet normal  -0.000000e+000 -1.796978e-001 -9.837219e-001
    outer loop
      vertex  1.000000e+001  1.791533e+000  3.138490e+001
      vertex -1.000000e+001  1.791533e+000  3.138490e+001
      vertex -1.000000e+001  3.233086e+000  3.112157e+001
    endloop
  endfacet
  facet normal  0.000000e+000 -1.796978e-001 -9.837219e-001
    outer loop
      vertex  1.000000e+001  1.791533e+000  3.138490e+001
      vertex -1.000000e+001  3.233086e+000  3.112157e+001
      vertex  1.000000e+001  3.233086e+000  3.112157e+001
    endloop
  endfacet
  facet normal  -0.000000e+000 -2.815390e-001 -9.595498e-001
    outer loop
      vertex  1.000000e+001  3.233086e+000  3.112157e+001
      vertex -1.000000e+001  3.233086e+000  3.112157e+001
      vertex -1.000000e+001  4.639217e+000  3.070900e+001
    endloop
  endfacet
  facet normal  0.000000e+000 -2.815390e-001 -9.595498e-001
    outer loop
      vertex  1.000000e+001  3.233086e+000  3.112157e+001
      vertex -1.000000e+001  4.639217e+000  3.070900e+001
      vertex  1.000000e+001  4.639217e+000  3.070900e+001
    endloop
  endfacet
  facet normal  -0.000000e+000 -3.802978e-001 -9.248641e-001
    outer loop
      vertex  1.000000e+001  4.639217e+000  3.070900e+001
      vertex -1.000000e+001  4.639217e+000  3.070900e+001
      vertex -1.000000e+001  5.994519e+000  3.015171e+001
    endloop
  endfacet
  facet normal  0.000000e+000 -3.802978e-001 -9.248641e-001
    outer loop
      vertex  1.000000e+001  4.639217e+000  3.070900e+001
      vertex -1.000000e+001  5.994519e+000  3.015171e+001
      vertex  1.000000e+001  5.994519e+000  3.015171e+001
    endloop
  endfacet
  facet normal  -0.000000e+000 -4.748890e-001 -8.800457e-001
    outer loop
      vertex  1.000000e+001  5.994519e+000  3.015171e+001
      vertex -1.000000e+001  5.994519e+000  3.015171e+001
      vertex -1.000000e+001  7.284144e+000  2.945580e+001
    endloop
  endfacet
  facet normal  0.000000e+000 -4.748890e-001 -8.800457e-001
    outer loop
      vertex  1.000000e+001  5.994519e+000  3.015171e+001
      vertex -1.000000e+001  7.284144e+000  2.945580e+001
      vertex  1.000000e+001  7.284144e+000  2.945580e+001
    endloop
  endfacet
  facet normal  -0.000000e+000 -5.642766e-001 -8.255857e-001
    outer loop
      vertex  1.000000e+001  7.284144e+000  2.945580e+001
      vertex -1.000000e+001  7.284144e+000  2.945580e+001
      vertex -1.000000e+001  8.493963e+000  2.862891e+001
    endloop
  endfacet
  facet normal  0.000000e+000 -5.642766e-001 -8.255857e-001
    outer loop
      vertex  1.000000e+001  7.284144e+000  2.945580e+001
      vertex -1.000000e+001  8.493963e+000  2.862891e+001
      vertex  1.000000e+001  8.493963e+000  2.862891e+001
    endloop
  endfacet
  facet normal  -0.000000e+000 -6.474832e-001 -7.620798e-001
    outer loop
      vertex  1.000000e+001  8.493963e+000  2.862891e+001
      vertex -1.000000e+001  8.493963e+000  2.862891e+001
      vertex -1.000000e+001  9.610720e+000  2.768008e+001
    endloop
  endfacet
  facet normal  0.000000e+000 -6.474832e-001 -7.620798e-001
    outer loop
      vertex  1.000000e+001  8.493963e+000  2.862891e+001
      vertex -1.000000e+001  9.610720e+000  2.768008e+001
      vertex  1.000000e+001  9.610720e+000  2.768008e+001
    endloop
  endfacet
  facet normal  -0.000000e+000 -7.235956e-001 -6.902242e-001
    outer loop
      vertex  1.000000e+001  9.610720e+000  2.768008e+001
      vertex -1.000000e+001  9.610720e+000  2.768008e+001
      vertex -1.000000e+001  1.062218e+001  2.661972e+001
    endloop
  endfacet
  facet normal  0.000000e+000 -7.235956e-001 -6.902242e-001
    outer loop
      vertex  1.000000e+001  9.610720e+000  2.768008e+001
      vertex -1.000000e+001  1.062218e+001  2.661972e+001
      vertex  1.000000e+001  1.062218e+001  2.661972e+001
    endloop
  endfacet
  facet normal  -0.000000e+000 -7.917790e-001 -6.108076e-001
    outer loop
      vertex  1.000000e+001  1.062218e+001  2.661972e+001
      vertex -1.000000e+001  1.062218e+001  2.661972e+001
      vertex -1.000000e+001  1.151726e+001  2.545944e+001
    endloop
  endfacet
  facet normal  0.000000e+000 -7.917790e-001 -6.108076e-001
    outer loop
      vertex  1.000000e+001  1.062218e+001  2.661972e+001
      vertex -1.000000e+001  1.151726e+001  2.545944e+001
      vertex  1.000000e+001  1.151726e+001  2.545944e+001
    endloop
  endfacet
  facet normal  -0.000000e+000 -8.512887e-001 -5.246974e-001
    outer loop
      vertex  1.000000e+001  1.151726e+001  2.545944e+001
      vertex -1.000000e+001  1.151726e+001  2.545944e+001
      vertex -1.000000e+001  1.228616e+001  2.421196e+001
    endloop
  endfacet
  facet normal  0.000000e+000 -8.512887e-001 -5.246974e-001
    outer loop
      vertex  1.000000e+001  1.151726e+001  2.545944e+001
      vertex -1.000000e+001  1.228616e+001  2.421196e+001
      vertex  1.000000e+001  1.228616e+001  2.421196e+001
    endloop
  endfacet
  facet normal  0.000000e+000 -5.246974e-001  8.512887e-001
    outer loop
      vertex -1.000000e+001  6.711957e+000  5.213844e+000
      vertex  1.000000e+001  7.959442e+000  5.982739e+000
      vertex -1.000000e+001  7.959442e+000  5.982739e+000
    endloop
  endfacet
  facet normal  0.000000e+000 -6.108072e-001  7.917793e-001
    outer loop
      vertex -1.000000e+001  7.959442e+000  5.982739e+000
      vertex  1.000000e+001  7.959442e+000  5.982739e+000
      vertex  1.000000e+001  9.119720e+000  6.877820e+000
    endloop
  endfacet
  facet normal  0.000000e+000 -6.108072e-001  7.917793e-001
    outer loop
      vertex -1.000000e+001  7.959442e+000  5.982739e+000
      vertex  1.000000e+001  9.119720e+000  6.877820e+000
      vertex -1.000000e+001  9.119720e+000  6.877820e+000
    endloop
  endfacet
  facet normal  0.000000e+000 -6.902244e-001  7.235954e-001
    outer loop
      vertex -1.000000e+001  9.119720e+000  6.877820e+000
      vertex  1.000000e+001  9.119720e+000  6.877820e+000
      vertex  1.000000e+001  1.018008e+001  7.889280e+000
    endloop
  endfacet
  facet normal  0.000000e+000 -6.902244e-001  7.235954e-001
    outer loop
      vertex -1.000000e+001  9.119720e+000  6.877820e+000
      vertex  1.000000e+001  1.018008e+001  7.889280e+000
      vertex -1.000000e+001  1.018008e+001  7.889280e+000
    endloop
  endfacet
  facet normal  0.000000e+000 -7.620798e-001  6.474832e-001
    outer loop
      vertex -1.000000e+001  1.018008e+001  7.889280e+000
      vertex  1.000000e+001  1.018008e+001  7.889280e+000
      vertex  1.000000e+001  1.112891e+001  9.006037e+000
    endloop
  endfacet
  facet normal  0.000000e+000 -7.620798e-001  6.474832e-001
    outer loop
      vertex -1.000000e+001  1.018008e+001  7.889280e+000
      vertex  1.000000e+001  1.112891e+001  9.006037e+000
      vertex -1.000000e+001  1.112891e+001  9.006037e+000
    endloop
  endfacet
  facet normal  0.000000e+000 -8.255854e-001  5.642771e-001
    outer loop
      vertex -1.000000e+001  1.112891e+001  9.006037e+000
      vertex  1.000000e+001  1.112891e+001  9.006037e+000
      vertex  1.000000e+001  1.195580e+001  1.021586e+001
    endloop
  endfacet
  facet normal  0.000000e+000 -8.255854e-001  5.642771e-001
    outer loop
      vertex -1.000000e+001  1.112891e+001  9.006037e+000
      vertex  1.000000e+001  1.195580e+001  1.021586e+001
      vertex -1.000000e+001  1.195580e+001  1.021586e+001
    endloop
  endfacet
  facet normal  0.000000e+000 -8.800460e-001  4.748885e-001
    outer loop
      vertex -1.000000e+001  1.195580e+001  1.021586e+001
      vertex  1.000000e+001  1.195580e+001  1.021586e+001
      vertex  1.000000e+001  1.265171e+001  1.150548e+001
    endloop
  endfacet
  facet normal  0.000000e+000 -8.800460e-001  4.748885e-001
    outer loop
      vertex -1.000000e+001  1.195580e+001  1.021586e+001
      vertex  1.000000e+001  1.265171e+001  1.150548e+001
      vertex -1.000000e+001  1.265171e+001  1.150548e+001
    endloop
  endfacet
  facet normal  0.000000e+000 -9.248641e-001  3.802979e-001
    outer loop
      vertex -1.000000e+001  1.265171e+001  1.150548e+001
      vertex  1.000000e+001  1.265171e+001  1.150548e+001
      vertex  1.000000e+001  1.320900e+001  1.286078e+001
    endloop
  endfacet
  facet normal  0.000000e+000 -9.248641e-001  3.802979e-001
    outer loop
      vertex -1.000000e+001  1.265171e+001  1.150548e+001
      vertex  1.000000e+001  1.320900e+001  1.286078e+001
      vertex -1.000000e+001  1.320900e+001  1.286078e+001
    endloop
  endfacet
  facet normal  0.000000e+000 -9.595497e-001  2.815395e-001
    outer loop
      vertex -1.000000e+001  1.320900e+001  1.286078e+001
      vertex  1.000000e+001  1.320900e+001  1.286078e+001
      vertex  1.000000e+001  1.362157e+001  1.426691e+001
    endloop
  endfacet
  facet normal  0.000000e+000 -9.595497e-001  2.815395e-001
    outer loop
      vertex -1.000000e+001  1.320900e+001  1.286078e+001
      vertex  1.000000e+001  1.362157e+001  1.426691e+001
      vertex -1.000000e+001  1.362157e+001  1.426691e+001
    endloop
  endfacet
  facet normal  0.000000e+000 -9.837221e-001  1.796965e-001
    outer loop
      vertex -1.000000e+001  1.362157e+001  1.426691e+001
      vertex  1.000000e+001  1.362157e+001  1.426691e+001
      vertex  1.000000e+001  1.388490e+001  1.570847e+001
    endloop
  endfacet
  facet normal  0.000000e+000 -9.837221e-001  1.796965e-001
    outer loop
      vertex -1.000000e+001  1.362157e+001  1.426691e+001
      vertex  1.000000e+001  1.388490e+001  1.570847e+001
      vertex -1.000000e+001  1.388490e+001  1.570847e+001
    endloop
  endfacet
  facet normal  0.000000e+000 -9.971165e-001  7.588623e-002
    outer loop
      vertex -1.000000e+001  1.388490e+001  1.570847e+001
      vertex  1.000000e+001  1.388490e+001  1.570847e+001
      vertex  1.000000e+001  1.399610e+001  1.716965e+001
    endloop
  endfacet
  facet normal  0.000000e+000 -9.971165e-001  7.588623e-002
    outer loop
      vertex -1.000000e+001  1.388490e+001  1.570847e+001
      vertex  1.000000e+001  1.399610e+001  1.716965e+001
      vertex -1.000000e+001  1.399610e+001  1.716965e+001
    endloop
  endfacet
  facet normal  0.000000e+000 -9.995865e-001 -2.875715e-002
    outer loop
      vertex -1.000000e+001  1.399610e+001  1.716965e+001
      vertex  1.000000e+001  1.399610e+001  1.716965e+001
      vertex  1.000000e+001  1.395396e+001  1.863445e+001
    endloop
  endfacet
  facet normal  -0.000000e+000 -9.995865e-001 -2.875715e-002
    outer loop
      vertex -1.000000e+001  1.399610e+001  1.716965e+001
      vertex  1.000000e+001  1.395396e+001  1.863445e+001
      vertex -1.000000e+001  1.395396e+001  1.863445e+001
    endloop
  endfacet
  facet normal  0.000000e+000 -9.911047e-001 -1.330849e-001
    outer loop
      vertex -1.000000e+001  1.395396e+001  1.863445e+001
      vertex  1.000000e+001  1.395396e+001  1.863445e+001
      vertex  1.000000e+001  1.375894e+001  2.008682e+001
    endloop
  endfacet
  facet normal  -0.000000e+000 -9.911047e-001 -1.330849e-001
    outer loop
      vertex -1.000000e+001  1.395396e+001  1.863445e+001
      vertex  1.000000e+001  1.375894e+001  2.008682e+001
      vertex -1.000000e+001  1.375894e+001  2.008682e+001
    endloop
  endfacet
  facet normal  0.000000e+000 -9.717640e-001 -2.359551e-001
    outer loop
      vertex -1.000000e+001  1.375894e+001  2.008682e+001
      vertex  1.000000e+001  1.375894e+001  2.008682e+001
      vertex  1.000000e+001  1.341317e+001  2.151085e+001
    endloop
  endfacet
  facet normal  -0.000000e+000 -9.717640e-001 -2.359551e-001
    outer loop
      vertex -1.000000e+001  1.375894e+001  2.008682e+001
      vertex  1.000000e+001  1.341317e+001  2.151085e+001
      vertex -1.000000e+001  1.341317e+001  2.151085e+001
    endloop
  endfacet
  facet normal  0.000000e+000 -9.417769e-001 -3.362384e-001
    outer loop
      vertex -1.000000e+001  1.341317e+001  2.151085e+001
      vertex  1.000000e+001  1.341317e+001  2.151085e+001
      vertex  1.000000e+001  1.292044e+001  2.289094e+001
    endloop
  endfacet
  facet normal  -0.000000e+000 -9.417769e-001 -3.362384e-001
    outer loop
      vertex -1.000000e+001  1.341317e+001  2.151085e+001
      vertex  1.000000e+001  1.292044e+001  2.289094e+001
      vertex -1.000000e+001  1.292044e+001  2.289094e+001
    endloop
  endfacet
  facet normal  0.000000e+000 -9.014711e-001 -4.328394e-001
    outer loop
      vertex -1.000000e+001  1.292044e+001  2.289094e+001
      vertex  1.000000e+001  1.292044e+001  2.289094e+001
      vertex  1.000000e+001  1.228616e+001  2.421196e+001
    endloop
  endfacet
  facet normal  -0.000000e+000 -9.014711e-001 -4.328394e-001
    outer loop
      vertex -1.000000e+001  1.292044e+001  2.289094e+001
      vertex  1.000000e+001  1.228616e+001  2.421196e+001
      vertex -1.000000e+001  1.228616e+001  2.421196e+001
    endloop
  endfacet
  facet normal  0.000000e+000 -5.246974e-001  8.512887e-001
    outer loop
      vertex  1.000000e+001  7.959442e+000  5.982739e+000
      vertex -1.000000e+001  6.711957e+000  5.213844e+000
      vertex  1.000000e+001  6.711957e+000  5.213844e+000
    endloop
  endfacet
  facet normal  0.000000e+000 -4.328395e-001  9.014710e-001
    outer loop
      vertex  1.000000e+001  6.711957e+000  5.213844e+000
      vertex -1.000000e+001  6.711957e+000  5.213844e+000
      vertex -1.000000e+001  5.390936e+000  4.579558e+000
    endloop
  endfacet
  facet normal  0.000000e+000 -4.328395e-001  9.014710e-001
    outer loop
      vertex  1.000000e+001  6.711957e+000  5.213844e+000
      vertex -1.000000e+001  5.390936e+000  4.579558e+000
      vertex  1.000000e+001  5.390936e+000  4.579558e+000
    endloop
  endfacet
  facet normal  0.000000e+000 -3.362390e-001  9.417768e-001
    outer loop
      vertex  1.000000e+001  5.390936e+000  4.579558e+000
      vertex -1.000000e+001  5.390936e+000  4.579558e+000
      vertex -1.000000e+001  4.010850e+000  4.086832e+000
    endloop
  endfacet
  facet normal  0.000000e+000 -3.362390e-001  9.417768e-001
    outer loop
      vertex  1.000000e+001  5.390936e+000  4.579558e+000
      vertex -1.000000e+001  4.010850e+000  4.086832e+000
      vertex  1.000000e+001  4.010850e+000  4.086832e+000
    endloop
  endfacet
  facet normal  0.000000e+000 -2.359544e-001  9.717642e-001
    outer loop
      vertex  1.000000e+001  4.010850e+000  4.086832e+000
      vertex -1.000000e+001  4.010850e+000  4.086832e+000
      vertex -1.000000e+001  2.586820e+000  3.741062e+000
    endloop
  endfacet
  facet normal  0.000000e+000 -2.359544e-001  9.717642e-001
    outer loop
      vertex  1.000000e+001  4.010850e+000  4.086832e+000
      vertex -1.000000e+001  2.586820e+000  3.741062e+000
      vertex  1.000000e+001  2.586820e+000  3.741062e+000
    endloop
  endfacet
  facet normal  0.000000e+000 -1.330848e-001  9.911047e-001
    outer loop
      vertex  1.000000e+001  2.586820e+000  3.741062e+000
      vertex -1.000000e+001  2.586820e+000  3.741062e+000
      vertex -1.000000e+001  1.134449e+000  3.546039e+000
    endloop
  endfacet
  facet normal  0.000000e+000 -1.330848e-001  9.911047e-001
    outer loop
      vertex  1.000000e+001  2.586820e+000  3.741062e+000
      vertex -1.000000e+001  1.134449e+000  3.546039e+000
      vertex  1.000000e+001  1.134449e+000  3.546039e+000
    endloop
  endfacet
  facet normal  0.000000e+000 -2.875717e-002  9.995864e-001
    outer loop
      vertex  1.000000e+001  1.134449e+000  3.546039e+000
      vertex -1.000000e+001  1.134449e+000  3.546039e+000
      vertex -1.000000e+001 -3.303522e-001  3.503898e+000
    endloop
  endfacet
  facet normal  0.000000e+000 -2.875717e-002  9.995864e-001
    outer loop
      vertex  1.000000e+001  1.134449e+000  3.546039e+000
      vertex -1.000000e+001 -3.303522e-001  3.503898e+000
      vertex  1.000000e+001 -3.303522e-001  3.503898e+000
    endloop
  endfacet
  facet normal  0.000000e+000  7.588555e-002  9.971166e-001
    outer loop
      vertex  1.000000e+001 -3.303522e-001  3.503898e+000
      vertex -1.000000e+001 -3.303522e-001  3.503898e+000
      vertex -1.000000e+001 -1.791533e+000  3.615101e+000
    endloop
  endfacet
  facet normal  -0.000000e+000  7.588555e-002  9.971166e-001
    outer loop
      vertex  1.000000e+001 -3.303522e-001  3.503898e+000
      vertex -1.000000e+001 -1.791533e+000  3.615101e+000
      vertex  1.000000e+001 -1.791533e+000  3.615101e+000
    endloop
  endfacet
  facet normal  0.000000e+000  1.796970e-001  9.837220e-001
    outer loop
      vertex  1.000000e+001 -1.791533e+000  3.615101e+000
      vertex -1.000000e+001 -1.791533e+000  3.615101e+000
      vertex -1.000000e+001 -3.233086e+000  3.878431e+000
    endloop
  endfacet
  facet normal  -0.000000e+000  1.796970e-001  9.837220e-001
    outer loop
      vertex  1.000000e+001 -1.791533e+000  3.615101e+000
      vertex -1.000000e+001 -3.233086e+000  3.878431e+000
      vertex  1.000000e+001 -3.233086e+000  3.878431e+000
    endloop
  endfacet
  facet normal  0.000000e+000  2.815394e-001  9.595496e-001
    outer loop
      vertex  1.000000e+001 -3.233086e+000  3.878431e+000
      vertex -1.000000e+001 -3.233086e+000  3.878431e+000
      vertex -1.000000e+001 -4.639217e+000  4.291000e+000
    endloop
  endfacet
  facet normal  -0.000000e+000  2.815394e-001  9.595496e-001
    outer loop
      vertex  1.000000e+001 -3.233086e+000  3.878431e+000
      vertex -1.000000e+001 -4.639217e+000  4.291000e+000
      vertex  1.000000e+001 -4.639217e+000  4.291000e+000
    endloop
  endfacet
  facet normal  0.000000e+000  3.802975e-001  9.248642e-001
    outer loop
      vertex  1.000000e+001 -4.639217e+000  4.291000e+000
      vertex -1.000000e+001 -4.639217e+000  4.291000e+000
      vertex -1.000000e+001 -5.994519e+000  4.848291e+000
    endloop
  endfacet
  facet normal  -0.000000e+000  3.802975e-001  9.248642e-001
    outer loop
      vertex  1.000000e+001 -4.639217e+000  4.291000e+000
      vertex -1.000000e+001 -5.994519e+000  4.848291e+000
      vertex  1.000000e+001 -5.994519e+000  4.848291e+000
    endloop
  endfacet
  facet normal  0.000000e+000  4.748887e-001  8.800458e-001
    outer loop
      vertex  1.000000e+001 -5.994519e+000  4.848291e+000
      vertex -1.000000e+001 -5.994519e+000  4.848291e+000
      vertex -1.000000e+001 -7.284144e+000  5.544196e+000
    endloop
  endfacet
  facet normal  -0.000000e+000  4.748887e-001  8.800458e-001
    outer loop
      vertex  1.000000e+001 -5.994519e+000  4.848291e+000
      vertex -1.000000e+001 -7.284144e+000  5.544196e+000
      vertex  1.000000e+001 -7.284144e+000  5.544196e+000
    endloop
  endfacet
  facet normal  0.000000e+000  5.642771e-001  8.255854e-001
    outer loop
      vertex  1.000000e+001 -7.284144e+000  5.544196e+000
      vertex -1.000000e+001 -7.284144e+000  5.544196e+000
      vertex -1.000000e+001 -8.493963e+000  6.371092e+000
    endloop
  endfacet
  facet normal  -0.000000e+000  5.642771e-001  8.255854e-001
    outer loop
      vertex  1.000000e+001 -7.284144e+000  5.544196e+000
      vertex -1.000000e+001 -8.493963e+000  6.371092e+000
      vertex  1.000000e+001 -8.493963e+000  6.371092e+000
    endloop
  endfacet
  facet normal  0.000000e+000  6.474833e-001  7.620796e-001
    outer loop
      vertex  1.000000e+001 -8.493963e+000  6.371092e+000
      vertex -1.000000e+001 -8.493963e+000  6.371092e+000
      vertex -1.000000e+001 -9.610720e+000  7.319918e+000
    endloop
  endfacet
  facet normal  -0.000000e+000  6.474833e-001  7.620796e-001
    outer loop
      vertex  1.000000e+001 -8.493963e+000  6.371092e+000
      vertex -1.000000e+001 -9.610720e+000  7.319918e+000
      vertex  1.000000e+001 -9.610720e+000  7.319918e+000
    endloop
  endfacet
  facet normal  0.000000e+000  7.235954e-001  6.902244e-001
    outer loop
      vertex  1.000000e+001 -9.610720e+000  7.319918e+000
      vertex -1.000000e+001 -9.610720e+000  7.319918e+000
      vertex -1.000000e+001 -1.062218e+001  8.380280e+000
    endloop
  endfacet
  facet normal  -0.000000e+000  7.235954e-001  6.902244e-001
    outer loop
      vertex  1.000000e+001 -9.610720e+000  7.319918e+000
      vertex -1.000000e+001 -1.062218e+001  8.380280e+000
      vertex  1.000000e+001 -1.062218e+001  8.380280e+000
    endloop
  endfacet
  facet normal  0.000000e+000  7.917790e-001  6.108076e-001
    outer loop
      vertex  1.000000e+001 -1.062218e+001  8.380280e+000
      vertex -1.000000e+001 -1.062218e+001  8.380280e+000
      vertex -1.000000e+001 -1.151726e+001  9.540558e+000
    endloop
  endfacet
  facet normal  -0.000000e+000  7.917790e-001  6.108076e-001
    outer loop
      vertex  1.000000e+001 -1.062218e+001  8.380280e+000
      vertex -1.000000e+001 -1.151726e+001  9.540558e+000
      vertex  1.000000e+001 -1.151726e+001  9.540558e+000
    endloop
  endfacet
  facet normal  0.000000e+000  8.512887e-001  5.246974e-001
    outer loop
      vertex  1.000000e+001 -1.151726e+001  9.540558e+000
      vertex -1.000000e+001 -1.151726e+001  9.540558e+000
      vertex -1.000000e+001 -1.228616e+001  1.078804e+001
    endloop
  endfacet
  facet normal  -0.000000e+000  8.512887e-001  5.246974e-001
    outer loop
      vertex  1.000000e+001 -1.151726e+001  9.540558e+000
      vertex -1.000000e+001 -1.228616e+001  1.078804e+001
      vertex  1.000000e+001 -1.228616e+001  1.078804e+001
    endloop
  endfacet
  facet normal  0.000000e+000  0.000000e+000  1.000000e+000
    outer loop
      vertex -1.000000e+001  4.000000e+001  3.500000e+001
      vertex -1.000000e+001 -4.000000e+001  3.500000e+001
      vertex -5.500000e+000 -3.500000e+001  3.500000e+001
    endloop
  endfacet
  facet normal  0.000000e+000  -0.000000e+000  1.000000e+000
    outer loop
      vertex -1.000000e+001  4.000000e+001  3.500000e+001
      vertex -5.500000e+000 -3.500000e+001  3.500000e+001
      vertex -5.500000e+000 -2.400000e+001  3.500000e+001
    endloop
  endfacet
  facet normal  0.000000e+000  -0.000000e+000  1.000000e+000
    outer loop
      vertex -1.000000e+001  4.000000e+001  3.500000e+001
      vertex -5.500000e+000 -2.400000e+001  3.500000e+001
      vertex -5.500000e+000  2.400000e+001  3.500000e+001
    endloop
  endfacet
  facet normal  0.000000e+000  -0.000000e+000  1.000000e+000
    outer loop
      vertex -1.000000e+001  4.000000e+001  3.500000e+001
      vertex -5.500000e+000  2.400000e+001  3.500000e+001
      vertex -5.500000e+000  3.500000e+001  3.500000e+001
    endloop
  endfacet
  facet normal  0.000000e+000  -0.000000e+000  9.999999e-001
    outer loop
      vertex -1.000000e+001  4.000000e+001  3.500000e+001
      vertex -5.500000e+000  3.500000e+001  3.500000e+001
      vertex  5.500000e+000  3.500000e+001  3.500000e+001
    endloop
  endfacet
  facet normal  0.000000e+000  -0.000000e+000  1.000000e+000
    outer loop
      vertex -1.000000e+001  4.000000e+001  3.500000e+001
      vertex  5.500000e+000  3.500000e+001  3.500000e+001
      vertex  1.000000e+001  4.000000e+001  3.500000e+001
    endloop
  endfacet
  facet normal  -0.000000e+000  0.000000e+000  1.000000e+000
    outer loop
      vertex  1.000000e+001  4.000000e+001  3.500000e+001
      vertex  5.500000e+000  3.500000e+001  3.500000e+001
      vertex  5.500000e+000  2.400000e+001  3.500000e+001
    endloop
  endfacet
  facet normal  -0.000000e+000  0.000000e+000  1.000000e+000
    outer loop
      vertex  1.000000e+001  4.000000e+001  3.500000e+001
      vertex  5.500000e+000  2.400000e+001  3.500000e+001
      vertex  5.500000e+000 -2.400000e+001  3.500000e+001
    endloop
  endfacet
  facet normal  -0.000000e+000  0.000000e+000  1.000000e+000
    outer loop
      vertex  1.000000e+001  4.000000e+001  3.500000e+001
      vertex  5.500000e+000 -2.400000e+001  3.500000e+001
      vertex  5.500000e+000 -3.500000e+001  3.500000e+001
    endloop
  endfacet
  facet normal  -0.000000e+000  0.000000e+000  1.000000e+000
    outer loop
      vertex  1.000000e+001  4.000000e+001  3.500000e+001
      vertex  5.500000e+000 -3.500000e+001  3.500000e+001
      vertex  1.000000e+001 -4.000000e+001  3.500000e+001
    endloop
  endfacet
  facet normal  -0.000000e+000  0.000000e+000  1.000000e+000
    outer loop
      vertex  5.500000e+000  2.400000e+001  3.500000e+001
      vertex -5.500000e+000  2.400000e+001  3.500000e+001
      vertex  5.500000e+000 -2.400000e+001  3.500000e+001
    endloop
  endfacet
  facet normal  0.000000e+000  0.000000e+000  1.000000e+000
    outer loop
      vertex  5.500000e+000 -2.400000e+001  3.500000e+001
      vertex -5.500000e+000  2.400000e+001  3.500000e+001
      vertex -5.500000e+000 -2.400000e+001  3.500000e+001
    endloop
  endfacet
  facet normal  -0.000000e+000  0.000000e+000  9.999999e-001
    outer loop
      vertex  5.500000e+000 -3.500000e+001  3.500000e+001
      vertex -5.500000e+000 -3.500000e+001  3.500000e+001
      vertex  1.000000e+001 -4.000000e+001  3.500000e+001
    endloop
  endfacet
  facet normal  0.000000e+000  0.000000e+000  1.000000e+000
    outer loop
      vertex  1.000000e+001 -4.000000e+001  3.500000e+001
      vertex -5.500000e+000 -3.500000e+001  3.500000e+001
      vertex -1.000000e+001 -4.000000e+001  3.500000e+001
    endloop
  endfacet
  facet normal  -0.000000e+000  0.000000e+000 -1.000000e+000
    outer loop
      vertex -1.000000e+001  4.000000e+001  0.000000e+000
      vertex  1.000000e+001  4.000000e+001  0.000000e+000
      vertex  5.500000e+000  3.500000e+001  0.000000e+000
    endloop
  endfacet
  facet normal  0.000000e+000  0.000000e+000 -9.999999e-001
    outer loop
      vertex -1.000000e+001  4.000000e+001  0.000000e+000
      vertex  5.500000e+000  3.500000e+001  0.000000e+000
      vertex -5.500000e+000  3.500000e+001  0.000000e+000
    endloop
  endfacet
  facet normal  -0.000000e+000  -0.000000e+000 -1.000000e+000
    outer loop
      vertex -1.000000e+001  4.000000e+001  0.000000e+000
      vertex -5.500000e+000  3.500000e+001  0.000000e+000
      vertex -5.500000e+000  2.400000e+001  0.000000e+000
    endloop
  endfacet
  facet normal  -0.000000e+000  -0.000000e+000 -1.000000e+000
    outer loop
      vertex -1.000000e+001  4.000000e+001  0.000000e+000
      vertex -5.500000e+000  2.400000e+001  0.000000e+000
      vertex -5.500000e+000 -2.400000e+001  0.000000e+000
    endloop
  endfacet
  facet normal  -0.000000e+000  -0.000000e+000 -1.000000e+000
    outer loop
      vertex -1.000000e+001  4.000000e+001  0.000000e+000
      vertex -5.500000e+000 -2.400000e+001  0.000000e+000
      vertex -5.500000e+000 -3.500000e+001  0.000000e+000
    endloop
  endfacet
  facet normal  -0.000000e+000  0.000000e+000 -1.000000e+000
    outer loop
      vertex -1.000000e+001  4.000000e+001  0.000000e+000
      vertex -5.500000e+000 -3.500000e+001  0.000000e+000
      vertex -1.000000e+001 -4.000000e+001  0.000000e+000
    endloop
  endfacet
  facet normal  0.000000e+000  0.000000e+000 -1.000000e+000
    outer loop
      vertex  1.000000e+001  4.000000e+001  0.000000e+000
      vertex  1.000000e+001 -4.000000e+001  0.000000e+000
      vertex  5.500000e+000 -3.500000e+001  0.000000e+000
    endloop
  endfacet
  facet normal  0.000000e+000  0.000000e+000 -1.000000e+000
    outer loop
      vertex  1.000000e+001  4.000000e+001  0.000000e+000
      vertex  5.500000e+000 -3.500000e+001  0.000000e+000
      vertex  5.500000e+000 -2.400000e+001  0.000000e+000
    endloop
  endfacet
  facet normal  0.000000e+000  0.000000e+000 -1.000000e+000
    outer loop
      vertex  1.000000e+001  4.000000e+001  0.000000e+000
      vertex  5.500000e+000 -2.400000e+001  0.000000e+000
      vertex  5.500000e+000  2.400000e+001  0.000000e+000
    endloop
  endfacet
  facet normal  0.000000e+000  0.000000e+000 -1.000000e+000
    outer loop
      vertex  1.000000e+001  4.000000e+001  0.000000e+000
      vertex  5.500000e+000  2.400000e+001  0.000000e+000
      vertex  5.500000e+000  3.500000e+001  0.000000e+000
    endloop
  endfacet
  facet normal  0.000000e+000  0.000000e+000 -1.000000e+000
    outer loop
      vertex  5.500000e+000  2.400000e+001  0.000000e+000
      vertex  5.500000e+000 -2.400000e+001  0.000000e+000
      vertex -5.500000e+000  2.400000e+001  0.000000e+000
    endloop
  endfacet
  facet normal  0.000000e+000  0.000000e+000 -1.000000e+000
    outer loop
      vertex -5.500000e+000  2.400000e+001  0.000000e+000
      vertex  5.500000e+000 -2.400000e+001  0.000000e+000
      vertex -5.500000e+000 -2.400000e+001  0.000000e+000
    endloop
  endfacet
  facet normal  0.000000e+000  0.000000e+000 -9.999999e-001
    outer loop
      vertex  5.500000e+000 -3.500000e+001  0.000000e+000
      vertex  1.000000e+001 -4.000000e+001  0.000000e+000
      vertex -5.500000e+000 -3.500000e+001  0.000000e+000
    endloop
  endfacet
  facet normal  0.000000e+000  -0.000000e+000 -1.000000e+000
    outer loop
      vertex -5.500000e+000 -3.500000e+001  0.000000e+000
      vertex  1.000000e+001 -4.000000e+001  0.000000e+000
      vertex -1.000000e+001 -4.000000e+001  0.000000e+000
    endloop
  endfacet
  facet normal  1.000000e+000  -0.000000e+000  0.000000e+000
    outer loop
      vertex -5.500000e+000 -2.400000e+001  3.500000e+001
      vertex -5.500000e+000 -3.500000e+001  3.500000e+001
      vertex -5.500000e+000 -2.400000e+001  0.000000e+000
    endloop
  endfacet
  facet normal  1.000000e+000  0.000000e+000  0.000000e+000
    outer loop
      vertex -5.500000e+000 -2.400000e+001  0.000000e+000
      vertex -5.500000e+000 -3.500000e+001  3.500000e+001
      vertex -5.500000e+000 -3.500000e+001  0.000000e+000
    endloop
  endfacet
  facet normal  0.000000e+000  1.000000e+000  0.000000e+000
    outer loop
      vertex  5.500000e+000 -3.500000e+001  0.000000e+000
      vertex -5.500000e+000 -3.500000e+001  0.000000e+000
      vertex  5.500000e+000 -3.500000e+001  3.500000e+001
    endloop
  endfacet
  facet normal  0.000000e+000  1.000000e+000  0.000000e+000
    outer loop
      vertex  5.500000e+000 -3.500000e+001  3.500000e+001
      vertex -5.500000e+000 -3.500000e+001  0.000000e+000
      vertex -5.500000e+000 -3.500000e+001  3.500000e+001
    endloop
  endfacet
  facet normal -1.000000e+000  -0.000000e+000  0.000000e+000
    outer loop
      vertex  5.500000e+000 -3.500000e+001  3.500000e+001
      vertex  5.500000e+000 -2.400000e+001  3.500000e+001
      vertex  5.500000e+000 -3.500000e+001  0.000000e+000
    endloop
  endfacet
  facet normal -1.000000e+000  0.000000e+000  0.000000e+000
    outer loop
      vertex  5.500000e+000 -3.500000e+001  0.000000e+000
      vertex  5.500000e+000 -2.400000e+001  3.500000e+001
      vertex  5.500000e+000 -2.400000e+001  0.000000e+000
    endloop
  endfacet
  facet normal  0.000000e+000 -1.000000e+000  0.000000e+000
    outer loop
      vertex -5.500000e+000 -2.400000e+001  0.000000e+000
      vertex  5.500000e+000 -2.400000e+001  0.000000e+000
      vertex -5.500000e+000 -2.400000e+001  3.500000e+001
    endloop
  endfacet
  facet normal  0.000000e+000 -1.000000e+000  0.000000e+000
    outer loop
      vertex -5.500000e+000 -2.400000e+001  3.500000e+001
      vertex  5.500000e+000 -2.400000e+001  0.000000e+000
      vertex  5.500000e+000 -2.400000e+001  3.500000e+001
    endloop
  endfacet
  facet normal  0.000000e+000 -1.000000e+000  -0.000000e+000
    outer loop
      vertex  5.500000e+000  3.500000e+001  0.000000e+000
      vertex  5.500000e+000  3.500000e+001  3.500000e+001
      vertex -5.500000e+000  3.500000e+001  0.000000e+000
    endloop
  endfacet
  facet normal  0.000000e+000 -1.000000e+000  0.000000e+000
    outer loop
      vertex -5.500000e+000  3.500000e+001  0.000000e+000
      vertex  5.500000e+000  3.500000e+001  3.500000e+001
      vertex -5.500000e+000  3.500000e+001  3.500000e+001
    endloop
  endfacet
  facet normal  1.000000e+000  -0.000000e+000  0.000000e+000
    outer loop
      vertex -5.500000e+000  3.500000e+001  3.500000e+001
      vertex -5.500000e+000  2.400000e+001  3.500000e+001
      vertex -5.500000e+000  3.500000e+001  0.000000e+000
    endloop
  endfacet
  facet normal  1.000000e+000  0.000000e+000  0.000000e+000
    outer loop
      vertex -5.500000e+000  3.500000e+001  0.000000e+000
      vertex -5.500000e+000  2.400000e+001  3.500000e+001
      vertex -5.500000e+000  2.400000e+001  0.000000e+000
    endloop
  endfacet
  facet normal  0.000000e+000  1.000000e+000  0.000000e+000
    outer loop
      vertex -5.500000e+000  2.400000e+001  0.000000e+000
      vertex -5.500000e+000  2.400000e+001  3.500000e+001
      vertex  5.500000e+000  2.400000e+001  0.000000e+000
    endloop
  endfacet
  facet normal  0.000000e+000  1.000000e+000  -0.000000e+000
    outer loop
      vertex  5.500000e+000  2.400000e+001  0.000000e+000
      vertex -5.500000e+000  2.400000e+001  3.500000e+001
      vertex  5.500000e+000  2.400000e+001  3.500000e+001
    endloop
  endfacet
  facet normal -1.000000e+000  -0.000000e+000  0.000000e+000
    outer loop
      vertex  5.500000e+000  2.400000e+001  3.500000e+001
      vertex  5.500000e+000  3.500000e+001  3.500000e+001
      vertex  5.500000e+000  2.400000e+001  0.000000e+000
    endloop
  endfacet
  facet normal -1.000000e+000  0.000000e+000  0.000000e+000
    outer loop
      vertex  5.500000e+000  2.400000e+001  0.000000e+000
      vertex  5.500000e+000  3.500000e+001  3.500000e+001
      vertex  5.500000e+000  3.500000e+001  0.000000e+000
    endloop
  endfacet
  facet normal  0.000000e+000  1.000000e+000  0.000000e+000
    outer loop
      vertex -1.000000e+001  4.000000e+001  0.000000e+000
      vertex -1.000000e+001  4.000000e+001  3.500000e+001
      vertex  1.000000e+001  4.000000e+001  0.000000e+000
    endloop
  endfacet
  facet normal  0.000000e+000  1.000000e+000  -0.000000e+000
    outer loop
      vertex  1.000000e+001  4.000000e+001  0.000000e+000
      vertex -1.000000e+001  4.000000e+001  3.500000e+001
      vertex  1.000000e+001  4.000000e+001  3.500000e+001
    endloop
  endfacet
  facet normal  0.000000e+000 -1.000000e+000  -0.000000e+000
    outer loop
      vertex  1.000000e+001 -4.000000e+001  0.000000e+000
      vertex  1.000000e+001 -4.000000e+001  3.500000e+001
      vertex -1.000000e+001 -4.000000e+001  0.000000e+000
    endloop
  endfacet
  facet normal  0.000000e+000 -1.000000e+000  0.000000e+000
    outer loop
      vertex -1.000000e+001 -4.000000e+001  0.000000e+000
      vertex  1.000000e+001 -4.000000e+001  3.500000e+001
      vertex -1.000000e+001 -4.000000e+001  3.500000e+001
    endloop
  endfacet
endsolid CATIA STL
