solid CATIA STL
  facet normal  0.000000e+000  -0.000000e+000  1.000000e+000
    outer loop
      vertex -5.668122e+000  4.911456e+000  1.000000e+001
      vertex -1.426585e+000  4.980555e+000  1.000000e+001
      vertex -1.213526e+000  5.398707e+000  1.000000e+001
    endloop
  endfacet
  facet normal  0.000000e+000  0.000000e+000  1.000000e+000
    outer loop
      vertex -1.000000e+000  1.732051e+000  1.000000e+001
      vertex -7.423661e+000  1.067361e+000  1.000000e+001
      vertex -1.414214e+000  1.414214e+000  1.000000e+001
    endloop
  endfacet
  facet normal  0.000000e+000  0.000000e+000  1.000000e+000
    outer loop
      vertex -2.000000e+000  2.449294e-016  1.000000e+001
      vertex -1.931852e+000  5.176381e-001  1.000000e+001
      vertex -7.500000e+000  4.249154e-015  1.000000e+001
    endloop
  endfacet
  facet normal  0.000000e+000  0.000000e+000  1.000000e+000
    outer loop
      vertex  1.500000e+000  4.517029e+000  1.000000e+001
      vertex  1.426585e+000  4.053504e+000  1.000000e+001
      vertex  6.309402e+000  4.054806e+000  1.000000e+001
    endloop
  endfacet
  facet normal  0.000000e+000  0.000000e+000  1.000000e+000
    outer loop
      vertex  7.423661e+000  1.067361e+000  1.000000e+001
      vertex  1.000000e+000  1.732051e+000  1.000000e+001
      vertex  1.414214e+000  1.414214e+000  1.000000e+001
    endloop
  endfacet
  facet normal  0.000000e+000  -0.000000e+000  1.000000e+000
    outer loop
      vertex  1.414214e+000  1.414214e+000  1.000000e+001
      vertex  1.732051e+000  1.000000e+000  1.000000e+001
      vertex  7.423661e+000  1.067361e+000  1.000000e+001
    endloop
  endfacet
  facet normal  -0.000000e+000  -0.000000e+000  1.000000e+000
    outer loop
      vertex  9.184851e-017  6.017029e+000  1.000000e+001
      vertex  4.635255e-001  5.943614e+000  1.000000e+001
      vertex  4.911456e+000  5.668122e+000  1.000000e+001
    endloop
  endfacet
  facet normal  0.000000e+000  0.000000e+000  1.000000e+000
    outer loop
      vertex  9.184851e-017  6.017029e+000  1.000000e+001
      vertex  4.911456e+000  5.668122e+000  1.000000e+001
      vertex  4.054806e+000  6.309402e+000  1.000000e+001
    endloop
  endfacet
  facet normal  0.000000e+000  0.000000e+000  1.000000e+000
    outer loop
      vertex  9.184851e-017  6.017029e+000  1.000000e+001
      vertex  4.054806e+000  6.309402e+000  1.000000e+001
      vertex  3.115613e+000  6.822240e+000  1.000000e+001
    endloop
  endfacet
  facet normal  0.000000e+000  0.000000e+000  1.000000e+000
    outer loop
      vertex  9.184851e-017  6.017029e+000  1.000000e+001
      vertex  3.115613e+000  6.822240e+000  1.000000e+001
      vertex  2.112994e+000  7.196198e+000  1.000000e+001
    endloop
  endfacet
  facet normal  0.000000e+000  0.000000e+000  9.999999e-001
    outer loop
      vertex  9.184851e-017  6.017029e+000  1.000000e+001
      vertex  2.112994e+000  7.196198e+000  1.000000e+001
      vertex  1.067361e+000  7.423661e+000  1.000000e+001
    endloop
  endfacet
  facet normal  0.000000e+000  0.000000e+000  9.999999e-001
    outer loop
      vertex  9.184851e-017  6.017029e+000  1.000000e+001
      vertex  1.067361e+000  7.423661e+000  1.000000e+001
      vertex  2.124577e-015  7.500000e+000  1.000000e+001
    endloop
  endfacet
  facet normal  0.000000e+000  0.000000e+000  9.999999e-001
    outer loop
      vertex  9.184851e-017  6.017029e+000  1.000000e+001
      vertex  2.124577e-015  7.500000e+000  1.000000e+001
      vertex -1.067361e+000  7.423661e+000  1.000000e+001
    endloop
  endfacet
  facet normal  0.000000e+000  0.000000e+000  9.999999e-001
    outer loop
      vertex  9.184851e-017  6.017029e+000  1.000000e+001
      vertex -1.067361e+000  7.423661e+000  1.000000e+001
      vertex -2.112994e+000  7.196198e+000  1.000000e+001
    endloop
  endfacet
  facet normal  0.000000e+000  0.000000e+000  1.000000e+000
    outer loop
      vertex  9.184851e-017  6.017029e+000  1.000000e+001
      vertex -2.112994e+000  7.196198e+000  1.000000e+001
      vertex -3.115613e+000  6.822240e+000  1.000000e+001
    endloop
  endfacet
  facet normal  0.000000e+000  0.000000e+000  9.999999e-001
    outer loop
      vertex  9.184851e-017  6.017029e+000  1.000000e+001
      vertex -3.115613e+000  6.822240e+000  1.000000e+001
      vertex -4.054806e+000  6.309402e+000  1.000000e+001
    endloop
  endfacet
  facet normal  0.000000e+000  0.000000e+000  1.000000e+000
    outer loop
      vertex -4.911456e+000  5.668122e+000  1.000000e+001
      vertex -5.668122e+000  4.911456e+000  1.000000e+001
      vertex -1.213526e+000  5.398707e+000  1.000000e+001
    endloop
  endfacet
  facet normal  0.000000e+000  -0.000000e+000  9.999999e-001
    outer loop
      vertex -4.911456e+000  5.668122e+000  1.000000e+001
      vertex -1.213526e+000  5.398707e+000  1.000000e+001
      vertex -8.816779e-001  5.730555e+000  1.000000e+001
    endloop
  endfacet
  facet normal  0.000000e+000  -0.000000e+000  1.000000e+000
    outer loop
      vertex -4.911456e+000  5.668122e+000  1.000000e+001
      vertex -8.816779e-001  5.730555e+000  1.000000e+001
      vertex -4.635255e-001  5.943614e+000  1.000000e+001
    endloop
  endfacet
  facet normal  0.000000e+000  -0.000000e+000  1.000000e+000
    outer loop
      vertex -4.911456e+000  5.668122e+000  1.000000e+001
      vertex -4.635255e-001  5.943614e+000  1.000000e+001
      vertex  9.184851e-017  6.017029e+000  1.000000e+001
    endloop
  endfacet
  facet normal  0.000000e+000  0.000000e+000  1.000000e+000
    outer loop
      vertex -4.911456e+000  5.668122e+000  1.000000e+001
      vertex  9.184851e-017  6.017029e+000  1.000000e+001
      vertex -4.054806e+000  6.309402e+000  1.000000e+001
    endloop
  endfacet
  facet normal  0.000000e+000  0.000000e+000  9.999999e-001
    outer loop
      vertex -6.822240e+000  3.115613e+000  1.000000e+001
      vertex -7.196198e+000  2.112994e+000  1.000000e+001
      vertex -2.755455e-016  3.017029e+000  1.000000e+001
    endloop
  endfacet
  facet normal  0.000000e+000  0.000000e+000  1.000000e+000
    outer loop
      vertex -6.822240e+000  3.115613e+000  1.000000e+001
      vertex -2.755455e-016  3.017029e+000  1.000000e+001
      vertex -4.635255e-001  3.090445e+000  1.000000e+001
    endloop
  endfacet
  facet normal  0.000000e+000  0.000000e+000  1.000000e+000
    outer loop
      vertex -6.822240e+000  3.115613e+000  1.000000e+001
      vertex -4.635255e-001  3.090445e+000  1.000000e+001
      vertex -8.816779e-001  3.303504e+000  1.000000e+001
    endloop
  endfacet
  facet normal  0.000000e+000  0.000000e+000  1.000000e+000
    outer loop
      vertex -6.822240e+000  3.115613e+000  1.000000e+001
      vertex -8.816779e-001  3.303504e+000  1.000000e+001
      vertex -1.213526e+000  3.635351e+000  1.000000e+001
    endloop
  endfacet
  facet normal  0.000000e+000  0.000000e+000  1.000000e+000
    outer loop
      vertex -6.822240e+000  3.115613e+000  1.000000e+001
      vertex -1.213526e+000  3.635351e+000  1.000000e+001
      vertex -1.426585e+000  4.053504e+000  1.000000e+001
    endloop
  endfacet
  facet normal  0.000000e+000  0.000000e+000  1.000000e+000
    outer loop
      vertex -6.822240e+000  3.115613e+000  1.000000e+001
      vertex -1.426585e+000  4.053504e+000  1.000000e+001
      vertex -6.309402e+000  4.054806e+000  1.000000e+001
    endloop
  endfacet
  facet normal  0.000000e+000  -0.000000e+000  1.000000e+000
    outer loop
      vertex -7.423661e+000 -1.067361e+000  1.000000e+001
      vertex -7.196198e+000 -2.112994e+000  1.000000e+001
      vertex -1.414214e+000 -1.414214e+000  1.000000e+001
    endloop
  endfacet
  facet normal  0.000000e+000  0.000000e+000  1.000000e+000
    outer loop
      vertex -7.423661e+000 -1.067361e+000  1.000000e+001
      vertex -1.414214e+000 -1.414214e+000  1.000000e+001
      vertex -1.732051e+000 -1.000000e+000  1.000000e+001
    endloop
  endfacet
  facet normal  0.000000e+000  0.000000e+000  1.000000e+000
    outer loop
      vertex -7.423661e+000 -1.067361e+000  1.000000e+001
      vertex -1.732051e+000 -1.000000e+000  1.000000e+001
      vertex -1.931852e+000 -5.176381e-001  1.000000e+001
    endloop
  endfacet
  facet normal  0.000000e+000  0.000000e+000  1.000000e+000
    outer loop
      vertex -7.423661e+000 -1.067361e+000  1.000000e+001
      vertex -1.931852e+000 -5.176381e-001  1.000000e+001
      vertex -2.000000e+000  2.449294e-016  1.000000e+001
    endloop
  endfacet
  facet normal  0.000000e+000  0.000000e+000  1.000000e+000
    outer loop
      vertex -7.423661e+000 -1.067361e+000  1.000000e+001
      vertex -2.000000e+000  2.449294e-016  1.000000e+001
      vertex -7.500000e+000  4.249154e-015  1.000000e+001
    endloop
  endfacet
  facet normal  0.000000e+000  -0.000000e+000  1.000000e+000
    outer loop
      vertex -7.196198e+000 -2.112994e+000  1.000000e+001
      vertex -8.039066e-015 -7.500000e+000  1.000000e+001
      vertex -3.673940e-016 -2.000000e+000  1.000000e+001
    endloop
  endfacet
  facet normal  0.000000e+000  0.000000e+000  1.000000e+000
    outer loop
      vertex -7.196198e+000 -2.112994e+000  1.000000e+001
      vertex -3.673940e-016 -2.000000e+000  1.000000e+001
      vertex -5.176381e-001 -1.931852e+000  1.000000e+001
    endloop
  endfacet
  facet normal  0.000000e+000  0.000000e+000  1.000000e+000
    outer loop
      vertex -7.196198e+000 -2.112994e+000  1.000000e+001
      vertex -5.176381e-001 -1.931852e+000  1.000000e+001
      vertex -1.000000e+000 -1.732051e+000  1.000000e+001
    endloop
  endfacet
  facet normal  0.000000e+000  0.000000e+000  1.000000e+000
    outer loop
      vertex -7.196198e+000 -2.112994e+000  1.000000e+001
      vertex -1.000000e+000 -1.732051e+000  1.000000e+001
      vertex -1.414214e+000 -1.414214e+000  1.000000e+001
    endloop
  endfacet
  facet normal  0.000000e+000  0.000000e+000  9.999999e-001
    outer loop
      vertex -8.039066e-015 -7.500000e+000  1.000000e+001
      vertex -7.196198e+000 -2.112994e+000  1.000000e+001
      vertex -6.822240e+000 -3.115613e+000  1.000000e+001
    endloop
  endfacet
  facet normal  0.000000e+000  0.000000e+000  1.000000e+000
    outer loop
      vertex -8.039066e-015 -7.500000e+000  1.000000e+001
      vertex -6.822240e+000 -3.115613e+000  1.000000e+001
      vertex -6.309402e+000 -4.054806e+000  1.000000e+001
    endloop
  endfacet
  facet normal  0.000000e+000  0.000000e+000  1.000000e+000
    outer loop
      vertex -8.039066e-015 -7.500000e+000  1.000000e+001
      vertex -6.309402e+000 -4.054806e+000  1.000000e+001
      vertex -5.668122e+000 -4.911456e+000  1.000000e+001
    endloop
  endfacet
  facet normal  0.000000e+000  0.000000e+000  1.000000e+000
    outer loop
      vertex -8.039066e-015 -7.500000e+000  1.000000e+001
      vertex -5.668122e+000 -4.911456e+000  1.000000e+001
      vertex -4.911456e+000 -5.668122e+000  1.000000e+001
    endloop
  endfacet
  facet normal  0.000000e+000  0.000000e+000  9.999999e-001
    outer loop
      vertex -8.039066e-015 -7.500000e+000  1.000000e+001
      vertex -4.911456e+000 -5.668122e+000  1.000000e+001
      vertex -4.054806e+000 -6.309402e+000  1.000000e+001
    endloop
  endfacet
  facet normal  0.000000e+000  0.000000e+000  1.000000e+000
    outer loop
      vertex -8.039066e-015 -7.500000e+000  1.000000e+001
      vertex -4.054806e+000 -6.309402e+000  1.000000e+001
      vertex -3.115613e+000 -6.822240e+000  1.000000e+001
    endloop
  endfacet
  facet normal  0.000000e+000  0.000000e+000  1.000000e+000
    outer loop
      vertex -8.039066e-015 -7.500000e+000  1.000000e+001
      vertex -3.115613e+000 -6.822240e+000  1.000000e+001
      vertex -2.112994e+000 -7.196198e+000  1.000000e+001
    endloop
  endfacet
  facet normal  0.000000e+000  0.000000e+000  1.000000e+000
    outer loop
      vertex -8.039066e-015 -7.500000e+000  1.000000e+001
      vertex -2.112994e+000 -7.196198e+000  1.000000e+001
      vertex -1.067361e+000 -7.423661e+000  1.000000e+001
    endloop
  endfacet
  facet normal  0.000000e+000  0.000000e+000  1.000000e+000
    outer loop
      vertex  7.196198e+000 -2.112994e+000  1.000000e+001
      vertex  7.423661e+000 -1.067361e+000  1.000000e+001
      vertex  1.732051e+000 -1.000000e+000  1.000000e+001
    endloop
  endfacet
  facet normal  0.000000e+000  0.000000e+000  1.000000e+000
    outer loop
      vertex  7.196198e+000 -2.112994e+000  1.000000e+001
      vertex  1.732051e+000 -1.000000e+000  1.000000e+001
      vertex  1.414214e+000 -1.414214e+000  1.000000e+001
    endloop
  endfacet
  facet normal  0.000000e+000  0.000000e+000  1.000000e+000
    outer loop
      vertex  7.196198e+000 -2.112994e+000  1.000000e+001
      vertex  1.414214e+000 -1.414214e+000  1.000000e+001
      vertex  1.000000e+000 -1.732051e+000  1.000000e+001
    endloop
  endfacet
  facet normal  0.000000e+000  0.000000e+000  1.000000e+000
    outer loop
      vertex  7.196198e+000 -2.112994e+000  1.000000e+001
      vertex  1.000000e+000 -1.732051e+000  1.000000e+001
      vertex  5.176381e-001 -1.931852e+000  1.000000e+001
    endloop
  endfacet
  facet normal  0.000000e+000  0.000000e+000  1.000000e+000
    outer loop
      vertex  7.196198e+000 -2.112994e+000  1.000000e+001
      vertex  5.176381e-001 -1.931852e+000  1.000000e+001
      vertex -3.673940e-016 -2.000000e+000  1.000000e+001
    endloop
  endfacet
  facet normal  0.000000e+000  -0.000000e+000  1.000000e+000
    outer loop
      vertex -8.039066e-015 -7.500000e+000  1.000000e+001
      vertex  1.067361e+000 -7.423661e+000  1.000000e+001
      vertex  2.112994e+000 -7.196198e+000  1.000000e+001
    endloop
  endfacet
  facet normal  0.000000e+000  -0.000000e+000  1.000000e+000
    outer loop
      vertex -8.039066e-015 -7.500000e+000  1.000000e+001
      vertex  2.112994e+000 -7.196198e+000  1.000000e+001
      vertex  3.115613e+000 -6.822240e+000  1.000000e+001
    endloop
  endfacet
  facet normal  0.000000e+000  -0.000000e+000  1.000000e+000
    outer loop
      vertex -8.039066e-015 -7.500000e+000  1.000000e+001
      vertex  3.115613e+000 -6.822240e+000  1.000000e+001
      vertex  4.054806e+000 -6.309402e+000  1.000000e+001
    endloop
  endfacet
  facet normal  0.000000e+000  -0.000000e+000  1.000000e+000
    outer loop
      vertex -8.039066e-015 -7.500000e+000  1.000000e+001
      vertex  4.054806e+000 -6.309402e+000  1.000000e+001
      vertex  4.911456e+000 -5.668122e+000  1.000000e+001
    endloop
  endfacet
  facet normal  0.000000e+000  -0.000000e+000  1.000000e+000
    outer loop
      vertex -8.039066e-015 -7.500000e+000  1.000000e+001
      vertex  4.911456e+000 -5.668122e+000  1.000000e+001
      vertex  5.668122e+000 -4.911456e+000  1.000000e+001
    endloop
  endfacet
  facet normal  0.000000e+000  -0.000000e+000  1.000000e+000
    outer loop
      vertex -8.039066e-015 -7.500000e+000  1.000000e+001
      vertex  5.668122e+000 -4.911456e+000  1.000000e+001
      vertex  6.309402e+000 -4.054806e+000  1.000000e+001
    endloop
  endfacet
  facet normal  0.000000e+000  -0.000000e+000  1.000000e+000
    outer loop
      vertex -8.039066e-015 -7.500000e+000  1.000000e+001
      vertex  6.309402e+000 -4.054806e+000  1.000000e+001
      vertex  6.822240e+000 -3.115613e+000  1.000000e+001
    endloop
  endfacet
  facet normal  0.000000e+000  -0.000000e+000  1.000000e+000
    outer loop
      vertex -8.039066e-015 -7.500000e+000  1.000000e+001
      vertex  6.822240e+000 -3.115613e+000  1.000000e+001
      vertex  7.196198e+000 -2.112994e+000  1.000000e+001
    endloop
  endfacet
  facet normal  0.000000e+000  0.000000e+000  1.000000e+000
    outer loop
      vertex -8.039066e-015 -7.500000e+000  1.000000e+001
      vertex  7.196198e+000 -2.112994e+000  1.000000e+001
      vertex -3.673940e-016 -2.000000e+000  1.000000e+001
    endloop
  endfacet
  facet normal  -0.000000e+000  0.000000e+000  9.999999e-001
    outer loop
      vertex -1.426585e+000  4.980555e+000  1.000000e+001
      vertex -5.668122e+000  4.911456e+000  1.000000e+001
      vertex -1.500000e+000  4.517029e+000  1.000000e+001
    endloop
  endfacet
  facet normal  0.000000e+000  0.000000e+000  1.000000e+000
    outer loop
      vertex -1.500000e+000  4.517029e+000  1.000000e+001
      vertex -5.668122e+000  4.911456e+000  1.000000e+001
      vertex -6.309402e+000  4.054806e+000  1.000000e+001
    endloop
  endfacet
  facet normal  -0.000000e+000  0.000000e+000  1.000000e+000
    outer loop
      vertex -1.500000e+000  4.517029e+000  1.000000e+001
      vertex -6.309402e+000  4.054806e+000  1.000000e+001
      vertex -1.426585e+000  4.053504e+000  1.000000e+001
    endloop
  endfacet
  facet normal  0.000000e+000  0.000000e+000  1.000000e+000
    outer loop
      vertex -7.423661e+000  1.067361e+000  1.000000e+001
      vertex -1.000000e+000  1.732051e+000  1.000000e+001
      vertex -7.196198e+000  2.112994e+000  1.000000e+001
    endloop
  endfacet
  facet normal  0.000000e+000  0.000000e+000  1.000000e+000
    outer loop
      vertex -7.196198e+000  2.112994e+000  1.000000e+001
      vertex -1.000000e+000  1.732051e+000  1.000000e+001
      vertex -5.176381e-001  1.931852e+000  1.000000e+001
    endloop
  endfacet
  facet normal  0.000000e+000  -0.000000e+000  1.000000e+000
    outer loop
      vertex -7.196198e+000  2.112994e+000  1.000000e+001
      vertex -5.176381e-001  1.931852e+000  1.000000e+001
      vertex  1.224647e-016  2.000000e+000  1.000000e+001
    endloop
  endfacet
  facet normal  0.000000e+000  0.000000e+000  1.000000e+000
    outer loop
      vertex -7.500000e+000  4.249154e-015  1.000000e+001
      vertex -1.931852e+000  5.176381e-001  1.000000e+001
      vertex -7.423661e+000  1.067361e+000  1.000000e+001
    endloop
  endfacet
  facet normal  0.000000e+000  0.000000e+000  1.000000e+000
    outer loop
      vertex -7.423661e+000  1.067361e+000  1.000000e+001
      vertex -1.931852e+000  5.176381e-001  1.000000e+001
      vertex -1.732051e+000  1.000000e+000  1.000000e+001
    endloop
  endfacet
  facet normal  0.000000e+000  -0.000000e+000  1.000000e+000
    outer loop
      vertex -7.423661e+000  1.067361e+000  1.000000e+001
      vertex -1.732051e+000  1.000000e+000  1.000000e+001
      vertex -1.414214e+000  1.414214e+000  1.000000e+001
    endloop
  endfacet
  facet normal  0.000000e+000  0.000000e+000  1.000000e+000
    outer loop
      vertex  1.213526e+000  5.398707e+000  1.000000e+001
      vertex  5.668122e+000  4.911456e+000  1.000000e+001
      vertex  8.816779e-001  5.730555e+000  1.000000e+001
    endloop
  endfacet
  facet normal  0.000000e+000  0.000000e+000  1.000000e+000
    outer loop
      vertex  8.816779e-001  5.730555e+000  1.000000e+001
      vertex  5.668122e+000  4.911456e+000  1.000000e+001
      vertex  4.911456e+000  5.668122e+000  1.000000e+001
    endloop
  endfacet
  facet normal  0.000000e+000  0.000000e+000  1.000000e+000
    outer loop
      vertex  8.816779e-001  5.730555e+000  1.000000e+001
      vertex  4.911456e+000  5.668122e+000  1.000000e+001
      vertex  4.635255e-001  5.943614e+000  1.000000e+001
    endloop
  endfacet
  facet normal  0.000000e+000  0.000000e+000  1.000000e+000
    outer loop
      vertex  1.500000e+000  4.517029e+000  1.000000e+001
      vertex  6.309402e+000  4.054806e+000  1.000000e+001
      vertex  1.426585e+000  4.980555e+000  1.000000e+001
    endloop
  endfacet
  facet normal  0.000000e+000  0.000000e+000  1.000000e+000
    outer loop
      vertex  1.426585e+000  4.980555e+000  1.000000e+001
      vertex  6.309402e+000  4.054806e+000  1.000000e+001
      vertex  5.668122e+000  4.911456e+000  1.000000e+001
    endloop
  endfacet
  facet normal  0.000000e+000  0.000000e+000  1.000000e+000
    outer loop
      vertex  1.426585e+000  4.980555e+000  1.000000e+001
      vertex  5.668122e+000  4.911456e+000  1.000000e+001
      vertex  1.213526e+000  5.398707e+000  1.000000e+001
    endloop
  endfacet
  facet normal  -0.000000e+000  0.000000e+000  1.000000e+000
    outer loop
      vertex  6.309402e+000  4.054806e+000  1.000000e+001
      vertex  1.426585e+000  4.053504e+000  1.000000e+001
      vertex  6.822240e+000  3.115613e+000  1.000000e+001
    endloop
  endfacet
  facet normal  0.000000e+000  0.000000e+000  9.999999e-001
    outer loop
      vertex  6.822240e+000  3.115613e+000  1.000000e+001
      vertex  1.426585e+000  4.053504e+000  1.000000e+001
      vertex  1.213526e+000  3.635351e+000  1.000000e+001
    endloop
  endfacet
  facet normal  0.000000e+000  0.000000e+000  1.000000e+000
    outer loop
      vertex  6.822240e+000  3.115613e+000  1.000000e+001
      vertex  1.213526e+000  3.635351e+000  1.000000e+001
      vertex  8.816779e-001  3.303504e+000  1.000000e+001
    endloop
  endfacet
  facet normal  0.000000e+000  0.000000e+000  9.999999e-001
    outer loop
      vertex -7.196198e+000  2.112994e+000  1.000000e+001
      vertex  1.224647e-016  2.000000e+000  1.000000e+001
      vertex -2.755455e-016  3.017029e+000  1.000000e+001
    endloop
  endfacet
  facet normal  0.000000e+000  0.000000e+000  9.999999e-001
    outer loop
      vertex -2.755455e-016  3.017029e+000  1.000000e+001
      vertex  1.224647e-016  2.000000e+000  1.000000e+001
      vertex  7.196198e+000  2.112994e+000  1.000000e+001
    endloop
  endfacet
  facet normal  0.000000e+000  0.000000e+000  1.000000e+000
    outer loop
      vertex -2.755455e-016  3.017029e+000  1.000000e+001
      vertex  7.196198e+000  2.112994e+000  1.000000e+001
      vertex  4.635255e-001  3.090445e+000  1.000000e+001
    endloop
  endfacet
  facet normal  -0.000000e+000  0.000000e+000  1.000000e+000
    outer loop
      vertex  4.635255e-001  3.090445e+000  1.000000e+001
      vertex  7.196198e+000  2.112994e+000  1.000000e+001
      vertex  6.822240e+000  3.115613e+000  1.000000e+001
    endloop
  endfacet
  facet normal  0.000000e+000  0.000000e+000  1.000000e+000
    outer loop
      vertex  4.635255e-001  3.090445e+000  1.000000e+001
      vertex  6.822240e+000  3.115613e+000  1.000000e+001
      vertex  8.816779e-001  3.303504e+000  1.000000e+001
    endloop
  endfacet
  facet normal  0.000000e+000  0.000000e+000  1.000000e+000
    outer loop
      vertex  1.000000e+000  1.732051e+000  1.000000e+001
      vertex  7.423661e+000  1.067361e+000  1.000000e+001
      vertex  5.176381e-001  1.931852e+000  1.000000e+001
    endloop
  endfacet
  facet normal  -0.000000e+000  0.000000e+000  1.000000e+000
    outer loop
      vertex  5.176381e-001  1.931852e+000  1.000000e+001
      vertex  7.423661e+000  1.067361e+000  1.000000e+001
      vertex  7.196198e+000  2.112994e+000  1.000000e+001
    endloop
  endfacet
  facet normal  0.000000e+000  0.000000e+000  1.000000e+000
    outer loop
      vertex  5.176381e-001  1.931852e+000  1.000000e+001
      vertex  7.196198e+000  2.112994e+000  1.000000e+001
      vertex  1.224647e-016  2.000000e+000  1.000000e+001
    endloop
  endfacet
  facet normal  -0.000000e+000  0.000000e+000  9.999999e-001
    outer loop
      vertex  7.423661e+000  1.067361e+000  1.000000e+001
      vertex  1.732051e+000  1.000000e+000  1.000000e+001
      vertex  7.500000e+000  0.000000e+000  1.000000e+001
    endloop
  endfacet
  facet normal  0.000000e+000  0.000000e+000  1.000000e+000
    outer loop
      vertex  7.500000e+000  0.000000e+000  1.000000e+001
      vertex  1.732051e+000  1.000000e+000  1.000000e+001
      vertex  1.931852e+000  5.176381e-001  1.000000e+001
    endloop
  endfacet
  facet normal  0.000000e+000  0.000000e+000  1.000000e+000
    outer loop
      vertex  7.500000e+000  0.000000e+000  1.000000e+001
      vertex  1.931852e+000  5.176381e-001  1.000000e+001
      vertex  2.000000e+000  0.000000e+000  1.000000e+001
    endloop
  endfacet
  facet normal  -0.000000e+000  0.000000e+000  1.000000e+000
    outer loop
      vertex  7.500000e+000  0.000000e+000  1.000000e+001
      vertex  2.000000e+000  0.000000e+000  1.000000e+001
      vertex  7.423661e+000 -1.067361e+000  1.000000e+001
    endloop
  endfacet
  facet normal  0.000000e+000  0.000000e+000  1.000000e+000
    outer loop
      vertex  7.423661e+000 -1.067361e+000  1.000000e+001
      vertex  2.000000e+000  0.000000e+000  1.000000e+001
      vertex  1.931852e+000 -5.176381e-001  1.000000e+001
    endloop
  endfacet
  facet normal  0.000000e+000  0.000000e+000  1.000000e+000
    outer loop
      vertex  7.423661e+000 -1.067361e+000  1.000000e+001
      vertex  1.931852e+000 -5.176381e-001  1.000000e+001
      vertex  1.732051e+000 -1.000000e+000  1.000000e+001
    endloop
  endfacet
  facet normal  -0.000000e+000  0.000000e+000 -1.000000e+000
    outer loop
      vertex -1.213526e+000  5.398707e+000  0.000000e+000
      vertex -1.426585e+000  4.980555e+000  0.000000e+000
      vertex -5.668122e+000  4.911456e+000  0.000000e+000
    endloop
  endfacet
  facet normal  0.000000e+000  0.000000e+000 -1.000000e+000
    outer loop
      vertex -1.414214e+000  1.414214e+000  0.000000e+000
      vertex -7.423661e+000  1.067361e+000  0.000000e+000
      vertex -1.000000e+000  1.732051e+000  0.000000e+000
    endloop
  endfacet
  facet normal  0.000000e+000  0.000000e+000 -1.000000e+000
    outer loop
      vertex -7.500000e+000  4.249154e-015  0.000000e+000
      vertex -1.931852e+000  5.176381e-001  0.000000e+000
      vertex -2.000000e+000  2.449294e-016  0.000000e+000
    endloop
  endfacet
  facet normal  0.000000e+000  0.000000e+000 -1.000000e+000
    outer loop
      vertex  6.309402e+000  4.054806e+000  0.000000e+000
      vertex  1.426585e+000  4.053504e+000  0.000000e+000
      vertex  1.500000e+000  4.517029e+000  0.000000e+000
    endloop
  endfacet
  facet normal  0.000000e+000  0.000000e+000 -1.000000e+000
    outer loop
      vertex  1.414214e+000  1.414214e+000  0.000000e+000
      vertex  1.000000e+000  1.732051e+000  0.000000e+000
      vertex  7.423661e+000  1.067361e+000  0.000000e+000
    endloop
  endfacet
  facet normal  0.000000e+000  0.000000e+000 -1.000000e+000
    outer loop
      vertex  7.423661e+000  1.067361e+000  0.000000e+000
      vertex  1.732051e+000  1.000000e+000  0.000000e+000
      vertex  1.414214e+000  1.414214e+000  0.000000e+000
    endloop
  endfacet
  facet normal  0.000000e+000  0.000000e+000 -1.000000e+000
    outer loop
      vertex  9.184851e-017  6.017029e+000  0.000000e+000
      vertex -4.054806e+000  6.309402e+000  0.000000e+000
      vertex -3.115613e+000  6.822240e+000  0.000000e+000
    endloop
  endfacet
  facet normal  0.000000e+000  0.000000e+000 -1.000000e+000
    outer loop
      vertex  9.184851e-017  6.017029e+000  0.000000e+000
      vertex -3.115613e+000  6.822240e+000  0.000000e+000
      vertex -2.112994e+000  7.196198e+000  0.000000e+000
    endloop
  endfacet
  facet normal  0.000000e+000  0.000000e+000 -9.999999e-001
    outer loop
      vertex  9.184851e-017  6.017029e+000  0.000000e+000
      vertex -2.112994e+000  7.196198e+000  0.000000e+000
      vertex -1.067361e+000  7.423661e+000  0.000000e+000
    endloop
  endfacet
  facet normal  0.000000e+000  0.000000e+000 -9.999999e-001
    outer loop
      vertex  9.184851e-017  6.017029e+000  0.000000e+000
      vertex -1.067361e+000  7.423661e+000  0.000000e+000
      vertex  2.124577e-015  7.500000e+000  0.000000e+000
    endloop
  endfacet
  facet normal  0.000000e+000  -0.000000e+000 -9.999999e-001
    outer loop
      vertex  9.184851e-017  6.017029e+000  0.000000e+000
      vertex  2.124577e-015  7.500000e+000  0.000000e+000
      vertex  1.067361e+000  7.423661e+000  0.000000e+000
    endloop
  endfacet
  facet normal  0.000000e+000  -0.000000e+000 -9.999999e-001
    outer loop
      vertex  9.184851e-017  6.017029e+000  0.000000e+000
      vertex  1.067361e+000  7.423661e+000  0.000000e+000
      vertex  2.112994e+000  7.196198e+000  0.000000e+000
    endloop
  endfacet
  facet normal  0.000000e+000  -0.000000e+000 -1.000000e+000
    outer loop
      vertex  9.184851e-017  6.017029e+000  0.000000e+000
      vertex  2.112994e+000  7.196198e+000  0.000000e+000
      vertex  3.115613e+000  6.822240e+000  0.000000e+000
    endloop
  endfacet
  facet normal  0.000000e+000  -0.000000e+000 -9.999999e-001
    outer loop
      vertex  9.184851e-017  6.017029e+000  0.000000e+000
      vertex  3.115613e+000  6.822240e+000  0.000000e+000
      vertex  4.054806e+000  6.309402e+000  0.000000e+000
    endloop
  endfacet
  facet normal  0.000000e+000  -0.000000e+000 -1.000000e+000
    outer loop
      vertex  9.184851e-017  6.017029e+000  0.000000e+000
      vertex  4.054806e+000  6.309402e+000  0.000000e+000
      vertex  4.911456e+000  5.668122e+000  0.000000e+000
    endloop
  endfacet
  facet normal  0.000000e+000  0.000000e+000 -1.000000e+000
    outer loop
      vertex  9.184851e-017  6.017029e+000  0.000000e+000
      vertex  4.911456e+000  5.668122e+000  0.000000e+000
      vertex  4.635255e-001  5.943614e+000  0.000000e+000
    endloop
  endfacet
  facet normal  0.000000e+000  -0.000000e+000 -1.000000e+000
    outer loop
      vertex -4.911456e+000  5.668122e+000  0.000000e+000
      vertex -4.054806e+000  6.309402e+000  0.000000e+000
      vertex  9.184851e-017  6.017029e+000  0.000000e+000
    endloop
  endfacet
  facet normal  0.000000e+000  0.000000e+000 -9.999999e-001
    outer loop
      vertex -4.911456e+000  5.668122e+000  0.000000e+000
      vertex  9.184851e-017  6.017029e+000  0.000000e+000
      vertex -4.635255e-001  5.943614e+000  0.000000e+000
    endloop
  endfacet
  facet normal  0.000000e+000  0.000000e+000 -1.000000e+000
    outer loop
      vertex -4.911456e+000  5.668122e+000  0.000000e+000
      vertex -4.635255e-001  5.943614e+000  0.000000e+000
      vertex -8.816779e-001  5.730555e+000  0.000000e+000
    endloop
  endfacet
  facet normal  0.000000e+000  0.000000e+000 -1.000000e+000
    outer loop
      vertex -4.911456e+000  5.668122e+000  0.000000e+000
      vertex -8.816779e-001  5.730555e+000  0.000000e+000
      vertex -1.213526e+000  5.398707e+000  0.000000e+000
    endloop
  endfacet
  facet normal  -0.000000e+000  0.000000e+000 -1.000000e+000
    outer loop
      vertex -4.911456e+000  5.668122e+000  0.000000e+000
      vertex -1.213526e+000  5.398707e+000  0.000000e+000
      vertex -5.668122e+000  4.911456e+000  0.000000e+000
    endloop
  endfacet
  facet normal  0.000000e+000  -0.000000e+000 -1.000000e+000
    outer loop
      vertex -6.822240e+000  3.115613e+000  0.000000e+000
      vertex -6.309402e+000  4.054806e+000  0.000000e+000
      vertex -1.426585e+000  4.053504e+000  0.000000e+000
    endloop
  endfacet
  facet normal  0.000000e+000  -0.000000e+000 -1.000000e+000
    outer loop
      vertex -6.822240e+000  3.115613e+000  0.000000e+000
      vertex -1.426585e+000  4.053504e+000  0.000000e+000
      vertex -1.213526e+000  3.635351e+000  0.000000e+000
    endloop
  endfacet
  facet normal  0.000000e+000  -0.000000e+000 -1.000000e+000
    outer loop
      vertex -6.822240e+000  3.115613e+000  0.000000e+000
      vertex -1.213526e+000  3.635351e+000  0.000000e+000
      vertex -8.816779e-001  3.303504e+000  0.000000e+000
    endloop
  endfacet
  facet normal  0.000000e+000  -0.000000e+000 -1.000000e+000
    outer loop
      vertex -6.822240e+000  3.115613e+000  0.000000e+000
      vertex -8.816779e-001  3.303504e+000  0.000000e+000
      vertex -4.635255e-001  3.090445e+000  0.000000e+000
    endloop
  endfacet
  facet normal  -0.000000e+000  -0.000000e+000 -9.999999e-001
    outer loop
      vertex -6.822240e+000  3.115613e+000  0.000000e+000
      vertex -4.635255e-001  3.090445e+000  0.000000e+000
      vertex -2.755455e-016  3.017029e+000  0.000000e+000
    endloop
  endfacet
  facet normal  -0.000000e+000  0.000000e+000 -1.000000e+000
    outer loop
      vertex -6.822240e+000  3.115613e+000  0.000000e+000
      vertex -2.755455e-016  3.017029e+000  0.000000e+000
      vertex -7.196198e+000  2.112994e+000  0.000000e+000
    endloop
  endfacet
  facet normal  0.000000e+000  0.000000e+000 -1.000000e+000
    outer loop
      vertex -7.423661e+000 -1.067361e+000  0.000000e+000
      vertex -7.500000e+000  4.249154e-015  0.000000e+000
      vertex -2.000000e+000  2.449294e-016  0.000000e+000
    endloop
  endfacet
  facet normal  0.000000e+000  -0.000000e+000 -1.000000e+000
    outer loop
      vertex -7.423661e+000 -1.067361e+000  0.000000e+000
      vertex -2.000000e+000  2.449294e-016  0.000000e+000
      vertex -1.931852e+000 -5.176381e-001  0.000000e+000
    endloop
  endfacet
  facet normal  0.000000e+000  -0.000000e+000 -1.000000e+000
    outer loop
      vertex -7.423661e+000 -1.067361e+000  0.000000e+000
      vertex -1.931852e+000 -5.176381e-001  0.000000e+000
      vertex -1.732051e+000 -1.000000e+000  0.000000e+000
    endloop
  endfacet
  facet normal  0.000000e+000  -0.000000e+000 -1.000000e+000
    outer loop
      vertex -7.423661e+000 -1.067361e+000  0.000000e+000
      vertex -1.732051e+000 -1.000000e+000  0.000000e+000
      vertex -1.414214e+000 -1.414214e+000  0.000000e+000
    endloop
  endfacet
  facet normal  -0.000000e+000  0.000000e+000 -9.999999e-001
    outer loop
      vertex -7.423661e+000 -1.067361e+000  0.000000e+000
      vertex -1.414214e+000 -1.414214e+000  0.000000e+000
      vertex -7.196198e+000 -2.112994e+000  0.000000e+000
    endloop
  endfacet
  facet normal  0.000000e+000  -0.000000e+000 -1.000000e+000
    outer loop
      vertex -7.196198e+000 -2.112994e+000  0.000000e+000
      vertex -1.414214e+000 -1.414214e+000  0.000000e+000
      vertex -1.000000e+000 -1.732051e+000  0.000000e+000
    endloop
  endfacet
  facet normal  0.000000e+000  -0.000000e+000 -1.000000e+000
    outer loop
      vertex -7.196198e+000 -2.112994e+000  0.000000e+000
      vertex -1.000000e+000 -1.732051e+000  0.000000e+000
      vertex -5.176381e-001 -1.931852e+000  0.000000e+000
    endloop
  endfacet
  facet normal  0.000000e+000  -0.000000e+000 -1.000000e+000
    outer loop
      vertex -7.196198e+000 -2.112994e+000  0.000000e+000
      vertex -5.176381e-001 -1.931852e+000  0.000000e+000
      vertex -3.673940e-016 -2.000000e+000  0.000000e+000
    endloop
  endfacet
  facet normal  0.000000e+000  0.000000e+000 -1.000000e+000
    outer loop
      vertex -7.196198e+000 -2.112994e+000  0.000000e+000
      vertex -3.673940e-016 -2.000000e+000  0.000000e+000
      vertex -8.039066e-015 -7.500000e+000  0.000000e+000
    endloop
  endfacet
  facet normal  0.000000e+000  0.000000e+000 -1.000000e+000
    outer loop
      vertex -8.039066e-015 -7.500000e+000  0.000000e+000
      vertex -1.067361e+000 -7.423661e+000  0.000000e+000
      vertex -2.112994e+000 -7.196198e+000  0.000000e+000
    endloop
  endfacet
  facet normal  0.000000e+000  0.000000e+000 -1.000000e+000
    outer loop
      vertex -8.039066e-015 -7.500000e+000  0.000000e+000
      vertex -2.112994e+000 -7.196198e+000  0.000000e+000
      vertex -3.115613e+000 -6.822240e+000  0.000000e+000
    endloop
  endfacet
  facet normal  0.000000e+000  0.000000e+000 -1.000000e+000
    outer loop
      vertex -8.039066e-015 -7.500000e+000  0.000000e+000
      vertex -3.115613e+000 -6.822240e+000  0.000000e+000
      vertex -4.054806e+000 -6.309402e+000  0.000000e+000
    endloop
  endfacet
  facet normal  0.000000e+000  0.000000e+000 -1.000000e+000
    outer loop
      vertex -8.039066e-015 -7.500000e+000  0.000000e+000
      vertex -4.054806e+000 -6.309402e+000  0.000000e+000
      vertex -4.911456e+000 -5.668122e+000  0.000000e+000
    endloop
  endfacet
  facet normal  0.000000e+000  0.000000e+000 -1.000000e+000
    outer loop
      vertex -8.039066e-015 -7.500000e+000  0.000000e+000
      vertex -4.911456e+000 -5.668122e+000  0.000000e+000
      vertex -5.668122e+000 -4.911456e+000  0.000000e+000
    endloop
  endfacet
  facet normal  0.000000e+000  0.000000e+000 -1.000000e+000
    outer loop
      vertex -8.039066e-015 -7.500000e+000  0.000000e+000
      vertex -5.668122e+000 -4.911456e+000  0.000000e+000
      vertex -6.309402e+000 -4.054806e+000  0.000000e+000
    endloop
  endfacet
  facet normal  0.000000e+000  0.000000e+000 -1.000000e+000
    outer loop
      vertex -8.039066e-015 -7.500000e+000  0.000000e+000
      vertex -6.309402e+000 -4.054806e+000  0.000000e+000
      vertex -6.822240e+000 -3.115613e+000  0.000000e+000
    endloop
  endfacet
  facet normal  0.000000e+000  0.000000e+000 -1.000000e+000
    outer loop
      vertex -8.039066e-015 -7.500000e+000  0.000000e+000
      vertex -6.822240e+000 -3.115613e+000  0.000000e+000
      vertex -7.196198e+000 -2.112994e+000  0.000000e+000
    endloop
  endfacet
  facet normal  0.000000e+000  0.000000e+000 -1.000000e+000
    outer loop
      vertex  7.196198e+000 -2.112994e+000  0.000000e+000
      vertex -3.673940e-016 -2.000000e+000  0.000000e+000
      vertex  5.176381e-001 -1.931852e+000  0.000000e+000
    endloop
  endfacet
  facet normal  0.000000e+000  0.000000e+000 -1.000000e+000
    outer loop
      vertex  7.196198e+000 -2.112994e+000  0.000000e+000
      vertex  5.176381e-001 -1.931852e+000  0.000000e+000
      vertex  1.000000e+000 -1.732051e+000  0.000000e+000
    endloop
  endfacet
  facet normal  0.000000e+000  0.000000e+000 -1.000000e+000
    outer loop
      vertex  7.196198e+000 -2.112994e+000  0.000000e+000
      vertex  1.000000e+000 -1.732051e+000  0.000000e+000
      vertex  1.414214e+000 -1.414214e+000  0.000000e+000
    endloop
  endfacet
  facet normal  0.000000e+000  0.000000e+000 -1.000000e+000
    outer loop
      vertex  7.196198e+000 -2.112994e+000  0.000000e+000
      vertex  1.414214e+000 -1.414214e+000  0.000000e+000
      vertex  1.732051e+000 -1.000000e+000  0.000000e+000
    endloop
  endfacet
  facet normal  0.000000e+000  0.000000e+000 -1.000000e+000
    outer loop
      vertex  7.196198e+000 -2.112994e+000  0.000000e+000
      vertex  1.732051e+000 -1.000000e+000  0.000000e+000
      vertex  7.423661e+000 -1.067361e+000  0.000000e+000
    endloop
  endfacet
  facet normal  0.000000e+000  -0.000000e+000 -1.000000e+000
    outer loop
      vertex -8.039066e-015 -7.500000e+000  0.000000e+000
      vertex -3.673940e-016 -2.000000e+000  0.000000e+000
      vertex  7.196198e+000 -2.112994e+000  0.000000e+000
    endloop
  endfacet
  facet normal  0.000000e+000  0.000000e+000 -9.999999e-001
    outer loop
      vertex -8.039066e-015 -7.500000e+000  0.000000e+000
      vertex  7.196198e+000 -2.112994e+000  0.000000e+000
      vertex  6.822240e+000 -3.115613e+000  0.000000e+000
    endloop
  endfacet
  facet normal  0.000000e+000  0.000000e+000 -1.000000e+000
    outer loop
      vertex -8.039066e-015 -7.500000e+000  0.000000e+000
      vertex  6.822240e+000 -3.115613e+000  0.000000e+000
      vertex  6.309402e+000 -4.054806e+000  0.000000e+000
    endloop
  endfacet
  facet normal  0.000000e+000  0.000000e+000 -1.000000e+000
    outer loop
      vertex -8.039066e-015 -7.500000e+000  0.000000e+000
      vertex  6.309402e+000 -4.054806e+000  0.000000e+000
      vertex  5.668122e+000 -4.911456e+000  0.000000e+000
    endloop
  endfacet
  facet normal  0.000000e+000  0.000000e+000 -1.000000e+000
    outer loop
      vertex -8.039066e-015 -7.500000e+000  0.000000e+000
      vertex  5.668122e+000 -4.911456e+000  0.000000e+000
      vertex  4.911456e+000 -5.668122e+000  0.000000e+000
    endloop
  endfacet
  facet normal  0.000000e+000  0.000000e+000 -9.999999e-001
    outer loop
      vertex -8.039066e-015 -7.500000e+000  0.000000e+000
      vertex  4.911456e+000 -5.668122e+000  0.000000e+000
      vertex  4.054806e+000 -6.309402e+000  0.000000e+000
    endloop
  endfacet
  facet normal  0.000000e+000  0.000000e+000 -1.000000e+000
    outer loop
      vertex -8.039066e-015 -7.500000e+000  0.000000e+000
      vertex  4.054806e+000 -6.309402e+000  0.000000e+000
      vertex  3.115613e+000 -6.822240e+000  0.000000e+000
    endloop
  endfacet
  facet normal  0.000000e+000  0.000000e+000 -1.000000e+000
    outer loop
      vertex -8.039066e-015 -7.500000e+000  0.000000e+000
      vertex  3.115613e+000 -6.822240e+000  0.000000e+000
      vertex  2.112994e+000 -7.196198e+000  0.000000e+000
    endloop
  endfacet
  facet normal  0.000000e+000  0.000000e+000 -1.000000e+000
    outer loop
      vertex -8.039066e-015 -7.500000e+000  0.000000e+000
      vertex  2.112994e+000 -7.196198e+000  0.000000e+000
      vertex  1.067361e+000 -7.423661e+000  0.000000e+000
    endloop
  endfacet
  facet normal  0.000000e+000  0.000000e+000 -1.000000e+000
    outer loop
      vertex -1.426585e+000  4.053504e+000  0.000000e+000
      vertex -6.309402e+000  4.054806e+000  0.000000e+000
      vertex -1.500000e+000  4.517029e+000  0.000000e+000
    endloop
  endfacet
  facet normal  -0.000000e+000  0.000000e+000 -1.000000e+000
    outer loop
      vertex -1.500000e+000  4.517029e+000  0.000000e+000
      vertex -6.309402e+000  4.054806e+000  0.000000e+000
      vertex -5.668122e+000  4.911456e+000  0.000000e+000
    endloop
  endfacet
  facet normal  0.000000e+000  0.000000e+000 -9.999999e-001
    outer loop
      vertex -1.500000e+000  4.517029e+000  0.000000e+000
      vertex -5.668122e+000  4.911456e+000  0.000000e+000
      vertex -1.426585e+000  4.980555e+000  0.000000e+000
    endloop
  endfacet
  facet normal  0.000000e+000  0.000000e+000 -1.000000e+000
    outer loop
      vertex  1.224647e-016  2.000000e+000  0.000000e+000
      vertex -5.176381e-001  1.931852e+000  0.000000e+000
      vertex -7.196198e+000  2.112994e+000  0.000000e+000
    endloop
  endfacet
  facet normal  0.000000e+000  0.000000e+000 -1.000000e+000
    outer loop
      vertex -7.196198e+000  2.112994e+000  0.000000e+000
      vertex -5.176381e-001  1.931852e+000  0.000000e+000
      vertex -1.000000e+000  1.732051e+000  0.000000e+000
    endloop
  endfacet
  facet normal  -0.000000e+000  0.000000e+000 -1.000000e+000
    outer loop
      vertex -7.196198e+000  2.112994e+000  0.000000e+000
      vertex -1.000000e+000  1.732051e+000  0.000000e+000
      vertex -7.423661e+000  1.067361e+000  0.000000e+000
    endloop
  endfacet
  facet normal  0.000000e+000  0.000000e+000 -1.000000e+000
    outer loop
      vertex -1.414214e+000  1.414214e+000  0.000000e+000
      vertex -1.732051e+000  1.000000e+000  0.000000e+000
      vertex -7.423661e+000  1.067361e+000  0.000000e+000
    endloop
  endfacet
  facet normal  0.000000e+000  0.000000e+000 -1.000000e+000
    outer loop
      vertex -7.423661e+000  1.067361e+000  0.000000e+000
      vertex -1.732051e+000  1.000000e+000  0.000000e+000
      vertex -1.931852e+000  5.176381e-001  0.000000e+000
    endloop
  endfacet
  facet normal  -0.000000e+000  0.000000e+000 -1.000000e+000
    outer loop
      vertex -7.423661e+000  1.067361e+000  0.000000e+000
      vertex -1.931852e+000  5.176381e-001  0.000000e+000
      vertex -7.500000e+000  4.249154e-015  0.000000e+000
    endloop
  endfacet
  facet normal  0.000000e+000  0.000000e+000 -1.000000e+000
    outer loop
      vertex  4.635255e-001  5.943614e+000  0.000000e+000
      vertex  4.911456e+000  5.668122e+000  0.000000e+000
      vertex  8.816779e-001  5.730555e+000  0.000000e+000
    endloop
  endfacet
  facet normal  0.000000e+000  0.000000e+000 -1.000000e+000
    outer loop
      vertex  8.816779e-001  5.730555e+000  0.000000e+000
      vertex  4.911456e+000  5.668122e+000  0.000000e+000
      vertex  5.668122e+000  4.911456e+000  0.000000e+000
    endloop
  endfacet
  facet normal  0.000000e+000  0.000000e+000 -1.000000e+000
    outer loop
      vertex  8.816779e-001  5.730555e+000  0.000000e+000
      vertex  5.668122e+000  4.911456e+000  0.000000e+000
      vertex  1.213526e+000  5.398707e+000  0.000000e+000
    endloop
  endfacet
  facet normal  0.000000e+000  0.000000e+000 -1.000000e+000
    outer loop
      vertex  1.213526e+000  5.398707e+000  0.000000e+000
      vertex  5.668122e+000  4.911456e+000  0.000000e+000
      vertex  1.426585e+000  4.980555e+000  0.000000e+000
    endloop
  endfacet
  facet normal  0.000000e+000  0.000000e+000 -1.000000e+000
    outer loop
      vertex  1.426585e+000  4.980555e+000  0.000000e+000
      vertex  5.668122e+000  4.911456e+000  0.000000e+000
      vertex  6.309402e+000  4.054806e+000  0.000000e+000
    endloop
  endfacet
  facet normal  0.000000e+000  0.000000e+000 -1.000000e+000
    outer loop
      vertex  1.426585e+000  4.980555e+000  0.000000e+000
      vertex  6.309402e+000  4.054806e+000  0.000000e+000
      vertex  1.500000e+000  4.517029e+000  0.000000e+000
    endloop
  endfacet
  facet normal  0.000000e+000  -0.000000e+000 -1.000000e+000
    outer loop
      vertex  8.816779e-001  3.303504e+000  0.000000e+000
      vertex  1.213526e+000  3.635351e+000  0.000000e+000
      vertex  6.822240e+000  3.115613e+000  0.000000e+000
    endloop
  endfacet
  facet normal  0.000000e+000  0.000000e+000 -9.999999e-001
    outer loop
      vertex  6.822240e+000  3.115613e+000  0.000000e+000
      vertex  1.213526e+000  3.635351e+000  0.000000e+000
      vertex  1.426585e+000  4.053504e+000  0.000000e+000
    endloop
  endfacet
  facet normal  0.000000e+000  0.000000e+000 -1.000000e+000
    outer loop
      vertex  6.822240e+000  3.115613e+000  0.000000e+000
      vertex  1.426585e+000  4.053504e+000  0.000000e+000
      vertex  6.309402e+000  4.054806e+000  0.000000e+000
    endloop
  endfacet
  facet normal  -0.000000e+000  0.000000e+000 -1.000000e+000
    outer loop
      vertex  8.816779e-001  3.303504e+000  0.000000e+000
      vertex  6.822240e+000  3.115613e+000  0.000000e+000
      vertex  4.635255e-001  3.090445e+000  0.000000e+000
    endloop
  endfacet
  facet normal  0.000000e+000  0.000000e+000 -1.000000e+000
    outer loop
      vertex  4.635255e-001  3.090445e+000  0.000000e+000
      vertex  6.822240e+000  3.115613e+000  0.000000e+000
      vertex  7.196198e+000  2.112994e+000  0.000000e+000
    endloop
  endfacet
  facet normal  0.000000e+000  0.000000e+000 -1.000000e+000
    outer loop
      vertex  4.635255e-001  3.090445e+000  0.000000e+000
      vertex  7.196198e+000  2.112994e+000  0.000000e+000
      vertex -2.755455e-016  3.017029e+000  0.000000e+000
    endloop
  endfacet
  facet normal  0.000000e+000  0.000000e+000 -9.999999e-001
    outer loop
      vertex -2.755455e-016  3.017029e+000  0.000000e+000
      vertex  7.196198e+000  2.112994e+000  0.000000e+000
      vertex  1.224647e-016  2.000000e+000  0.000000e+000
    endloop
  endfacet
  facet normal  0.000000e+000  0.000000e+000 -9.999999e-001
    outer loop
      vertex -2.755455e-016  3.017029e+000  0.000000e+000
      vertex  1.224647e-016  2.000000e+000  0.000000e+000
      vertex -7.196198e+000  2.112994e+000  0.000000e+000
    endloop
  endfacet
  facet normal  0.000000e+000  0.000000e+000 -1.000000e+000
    outer loop
      vertex  1.224647e-016  2.000000e+000  0.000000e+000
      vertex  7.196198e+000  2.112994e+000  0.000000e+000
      vertex  5.176381e-001  1.931852e+000  0.000000e+000
    endloop
  endfacet
  facet normal  0.000000e+000  0.000000e+000 -1.000000e+000
    outer loop
      vertex  5.176381e-001  1.931852e+000  0.000000e+000
      vertex  7.196198e+000  2.112994e+000  0.000000e+000
      vertex  7.423661e+000  1.067361e+000  0.000000e+000
    endloop
  endfacet
  facet normal  0.000000e+000  0.000000e+000 -1.000000e+000
    outer loop
      vertex  5.176381e-001  1.931852e+000  0.000000e+000
      vertex  7.423661e+000  1.067361e+000  0.000000e+000
      vertex  1.000000e+000  1.732051e+000  0.000000e+000
    endloop
  endfacet
  facet normal  0.000000e+000  0.000000e+000 -1.000000e+000
    outer loop
      vertex  2.000000e+000  0.000000e+000  0.000000e+000
      vertex  1.931852e+000  5.176381e-001  0.000000e+000
      vertex  7.500000e+000  0.000000e+000  0.000000e+000
    endloop
  endfacet
  facet normal  0.000000e+000  0.000000e+000 -1.000000e+000
    outer loop
      vertex  7.500000e+000  0.000000e+000  0.000000e+000
      vertex  1.931852e+000  5.176381e-001  0.000000e+000
      vertex  1.732051e+000  1.000000e+000  0.000000e+000
    endloop
  endfacet
  facet normal  0.000000e+000  0.000000e+000 -9.999999e-001
    outer loop
      vertex  7.500000e+000  0.000000e+000  0.000000e+000
      vertex  1.732051e+000  1.000000e+000  0.000000e+000
      vertex  7.423661e+000  1.067361e+000  0.000000e+000
    endloop
  endfacet
  facet normal  0.000000e+000  -0.000000e+000 -1.000000e+000
    outer loop
      vertex  1.732051e+000 -1.000000e+000  0.000000e+000
      vertex  1.931852e+000 -5.176381e-001  0.000000e+000
      vertex  7.423661e+000 -1.067361e+000  0.000000e+000
    endloop
  endfacet
  facet normal  0.000000e+000  0.000000e+000 -1.000000e+000
    outer loop
      vertex  7.423661e+000 -1.067361e+000  0.000000e+000
      vertex  1.931852e+000 -5.176381e-001  0.000000e+000
      vertex  2.000000e+000  0.000000e+000  0.000000e+000
    endloop
  endfacet
  facet normal  0.000000e+000  0.000000e+000 -1.000000e+000
    outer loop
      vertex  7.423661e+000 -1.067361e+000  0.000000e+000
      vertex  2.000000e+000  0.000000e+000  0.000000e+000
      vertex  7.500000e+000  0.000000e+000  0.000000e+000
    endloop
  endfacet
  facet normal  1.564346e-001 -9.876883e-001  0.000000e+000
    outer loop
      vertex  9.184851e-017  6.017029e+000  0.000000e+000
      vertex -4.635255e-001  5.943614e+000  1.000000e+001
      vertex -4.635255e-001  5.943614e+000  0.000000e+000
    endloop
  endfacet
  facet normal  4.539908e-001 -8.910064e-001  0.000000e+000
    outer loop
      vertex -4.635255e-001  5.943614e+000  0.000000e+000
      vertex -4.635255e-001  5.943614e+000  1.000000e+001
      vertex -8.816779e-001  5.730555e+000  1.000000e+001
    endloop
  endfacet
  facet normal  4.539908e-001 -8.910064e-001  0.000000e+000
    outer loop
      vertex -4.635255e-001  5.943614e+000  0.000000e+000
      vertex -8.816779e-001  5.730555e+000  1.000000e+001
      vertex -8.816779e-001  5.730555e+000  0.000000e+000
    endloop
  endfacet
  facet normal  7.071063e-001 -7.071073e-001  0.000000e+000
    outer loop
      vertex -8.816779e-001  5.730555e+000  0.000000e+000
      vertex -8.816779e-001  5.730555e+000  1.000000e+001
      vertex -1.213526e+000  5.398707e+000  1.000000e+001
    endloop
  endfacet
  facet normal  7.071063e-001 -7.071073e-001  0.000000e+000
    outer loop
      vertex -8.816779e-001  5.730555e+000  0.000000e+000
      vertex -1.213526e+000  5.398707e+000  1.000000e+001
      vertex -1.213526e+000  5.398707e+000  0.000000e+000
    endloop
  endfacet
  facet normal  8.910068e-001 -4.539900e-001  0.000000e+000
    outer loop
      vertex -1.213526e+000  5.398707e+000  0.000000e+000
      vertex -1.213526e+000  5.398707e+000  1.000000e+001
      vertex -1.426585e+000  4.980555e+000  1.000000e+001
    endloop
  endfacet
  facet normal  8.910068e-001 -4.539900e-001  0.000000e+000
    outer loop
      vertex -1.213526e+000  5.398707e+000  0.000000e+000
      vertex -1.426585e+000  4.980555e+000  1.000000e+001
      vertex -1.426585e+000  4.980555e+000  0.000000e+000
    endloop
  endfacet
  facet normal  9.876884e-001 -1.564346e-001  0.000000e+000
    outer loop
      vertex -1.426585e+000  4.980555e+000  0.000000e+000
      vertex -1.426585e+000  4.980555e+000  1.000000e+001
      vertex -1.500000e+000  4.517029e+000  1.000000e+001
    endloop
  endfacet
  facet normal  9.876884e-001 -1.564346e-001  0.000000e+000
    outer loop
      vertex -1.426585e+000  4.980555e+000  0.000000e+000
      vertex -1.500000e+000  4.517029e+000  1.000000e+001
      vertex -1.500000e+000  4.517029e+000  0.000000e+000
    endloop
  endfacet
  facet normal  1.564346e-001 -9.876883e-001  0.000000e+000
    outer loop
      vertex -4.635255e-001  5.943614e+000  1.000000e+001
      vertex  9.184851e-017  6.017029e+000  0.000000e+000
      vertex  9.184851e-017  6.017029e+000  1.000000e+001
    endloop
  endfacet
  facet normal -1.564346e-001 -9.876883e-001  -0.000000e+000
    outer loop
      vertex  9.184851e-017  6.017029e+000  1.000000e+001
      vertex  9.184851e-017  6.017029e+000  0.000000e+000
      vertex  4.635255e-001  5.943614e+000  0.000000e+000
    endloop
  endfacet
  facet normal -1.564346e-001 -9.876883e-001  0.000000e+000
    outer loop
      vertex  9.184851e-017  6.017029e+000  1.000000e+001
      vertex  4.635255e-001  5.943614e+000  0.000000e+000
      vertex  4.635255e-001  5.943614e+000  1.000000e+001
    endloop
  endfacet
  facet normal -4.539908e-001 -8.910064e-001  -0.000000e+000
    outer loop
      vertex  4.635255e-001  5.943614e+000  1.000000e+001
      vertex  4.635255e-001  5.943614e+000  0.000000e+000
      vertex  8.816779e-001  5.730555e+000  0.000000e+000
    endloop
  endfacet
  facet normal -4.539908e-001 -8.910064e-001  0.000000e+000
    outer loop
      vertex  4.635255e-001  5.943614e+000  1.000000e+001
      vertex  8.816779e-001  5.730555e+000  0.000000e+000
      vertex  8.816779e-001  5.730555e+000  1.000000e+001
    endloop
  endfacet
  facet normal -7.071063e-001 -7.071073e-001  -0.000000e+000
    outer loop
      vertex  8.816779e-001  5.730555e+000  1.000000e+001
      vertex  8.816779e-001  5.730555e+000  0.000000e+000
      vertex  1.213526e+000  5.398707e+000  0.000000e+000
    endloop
  endfacet
  facet normal -7.071063e-001 -7.071073e-001  0.000000e+000
    outer loop
      vertex  8.816779e-001  5.730555e+000  1.000000e+001
      vertex  1.213526e+000  5.398707e+000  0.000000e+000
      vertex  1.213526e+000  5.398707e+000  1.000000e+001
    endloop
  endfacet
  facet normal -8.910068e-001 -4.539900e-001  -0.000000e+000
    outer loop
      vertex  1.213526e+000  5.398707e+000  1.000000e+001
      vertex  1.213526e+000  5.398707e+000  0.000000e+000
      vertex  1.426585e+000  4.980555e+000  0.000000e+000
    endloop
  endfacet
  facet normal -8.910068e-001 -4.539900e-001  0.000000e+000
    outer loop
      vertex  1.213526e+000  5.398707e+000  1.000000e+001
      vertex  1.426585e+000  4.980555e+000  0.000000e+000
      vertex  1.426585e+000  4.980555e+000  1.000000e+001
    endloop
  endfacet
  facet normal -9.876884e-001 -1.564346e-001  -0.000000e+000
    outer loop
      vertex  1.426585e+000  4.980555e+000  1.000000e+001
      vertex  1.426585e+000  4.980555e+000  0.000000e+000
      vertex  1.500000e+000  4.517029e+000  0.000000e+000
    endloop
  endfacet
  facet normal -9.876884e-001 -1.564346e-001  0.000000e+000
    outer loop
      vertex  1.426585e+000  4.980555e+000  1.000000e+001
      vertex  1.500000e+000  4.517029e+000  0.000000e+000
      vertex  1.500000e+000  4.517029e+000  1.000000e+001
    endloop
  endfacet
  facet normal -1.564346e-001  9.876883e-001  0.000000e+000
    outer loop
      vertex -2.755455e-016  3.017029e+000  0.000000e+000
      vertex  4.635255e-001  3.090445e+000  1.000000e+001
      vertex  4.635255e-001  3.090445e+000  0.000000e+000
    endloop
  endfacet
  facet normal -4.539904e-001  8.910066e-001  0.000000e+000
    outer loop
      vertex  4.635255e-001  3.090445e+000  0.000000e+000
      vertex  4.635255e-001  3.090445e+000  1.000000e+001
      vertex  8.816779e-001  3.303504e+000  1.000000e+001
    endloop
  endfacet
  facet normal -4.539904e-001  8.910066e-001  0.000000e+000
    outer loop
      vertex  4.635255e-001  3.090445e+000  0.000000e+000
      vertex  8.816779e-001  3.303504e+000  1.000000e+001
      vertex  8.816779e-001  3.303504e+000  0.000000e+000
    endloop
  endfacet
  facet normal -7.071068e-001  7.071068e-001  0.000000e+000
    outer loop
      vertex  8.816779e-001  3.303504e+000  0.000000e+000
      vertex  8.816779e-001  3.303504e+000  1.000000e+001
      vertex  1.213526e+000  3.635351e+000  1.000000e+001
    endloop
  endfacet
  facet normal -7.071068e-001  7.071068e-001  0.000000e+000
    outer loop
      vertex  8.816779e-001  3.303504e+000  0.000000e+000
      vertex  1.213526e+000  3.635351e+000  1.000000e+001
      vertex  1.213526e+000  3.635351e+000  0.000000e+000
    endloop
  endfacet
  facet normal -8.910067e-001  4.539902e-001  0.000000e+000
    outer loop
      vertex  1.213526e+000  3.635351e+000  0.000000e+000
      vertex  1.213526e+000  3.635351e+000  1.000000e+001
      vertex  1.426585e+000  4.053504e+000  1.000000e+001
    endloop
  endfacet
  facet normal -8.910067e-001  4.539902e-001  0.000000e+000
    outer loop
      vertex  1.213526e+000  3.635351e+000  0.000000e+000
      vertex  1.426585e+000  4.053504e+000  1.000000e+001
      vertex  1.426585e+000  4.053504e+000  0.000000e+000
    endloop
  endfacet
  facet normal -9.876884e-001  1.564346e-001  0.000000e+000
    outer loop
      vertex  1.426585e+000  4.053504e+000  0.000000e+000
      vertex  1.426585e+000  4.053504e+000  1.000000e+001
      vertex  1.500000e+000  4.517029e+000  1.000000e+001
    endloop
  endfacet
  facet normal -9.876884e-001  1.564346e-001  0.000000e+000
    outer loop
      vertex  1.426585e+000  4.053504e+000  0.000000e+000
      vertex  1.500000e+000  4.517029e+000  1.000000e+001
      vertex  1.500000e+000  4.517029e+000  0.000000e+000
    endloop
  endfacet
  facet normal -1.564346e-001  9.876883e-001  0.000000e+000
    outer loop
      vertex  4.635255e-001  3.090445e+000  1.000000e+001
      vertex -2.755455e-016  3.017029e+000  0.000000e+000
      vertex -2.755455e-016  3.017029e+000  1.000000e+001
    endloop
  endfacet
  facet normal  1.564346e-001  9.876883e-001  0.000000e+000
    outer loop
      vertex -2.755455e-016  3.017029e+000  1.000000e+001
      vertex -2.755455e-016  3.017029e+000  0.000000e+000
      vertex -4.635255e-001  3.090445e+000  0.000000e+000
    endloop
  endfacet
  facet normal  1.564346e-001  9.876883e-001  -0.000000e+000
    outer loop
      vertex -2.755455e-016  3.017029e+000  1.000000e+001
      vertex -4.635255e-001  3.090445e+000  0.000000e+000
      vertex -4.635255e-001  3.090445e+000  1.000000e+001
    endloop
  endfacet
  facet normal  4.539904e-001  8.910066e-001  0.000000e+000
    outer loop
      vertex -4.635255e-001  3.090445e+000  1.000000e+001
      vertex -4.635255e-001  3.090445e+000  0.000000e+000
      vertex -8.816779e-001  3.303504e+000  0.000000e+000
    endloop
  endfacet
  facet normal  4.539904e-001  8.910066e-001  -0.000000e+000
    outer loop
      vertex -4.635255e-001  3.090445e+000  1.000000e+001
      vertex -8.816779e-001  3.303504e+000  0.000000e+000
      vertex -8.816779e-001  3.303504e+000  1.000000e+001
    endloop
  endfacet
  facet normal  7.071068e-001  7.071068e-001  0.000000e+000
    outer loop
      vertex -8.816779e-001  3.303504e+000  1.000000e+001
      vertex -8.816779e-001  3.303504e+000  0.000000e+000
      vertex -1.213526e+000  3.635351e+000  0.000000e+000
    endloop
  endfacet
  facet normal  7.071068e-001  7.071068e-001  -0.000000e+000
    outer loop
      vertex -8.816779e-001  3.303504e+000  1.000000e+001
      vertex -1.213526e+000  3.635351e+000  0.000000e+000
      vertex -1.213526e+000  3.635351e+000  1.000000e+001
    endloop
  endfacet
  facet normal  8.910067e-001  4.539902e-001  0.000000e+000
    outer loop
      vertex -1.213526e+000  3.635351e+000  1.000000e+001
      vertex -1.213526e+000  3.635351e+000  0.000000e+000
      vertex -1.426585e+000  4.053504e+000  0.000000e+000
    endloop
  endfacet
  facet normal  8.910067e-001  4.539902e-001  -0.000000e+000
    outer loop
      vertex -1.213526e+000  3.635351e+000  1.000000e+001
      vertex -1.426585e+000  4.053504e+000  0.000000e+000
      vertex -1.426585e+000  4.053504e+000  1.000000e+001
    endloop
  endfacet
  facet normal  9.876884e-001  1.564346e-001  0.000000e+000
    outer loop
      vertex -1.426585e+000  4.053504e+000  1.000000e+001
      vertex -1.426585e+000  4.053504e+000  0.000000e+000
      vertex -1.500000e+000  4.517029e+000  0.000000e+000
    endloop
  endfacet
  facet normal  9.876884e-001  1.564346e-001  -0.000000e+000
    outer loop
      vertex -1.426585e+000  4.053504e+000  1.000000e+001
      vertex -1.500000e+000  4.517029e+000  0.000000e+000
      vertex -1.500000e+000  4.517029e+000  1.000000e+001
    endloop
  endfacet
  facet normal  1.305262e-001 -9.914449e-001  0.000000e+000
    outer loop
      vertex  1.224647e-016  2.000000e+000  0.000000e+000
      vertex -5.176381e-001  1.931852e+000  1.000000e+001
      vertex -5.176381e-001  1.931852e+000  0.000000e+000
    endloop
  endfacet
  facet normal  3.826835e-001 -9.238795e-001  0.000000e+000
    outer loop
      vertex -5.176381e-001  1.931852e+000  0.000000e+000
      vertex -5.176381e-001  1.931852e+000  1.000000e+001
      vertex -1.000000e+000  1.732051e+000  1.000000e+001
    endloop
  endfacet
  facet normal  3.826835e-001 -9.238795e-001  0.000000e+000
    outer loop
      vertex -5.176381e-001  1.931852e+000  0.000000e+000
      vertex -1.000000e+000  1.732051e+000  1.000000e+001
      vertex -1.000000e+000  1.732051e+000  0.000000e+000
    endloop
  endfacet
  facet normal  6.087614e-001 -7.933534e-001  0.000000e+000
    outer loop
      vertex -1.000000e+000  1.732051e+000  0.000000e+000
      vertex -1.000000e+000  1.732051e+000  1.000000e+001
      vertex -1.414214e+000  1.414214e+000  1.000000e+001
    endloop
  endfacet
  facet normal  6.087614e-001 -7.933534e-001  0.000000e+000
    outer loop
      vertex -1.000000e+000  1.732051e+000  0.000000e+000
      vertex -1.414214e+000  1.414214e+000  1.000000e+001
      vertex -1.414214e+000  1.414214e+000  0.000000e+000
    endloop
  endfacet
  facet normal  7.933534e-001 -6.087614e-001  0.000000e+000
    outer loop
      vertex -1.414214e+000  1.414214e+000  0.000000e+000
      vertex -1.414214e+000  1.414214e+000  1.000000e+001
      vertex -1.732051e+000  1.000000e+000  1.000000e+001
    endloop
  endfacet
  facet normal  7.933534e-001 -6.087614e-001  0.000000e+000
    outer loop
      vertex -1.414214e+000  1.414214e+000  0.000000e+000
      vertex -1.732051e+000  1.000000e+000  1.000000e+001
      vertex -1.732051e+000  1.000000e+000  0.000000e+000
    endloop
  endfacet
  facet normal  9.238795e-001 -3.826835e-001  0.000000e+000
    outer loop
      vertex -1.732051e+000  1.000000e+000  0.000000e+000
      vertex -1.732051e+000  1.000000e+000  1.000000e+001
      vertex -1.931852e+000  5.176381e-001  1.000000e+001
    endloop
  endfacet
  facet normal  9.238795e-001 -3.826835e-001  0.000000e+000
    outer loop
      vertex -1.732051e+000  1.000000e+000  0.000000e+000
      vertex -1.931852e+000  5.176381e-001  1.000000e+001
      vertex -1.931852e+000  5.176381e-001  0.000000e+000
    endloop
  endfacet
  facet normal  9.914449e-001 -1.305262e-001  0.000000e+000
    outer loop
      vertex -1.931852e+000  5.176381e-001  0.000000e+000
      vertex -1.931852e+000  5.176381e-001  1.000000e+001
      vertex -2.000000e+000  2.449294e-016  1.000000e+001
    endloop
  endfacet
  facet normal  9.914449e-001 -1.305262e-001  0.000000e+000
    outer loop
      vertex -1.931852e+000  5.176381e-001  0.000000e+000
      vertex -2.000000e+000  2.449294e-016  1.000000e+001
      vertex -2.000000e+000  2.449294e-016  0.000000e+000
    endloop
  endfacet
  facet normal  1.305262e-001 -9.914449e-001  0.000000e+000
    outer loop
      vertex -5.176381e-001  1.931852e+000  1.000000e+001
      vertex  1.224647e-016  2.000000e+000  0.000000e+000
      vertex  1.224647e-016  2.000000e+000  1.000000e+001
    endloop
  endfacet
  facet normal -1.305262e-001 -9.914449e-001  -0.000000e+000
    outer loop
      vertex  1.224647e-016  2.000000e+000  1.000000e+001
      vertex  1.224647e-016  2.000000e+000  0.000000e+000
      vertex  5.176381e-001  1.931852e+000  0.000000e+000
    endloop
  endfacet
  facet normal -1.305262e-001 -9.914449e-001  0.000000e+000
    outer loop
      vertex  1.224647e-016  2.000000e+000  1.000000e+001
      vertex  5.176381e-001  1.931852e+000  0.000000e+000
      vertex  5.176381e-001  1.931852e+000  1.000000e+001
    endloop
  endfacet
  facet normal -3.826835e-001 -9.238795e-001  -0.000000e+000
    outer loop
      vertex  5.176381e-001  1.931852e+000  1.000000e+001
      vertex  5.176381e-001  1.931852e+000  0.000000e+000
      vertex  1.000000e+000  1.732051e+000  0.000000e+000
    endloop
  endfacet
  facet normal -3.826835e-001 -9.238795e-001  0.000000e+000
    outer loop
      vertex  5.176381e-001  1.931852e+000  1.000000e+001
      vertex  1.000000e+000  1.732051e+000  0.000000e+000
      vertex  1.000000e+000  1.732051e+000  1.000000e+001
    endloop
  endfacet
  facet normal -6.087614e-001 -7.933534e-001  -0.000000e+000
    outer loop
      vertex  1.000000e+000  1.732051e+000  1.000000e+001
      vertex  1.000000e+000  1.732051e+000  0.000000e+000
      vertex  1.414214e+000  1.414214e+000  0.000000e+000
    endloop
  endfacet
  facet normal -6.087614e-001 -7.933534e-001  0.000000e+000
    outer loop
      vertex  1.000000e+000  1.732051e+000  1.000000e+001
      vertex  1.414214e+000  1.414214e+000  0.000000e+000
      vertex  1.414214e+000  1.414214e+000  1.000000e+001
    endloop
  endfacet
  facet normal -7.933534e-001 -6.087614e-001  -0.000000e+000
    outer loop
      vertex  1.414214e+000  1.414214e+000  1.000000e+001
      vertex  1.414214e+000  1.414214e+000  0.000000e+000
      vertex  1.732051e+000  1.000000e+000  0.000000e+000
    endloop
  endfacet
  facet normal -7.933534e-001 -6.087614e-001  0.000000e+000
    outer loop
      vertex  1.414214e+000  1.414214e+000  1.000000e+001
      vertex  1.732051e+000  1.000000e+000  0.000000e+000
      vertex  1.732051e+000  1.000000e+000  1.000000e+001
    endloop
  endfacet
  facet normal -9.238795e-001 -3.826835e-001  -0.000000e+000
    outer loop
      vertex  1.732051e+000  1.000000e+000  1.000000e+001
      vertex  1.732051e+000  1.000000e+000  0.000000e+000
      vertex  1.931852e+000  5.176381e-001  0.000000e+000
    endloop
  endfacet
  facet normal -9.238795e-001 -3.826835e-001  0.000000e+000
    outer loop
      vertex  1.732051e+000  1.000000e+000  1.000000e+001
      vertex  1.931852e+000  5.176381e-001  0.000000e+000
      vertex  1.931852e+000  5.176381e-001  1.000000e+001
    endloop
  endfacet
  facet normal -9.914449e-001 -1.305262e-001  -0.000000e+000
    outer loop
      vertex  1.931852e+000  5.176381e-001  1.000000e+001
      vertex  1.931852e+000  5.176381e-001  0.000000e+000
      vertex  2.000000e+000  0.000000e+000  0.000000e+000
    endloop
  endfacet
  facet normal -9.914449e-001 -1.305262e-001  0.000000e+000
    outer loop
      vertex  1.931852e+000  5.176381e-001  1.000000e+001
      vertex  2.000000e+000  0.000000e+000  0.000000e+000
      vertex  2.000000e+000  0.000000e+000  1.000000e+001
    endloop
  endfacet
  facet normal -1.305262e-001  9.914449e-001  0.000000e+000
    outer loop
      vertex -3.673940e-016 -2.000000e+000  0.000000e+000
      vertex  5.176381e-001 -1.931852e+000  1.000000e+001
      vertex  5.176381e-001 -1.931852e+000  0.000000e+000
    endloop
  endfacet
  facet normal -3.826835e-001  9.238795e-001  0.000000e+000
    outer loop
      vertex  5.176381e-001 -1.931852e+000  0.000000e+000
      vertex  5.176381e-001 -1.931852e+000  1.000000e+001
      vertex  1.000000e+000 -1.732051e+000  1.000000e+001
    endloop
  endfacet
  facet normal -3.826835e-001  9.238795e-001  0.000000e+000
    outer loop
      vertex  5.176381e-001 -1.931852e+000  0.000000e+000
      vertex  1.000000e+000 -1.732051e+000  1.000000e+001
      vertex  1.000000e+000 -1.732051e+000  0.000000e+000
    endloop
  endfacet
  facet normal -6.087614e-001  7.933534e-001  0.000000e+000
    outer loop
      vertex  1.000000e+000 -1.732051e+000  0.000000e+000
      vertex  1.000000e+000 -1.732051e+000  1.000000e+001
      vertex  1.414214e+000 -1.414214e+000  1.000000e+001
    endloop
  endfacet
  facet normal -6.087614e-001  7.933534e-001  0.000000e+000
    outer loop
      vertex  1.000000e+000 -1.732051e+000  0.000000e+000
      vertex  1.414214e+000 -1.414214e+000  1.000000e+001
      vertex  1.414214e+000 -1.414214e+000  0.000000e+000
    endloop
  endfacet
  facet normal -7.933534e-001  6.087614e-001  0.000000e+000
    outer loop
      vertex  1.414214e+000 -1.414214e+000  0.000000e+000
      vertex  1.414214e+000 -1.414214e+000  1.000000e+001
      vertex  1.732051e+000 -1.000000e+000  1.000000e+001
    endloop
  endfacet
  facet normal -7.933534e-001  6.087614e-001  0.000000e+000
    outer loop
      vertex  1.414214e+000 -1.414214e+000  0.000000e+000
      vertex  1.732051e+000 -1.000000e+000  1.000000e+001
      vertex  1.732051e+000 -1.000000e+000  0.000000e+000
    endloop
  endfacet
  facet normal -9.238795e-001  3.826835e-001  0.000000e+000
    outer loop
      vertex  1.732051e+000 -1.000000e+000  0.000000e+000
      vertex  1.732051e+000 -1.000000e+000  1.000000e+001
      vertex  1.931852e+000 -5.176381e-001  1.000000e+001
    endloop
  endfacet
  facet normal -9.238795e-001  3.826835e-001  0.000000e+000
    outer loop
      vertex  1.732051e+000 -1.000000e+000  0.000000e+000
      vertex  1.931852e+000 -5.176381e-001  1.000000e+001
      vertex  1.931852e+000 -5.176381e-001  0.000000e+000
    endloop
  endfacet
  facet normal -9.914449e-001  1.305262e-001  0.000000e+000
    outer loop
      vertex  1.931852e+000 -5.176381e-001  0.000000e+000
      vertex  1.931852e+000 -5.176381e-001  1.000000e+001
      vertex  2.000000e+000  0.000000e+000  1.000000e+001
    endloop
  endfacet
  facet normal -9.914449e-001  1.305262e-001  0.000000e+000
    outer loop
      vertex  1.931852e+000 -5.176381e-001  0.000000e+000
      vertex  2.000000e+000  0.000000e+000  1.000000e+001
      vertex  2.000000e+000  0.000000e+000  0.000000e+000
    endloop
  endfacet
  facet normal -1.305262e-001  9.914449e-001  0.000000e+000
    outer loop
      vertex  5.176381e-001 -1.931852e+000  1.000000e+001
      vertex -3.673940e-016 -2.000000e+000  0.000000e+000
      vertex -3.673940e-016 -2.000000e+000  1.000000e+001
    endloop
  endfacet
  facet normal  1.305262e-001  9.914449e-001  0.000000e+000
    outer loop
      vertex -3.673940e-016 -2.000000e+000  1.000000e+001
      vertex -3.673940e-016 -2.000000e+000  0.000000e+000
      vertex -5.176381e-001 -1.931852e+000  0.000000e+000
    endloop
  endfacet
  facet normal  1.305262e-001  9.914449e-001  -0.000000e+000
    outer loop
      vertex -3.673940e-016 -2.000000e+000  1.000000e+001
      vertex -5.176381e-001 -1.931852e+000  0.000000e+000
      vertex -5.176381e-001 -1.931852e+000  1.000000e+001
    endloop
  endfacet
  facet normal  3.826835e-001  9.238795e-001  0.000000e+000
    outer loop
      vertex -5.176381e-001 -1.931852e+000  1.000000e+001
      vertex -5.176381e-001 -1.931852e+000  0.000000e+000
      vertex -1.000000e+000 -1.732051e+000  0.000000e+000
    endloop
  endfacet
  facet normal  3.826835e-001  9.238795e-001  -0.000000e+000
    outer loop
      vertex -5.176381e-001 -1.931852e+000  1.000000e+001
      vertex -1.000000e+000 -1.732051e+000  0.000000e+000
      vertex -1.000000e+000 -1.732051e+000  1.000000e+001
    endloop
  endfacet
  facet normal  6.087614e-001  7.933534e-001  0.000000e+000
    outer loop
      vertex -1.000000e+000 -1.732051e+000  1.000000e+001
      vertex -1.000000e+000 -1.732051e+000  0.000000e+000
      vertex -1.414214e+000 -1.414214e+000  0.000000e+000
    endloop
  endfacet
  facet normal  6.087614e-001  7.933534e-001  -0.000000e+000
    outer loop
      vertex -1.000000e+000 -1.732051e+000  1.000000e+001
      vertex -1.414214e+000 -1.414214e+000  0.000000e+000
      vertex -1.414214e+000 -1.414214e+000  1.000000e+001
    endloop
  endfacet
  facet normal  7.933534e-001  6.087614e-001  0.000000e+000
    outer loop
      vertex -1.414214e+000 -1.414214e+000  1.000000e+001
      vertex -1.414214e+000 -1.414214e+000  0.000000e+000
      vertex -1.732051e+000 -1.000000e+000  0.000000e+000
    endloop
  endfacet
  facet normal  7.933534e-001  6.087614e-001  -0.000000e+000
    outer loop
      vertex -1.414214e+000 -1.414214e+000  1.000000e+001
      vertex -1.732051e+000 -1.000000e+000  0.000000e+000
      vertex -1.732051e+000 -1.000000e+000  1.000000e+001
    endloop
  endfacet
  facet normal  9.238795e-001  3.826835e-001  0.000000e+000
    outer loop
      vertex -1.732051e+000 -1.000000e+000  1.000000e+001
      vertex -1.732051e+000 -1.000000e+000  0.000000e+000
      vertex -1.931852e+000 -5.176381e-001  0.000000e+000
    endloop
  endfacet
  facet normal  9.238795e-001  3.826835e-001  -0.000000e+000
    outer loop
      vertex -1.732051e+000 -1.000000e+000  1.000000e+001
      vertex -1.931852e+000 -5.176381e-001  0.000000e+000
      vertex -1.931852e+000 -5.176381e-001  1.000000e+001
    endloop
  endfacet
  facet normal  9.914449e-001  1.305262e-001  0.000000e+000
    outer loop
      vertex -1.931852e+000 -5.176381e-001  1.000000e+001
      vertex -1.931852e+000 -5.176381e-001  0.000000e+000
      vertex -2.000000e+000  2.449294e-016  0.000000e+000
    endloop
  endfacet
  facet normal  9.914449e-001  1.305262e-001  -0.000000e+000
    outer loop
      vertex -1.931852e+000 -5.176381e-001  1.000000e+001
      vertex -2.000000e+000  2.449294e-016  0.000000e+000
      vertex -2.000000e+000  2.449294e-016  1.000000e+001
    endloop
  endfacet
  facet normal  9.974521e-001 -7.133924e-002  0.000000e+000
    outer loop
      vertex  7.500000e+000  0.000000e+000  0.000000e+000
      vertex  7.500000e+000  0.000000e+000  1.000000e+001
      vertex  7.423661e+000 -1.067361e+000  0.000000e+000
    endloop
  endfacet
  facet normal  9.974521e-001 -7.133924e-002  0.000000e+000
    outer loop
      vertex  7.423661e+000 -1.067361e+000  0.000000e+000
      vertex  7.500000e+000  0.000000e+000  1.000000e+001
      vertex  7.423661e+000 -1.067361e+000  1.000000e+001
    endloop
  endfacet
  facet normal  9.771470e-001 -2.125650e-001  0.000000e+000
    outer loop
      vertex  7.423661e+000 -1.067361e+000  0.000000e+000
      vertex  7.423661e+000 -1.067361e+000  1.000000e+001
      vertex  7.196198e+000 -2.112994e+000  0.000000e+000
    endloop
  endfacet
  facet normal  9.771470e-001 -2.125650e-001  0.000000e+000
    outer loop
      vertex  7.196198e+000 -2.112994e+000  0.000000e+000
      vertex  7.423661e+000 -1.067361e+000  1.000000e+001
      vertex  7.196198e+000 -2.112994e+000  1.000000e+001
    endloop
  endfacet
  facet normal  9.369497e-001 -3.494645e-001  0.000000e+000
    outer loop
      vertex  7.196198e+000 -2.112994e+000  0.000000e+000
      vertex  7.196198e+000 -2.112994e+000  1.000000e+001
      vertex  6.822240e+000 -3.115613e+000  0.000000e+000
    endloop
  endfacet
  facet normal  9.369497e-001 -3.494645e-001  0.000000e+000
    outer loop
      vertex  6.822240e+000 -3.115613e+000  0.000000e+000
      vertex  7.196198e+000 -2.112994e+000  1.000000e+001
      vertex  6.822240e+000 -3.115613e+000  1.000000e+001
    endloop
  endfacet
  facet normal  8.776790e-001 -4.792488e-001  0.000000e+000
    outer loop
      vertex  6.822240e+000 -3.115613e+000  0.000000e+000
      vertex  6.822240e+000 -3.115613e+000  1.000000e+001
      vertex  6.309402e+000 -4.054806e+000  0.000000e+000
    endloop
  endfacet
  facet normal  8.776790e-001 -4.792488e-001  0.000000e+000
    outer loop
      vertex  6.309402e+000 -4.054806e+000  0.000000e+000
      vertex  6.822240e+000 -3.115613e+000  1.000000e+001
      vertex  6.309402e+000 -4.054806e+000  1.000000e+001
    endloop
  endfacet
  facet normal  8.005412e-001 -5.992777e-001  0.000000e+000
    outer loop
      vertex  6.309402e+000 -4.054806e+000  0.000000e+000
      vertex  6.309402e+000 -4.054806e+000  1.000000e+001
      vertex  5.668122e+000 -4.911456e+000  0.000000e+000
    endloop
  endfacet
  facet normal  8.005412e-001 -5.992777e-001  0.000000e+000
    outer loop
      vertex  5.668122e+000 -4.911456e+000  0.000000e+000
      vertex  6.309402e+000 -4.054806e+000  1.000000e+001
      vertex  5.668122e+000 -4.911456e+000  1.000000e+001
    endloop
  endfacet
  facet normal  7.071068e-001 -7.071068e-001  0.000000e+000
    outer loop
      vertex  5.668122e+000 -4.911456e+000  0.000000e+000
      vertex  5.668122e+000 -4.911456e+000  1.000000e+001
      vertex  4.911456e+000 -5.668122e+000  0.000000e+000
    endloop
  endfacet
  facet normal  7.071068e-001 -7.071068e-001  0.000000e+000
    outer loop
      vertex  4.911456e+000 -5.668122e+000  0.000000e+000
      vertex  5.668122e+000 -4.911456e+000  1.000000e+001
      vertex  4.911456e+000 -5.668122e+000  1.000000e+001
    endloop
  endfacet
  facet normal  5.992777e-001 -8.005412e-001  0.000000e+000
    outer loop
      vertex  4.911456e+000 -5.668122e+000  0.000000e+000
      vertex  4.911456e+000 -5.668122e+000  1.000000e+001
      vertex  4.054806e+000 -6.309402e+000  0.000000e+000
    endloop
  endfacet
  facet normal  5.992777e-001 -8.005412e-001  0.000000e+000
    outer loop
      vertex  4.054806e+000 -6.309402e+000  0.000000e+000
      vertex  4.911456e+000 -5.668122e+000  1.000000e+001
      vertex  4.054806e+000 -6.309402e+000  1.000000e+001
    endloop
  endfacet
  facet normal  4.792488e-001 -8.776790e-001  0.000000e+000
    outer loop
      vertex  4.054806e+000 -6.309402e+000  0.000000e+000
      vertex  4.054806e+000 -6.309402e+000  1.000000e+001
      vertex  3.115613e+000 -6.822240e+000  0.000000e+000
    endloop
  endfacet
  facet normal  4.792488e-001 -8.776790e-001  0.000000e+000
    outer loop
      vertex  3.115613e+000 -6.822240e+000  0.000000e+000
      vertex  4.054806e+000 -6.309402e+000  1.000000e+001
      vertex  3.115613e+000 -6.822240e+000  1.000000e+001
    endloop
  endfacet
  facet normal  3.494645e-001 -9.369497e-001  0.000000e+000
    outer loop
      vertex  3.115613e+000 -6.822240e+000  0.000000e+000
      vertex  3.115613e+000 -6.822240e+000  1.000000e+001
      vertex  2.112994e+000 -7.196198e+000  0.000000e+000
    endloop
  endfacet
  facet normal  3.494645e-001 -9.369497e-001  0.000000e+000
    outer loop
      vertex  2.112994e+000 -7.196198e+000  0.000000e+000
      vertex  3.115613e+000 -6.822240e+000  1.000000e+001
      vertex  2.112994e+000 -7.196198e+000  1.000000e+001
    endloop
  endfacet
  facet normal  2.125650e-001 -9.771470e-001  0.000000e+000
    outer loop
      vertex  2.112994e+000 -7.196198e+000  0.000000e+000
      vertex  2.112994e+000 -7.196198e+000  1.000000e+001
      vertex  1.067361e+000 -7.423661e+000  0.000000e+000
    endloop
  endfacet
  facet normal  2.125650e-001 -9.771470e-001  0.000000e+000
    outer loop
      vertex  1.067361e+000 -7.423661e+000  0.000000e+000
      vertex  2.112994e+000 -7.196198e+000  1.000000e+001
      vertex  1.067361e+000 -7.423661e+000  1.000000e+001
    endloop
  endfacet
  facet normal  7.133924e-002 -9.974521e-001  0.000000e+000
    outer loop
      vertex  1.067361e+000 -7.423661e+000  0.000000e+000
      vertex  1.067361e+000 -7.423661e+000  1.000000e+001
      vertex -8.039066e-015 -7.500000e+000  0.000000e+000
    endloop
  endfacet
  facet normal  7.133924e-002 -9.974521e-001  0.000000e+000
    outer loop
      vertex -8.039066e-015 -7.500000e+000  0.000000e+000
      vertex  1.067361e+000 -7.423661e+000  1.000000e+001
      vertex -8.039066e-015 -7.500000e+000  1.000000e+001
    endloop
  endfacet
  facet normal -7.133924e-002 -9.974521e-001  -0.000000e+000
    outer loop
      vertex -8.039066e-015 -7.500000e+000  0.000000e+000
      vertex -8.039066e-015 -7.500000e+000  1.000000e+001
      vertex -1.067361e+000 -7.423661e+000  0.000000e+000
    endloop
  endfacet
  facet normal -7.133924e-002 -9.974521e-001  0.000000e+000
    outer loop
      vertex -1.067361e+000 -7.423661e+000  0.000000e+000
      vertex -8.039066e-015 -7.500000e+000  1.000000e+001
      vertex -1.067361e+000 -7.423661e+000  1.000000e+001
    endloop
  endfacet
  facet normal -2.125650e-001 -9.771470e-001  -0.000000e+000
    outer loop
      vertex -1.067361e+000 -7.423661e+000  0.000000e+000
      vertex -1.067361e+000 -7.423661e+000  1.000000e+001
      vertex -2.112994e+000 -7.196198e+000  0.000000e+000
    endloop
  endfacet
  facet normal -2.125650e-001 -9.771470e-001  0.000000e+000
    outer loop
      vertex -2.112994e+000 -7.196198e+000  0.000000e+000
      vertex -1.067361e+000 -7.423661e+000  1.000000e+001
      vertex -2.112994e+000 -7.196198e+000  1.000000e+001
    endloop
  endfacet
  facet normal -3.494645e-001 -9.369497e-001  -0.000000e+000
    outer loop
      vertex -2.112994e+000 -7.196198e+000  0.000000e+000
      vertex -2.112994e+000 -7.196198e+000  1.000000e+001
      vertex -3.115613e+000 -6.822240e+000  0.000000e+000
    endloop
  endfacet
  facet normal -3.494645e-001 -9.369497e-001  0.000000e+000
    outer loop
      vertex -3.115613e+000 -6.822240e+000  0.000000e+000
      vertex -2.112994e+000 -7.196198e+000  1.000000e+001
      vertex -3.115613e+000 -6.822240e+000  1.000000e+001
    endloop
  endfacet
  facet normal -4.792488e-001 -8.776790e-001  -0.000000e+000
    outer loop
      vertex -3.115613e+000 -6.822240e+000  0.000000e+000
      vertex -3.115613e+000 -6.822240e+000  1.000000e+001
      vertex -4.054806e+000 -6.309402e+000  0.000000e+000
    endloop
  endfacet
  facet normal -4.792488e-001 -8.776790e-001  0.000000e+000
    outer loop
      vertex -4.054806e+000 -6.309402e+000  0.000000e+000
      vertex -3.115613e+000 -6.822240e+000  1.000000e+001
      vertex -4.054806e+000 -6.309402e+000  1.000000e+001
    endloop
  endfacet
  facet normal -5.992777e-001 -8.005412e-001  -0.000000e+000
    outer loop
      vertex -4.054806e+000 -6.309402e+000  0.000000e+000
      vertex -4.054806e+000 -6.309402e+000  1.000000e+001
      vertex -4.911456e+000 -5.668122e+000  0.000000e+000
    endloop
  endfacet
  facet normal -5.992777e-001 -8.005412e-001  0.000000e+000
    outer loop
      vertex -4.911456e+000 -5.668122e+000  0.000000e+000
      vertex -4.054806e+000 -6.309402e+000  1.000000e+001
      vertex -4.911456e+000 -5.668122e+000  1.000000e+001
    endloop
  endfacet
  facet normal -7.071068e-001 -7.071068e-001  -0.000000e+000
    outer loop
      vertex -4.911456e+000 -5.668122e+000  0.000000e+000
      vertex -4.911456e+000 -5.668122e+000  1.000000e+001
      vertex -5.668122e+000 -4.911456e+000  0.000000e+000
    endloop
  endfacet
  facet normal -7.071068e-001 -7.071068e-001  0.000000e+000
    outer loop
      vertex -5.668122e+000 -4.911456e+000  0.000000e+000
      vertex -4.911456e+000 -5.668122e+000  1.000000e+001
      vertex -5.668122e+000 -4.911456e+000  1.000000e+001
    endloop
  endfacet
  facet normal -8.005412e-001 -5.992777e-001  -0.000000e+000
    outer loop
      vertex -5.668122e+000 -4.911456e+000  0.000000e+000
      vertex -5.668122e+000 -4.911456e+000  1.000000e+001
      vertex -6.309402e+000 -4.054806e+000  0.000000e+000
    endloop
  endfacet
  facet normal -8.005412e-001 -5.992777e-001  0.000000e+000
    outer loop
      vertex -6.309402e+000 -4.054806e+000  0.000000e+000
      vertex -5.668122e+000 -4.911456e+000  1.000000e+001
      vertex -6.309402e+000 -4.054806e+000  1.000000e+001
    endloop
  endfacet
  facet normal -8.776790e-001 -4.792488e-001  -0.000000e+000
    outer loop
      vertex -6.309402e+000 -4.054806e+000  0.000000e+000
      vertex -6.309402e+000 -4.054806e+000  1.000000e+001
      vertex -6.822240e+000 -3.115613e+000  0.000000e+000
    endloop
  endfacet
  facet normal -8.776790e-001 -4.792488e-001  0.000000e+000
    outer loop
      vertex -6.822240e+000 -3.115613e+000  0.000000e+000
      vertex -6.309402e+000 -4.054806e+000  1.000000e+001
      vertex -6.822240e+000 -3.115613e+000  1.000000e+001
    endloop
  endfacet
  facet normal -9.369497e-001 -3.494645e-001  -0.000000e+000
    outer loop
      vertex -6.822240e+000 -3.115613e+000  0.000000e+000
      vertex -6.822240e+000 -3.115613e+000  1.000000e+001
      vertex -7.196198e+000 -2.112994e+000  0.000000e+000
    endloop
  endfacet
  facet normal -9.369497e-001 -3.494645e-001  0.000000e+000
    outer loop
      vertex -7.196198e+000 -2.112994e+000  0.000000e+000
      vertex -6.822240e+000 -3.115613e+000  1.000000e+001
      vertex -7.196198e+000 -2.112994e+000  1.000000e+001
    endloop
  endfacet
  facet normal -9.771470e-001 -2.125650e-001  -0.000000e+000
    outer loop
      vertex -7.196198e+000 -2.112994e+000  0.000000e+000
      vertex -7.196198e+000 -2.112994e+000  1.000000e+001
      vertex -7.423661e+000 -1.067361e+000  0.000000e+000
    endloop
  endfacet
  facet normal -9.771470e-001 -2.125650e-001  0.000000e+000
    outer loop
      vertex -7.423661e+000 -1.067361e+000  0.000000e+000
      vertex -7.196198e+000 -2.112994e+000  1.000000e+001
      vertex -7.423661e+000 -1.067361e+000  1.000000e+001
    endloop
  endfacet
  facet normal -9.974521e-001 -7.133924e-002  -0.000000e+000
    outer loop
      vertex -7.423661e+000 -1.067361e+000  0.000000e+000
      vertex -7.423661e+000 -1.067361e+000  1.000000e+001
      vertex -7.500000e+000  4.249154e-015  0.000000e+000
    endloop
  endfacet
  facet normal -9.974521e-001 -7.133924e-002  0.000000e+000
    outer loop
      vertex -7.500000e+000  4.249154e-015  0.000000e+000
      vertex -7.423661e+000 -1.067361e+000  1.000000e+001
      vertex -7.500000e+000  4.249154e-015  1.000000e+001
    endloop
  endfacet
  facet normal -9.974521e-001  7.133924e-002  0.000000e+000
    outer loop
      vertex -7.500000e+000  4.249154e-015  0.000000e+000
      vertex -7.500000e+000  4.249154e-015  1.000000e+001
      vertex -7.423661e+000  1.067361e+000  0.000000e+000
    endloop
  endfacet
  facet normal -9.974521e-001  7.133924e-002  0.000000e+000
    outer loop
      vertex -7.423661e+000  1.067361e+000  0.000000e+000
      vertex -7.500000e+000  4.249154e-015  1.000000e+001
      vertex -7.423661e+000  1.067361e+000  1.000000e+001
    endloop
  endfacet
  facet normal -9.771470e-001  2.125650e-001  0.000000e+000
    outer loop
      vertex -7.423661e+000  1.067361e+000  0.000000e+000
      vertex -7.423661e+000  1.067361e+000  1.000000e+001
      vertex -7.196198e+000  2.112994e+000  0.000000e+000
    endloop
  endfacet
  facet normal -9.771470e-001  2.125650e-001  0.000000e+000
    outer loop
      vertex -7.196198e+000  2.112994e+000  0.000000e+000
      vertex -7.423661e+000  1.067361e+000  1.000000e+001
      vertex -7.196198e+000  2.112994e+000  1.000000e+001
    endloop
  endfacet
  facet normal -9.369497e-001  3.494645e-001  0.000000e+000
    outer loop
      vertex -7.196198e+000  2.112994e+000  0.000000e+000
      vertex -7.196198e+000  2.112994e+000  1.000000e+001
      vertex -6.822240e+000  3.115613e+000  0.000000e+000
    endloop
  endfacet
  facet normal -9.369497e-001  3.494645e-001  0.000000e+000
    outer loop
      vertex -6.822240e+000  3.115613e+000  0.000000e+000
      vertex -7.196198e+000  2.112994e+000  1.000000e+001
      vertex -6.822240e+000  3.115613e+000  1.000000e+001
    endloop
  endfacet
  facet normal -8.776790e-001  4.792488e-001  0.000000e+000
    outer loop
      vertex -6.822240e+000  3.115613e+000  0.000000e+000
      vertex -6.822240e+000  3.115613e+000  1.000000e+001
      vertex -6.309402e+000  4.054806e+000  0.000000e+000
    endloop
  endfacet
  facet normal -8.776790e-001  4.792488e-001  0.000000e+000
    outer loop
      vertex -6.309402e+000  4.054806e+000  0.000000e+000
      vertex -6.822240e+000  3.115613e+000  1.000000e+001
      vertex -6.309402e+000  4.054806e+000  1.000000e+001
    endloop
  endfacet
  facet normal -8.005412e-001  5.992777e-001  0.000000e+000
    outer loop
      vertex -6.309402e+000  4.054806e+000  0.000000e+000
      vertex -6.309402e+000  4.054806e+000  1.000000e+001
      vertex -5.668122e+000  4.911456e+000  0.000000e+000
    endloop
  endfacet
  facet normal -8.005412e-001  5.992777e-001  0.000000e+000
    outer loop
      vertex -5.668122e+000  4.911456e+000  0.000000e+000
      vertex -6.309402e+000  4.054806e+000  1.000000e+001
      vertex -5.668122e+000  4.911456e+000  1.000000e+001
    endloop
  endfacet
  facet normal -7.071068e-001  7.071068e-001  0.000000e+000
    outer loop
      vertex -5.668122e+000  4.911456e+000  0.000000e+000
      vertex -5.668122e+000  4.911456e+000  1.000000e+001
      vertex -4.911456e+000  5.668122e+000  0.000000e+000
    endloop
  endfacet
  facet normal -7.071068e-001  7.071068e-001  0.000000e+000
    outer loop
      vertex -4.911456e+000  5.668122e+000  0.000000e+000
      vertex -5.668122e+000  4.911456e+000  1.000000e+001
      vertex -4.911456e+000  5.668122e+000  1.000000e+001
    endloop
  endfacet
  facet normal -5.992777e-001  8.005412e-001  0.000000e+000
    outer loop
      vertex -4.911456e+000  5.668122e+000  0.000000e+000
      vertex -4.911456e+000  5.668122e+000  1.000000e+001
      vertex -4.054806e+000  6.309402e+000  0.000000e+000
    endloop
  endfacet
  facet normal -5.992777e-001  8.005412e-001  0.000000e+000
    outer loop
      vertex -4.054806e+000  6.309402e+000  0.000000e+000
      vertex -4.911456e+000  5.668122e+000  1.000000e+001
      vertex -4.054806e+000  6.309402e+000  1.000000e+001
    endloop
  endfacet
  facet normal -4.792488e-001  8.776790e-001  0.000000e+000
    outer loop
      vertex -4.054806e+000  6.309402e+000  0.000000e+000
      vertex -4.054806e+000  6.309402e+000  1.000000e+001
      vertex -3.115613e+000  6.822240e+000  0.000000e+000
    endloop
  endfacet
  facet normal -4.792488e-001  8.776790e-001  0.000000e+000
    outer loop
      vertex -3.115613e+000  6.822240e+000  0.000000e+000
      vertex -4.054806e+000  6.309402e+000  1.000000e+001
      vertex -3.115613e+000  6.822240e+000  1.000000e+001
    endloop
  endfacet
  facet normal -3.494645e-001  9.369497e-001  0.000000e+000
    outer loop
      vertex -3.115613e+000  6.822240e+000  0.000000e+000
      vertex -3.115613e+000  6.822240e+000  1.000000e+001
      vertex -2.112994e+000  7.196198e+000  0.000000e+000
    endloop
  endfacet
  facet normal -3.494645e-001  9.369497e-001  0.000000e+000
    outer loop
      vertex -2.112994e+000  7.196198e+000  0.000000e+000
      vertex -3.115613e+000  6.822240e+000  1.000000e+001
      vertex -2.112994e+000  7.196198e+000  1.000000e+001
    endloop
  endfacet
  facet normal -2.125650e-001  9.771470e-001  0.000000e+000
    outer loop
      vertex -2.112994e+000  7.196198e+000  0.000000e+000
      vertex -2.112994e+000  7.196198e+000  1.000000e+001
      vertex -1.067361e+000  7.423661e+000  0.000000e+000
    endloop
  endfacet
  facet normal -2.125650e-001  9.771470e-001  0.000000e+000
    outer loop
      vertex -1.067361e+000  7.423661e+000  0.000000e+000
      vertex -2.112994e+000  7.196198e+000  1.000000e+001
      vertex -1.067361e+000  7.423661e+000  1.000000e+001
    endloop
  endfacet
  facet normal -7.133924e-002  9.974521e-001  0.000000e+000
    outer loop
      vertex -1.067361e+000  7.423661e+000  0.000000e+000
      vertex -1.067361e+000  7.423661e+000  1.000000e+001
      vertex  2.124577e-015  7.500000e+000  0.000000e+000
    endloop
  endfacet
  facet normal -7.133924e-002  9.974521e-001  0.000000e+000
    outer loop
      vertex  2.124577e-015  7.500000e+000  0.000000e+000
      vertex -1.067361e+000  7.423661e+000  1.000000e+001
      vertex  2.124577e-015  7.500000e+000  1.000000e+001
    endloop
  endfacet
  facet normal  7.133924e-002  9.974521e-001  0.000000e+000
    outer loop
      vertex  2.124577e-015  7.500000e+000  0.000000e+000
      vertex  2.124577e-015  7.500000e+000  1.000000e+001
      vertex  1.067361e+000  7.423661e+000  0.000000e+000
    endloop
  endfacet
  facet normal  7.133924e-002  9.974521e-001  -0.000000e+000
    outer loop
      vertex  1.067361e+000  7.423661e+000  0.000000e+000
      vertex  2.124577e-015  7.500000e+000  1.000000e+001
      vertex  1.067361e+000  7.423661e+000  1.000000e+001
    endloop
  endfacet
  facet normal  2.125650e-001  9.771470e-001  0.000000e+000
    outer loop
      vertex  1.067361e+000  7.423661e+000  0.000000e+000
      vertex  1.067361e+000  7.423661e+000  1.000000e+001
      vertex  2.112994e+000  7.196198e+000  0.000000e+000
    endloop
  endfacet
  facet normal  2.125650e-001  9.771470e-001  -0.000000e+000
    outer loop
      vertex  2.112994e+000  7.196198e+000  0.000000e+000
      vertex  1.067361e+000  7.423661e+000  1.000000e+001
      vertex  2.112994e+000  7.196198e+000  1.000000e+001
    endloop
  endfacet
  facet normal  3.494645e-001  9.369497e-001  0.000000e+000
    outer loop
      vertex  2.112994e+000  7.196198e+000  0.000000e+000
      vertex  2.112994e+000  7.196198e+000  1.000000e+001
      vertex  3.115613e+000  6.822240e+000  0.000000e+000
    endloop
  endfacet
  facet normal  3.494645e-001  9.369497e-001  -0.000000e+000
    outer loop
      vertex  3.115613e+000  6.822240e+000  0.000000e+000
      vertex  2.112994e+000  7.196198e+000  1.000000e+001
      vertex  3.115613e+000  6.822240e+000  1.000000e+001
    endloop
  endfacet
  facet normal  4.792488e-001  8.776790e-001  0.000000e+000
    outer loop
      vertex  3.115613e+000  6.822240e+000  0.000000e+000
      vertex  3.115613e+000  6.822240e+000  1.000000e+001
      vertex  4.054806e+000  6.309402e+000  0.000000e+000
    endloop
  endfacet
  facet normal  4.792488e-001  8.776790e-001  -0.000000e+000
    outer loop
      vertex  4.054806e+000  6.309402e+000  0.000000e+000
      vertex  3.115613e+000  6.822240e+000  1.000000e+001
      vertex  4.054806e+000  6.309402e+000  1.000000e+001
    endloop
  endfacet
  facet normal  5.992777e-001  8.005412e-001  0.000000e+000
    outer loop
      vertex  4.054806e+000  6.309402e+000  0.000000e+000
      vertex  4.054806e+000  6.309402e+000  1.000000e+001
      vertex  4.911456e+000  5.668122e+000  0.000000e+000
    endloop
  endfacet
  facet normal  5.992777e-001  8.005412e-001  -0.000000e+000
    outer loop
      vertex  4.911456e+000  5.668122e+000  0.000000e+000
      vertex  4.054806e+000  6.309402e+000  1.000000e+001
      vertex  4.911456e+000  5.668122e+000  1.000000e+001
    endloop
  endfacet
  facet normal  7.071068e-001  7.071068e-001  0.000000e+000
    outer loop
      vertex  4.911456e+000  5.668122e+000  0.000000e+000
      vertex  4.911456e+000  5.668122e+000  1.000000e+001
      vertex  5.668122e+000  4.911456e+000  0.000000e+000
    endloop
  endfacet
  facet normal  7.071068e-001  7.071068e-001  -0.000000e+000
    outer loop
      vertex  5.668122e+000  4.911456e+000  0.000000e+000
      vertex  4.911456e+000  5.668122e+000  1.000000e+001
      vertex  5.668122e+000  4.911456e+000  1.000000e+001
    endloop
  endfacet
  facet normal  8.005412e-001  5.992777e-001  0.000000e+000
    outer loop
      vertex  5.668122e+000  4.911456e+000  0.000000e+000
      vertex  5.668122e+000  4.911456e+000  1.000000e+001
      vertex  6.309402e+000  4.054806e+000  0.000000e+000
    endloop
  endfacet
  facet normal  8.005412e-001  5.992777e-001  -0.000000e+000
    outer loop
      vertex  6.309402e+000  4.054806e+000  0.000000e+000
      vertex  5.668122e+000  4.911456e+000  1.000000e+001
      vertex  6.309402e+000  4.054806e+000  1.000000e+001
    endloop
  endfacet
  facet normal  8.776790e-001  4.792488e-001  0.000000e+000
    outer loop
      vertex  6.309402e+000  4.054806e+000  0.000000e+000
      vertex  6.309402e+000  4.054806e+000  1.000000e+001
      vertex  6.822240e+000  3.115613e+000  0.000000e+000
    endloop
  endfacet
  facet normal  8.776790e-001  4.792488e-001  -0.000000e+000
    outer loop
      vertex  6.822240e+000  3.115613e+000  0.000000e+000
      vertex  6.309402e+000  4.054806e+000  1.000000e+001
      vertex  6.822240e+000  3.115613e+000  1.000000e+001
    endloop
  endfacet
  facet normal  9.369497e-001  3.494645e-001  0.000000e+000
    outer loop
      vertex  6.822240e+000  3.115613e+000  0.000000e+000
      vertex  6.822240e+000  3.115613e+000  1.000000e+001
      vertex  7.196198e+000  2.112994e+000  0.000000e+000
    endloop
  endfacet
  facet normal  9.369497e-001  3.494645e-001  -0.000000e+000
    outer loop
      vertex  7.196198e+000  2.112994e+000  0.000000e+000
      vertex  6.822240e+000  3.115613e+000  1.000000e+001
      vertex  7.196198e+000  2.112994e+000  1.000000e+001
    endloop
  endfacet
  facet normal  9.771470e-001  2.125650e-001  0.000000e+000
    outer loop
      vertex  7.196198e+000  2.112994e+000  0.000000e+000
      vertex  7.196198e+000  2.112994e+000  1.000000e+001
      vertex  7.423661e+000  1.067361e+000  0.000000e+000
    endloop
  endfacet
  facet normal  9.771470e-001  2.125650e-001  -0.000000e+000
    outer loop
      vertex  7.423661e+000  1.067361e+000  0.000000e+000
      vertex  7.196198e+000  2.112994e+000  1.000000e+001
      vertex  7.423661e+000  1.067361e+000  1.000000e+001
    endloop
  endfacet
  facet normal  9.974521e-001  7.133924e-002  0.000000e+000
    outer loop
      vertex  7.423661e+000  1.067361e+000  0.000000e+000
      vertex  7.423661e+000  1.067361e+000  1.000000e+001
      vertex  7.500000e+000  0.000000e+000  0.000000e+000
    endloop
  endfacet
  facet normal  9.974521e-001  7.133924e-002  -0.000000e+000
    outer loop
      vertex  7.500000e+000  0.000000e+000  0.000000e+000
      vertex  7.423661e+000  1.067361e+000  1.000000e+001
      vertex  7.500000e+000  0.000000e+000  1.000000e+001
    endloop
  endfacet
endsolid CATIA STL
