solid CATIA STL
  facet normal  0.000000e+000  -0.000000e+000  1.000000e+000
    outer loop
      vertex -5.500000e+000 -2.400000e+001  3.000000e+001
      vertex  5.500000e+000 -2.400000e+001  3.000000e+001
      vertex  2.500000e+001 -2.000000e+001  3.000000e+001
    endloop
  endfacet
  facet normal  0.000000e+000  0.000000e+000  9.999999e-001
    outer loop
      vertex -5.500000e+000 -2.400000e+001  3.000000e+001
      vertex  2.500000e+001 -2.000000e+001  3.000000e+001
      vertex  8.326835e-001 -1.748018e+001  3.000000e+001
    endloop
  endfacet
  facet normal  0.000000e+000  0.000000e+000  1.000000e+000
    outer loop
      vertex -5.500000e+000 -2.400000e+001  3.000000e+001
      vertex  8.326835e-001 -1.748018e+001  3.000000e+001
      vertex -8.326835e-001 -1.748018e+001  3.000000e+001
    endloop
  endfacet
  facet normal  0.000000e+000  0.000000e+000  1.000000e+000
    outer loop
      vertex -5.500000e+000 -2.400000e+001  3.000000e+001
      vertex -8.326835e-001 -1.748018e+001  3.000000e+001
      vertex -2.500000e+001 -2.000000e+001  3.000000e+001
    endloop
  endfacet
  facet normal  0.000000e+000  0.000000e+000  9.999999e-001
    outer loop
      vertex -5.500000e+000 -2.400000e+001  3.000000e+001
      vertex -2.500000e+001 -2.000000e+001  3.000000e+001
      vertex -1.000000e+001 -4.000000e+001  3.000000e+001
    endloop
  endfacet
  facet normal  0.000000e+000  0.000000e+000  1.000000e+000
    outer loop
      vertex -5.500000e+000 -2.400000e+001  3.000000e+001
      vertex -1.000000e+001 -4.000000e+001  3.000000e+001
      vertex -5.500000e+000 -3.500000e+001  3.000000e+001
    endloop
  endfacet
  facet normal  0.000000e+000  0.000000e+000  1.000000e+000
    outer loop
      vertex -2.500000e+001 -2.000000e+001  3.000000e+001
      vertex -8.326835e-001 -1.748018e+001  3.000000e+001
      vertex -2.490510e+000 -1.732187e+001  3.000000e+001
    endloop
  endfacet
  facet normal  0.000000e+000  0.000000e+000  9.999999e-001
    outer loop
      vertex -2.500000e+001 -2.000000e+001  3.000000e+001
      vertex -2.490510e+000 -1.732187e+001  3.000000e+001
      vertex -4.125782e+000 -1.700670e+001  3.000000e+001
    endloop
  endfacet
  facet normal  0.000000e+000  0.000000e+000  9.999999e-001
    outer loop
      vertex -2.500000e+001 -2.000000e+001  3.000000e+001
      vertex -4.125782e+000 -1.700670e+001  3.000000e+001
      vertex -5.723690e+000 -1.653751e+001  3.000000e+001
    endloop
  endfacet
  facet normal  0.000000e+000  0.000000e+000  1.000000e+000
    outer loop
      vertex -2.500000e+001 -2.000000e+001  3.000000e+001
      vertex -5.723690e+000 -1.653751e+001  3.000000e+001
      vertex -7.269763e+000 -1.591856e+001  3.000000e+001
    endloop
  endfacet
  facet normal  0.000000e+000  0.000000e+000  1.000000e+000
    outer loop
      vertex -2.500000e+001 -2.000000e+001  3.000000e+001
      vertex -7.269763e+000 -1.591856e+001  3.000000e+001
      vertex -8.750000e+000 -1.515544e+001  3.000000e+001
    endloop
  endfacet
  facet normal  0.000000e+000  0.000000e+000  1.000000e+000
    outer loop
      vertex -2.500000e+001 -2.000000e+001  3.000000e+001
      vertex -8.750000e+000 -1.515544e+001  3.000000e+001
      vertex -1.015100e+001 -1.425508e+001  3.000000e+001
    endloop
  endfacet
  facet normal  0.000000e+000  0.000000e+000  1.000000e+000
    outer loop
      vertex -2.500000e+001 -2.000000e+001  3.000000e+001
      vertex -1.015100e+001 -1.425508e+001  3.000000e+001
      vertex -1.146006e+001 -1.322562e+001  3.000000e+001
    endloop
  endfacet
  facet normal  0.000000e+000  0.000000e+000  1.000000e+000
    outer loop
      vertex -2.500000e+001 -2.000000e+001  3.000000e+001
      vertex -1.146006e+001 -1.322562e+001  3.000000e+001
      vertex -1.266535e+001 -1.207638e+001  3.000000e+001
    endloop
  endfacet
  facet normal  0.000000e+000  0.000000e+000  1.000000e+000
    outer loop
      vertex -2.500000e+001 -2.000000e+001  3.000000e+001
      vertex -1.266535e+001 -1.207638e+001  3.000000e+001
      vertex -1.375593e+001 -1.081778e+001  3.000000e+001
    endloop
  endfacet
  facet normal  0.000000e+000  0.000000e+000  9.999999e-001
    outer loop
      vertex -2.500000e+001 -2.000000e+001  3.000000e+001
      vertex -1.375593e+001 -1.081778e+001  3.000000e+001
      vertex -1.472194e+001 -9.461214e+000  3.000000e+001
    endloop
  endfacet
  facet normal  0.000000e+000  0.000000e+000  1.000000e+000
    outer loop
      vertex -2.500000e+001 -2.000000e+001  3.000000e+001
      vertex -1.472194e+001 -9.461214e+000  3.000000e+001
      vertex -1.555462e+001 -8.018964e+000  3.000000e+001
    endloop
  endfacet
  facet normal  0.000000e+000  0.000000e+000  1.000000e+000
    outer loop
      vertex -2.500000e+001 -2.000000e+001  3.000000e+001
      vertex -1.555462e+001 -8.018964e+000  3.000000e+001
      vertex -1.624644e+001 -6.504093e+000  3.000000e+001
    endloop
  endfacet
  facet normal  0.000000e+000  0.000000e+000  1.000000e+000
    outer loop
      vertex -2.500000e+001 -2.000000e+001  3.000000e+001
      vertex -1.624644e+001 -6.504093e+000  3.000000e+001
      vertex -1.679113e+001 -4.930320e+000  3.000000e+001
    endloop
  endfacet
  facet normal  0.000000e+000  0.000000e+000  1.000000e+000
    outer loop
      vertex -2.500000e+001 -2.000000e+001  3.000000e+001
      vertex -1.679113e+001 -4.930320e+000  3.000000e+001
      vertex -1.718375e+001 -3.311897e+000  3.000000e+001
    endloop
  endfacet
  facet normal  0.000000e+000  0.000000e+000  1.000000e+000
    outer loop
      vertex -2.500000e+001 -2.000000e+001  3.000000e+001
      vertex -1.718375e+001 -3.311897e+000  3.000000e+001
      vertex -1.742076e+001 -1.663481e+000  3.000000e+001
    endloop
  endfacet
  facet normal  0.000000e+000  0.000000e+000  1.000000e+000
    outer loop
      vertex -2.500000e+001 -2.000000e+001  3.000000e+001
      vertex -1.742076e+001 -1.663481e+000  3.000000e+001
      vertex -1.750000e+001  2.143132e-015  3.000000e+001
    endloop
  endfacet
  facet normal  0.000000e+000  -0.000000e+000  1.000000e+000
    outer loop
      vertex -2.500000e+001 -2.000000e+001  3.000000e+001
      vertex -1.750000e+001  2.143132e-015  3.000000e+001
      vertex -1.742076e+001  1.663481e+000  3.000000e+001
    endloop
  endfacet
  facet normal  0.000000e+000  -0.000000e+000  1.000000e+000
    outer loop
      vertex -2.500000e+001 -2.000000e+001  3.000000e+001
      vertex -1.742076e+001  1.663481e+000  3.000000e+001
      vertex -1.718375e+001  3.311897e+000  3.000000e+001
    endloop
  endfacet
  facet normal  0.000000e+000  -0.000000e+000  1.000000e+000
    outer loop
      vertex -2.500000e+001 -2.000000e+001  3.000000e+001
      vertex -1.718375e+001  3.311897e+000  3.000000e+001
      vertex -1.679113e+001  4.930320e+000  3.000000e+001
    endloop
  endfacet
  facet normal  0.000000e+000  0.000000e+000  9.999999e-001
    outer loop
      vertex -2.500000e+001  2.000000e+001  3.000000e+001
      vertex -2.500000e+001 -2.000000e+001  3.000000e+001
      vertex -1.679113e+001  4.930320e+000  3.000000e+001
    endloop
  endfacet
  facet normal  0.000000e+000  -0.000000e+000  1.000000e+000
    outer loop
      vertex -2.500000e+001  2.000000e+001  3.000000e+001
      vertex -1.679113e+001  4.930320e+000  3.000000e+001
      vertex -1.624644e+001  6.504093e+000  3.000000e+001
    endloop
  endfacet
  facet normal  0.000000e+000  -0.000000e+000  1.000000e+000
    outer loop
      vertex -2.500000e+001  2.000000e+001  3.000000e+001
      vertex -1.624644e+001  6.504093e+000  3.000000e+001
      vertex -1.555462e+001  8.018964e+000  3.000000e+001
    endloop
  endfacet
  facet normal  0.000000e+000  -0.000000e+000  1.000000e+000
    outer loop
      vertex -2.500000e+001  2.000000e+001  3.000000e+001
      vertex -1.555462e+001  8.018964e+000  3.000000e+001
      vertex -1.472194e+001  9.461214e+000  3.000000e+001
    endloop
  endfacet
  facet normal  0.000000e+000  -0.000000e+000  9.999999e-001
    outer loop
      vertex -2.500000e+001  2.000000e+001  3.000000e+001
      vertex -1.472194e+001  9.461214e+000  3.000000e+001
      vertex -1.375593e+001  1.081778e+001  3.000000e+001
    endloop
  endfacet
  facet normal  0.000000e+000  -0.000000e+000  1.000000e+000
    outer loop
      vertex -2.500000e+001  2.000000e+001  3.000000e+001
      vertex -1.375593e+001  1.081778e+001  3.000000e+001
      vertex -1.266535e+001  1.207638e+001  3.000000e+001
    endloop
  endfacet
  facet normal  0.000000e+000  -0.000000e+000  1.000000e+000
    outer loop
      vertex -2.500000e+001  2.000000e+001  3.000000e+001
      vertex -1.266535e+001  1.207638e+001  3.000000e+001
      vertex -1.146006e+001  1.322562e+001  3.000000e+001
    endloop
  endfacet
  facet normal  0.000000e+000  -0.000000e+000  1.000000e+000
    outer loop
      vertex -2.500000e+001  2.000000e+001  3.000000e+001
      vertex -1.146006e+001  1.322562e+001  3.000000e+001
      vertex -1.015100e+001  1.425508e+001  3.000000e+001
    endloop
  endfacet
  facet normal  0.000000e+000  -0.000000e+000  1.000000e+000
    outer loop
      vertex -2.500000e+001  2.000000e+001  3.000000e+001
      vertex -1.015100e+001  1.425508e+001  3.000000e+001
      vertex -8.750000e+000  1.515544e+001  3.000000e+001
    endloop
  endfacet
  facet normal  0.000000e+000  -0.000000e+000  1.000000e+000
    outer loop
      vertex -2.500000e+001  2.000000e+001  3.000000e+001
      vertex -8.750000e+000  1.515544e+001  3.000000e+001
      vertex -7.269763e+000  1.591856e+001  3.000000e+001
    endloop
  endfacet
  facet normal  0.000000e+000  -0.000000e+000  1.000000e+000
    outer loop
      vertex -2.500000e+001  2.000000e+001  3.000000e+001
      vertex -7.269763e+000  1.591856e+001  3.000000e+001
      vertex -5.723690e+000  1.653751e+001  3.000000e+001
    endloop
  endfacet
  facet normal  0.000000e+000  -0.000000e+000  9.999999e-001
    outer loop
      vertex -2.500000e+001  2.000000e+001  3.000000e+001
      vertex -5.723690e+000  1.653751e+001  3.000000e+001
      vertex -4.125782e+000  1.700670e+001  3.000000e+001
    endloop
  endfacet
  facet normal  0.000000e+000  -0.000000e+000  9.999999e-001
    outer loop
      vertex -2.500000e+001  2.000000e+001  3.000000e+001
      vertex -4.125782e+000  1.700670e+001  3.000000e+001
      vertex -2.490510e+000  1.732187e+001  3.000000e+001
    endloop
  endfacet
  facet normal  0.000000e+000  -0.000000e+000  1.000000e+000
    outer loop
      vertex -2.500000e+001  2.000000e+001  3.000000e+001
      vertex -2.490510e+000  1.732187e+001  3.000000e+001
      vertex -8.326835e-001  1.748018e+001  3.000000e+001
    endloop
  endfacet
  facet normal  0.000000e+000  0.000000e+000  1.000000e+000
    outer loop
      vertex  2.500000e+001 -2.000000e+001  3.000000e+001
      vertex  1.679113e+001  4.930320e+000  3.000000e+001
      vertex  1.718375e+001  3.311897e+000  3.000000e+001
    endloop
  endfacet
  facet normal  0.000000e+000  0.000000e+000  9.999999e-001
    outer loop
      vertex  2.500000e+001 -2.000000e+001  3.000000e+001
      vertex  1.718375e+001  3.311897e+000  3.000000e+001
      vertex  1.742076e+001  1.663481e+000  3.000000e+001
    endloop
  endfacet
  facet normal  0.000000e+000  0.000000e+000  1.000000e+000
    outer loop
      vertex  2.500000e+001 -2.000000e+001  3.000000e+001
      vertex  1.742076e+001  1.663481e+000  3.000000e+001
      vertex  1.750000e+001  0.000000e+000  3.000000e+001
    endloop
  endfacet
  facet normal  0.000000e+000  0.000000e+000  1.000000e+000
    outer loop
      vertex  2.500000e+001 -2.000000e+001  3.000000e+001
      vertex  1.750000e+001  0.000000e+000  3.000000e+001
      vertex  1.742076e+001 -1.663481e+000  3.000000e+001
    endloop
  endfacet
  facet normal  0.000000e+000  0.000000e+000  1.000000e+000
    outer loop
      vertex  2.500000e+001 -2.000000e+001  3.000000e+001
      vertex  1.742076e+001 -1.663481e+000  3.000000e+001
      vertex  1.718375e+001 -3.311897e+000  3.000000e+001
    endloop
  endfacet
  facet normal  0.000000e+000  0.000000e+000  1.000000e+000
    outer loop
      vertex  2.500000e+001 -2.000000e+001  3.000000e+001
      vertex  1.718375e+001 -3.311897e+000  3.000000e+001
      vertex  1.679113e+001 -4.930320e+000  3.000000e+001
    endloop
  endfacet
  facet normal  0.000000e+000  0.000000e+000  1.000000e+000
    outer loop
      vertex  2.500000e+001 -2.000000e+001  3.000000e+001
      vertex  1.679113e+001 -4.930320e+000  3.000000e+001
      vertex  1.624644e+001 -6.504093e+000  3.000000e+001
    endloop
  endfacet
  facet normal  0.000000e+000  0.000000e+000  1.000000e+000
    outer loop
      vertex  2.500000e+001 -2.000000e+001  3.000000e+001
      vertex  1.624644e+001 -6.504093e+000  3.000000e+001
      vertex  1.555462e+001 -8.018964e+000  3.000000e+001
    endloop
  endfacet
  facet normal  0.000000e+000  0.000000e+000  1.000000e+000
    outer loop
      vertex  2.500000e+001 -2.000000e+001  3.000000e+001
      vertex  1.555462e+001 -8.018964e+000  3.000000e+001
      vertex  1.472194e+001 -9.461214e+000  3.000000e+001
    endloop
  endfacet
  facet normal  0.000000e+000  0.000000e+000  9.999999e-001
    outer loop
      vertex  2.500000e+001 -2.000000e+001  3.000000e+001
      vertex  1.472194e+001 -9.461214e+000  3.000000e+001
      vertex  1.375593e+001 -1.081778e+001  3.000000e+001
    endloop
  endfacet
  facet normal  0.000000e+000  0.000000e+000  1.000000e+000
    outer loop
      vertex  2.500000e+001 -2.000000e+001  3.000000e+001
      vertex  1.375593e+001 -1.081778e+001  3.000000e+001
      vertex  1.266535e+001 -1.207638e+001  3.000000e+001
    endloop
  endfacet
  facet normal  0.000000e+000  0.000000e+000  1.000000e+000
    outer loop
      vertex  2.500000e+001 -2.000000e+001  3.000000e+001
      vertex  1.266535e+001 -1.207638e+001  3.000000e+001
      vertex  1.146006e+001 -1.322562e+001  3.000000e+001
    endloop
  endfacet
  facet normal  0.000000e+000  0.000000e+000  1.000000e+000
    outer loop
      vertex  2.500000e+001 -2.000000e+001  3.000000e+001
      vertex  1.146006e+001 -1.322562e+001  3.000000e+001
      vertex  1.015100e+001 -1.425508e+001  3.000000e+001
    endloop
  endfacet
  facet normal  0.000000e+000  0.000000e+000  1.000000e+000
    outer loop
      vertex  2.500000e+001 -2.000000e+001  3.000000e+001
      vertex  1.015100e+001 -1.425508e+001  3.000000e+001
      vertex  8.750000e+000 -1.515544e+001  3.000000e+001
    endloop
  endfacet
  facet normal  0.000000e+000  0.000000e+000  1.000000e+000
    outer loop
      vertex  2.500000e+001 -2.000000e+001  3.000000e+001
      vertex  8.750000e+000 -1.515544e+001  3.000000e+001
      vertex  7.269763e+000 -1.591856e+001  3.000000e+001
    endloop
  endfacet
  facet normal  0.000000e+000  0.000000e+000  1.000000e+000
    outer loop
      vertex  2.500000e+001 -2.000000e+001  3.000000e+001
      vertex  7.269763e+000 -1.591856e+001  3.000000e+001
      vertex  5.723690e+000 -1.653751e+001  3.000000e+001
    endloop
  endfacet
  facet normal  0.000000e+000  0.000000e+000  9.999999e-001
    outer loop
      vertex  2.500000e+001 -2.000000e+001  3.000000e+001
      vertex  5.723690e+000 -1.653751e+001  3.000000e+001
      vertex  4.125782e+000 -1.700670e+001  3.000000e+001
    endloop
  endfacet
  facet normal  0.000000e+000  0.000000e+000  9.999999e-001
    outer loop
      vertex  2.500000e+001 -2.000000e+001  3.000000e+001
      vertex  4.125782e+000 -1.700670e+001  3.000000e+001
      vertex  2.490510e+000 -1.732187e+001  3.000000e+001
    endloop
  endfacet
  facet normal  0.000000e+000  0.000000e+000  1.000000e+000
    outer loop
      vertex  2.500000e+001 -2.000000e+001  3.000000e+001
      vertex  2.490510e+000 -1.732187e+001  3.000000e+001
      vertex  8.326835e-001 -1.748018e+001  3.000000e+001
    endloop
  endfacet
  facet normal  -0.000000e+000  0.000000e+000  1.000000e+000
    outer loop
      vertex  2.500000e+001  2.000000e+001  3.000000e+001
      vertex  8.326835e-001  1.748018e+001  3.000000e+001
      vertex  2.490510e+000  1.732187e+001  3.000000e+001
    endloop
  endfacet
  facet normal  -0.000000e+000  0.000000e+000  9.999999e-001
    outer loop
      vertex  2.500000e+001  2.000000e+001  3.000000e+001
      vertex  2.490510e+000  1.732187e+001  3.000000e+001
      vertex  4.125782e+000  1.700670e+001  3.000000e+001
    endloop
  endfacet
  facet normal  -0.000000e+000  0.000000e+000  9.999999e-001
    outer loop
      vertex  2.500000e+001  2.000000e+001  3.000000e+001
      vertex  4.125782e+000  1.700670e+001  3.000000e+001
      vertex  5.723690e+000  1.653751e+001  3.000000e+001
    endloop
  endfacet
  facet normal  -0.000000e+000  0.000000e+000  1.000000e+000
    outer loop
      vertex  2.500000e+001  2.000000e+001  3.000000e+001
      vertex  5.723690e+000  1.653751e+001  3.000000e+001
      vertex  7.269763e+000  1.591856e+001  3.000000e+001
    endloop
  endfacet
  facet normal  -0.000000e+000  0.000000e+000  1.000000e+000
    outer loop
      vertex  2.500000e+001  2.000000e+001  3.000000e+001
      vertex  7.269763e+000  1.591856e+001  3.000000e+001
      vertex  8.750000e+000  1.515544e+001  3.000000e+001
    endloop
  endfacet
  facet normal  -0.000000e+000  0.000000e+000  1.000000e+000
    outer loop
      vertex  2.500000e+001  2.000000e+001  3.000000e+001
      vertex  8.750000e+000  1.515544e+001  3.000000e+001
      vertex  1.015100e+001  1.425508e+001  3.000000e+001
    endloop
  endfacet
  facet normal  -0.000000e+000  0.000000e+000  1.000000e+000
    outer loop
      vertex  2.500000e+001  2.000000e+001  3.000000e+001
      vertex  1.015100e+001  1.425508e+001  3.000000e+001
      vertex  1.146006e+001  1.322562e+001  3.000000e+001
    endloop
  endfacet
  facet normal  -0.000000e+000  0.000000e+000  1.000000e+000
    outer loop
      vertex  2.500000e+001  2.000000e+001  3.000000e+001
      vertex  1.146006e+001  1.322562e+001  3.000000e+001
      vertex  1.266535e+001  1.207638e+001  3.000000e+001
    endloop
  endfacet
  facet normal  -0.000000e+000  0.000000e+000  1.000000e+000
    outer loop
      vertex  2.500000e+001  2.000000e+001  3.000000e+001
      vertex  1.266535e+001  1.207638e+001  3.000000e+001
      vertex  1.375593e+001  1.081778e+001  3.000000e+001
    endloop
  endfacet
  facet normal  -0.000000e+000  0.000000e+000  9.999999e-001
    outer loop
      vertex  2.500000e+001  2.000000e+001  3.000000e+001
      vertex  1.375593e+001  1.081778e+001  3.000000e+001
      vertex  1.472194e+001  9.461214e+000  3.000000e+001
    endloop
  endfacet
  facet normal  -0.000000e+000  0.000000e+000  1.000000e+000
    outer loop
      vertex  2.500000e+001  2.000000e+001  3.000000e+001
      vertex  1.472194e+001  9.461214e+000  3.000000e+001
      vertex  1.555462e+001  8.018964e+000  3.000000e+001
    endloop
  endfacet
  facet normal  -0.000000e+000  0.000000e+000  1.000000e+000
    outer loop
      vertex  2.500000e+001  2.000000e+001  3.000000e+001
      vertex  1.555462e+001  8.018964e+000  3.000000e+001
      vertex  1.624644e+001  6.504093e+000  3.000000e+001
    endloop
  endfacet
  facet normal  -0.000000e+000  0.000000e+000  1.000000e+000
    outer loop
      vertex  2.500000e+001  2.000000e+001  3.000000e+001
      vertex  1.624644e+001  6.504093e+000  3.000000e+001
      vertex  1.679113e+001  4.930320e+000  3.000000e+001
    endloop
  endfacet
  facet normal  -0.000000e+000  0.000000e+000  9.999999e-001
    outer loop
      vertex  2.500000e+001  2.000000e+001  3.000000e+001
      vertex  1.679113e+001  4.930320e+000  3.000000e+001
      vertex  2.500000e+001 -2.000000e+001  3.000000e+001
    endloop
  endfacet
  facet normal  0.000000e+000  0.000000e+000  1.000000e+000
    outer loop
      vertex -2.500000e+001  2.000000e+001  3.000000e+001
      vertex -8.326835e-001  1.748018e+001  3.000000e+001
      vertex -5.500000e+000  2.400000e+001  3.000000e+001
    endloop
  endfacet
  facet normal  0.000000e+000  0.000000e+000  1.000000e+000
    outer loop
      vertex -5.500000e+000  2.400000e+001  3.000000e+001
      vertex -8.326835e-001  1.748018e+001  3.000000e+001
      vertex  8.326835e-001  1.748018e+001  3.000000e+001
    endloop
  endfacet
  facet normal  0.000000e+000  -0.000000e+000  1.000000e+000
    outer loop
      vertex -5.500000e+000  2.400000e+001  3.000000e+001
      vertex  8.326835e-001  1.748018e+001  3.000000e+001
      vertex  5.500000e+000  2.400000e+001  3.000000e+001
    endloop
  endfacet
  facet normal  0.000000e+000  0.000000e+000  1.000000e+000
    outer loop
      vertex  5.500000e+000  2.400000e+001  3.000000e+001
      vertex  8.326835e-001  1.748018e+001  3.000000e+001
      vertex  2.500000e+001  2.000000e+001  3.000000e+001
    endloop
  endfacet
  facet normal  0.000000e+000  0.000000e+000  1.000000e+000
    outer loop
      vertex  5.500000e+000  2.400000e+001  3.000000e+001
      vertex  2.500000e+001  2.000000e+001  3.000000e+001
      vertex  5.500000e+000  3.500000e+001  3.000000e+001
    endloop
  endfacet
  facet normal  -0.000000e+000  0.000000e+000  9.999999e-001
    outer loop
      vertex  5.500000e+000  3.500000e+001  3.000000e+001
      vertex  2.500000e+001  2.000000e+001  3.000000e+001
      vertex  1.000000e+001  4.000000e+001  3.000000e+001
    endloop
  endfacet
  facet normal  0.000000e+000  0.000000e+000  9.999999e-001
    outer loop
      vertex  5.500000e+000  3.500000e+001  3.000000e+001
      vertex  1.000000e+001  4.000000e+001  3.000000e+001
      vertex -5.500000e+000  3.500000e+001  3.000000e+001
    endloop
  endfacet
  facet normal  0.000000e+000  -0.000000e+000  1.000000e+000
    outer loop
      vertex -5.500000e+000  3.500000e+001  3.000000e+001
      vertex  1.000000e+001  4.000000e+001  3.000000e+001
      vertex -1.000000e+001  4.000000e+001  3.000000e+001
    endloop
  endfacet
  facet normal  0.000000e+000  0.000000e+000  1.000000e+000
    outer loop
      vertex -5.500000e+000  3.500000e+001  3.000000e+001
      vertex -1.000000e+001  4.000000e+001  3.000000e+001
      vertex -5.500000e+000  2.400000e+001  3.000000e+001
    endloop
  endfacet
  facet normal  0.000000e+000  0.000000e+000  9.999999e-001
    outer loop
      vertex -5.500000e+000  2.400000e+001  3.000000e+001
      vertex -1.000000e+001  4.000000e+001  3.000000e+001
      vertex -2.500000e+001  2.000000e+001  3.000000e+001
    endloop
  endfacet
  facet normal  -0.000000e+000  0.000000e+000  9.999999e-001
    outer loop
      vertex  2.500000e+001 -2.000000e+001  3.000000e+001
      vertex  5.500000e+000 -2.400000e+001  3.000000e+001
      vertex  1.000000e+001 -4.000000e+001  3.000000e+001
    endloop
  endfacet
  facet normal  0.000000e+000  0.000000e+000  1.000000e+000
    outer loop
      vertex  1.000000e+001 -4.000000e+001  3.000000e+001
      vertex  5.500000e+000 -2.400000e+001  3.000000e+001
      vertex  5.500000e+000 -3.500000e+001  3.000000e+001
    endloop
  endfacet
  facet normal  0.000000e+000  0.000000e+000  1.000000e+000
    outer loop
      vertex  1.000000e+001 -4.000000e+001  3.000000e+001
      vertex  5.500000e+000 -3.500000e+001  3.000000e+001
      vertex -1.000000e+001 -4.000000e+001  3.000000e+001
    endloop
  endfacet
  facet normal  0.000000e+000  0.000000e+000  9.999999e-001
    outer loop
      vertex -1.000000e+001 -4.000000e+001  3.000000e+001
      vertex  5.500000e+000 -3.500000e+001  3.000000e+001
      vertex -5.500000e+000 -3.500000e+001  3.000000e+001
    endloop
  endfacet
  facet normal  -0.000000e+000  0.000000e+000 -1.000000e+000
    outer loop
      vertex -5.500000e+000 -2.400000e+001  0.000000e+000
      vertex -5.500000e+000 -3.500000e+001  0.000000e+000
      vertex -1.000000e+001 -4.000000e+001  0.000000e+000
    endloop
  endfacet
  facet normal  0.000000e+000  0.000000e+000 -9.999999e-001
    outer loop
      vertex -5.500000e+000 -2.400000e+001  0.000000e+000
      vertex -1.000000e+001 -4.000000e+001  0.000000e+000
      vertex -2.500000e+001 -2.000000e+001  0.000000e+000
    endloop
  endfacet
  facet normal  0.000000e+000  0.000000e+000 -1.000000e+000
    outer loop
      vertex -5.500000e+000 -2.400000e+001  0.000000e+000
      vertex -2.500000e+001 -2.000000e+001  0.000000e+000
      vertex -8.326835e-001 -1.748018e+001  0.000000e+000
    endloop
  endfacet
  facet normal  0.000000e+000  -0.000000e+000 -1.000000e+000
    outer loop
      vertex -5.500000e+000 -2.400000e+001  0.000000e+000
      vertex -8.326835e-001 -1.748018e+001  0.000000e+000
      vertex  8.326835e-001 -1.748018e+001  0.000000e+000
    endloop
  endfacet
  facet normal  0.000000e+000  -0.000000e+000 -9.999999e-001
    outer loop
      vertex -5.500000e+000 -2.400000e+001  0.000000e+000
      vertex  8.326835e-001 -1.748018e+001  0.000000e+000
      vertex  2.500000e+001 -2.000000e+001  0.000000e+000
    endloop
  endfacet
  facet normal  0.000000e+000  0.000000e+000 -1.000000e+000
    outer loop
      vertex -5.500000e+000 -2.400000e+001  0.000000e+000
      vertex  2.500000e+001 -2.000000e+001  0.000000e+000
      vertex  5.500000e+000 -2.400000e+001  0.000000e+000
    endloop
  endfacet
  facet normal  0.000000e+000  0.000000e+000 -1.000000e+000
    outer loop
      vertex -2.500000e+001 -2.000000e+001  0.000000e+000
      vertex -1.679113e+001  4.930320e+000  0.000000e+000
      vertex -1.718375e+001  3.311897e+000  0.000000e+000
    endloop
  endfacet
  facet normal  0.000000e+000  0.000000e+000 -9.999999e-001
    outer loop
      vertex -2.500000e+001 -2.000000e+001  0.000000e+000
      vertex -1.718375e+001  3.311897e+000  0.000000e+000
      vertex -1.742076e+001  1.663481e+000  0.000000e+000
    endloop
  endfacet
  facet normal  0.000000e+000  0.000000e+000 -1.000000e+000
    outer loop
      vertex -2.500000e+001 -2.000000e+001  0.000000e+000
      vertex -1.742076e+001  1.663481e+000  0.000000e+000
      vertex -1.750000e+001  2.143132e-015  0.000000e+000
    endloop
  endfacet
  facet normal  0.000000e+000  -0.000000e+000 -1.000000e+000
    outer loop
      vertex -2.500000e+001 -2.000000e+001  0.000000e+000
      vertex -1.750000e+001  2.143132e-015  0.000000e+000
      vertex -1.742076e+001 -1.663481e+000  0.000000e+000
    endloop
  endfacet
  facet normal  0.000000e+000  -0.000000e+000 -1.000000e+000
    outer loop
      vertex -2.500000e+001 -2.000000e+001  0.000000e+000
      vertex -1.742076e+001 -1.663481e+000  0.000000e+000
      vertex -1.718375e+001 -3.311897e+000  0.000000e+000
    endloop
  endfacet
  facet normal  0.000000e+000  -0.000000e+000 -1.000000e+000
    outer loop
      vertex -2.500000e+001 -2.000000e+001  0.000000e+000
      vertex -1.718375e+001 -3.311897e+000  0.000000e+000
      vertex -1.679113e+001 -4.930320e+000  0.000000e+000
    endloop
  endfacet
  facet normal  0.000000e+000  -0.000000e+000 -1.000000e+000
    outer loop
      vertex -2.500000e+001 -2.000000e+001  0.000000e+000
      vertex -1.679113e+001 -4.930320e+000  0.000000e+000
      vertex -1.624644e+001 -6.504093e+000  0.000000e+000
    endloop
  endfacet
  facet normal  0.000000e+000  -0.000000e+000 -1.000000e+000
    outer loop
      vertex -2.500000e+001 -2.000000e+001  0.000000e+000
      vertex -1.624644e+001 -6.504093e+000  0.000000e+000
      vertex -1.555462e+001 -8.018964e+000  0.000000e+000
    endloop
  endfacet
  facet normal  0.000000e+000  -0.000000e+000 -1.000000e+000
    outer loop
      vertex -2.500000e+001 -2.000000e+001  0.000000e+000
      vertex -1.555462e+001 -8.018964e+000  0.000000e+000
      vertex -1.472194e+001 -9.461214e+000  0.000000e+000
    endloop
  endfacet
  facet normal  0.000000e+000  -0.000000e+000 -9.999999e-001
    outer loop
      vertex -2.500000e+001 -2.000000e+001  0.000000e+000
      vertex -1.472194e+001 -9.461214e+000  0.000000e+000
      vertex -1.375593e+001 -1.081778e+001  0.000000e+000
    endloop
  endfacet
  facet normal  0.000000e+000  -0.000000e+000 -1.000000e+000
    outer loop
      vertex -2.500000e+001 -2.000000e+001  0.000000e+000
      vertex -1.375593e+001 -1.081778e+001  0.000000e+000
      vertex -1.266535e+001 -1.207638e+001  0.000000e+000
    endloop
  endfacet
  facet normal  0.000000e+000  -0.000000e+000 -1.000000e+000
    outer loop
      vertex -2.500000e+001 -2.000000e+001  0.000000e+000
      vertex -1.266535e+001 -1.207638e+001  0.000000e+000
      vertex -1.146006e+001 -1.322562e+001  0.000000e+000
    endloop
  endfacet
  facet normal  0.000000e+000  -0.000000e+000 -1.000000e+000
    outer loop
      vertex -2.500000e+001 -2.000000e+001  0.000000e+000
      vertex -1.146006e+001 -1.322562e+001  0.000000e+000
      vertex -1.015100e+001 -1.425508e+001  0.000000e+000
    endloop
  endfacet
  facet normal  0.000000e+000  -0.000000e+000 -1.000000e+000
    outer loop
      vertex -2.500000e+001 -2.000000e+001  0.000000e+000
      vertex -1.015100e+001 -1.425508e+001  0.000000e+000
      vertex -8.750000e+000 -1.515544e+001  0.000000e+000
    endloop
  endfacet
  facet normal  0.000000e+000  -0.000000e+000 -1.000000e+000
    outer loop
      vertex -2.500000e+001 -2.000000e+001  0.000000e+000
      vertex -8.750000e+000 -1.515544e+001  0.000000e+000
      vertex -7.269763e+000 -1.591856e+001  0.000000e+000
    endloop
  endfacet
  facet normal  0.000000e+000  -0.000000e+000 -1.000000e+000
    outer loop
      vertex -2.500000e+001 -2.000000e+001  0.000000e+000
      vertex -7.269763e+000 -1.591856e+001  0.000000e+000
      vertex -5.723690e+000 -1.653751e+001  0.000000e+000
    endloop
  endfacet
  facet normal  0.000000e+000  -0.000000e+000 -9.999999e-001
    outer loop
      vertex -2.500000e+001 -2.000000e+001  0.000000e+000
      vertex -5.723690e+000 -1.653751e+001  0.000000e+000
      vertex -4.125782e+000 -1.700670e+001  0.000000e+000
    endloop
  endfacet
  facet normal  0.000000e+000  -0.000000e+000 -9.999999e-001
    outer loop
      vertex -2.500000e+001 -2.000000e+001  0.000000e+000
      vertex -4.125782e+000 -1.700670e+001  0.000000e+000
      vertex -2.490510e+000 -1.732187e+001  0.000000e+000
    endloop
  endfacet
  facet normal  0.000000e+000  -0.000000e+000 -1.000000e+000
    outer loop
      vertex -2.500000e+001 -2.000000e+001  0.000000e+000
      vertex -2.490510e+000 -1.732187e+001  0.000000e+000
      vertex -8.326835e-001 -1.748018e+001  0.000000e+000
    endloop
  endfacet
  facet normal  -0.000000e+000  0.000000e+000 -1.000000e+000
    outer loop
      vertex -2.500000e+001  2.000000e+001  0.000000e+000
      vertex -8.326835e-001  1.748018e+001  0.000000e+000
      vertex -2.490510e+000  1.732187e+001  0.000000e+000
    endloop
  endfacet
  facet normal  -0.000000e+000  0.000000e+000 -9.999999e-001
    outer loop
      vertex -2.500000e+001  2.000000e+001  0.000000e+000
      vertex -2.490510e+000  1.732187e+001  0.000000e+000
      vertex -4.125782e+000  1.700670e+001  0.000000e+000
    endloop
  endfacet
  facet normal  -0.000000e+000  0.000000e+000 -9.999999e-001
    outer loop
      vertex -2.500000e+001  2.000000e+001  0.000000e+000
      vertex -4.125782e+000  1.700670e+001  0.000000e+000
      vertex -5.723690e+000  1.653751e+001  0.000000e+000
    endloop
  endfacet
  facet normal  -0.000000e+000  0.000000e+000 -1.000000e+000
    outer loop
      vertex -2.500000e+001  2.000000e+001  0.000000e+000
      vertex -5.723690e+000  1.653751e+001  0.000000e+000
      vertex -7.269763e+000  1.591856e+001  0.000000e+000
    endloop
  endfacet
  facet normal  -0.000000e+000  0.000000e+000 -1.000000e+000
    outer loop
      vertex -2.500000e+001  2.000000e+001  0.000000e+000
      vertex -7.269763e+000  1.591856e+001  0.000000e+000
      vertex -8.750000e+000  1.515544e+001  0.000000e+000
    endloop
  endfacet
  facet normal  -0.000000e+000  0.000000e+000 -1.000000e+000
    outer loop
      vertex -2.500000e+001  2.000000e+001  0.000000e+000
      vertex -8.750000e+000  1.515544e+001  0.000000e+000
      vertex -1.015100e+001  1.425508e+001  0.000000e+000
    endloop
  endfacet
  facet normal  -0.000000e+000  0.000000e+000 -1.000000e+000
    outer loop
      vertex -2.500000e+001  2.000000e+001  0.000000e+000
      vertex -1.015100e+001  1.425508e+001  0.000000e+000
      vertex -1.146006e+001  1.322562e+001  0.000000e+000
    endloop
  endfacet
  facet normal  -0.000000e+000  0.000000e+000 -1.000000e+000
    outer loop
      vertex -2.500000e+001  2.000000e+001  0.000000e+000
      vertex -1.146006e+001  1.322562e+001  0.000000e+000
      vertex -1.266535e+001  1.207638e+001  0.000000e+000
    endloop
  endfacet
  facet normal  -0.000000e+000  0.000000e+000 -1.000000e+000
    outer loop
      vertex -2.500000e+001  2.000000e+001  0.000000e+000
      vertex -1.266535e+001  1.207638e+001  0.000000e+000
      vertex -1.375593e+001  1.081778e+001  0.000000e+000
    endloop
  endfacet
  facet normal  -0.000000e+000  0.000000e+000 -9.999999e-001
    outer loop
      vertex -2.500000e+001  2.000000e+001  0.000000e+000
      vertex -1.375593e+001  1.081778e+001  0.000000e+000
      vertex -1.472194e+001  9.461214e+000  0.000000e+000
    endloop
  endfacet
  facet normal  -0.000000e+000  0.000000e+000 -1.000000e+000
    outer loop
      vertex -2.500000e+001  2.000000e+001  0.000000e+000
      vertex -1.472194e+001  9.461214e+000  0.000000e+000
      vertex -1.555462e+001  8.018964e+000  0.000000e+000
    endloop
  endfacet
  facet normal  -0.000000e+000  0.000000e+000 -1.000000e+000
    outer loop
      vertex -2.500000e+001  2.000000e+001  0.000000e+000
      vertex -1.555462e+001  8.018964e+000  0.000000e+000
      vertex -1.624644e+001  6.504093e+000  0.000000e+000
    endloop
  endfacet
  facet normal  -0.000000e+000  0.000000e+000 -1.000000e+000
    outer loop
      vertex -2.500000e+001  2.000000e+001  0.000000e+000
      vertex -1.624644e+001  6.504093e+000  0.000000e+000
      vertex -1.679113e+001  4.930320e+000  0.000000e+000
    endloop
  endfacet
  facet normal  -0.000000e+000  0.000000e+000 -9.999999e-001
    outer loop
      vertex -2.500000e+001  2.000000e+001  0.000000e+000
      vertex -1.679113e+001  4.930320e+000  0.000000e+000
      vertex -2.500000e+001 -2.000000e+001  0.000000e+000
    endloop
  endfacet
  facet normal  0.000000e+000  0.000000e+000 -1.000000e+000
    outer loop
      vertex  2.500000e+001 -2.000000e+001  0.000000e+000
      vertex  8.326835e-001 -1.748018e+001  0.000000e+000
      vertex  2.490510e+000 -1.732187e+001  0.000000e+000
    endloop
  endfacet
  facet normal  0.000000e+000  0.000000e+000 -9.999999e-001
    outer loop
      vertex  2.500000e+001 -2.000000e+001  0.000000e+000
      vertex  2.490510e+000 -1.732187e+001  0.000000e+000
      vertex  4.125782e+000 -1.700670e+001  0.000000e+000
    endloop
  endfacet
  facet normal  0.000000e+000  0.000000e+000 -9.999999e-001
    outer loop
      vertex  2.500000e+001 -2.000000e+001  0.000000e+000
      vertex  4.125782e+000 -1.700670e+001  0.000000e+000
      vertex  5.723690e+000 -1.653751e+001  0.000000e+000
    endloop
  endfacet
  facet normal  0.000000e+000  0.000000e+000 -1.000000e+000
    outer loop
      vertex  2.500000e+001 -2.000000e+001  0.000000e+000
      vertex  5.723690e+000 -1.653751e+001  0.000000e+000
      vertex  7.269763e+000 -1.591856e+001  0.000000e+000
    endloop
  endfacet
  facet normal  0.000000e+000  0.000000e+000 -1.000000e+000
    outer loop
      vertex  2.500000e+001 -2.000000e+001  0.000000e+000
      vertex  7.269763e+000 -1.591856e+001  0.000000e+000
      vertex  8.750000e+000 -1.515544e+001  0.000000e+000
    endloop
  endfacet
  facet normal  0.000000e+000  0.000000e+000 -1.000000e+000
    outer loop
      vertex  2.500000e+001 -2.000000e+001  0.000000e+000
      vertex  8.750000e+000 -1.515544e+001  0.000000e+000
      vertex  1.015100e+001 -1.425508e+001  0.000000e+000
    endloop
  endfacet
  facet normal  0.000000e+000  0.000000e+000 -1.000000e+000
    outer loop
      vertex  2.500000e+001 -2.000000e+001  0.000000e+000
      vertex  1.015100e+001 -1.425508e+001  0.000000e+000
      vertex  1.146006e+001 -1.322562e+001  0.000000e+000
    endloop
  endfacet
  facet normal  0.000000e+000  0.000000e+000 -1.000000e+000
    outer loop
      vertex  2.500000e+001 -2.000000e+001  0.000000e+000
      vertex  1.146006e+001 -1.322562e+001  0.000000e+000
      vertex  1.266535e+001 -1.207638e+001  0.000000e+000
    endloop
  endfacet
  facet normal  0.000000e+000  0.000000e+000 -1.000000e+000
    outer loop
      vertex  2.500000e+001 -2.000000e+001  0.000000e+000
      vertex  1.266535e+001 -1.207638e+001  0.000000e+000
      vertex  1.375593e+001 -1.081778e+001  0.000000e+000
    endloop
  endfacet
  facet normal  0.000000e+000  0.000000e+000 -9.999999e-001
    outer loop
      vertex  2.500000e+001 -2.000000e+001  0.000000e+000
      vertex  1.375593e+001 -1.081778e+001  0.000000e+000
      vertex  1.472194e+001 -9.461214e+000  0.000000e+000
    endloop
  endfacet
  facet normal  0.000000e+000  0.000000e+000 -1.000000e+000
    outer loop
      vertex  2.500000e+001 -2.000000e+001  0.000000e+000
      vertex  1.472194e+001 -9.461214e+000  0.000000e+000
      vertex  1.555462e+001 -8.018964e+000  0.000000e+000
    endloop
  endfacet
  facet normal  0.000000e+000  0.000000e+000 -1.000000e+000
    outer loop
      vertex  2.500000e+001 -2.000000e+001  0.000000e+000
      vertex  1.555462e+001 -8.018964e+000  0.000000e+000
      vertex  1.624644e+001 -6.504093e+000  0.000000e+000
    endloop
  endfacet
  facet normal  0.000000e+000  0.000000e+000 -1.000000e+000
    outer loop
      vertex  2.500000e+001 -2.000000e+001  0.000000e+000
      vertex  1.624644e+001 -6.504093e+000  0.000000e+000
      vertex  1.679113e+001 -4.930320e+000  0.000000e+000
    endloop
  endfacet
  facet normal  0.000000e+000  0.000000e+000 -1.000000e+000
    outer loop
      vertex  2.500000e+001 -2.000000e+001  0.000000e+000
      vertex  1.679113e+001 -4.930320e+000  0.000000e+000
      vertex  1.718375e+001 -3.311897e+000  0.000000e+000
    endloop
  endfacet
  facet normal  0.000000e+000  0.000000e+000 -1.000000e+000
    outer loop
      vertex  2.500000e+001 -2.000000e+001  0.000000e+000
      vertex  1.718375e+001 -3.311897e+000  0.000000e+000
      vertex  1.742076e+001 -1.663481e+000  0.000000e+000
    endloop
  endfacet
  facet normal  0.000000e+000  0.000000e+000 -1.000000e+000
    outer loop
      vertex  2.500000e+001 -2.000000e+001  0.000000e+000
      vertex  1.742076e+001 -1.663481e+000  0.000000e+000
      vertex  1.750000e+001  0.000000e+000  0.000000e+000
    endloop
  endfacet
  facet normal  0.000000e+000  0.000000e+000 -1.000000e+000
    outer loop
      vertex  2.500000e+001 -2.000000e+001  0.000000e+000
      vertex  1.750000e+001  0.000000e+000  0.000000e+000
      vertex  1.742076e+001  1.663481e+000  0.000000e+000
    endloop
  endfacet
  facet normal  0.000000e+000  0.000000e+000 -1.000000e+000
    outer loop
      vertex  2.500000e+001 -2.000000e+001  0.000000e+000
      vertex  1.742076e+001  1.663481e+000  0.000000e+000
      vertex  1.718375e+001  3.311897e+000  0.000000e+000
    endloop
  endfacet
  facet normal  0.000000e+000  0.000000e+000 -1.000000e+000
    outer loop
      vertex  2.500000e+001 -2.000000e+001  0.000000e+000
      vertex  1.718375e+001  3.311897e+000  0.000000e+000
      vertex  1.679113e+001  4.930320e+000  0.000000e+000
    endloop
  endfacet
  facet normal  0.000000e+000  0.000000e+000 -9.999999e-001
    outer loop
      vertex  2.500000e+001  2.000000e+001  0.000000e+000
      vertex  2.500000e+001 -2.000000e+001  0.000000e+000
      vertex  1.679113e+001  4.930320e+000  0.000000e+000
    endloop
  endfacet
  facet normal  0.000000e+000  0.000000e+000 -1.000000e+000
    outer loop
      vertex  2.500000e+001  2.000000e+001  0.000000e+000
      vertex  1.679113e+001  4.930320e+000  0.000000e+000
      vertex  1.624644e+001  6.504093e+000  0.000000e+000
    endloop
  endfacet
  facet normal  0.000000e+000  0.000000e+000 -1.000000e+000
    outer loop
      vertex  2.500000e+001  2.000000e+001  0.000000e+000
      vertex  1.624644e+001  6.504093e+000  0.000000e+000
      vertex  1.555462e+001  8.018964e+000  0.000000e+000
    endloop
  endfacet
  facet normal  0.000000e+000  0.000000e+000 -1.000000e+000
    outer loop
      vertex  2.500000e+001  2.000000e+001  0.000000e+000
      vertex  1.555462e+001  8.018964e+000  0.000000e+000
      vertex  1.472194e+001  9.461214e+000  0.000000e+000
    endloop
  endfacet
  facet normal  0.000000e+000  0.000000e+000 -9.999999e-001
    outer loop
      vertex  2.500000e+001  2.000000e+001  0.000000e+000
      vertex  1.472194e+001  9.461214e+000  0.000000e+000
      vertex  1.375593e+001  1.081778e+001  0.000000e+000
    endloop
  endfacet
  facet normal  0.000000e+000  0.000000e+000 -1.000000e+000
    outer loop
      vertex  2.500000e+001  2.000000e+001  0.000000e+000
      vertex  1.375593e+001  1.081778e+001  0.000000e+000
      vertex  1.266535e+001  1.207638e+001  0.000000e+000
    endloop
  endfacet
  facet normal  0.000000e+000  0.000000e+000 -1.000000e+000
    outer loop
      vertex  2.500000e+001  2.000000e+001  0.000000e+000
      vertex  1.266535e+001  1.207638e+001  0.000000e+000
      vertex  1.146006e+001  1.322562e+001  0.000000e+000
    endloop
  endfacet
  facet normal  0.000000e+000  0.000000e+000 -1.000000e+000
    outer loop
      vertex  2.500000e+001  2.000000e+001  0.000000e+000
      vertex  1.146006e+001  1.322562e+001  0.000000e+000
      vertex  1.015100e+001  1.425508e+001  0.000000e+000
    endloop
  endfacet
  facet normal  0.000000e+000  0.000000e+000 -1.000000e+000
    outer loop
      vertex  2.500000e+001  2.000000e+001  0.000000e+000
      vertex  1.015100e+001  1.425508e+001  0.000000e+000
      vertex  8.750000e+000  1.515544e+001  0.000000e+000
    endloop
  endfacet
  facet normal  0.000000e+000  0.000000e+000 -1.000000e+000
    outer loop
      vertex  2.500000e+001  2.000000e+001  0.000000e+000
      vertex  8.750000e+000  1.515544e+001  0.000000e+000
      vertex  7.269763e+000  1.591856e+001  0.000000e+000
    endloop
  endfacet
  facet normal  0.000000e+000  0.000000e+000 -1.000000e+000
    outer loop
      vertex  2.500000e+001  2.000000e+001  0.000000e+000
      vertex  7.269763e+000  1.591856e+001  0.000000e+000
      vertex  5.723690e+000  1.653751e+001  0.000000e+000
    endloop
  endfacet
  facet normal  0.000000e+000  0.000000e+000 -9.999999e-001
    outer loop
      vertex  2.500000e+001  2.000000e+001  0.000000e+000
      vertex  5.723690e+000  1.653751e+001  0.000000e+000
      vertex  4.125782e+000  1.700670e+001  0.000000e+000
    endloop
  endfacet
  facet normal  0.000000e+000  0.000000e+000 -9.999999e-001
    outer loop
      vertex  2.500000e+001  2.000000e+001  0.000000e+000
      vertex  4.125782e+000  1.700670e+001  0.000000e+000
      vertex  2.490510e+000  1.732187e+001  0.000000e+000
    endloop
  endfacet
  facet normal  0.000000e+000  0.000000e+000 -1.000000e+000
    outer loop
      vertex  2.500000e+001  2.000000e+001  0.000000e+000
      vertex  2.490510e+000  1.732187e+001  0.000000e+000
      vertex  8.326835e-001  1.748018e+001  0.000000e+000
    endloop
  endfacet
  facet normal  0.000000e+000  0.000000e+000 -1.000000e+000
    outer loop
      vertex  5.500000e+000  2.400000e+001  0.000000e+000
      vertex  8.326835e-001  1.748018e+001  0.000000e+000
      vertex -5.500000e+000  2.400000e+001  0.000000e+000
    endloop
  endfacet
  facet normal  0.000000e+000  0.000000e+000 -1.000000e+000
    outer loop
      vertex -5.500000e+000  2.400000e+001  0.000000e+000
      vertex  8.326835e-001  1.748018e+001  0.000000e+000
      vertex -8.326835e-001  1.748018e+001  0.000000e+000
    endloop
  endfacet
  facet normal  0.000000e+000  0.000000e+000 -1.000000e+000
    outer loop
      vertex -5.500000e+000  2.400000e+001  0.000000e+000
      vertex -8.326835e-001  1.748018e+001  0.000000e+000
      vertex -2.500000e+001  2.000000e+001  0.000000e+000
    endloop
  endfacet
  facet normal  0.000000e+000  -0.000000e+000 -1.000000e+000
    outer loop
      vertex  8.326835e-001  1.748018e+001  0.000000e+000
      vertex  5.500000e+000  2.400000e+001  0.000000e+000
      vertex  2.500000e+001  2.000000e+001  0.000000e+000
    endloop
  endfacet
  facet normal  0.000000e+000  0.000000e+000 -1.000000e+000
    outer loop
      vertex  2.500000e+001  2.000000e+001  0.000000e+000
      vertex  5.500000e+000  2.400000e+001  0.000000e+000
      vertex  5.500000e+000  3.500000e+001  0.000000e+000
    endloop
  endfacet
  facet normal  0.000000e+000  0.000000e+000 -9.999999e-001
    outer loop
      vertex  2.500000e+001  2.000000e+001  0.000000e+000
      vertex  5.500000e+000  3.500000e+001  0.000000e+000
      vertex  1.000000e+001  4.000000e+001  0.000000e+000
    endloop
  endfacet
  facet normal  0.000000e+000  0.000000e+000 -9.999999e-001
    outer loop
      vertex  1.000000e+001  4.000000e+001  0.000000e+000
      vertex  5.500000e+000  3.500000e+001  0.000000e+000
      vertex -5.500000e+000  3.500000e+001  0.000000e+000
    endloop
  endfacet
  facet normal  0.000000e+000  0.000000e+000 -1.000000e+000
    outer loop
      vertex  1.000000e+001  4.000000e+001  0.000000e+000
      vertex -5.500000e+000  3.500000e+001  0.000000e+000
      vertex -1.000000e+001  4.000000e+001  0.000000e+000
    endloop
  endfacet
  facet normal  0.000000e+000  0.000000e+000 -1.000000e+000
    outer loop
      vertex -1.000000e+001  4.000000e+001  0.000000e+000
      vertex -5.500000e+000  3.500000e+001  0.000000e+000
      vertex -5.500000e+000  2.400000e+001  0.000000e+000
    endloop
  endfacet
  facet normal  -0.000000e+000  0.000000e+000 -9.999999e-001
    outer loop
      vertex -1.000000e+001  4.000000e+001  0.000000e+000
      vertex -5.500000e+000  2.400000e+001  0.000000e+000
      vertex -2.500000e+001  2.000000e+001  0.000000e+000
    endloop
  endfacet
  facet normal  0.000000e+000  0.000000e+000 -9.999999e-001
    outer loop
      vertex  2.500000e+001 -2.000000e+001  0.000000e+000
      vertex  1.000000e+001 -4.000000e+001  0.000000e+000
      vertex  5.500000e+000 -2.400000e+001  0.000000e+000
    endloop
  endfacet
  facet normal  0.000000e+000  0.000000e+000 -1.000000e+000
    outer loop
      vertex  5.500000e+000 -2.400000e+001  0.000000e+000
      vertex  1.000000e+001 -4.000000e+001  0.000000e+000
      vertex  5.500000e+000 -3.500000e+001  0.000000e+000
    endloop
  endfacet
  facet normal  0.000000e+000  0.000000e+000 -1.000000e+000
    outer loop
      vertex  1.000000e+001 -4.000000e+001  0.000000e+000
      vertex -1.000000e+001 -4.000000e+001  0.000000e+000
      vertex  5.500000e+000 -3.500000e+001  0.000000e+000
    endloop
  endfacet
  facet normal  -0.000000e+000  0.000000e+000 -9.999999e-001
    outer loop
      vertex  5.500000e+000 -3.500000e+001  0.000000e+000
      vertex -1.000000e+001 -4.000000e+001  0.000000e+000
      vertex -5.500000e+000 -3.500000e+001  0.000000e+000
    endloop
  endfacet
  facet normal  9.999999e-001  -0.000000e+000  0.000000e+000
    outer loop
      vertex -5.500000e+000 -2.400000e+001  3.000000e+001
      vertex -5.500000e+000 -3.500000e+001  3.000000e+001
      vertex -5.500000e+000 -2.400000e+001  0.000000e+000
    endloop
  endfacet
  facet normal  9.999999e-001  0.000000e+000  0.000000e+000
    outer loop
      vertex -5.500000e+000 -2.400000e+001  0.000000e+000
      vertex -5.500000e+000 -3.500000e+001  3.000000e+001
      vertex -5.500000e+000 -3.500000e+001  0.000000e+000
    endloop
  endfacet
  facet normal  0.000000e+000  9.999999e-001  0.000000e+000
    outer loop
      vertex  5.500000e+000 -3.500000e+001  0.000000e+000
      vertex -5.500000e+000 -3.500000e+001  0.000000e+000
      vertex  5.500000e+000 -3.500000e+001  3.000000e+001
    endloop
  endfacet
  facet normal  0.000000e+000  9.999999e-001  0.000000e+000
    outer loop
      vertex  5.500000e+000 -3.500000e+001  3.000000e+001
      vertex -5.500000e+000 -3.500000e+001  0.000000e+000
      vertex -5.500000e+000 -3.500000e+001  3.000000e+001
    endloop
  endfacet
  facet normal -9.999999e-001  -0.000000e+000  0.000000e+000
    outer loop
      vertex  5.500000e+000 -3.500000e+001  3.000000e+001
      vertex  5.500000e+000 -2.400000e+001  3.000000e+001
      vertex  5.500000e+000 -3.500000e+001  0.000000e+000
    endloop
  endfacet
  facet normal -9.999999e-001  0.000000e+000  0.000000e+000
    outer loop
      vertex  5.500000e+000 -3.500000e+001  0.000000e+000
      vertex  5.500000e+000 -2.400000e+001  3.000000e+001
      vertex  5.500000e+000 -2.400000e+001  0.000000e+000
    endloop
  endfacet
  facet normal  0.000000e+000 -9.999999e-001  0.000000e+000
    outer loop
      vertex -5.500000e+000 -2.400000e+001  0.000000e+000
      vertex  5.500000e+000 -2.400000e+001  0.000000e+000
      vertex -5.500000e+000 -2.400000e+001  3.000000e+001
    endloop
  endfacet
  facet normal  0.000000e+000 -9.999999e-001  0.000000e+000
    outer loop
      vertex -5.500000e+000 -2.400000e+001  3.000000e+001
      vertex  5.500000e+000 -2.400000e+001  0.000000e+000
      vertex  5.500000e+000 -2.400000e+001  3.000000e+001
    endloop
  endfacet
  facet normal  0.000000e+000 -9.999999e-001  -0.000000e+000
    outer loop
      vertex  5.500000e+000  3.500000e+001  0.000000e+000
      vertex  5.500000e+000  3.500000e+001  3.000000e+001
      vertex -5.500000e+000  3.500000e+001  0.000000e+000
    endloop
  endfacet
  facet normal  0.000000e+000 -9.999999e-001  0.000000e+000
    outer loop
      vertex -5.500000e+000  3.500000e+001  0.000000e+000
      vertex  5.500000e+000  3.500000e+001  3.000000e+001
      vertex -5.500000e+000  3.500000e+001  3.000000e+001
    endloop
  endfacet
  facet normal  9.999999e-001  -0.000000e+000  0.000000e+000
    outer loop
      vertex -5.500000e+000  3.500000e+001  3.000000e+001
      vertex -5.500000e+000  2.400000e+001  3.000000e+001
      vertex -5.500000e+000  3.500000e+001  0.000000e+000
    endloop
  endfacet
  facet normal  9.999999e-001  0.000000e+000  0.000000e+000
    outer loop
      vertex -5.500000e+000  3.500000e+001  0.000000e+000
      vertex -5.500000e+000  2.400000e+001  3.000000e+001
      vertex -5.500000e+000  2.400000e+001  0.000000e+000
    endloop
  endfacet
  facet normal  0.000000e+000  9.999999e-001  0.000000e+000
    outer loop
      vertex -5.500000e+000  2.400000e+001  0.000000e+000
      vertex -5.500000e+000  2.400000e+001  3.000000e+001
      vertex  5.500000e+000  2.400000e+001  0.000000e+000
    endloop
  endfacet
  facet normal  0.000000e+000  9.999999e-001  -0.000000e+000
    outer loop
      vertex  5.500000e+000  2.400000e+001  0.000000e+000
      vertex -5.500000e+000  2.400000e+001  3.000000e+001
      vertex  5.500000e+000  2.400000e+001  3.000000e+001
    endloop
  endfacet
  facet normal -9.999999e-001  -0.000000e+000  0.000000e+000
    outer loop
      vertex  5.500000e+000  2.400000e+001  3.000000e+001
      vertex  5.500000e+000  3.500000e+001  3.000000e+001
      vertex  5.500000e+000  2.400000e+001  0.000000e+000
    endloop
  endfacet
  facet normal -9.999999e-001  0.000000e+000  0.000000e+000
    outer loop
      vertex  5.500000e+000  2.400000e+001  0.000000e+000
      vertex  5.500000e+000  3.500000e+001  3.000000e+001
      vertex  5.500000e+000  3.500000e+001  0.000000e+000
    endloop
  endfacet
  facet normal  9.505664e-002 -9.954718e-001  0.000000e+000
    outer loop
      vertex -8.326835e-001  1.748018e+001  0.000000e+000
      vertex -2.490510e+000  1.732187e+001  3.000000e+001
      vertex -2.490510e+000  1.732187e+001  0.000000e+000
    endloop
  endfacet
  facet normal  1.892509e-001 -9.819287e-001  0.000000e+000
    outer loop
      vertex -2.490510e+000  1.732187e+001  0.000000e+000
      vertex -2.490510e+000  1.732187e+001  3.000000e+001
      vertex -4.125782e+000  1.700670e+001  3.000000e+001
    endloop
  endfacet
  facet normal  1.892509e-001 -9.819287e-001  0.000000e+000
    outer loop
      vertex -2.490510e+000  1.732187e+001  0.000000e+000
      vertex -4.125782e+000  1.700670e+001  3.000000e+001
      vertex -4.125782e+000  1.700670e+001  0.000000e+000
    endloop
  endfacet
  facet normal  2.817329e-001 -9.594929e-001  0.000000e+000
    outer loop
      vertex -4.125782e+000  1.700670e+001  0.000000e+000
      vertex -4.125782e+000  1.700670e+001  3.000000e+001
      vertex -5.723690e+000  1.653751e+001  3.000000e+001
    endloop
  endfacet
  facet normal  2.817329e-001 -9.594929e-001  0.000000e+000
    outer loop
      vertex -4.125782e+000  1.700670e+001  0.000000e+000
      vertex -5.723690e+000  1.653751e+001  3.000000e+001
      vertex -5.723690e+000  1.653751e+001  0.000000e+000
    endloop
  endfacet
  facet normal  3.716622e-001 -9.283680e-001  0.000000e+000
    outer loop
      vertex -5.723690e+000  1.653751e+001  0.000000e+000
      vertex -5.723690e+000  1.653751e+001  3.000000e+001
      vertex -7.269763e+000  1.591856e+001  3.000000e+001
    endloop
  endfacet
  facet normal  3.716622e-001 -9.283680e-001  0.000000e+000
    outer loop
      vertex -5.723690e+000  1.653751e+001  0.000000e+000
      vertex -7.269763e+000  1.591856e+001  3.000000e+001
      vertex -7.269763e+000  1.591856e+001  0.000000e+000
    endloop
  endfacet
  facet normal  4.582267e-001 -8.888354e-001  0.000000e+000
    outer loop
      vertex -7.269763e+000  1.591856e+001  0.000000e+000
      vertex -7.269763e+000  1.591856e+001  3.000000e+001
      vertex -8.750000e+000  1.515544e+001  3.000000e+001
    endloop
  endfacet
  facet normal  4.582267e-001 -8.888354e-001  0.000000e+000
    outer loop
      vertex -7.269763e+000  1.591856e+001  0.000000e+000
      vertex -8.750000e+000  1.515544e+001  3.000000e+001
      vertex -8.750000e+000  1.515544e+001  0.000000e+000
    endloop
  endfacet
  facet normal  5.406405e-001 -8.412537e-001  0.000000e+000
    outer loop
      vertex -8.750000e+000  1.515544e+001  0.000000e+000
      vertex -8.750000e+000  1.515544e+001  3.000000e+001
      vertex -1.015100e+001  1.425508e+001  3.000000e+001
    endloop
  endfacet
  facet normal  5.406405e-001 -8.412537e-001  0.000000e+000
    outer loop
      vertex -8.750000e+000  1.515544e+001  0.000000e+000
      vertex -1.015100e+001  1.425508e+001  3.000000e+001
      vertex -1.015100e+001  1.425508e+001  0.000000e+000
    endloop
  endfacet
  facet normal  6.181591e-001 -7.860529e-001  0.000000e+000
    outer loop
      vertex -1.015100e+001  1.425508e+001  0.000000e+000
      vertex -1.015100e+001  1.425508e+001  3.000000e+001
      vertex -1.146006e+001  1.322562e+001  3.000000e+001
    endloop
  endfacet
  facet normal  6.181591e-001 -7.860529e-001  0.000000e+000
    outer loop
      vertex -1.015100e+001  1.425508e+001  0.000000e+000
      vertex -1.146006e+001  1.322562e+001  3.000000e+001
      vertex -1.146006e+001  1.322562e+001  0.000000e+000
    endloop
  endfacet
  facet normal  6.900792e-001 -7.237339e-001  0.000000e+000
    outer loop
      vertex -1.146006e+001  1.322562e+001  0.000000e+000
      vertex -1.146006e+001  1.322562e+001  3.000000e+001
      vertex -1.266535e+001  1.207638e+001  3.000000e+001
    endloop
  endfacet
  facet normal  6.900792e-001 -7.237339e-001  0.000000e+000
    outer loop
      vertex -1.146006e+001  1.322562e+001  0.000000e+000
      vertex -1.266535e+001  1.207638e+001  3.000000e+001
      vertex -1.266535e+001  1.207638e+001  0.000000e+000
    endloop
  endfacet
  facet normal  7.557494e-001 -6.548609e-001  0.000000e+000
    outer loop
      vertex -1.266535e+001  1.207638e+001  0.000000e+000
      vertex -1.266535e+001  1.207638e+001  3.000000e+001
      vertex -1.375593e+001  1.081778e+001  3.000000e+001
    endloop
  endfacet
  facet normal  7.557494e-001 -6.548609e-001  0.000000e+000
    outer loop
      vertex -1.266535e+001  1.207638e+001  0.000000e+000
      vertex -1.375593e+001  1.081778e+001  3.000000e+001
      vertex -1.375593e+001  1.081778e+001  0.000000e+000
    endloop
  endfacet
  facet normal  8.145760e-001 -5.800570e-001  0.000000e+000
    outer loop
      vertex -1.375593e+001  1.081778e+001  0.000000e+000
      vertex -1.375593e+001  1.081778e+001  3.000000e+001
      vertex -1.472194e+001  9.461214e+000  3.000000e+001
    endloop
  endfacet
  facet normal  8.145760e-001 -5.800570e-001  0.000000e+000
    outer loop
      vertex -1.375593e+001  1.081778e+001  0.000000e+000
      vertex -1.472194e+001  9.461214e+000  3.000000e+001
      vertex -1.472194e+001  9.461214e+000  0.000000e+000
    endloop
  endfacet
  facet normal  8.660254e-001 -5.000000e-001  0.000000e+000
    outer loop
      vertex -1.472194e+001  9.461214e+000  0.000000e+000
      vertex -1.472194e+001  9.461214e+000  3.000000e+001
      vertex -1.555462e+001  8.018964e+000  3.000000e+001
    endloop
  endfacet
  facet normal  8.660254e-001 -5.000000e-001  0.000000e+000
    outer loop
      vertex -1.472194e+001  9.461214e+000  0.000000e+000
      vertex -1.555462e+001  8.018964e+000  3.000000e+001
      vertex -1.555462e+001  8.018964e+000  0.000000e+000
    endloop
  endfacet
  facet normal  9.096320e-001 -4.154150e-001  0.000000e+000
    outer loop
      vertex -1.555462e+001  8.018964e+000  0.000000e+000
      vertex -1.555462e+001  8.018964e+000  3.000000e+001
      vertex -1.624644e+001  6.504093e+000  3.000000e+001
    endloop
  endfacet
  facet normal  9.096320e-001 -4.154150e-001  0.000000e+000
    outer loop
      vertex -1.555462e+001  8.018964e+000  0.000000e+000
      vertex -1.624644e+001  6.504093e+000  3.000000e+001
      vertex -1.624644e+001  6.504093e+000  0.000000e+000
    endloop
  endfacet
  facet normal  9.450010e-001 -3.270674e-001  0.000000e+000
    outer loop
      vertex -1.624644e+001  6.504093e+000  0.000000e+000
      vertex -1.624644e+001  6.504093e+000  3.000000e+001
      vertex -1.679113e+001  4.930320e+000  3.000000e+001
    endloop
  endfacet
  facet normal  9.450010e-001 -3.270674e-001  0.000000e+000
    outer loop
      vertex -1.624644e+001  6.504093e+000  0.000000e+000
      vertex -1.679113e+001  4.930320e+000  3.000000e+001
      vertex -1.679113e+001  4.930320e+000  0.000000e+000
    endloop
  endfacet
  facet normal  9.718115e-001 -2.357593e-001  0.000000e+000
    outer loop
      vertex -1.679113e+001  4.930320e+000  0.000000e+000
      vertex -1.679113e+001  4.930320e+000  3.000000e+001
      vertex -1.718375e+001  3.311897e+000  3.000000e+001
    endloop
  endfacet
  facet normal  9.718115e-001 -2.357593e-001  0.000000e+000
    outer loop
      vertex -1.679113e+001  4.930320e+000  0.000000e+000
      vertex -1.718375e+001  3.311897e+000  3.000000e+001
      vertex -1.718375e+001  3.311897e+000  0.000000e+000
    endloop
  endfacet
  facet normal  9.898214e-001 -1.423153e-001  0.000000e+000
    outer loop
      vertex -1.718375e+001  3.311897e+000  0.000000e+000
      vertex -1.718375e+001  3.311897e+000  3.000000e+001
      vertex -1.742076e+001  1.663481e+000  3.000000e+001
    endloop
  endfacet
  facet normal  9.898214e-001 -1.423153e-001  0.000000e+000
    outer loop
      vertex -1.718375e+001  3.311897e+000  0.000000e+000
      vertex -1.742076e+001  1.663481e+000  3.000000e+001
      vertex -1.742076e+001  1.663481e+000  0.000000e+000
    endloop
  endfacet
  facet normal  9.988674e-001 -4.758158e-002  0.000000e+000
    outer loop
      vertex -1.742076e+001  1.663481e+000  0.000000e+000
      vertex -1.742076e+001  1.663481e+000  3.000000e+001
      vertex -1.750000e+001  2.143132e-015  3.000000e+001
    endloop
  endfacet
  facet normal  9.988674e-001 -4.758158e-002  0.000000e+000
    outer loop
      vertex -1.742076e+001  1.663481e+000  0.000000e+000
      vertex -1.750000e+001  2.143132e-015  3.000000e+001
      vertex -1.750000e+001  2.143132e-015  0.000000e+000
    endloop
  endfacet
  facet normal  9.505664e-002 -9.954718e-001  0.000000e+000
    outer loop
      vertex -2.490510e+000  1.732187e+001  3.000000e+001
      vertex -8.326835e-001  1.748018e+001  0.000000e+000
      vertex -8.326835e-001  1.748018e+001  3.000000e+001
    endloop
  endfacet
  facet normal  0.000000e+000 -1.000000e+000  0.000000e+000
    outer loop
      vertex -8.326835e-001  1.748018e+001  3.000000e+001
      vertex -8.326835e-001  1.748018e+001  0.000000e+000
      vertex  8.326835e-001  1.748018e+001  0.000000e+000
    endloop
  endfacet
  facet normal  0.000000e+000 -1.000000e+000  0.000000e+000
    outer loop
      vertex -8.326835e-001  1.748018e+001  3.000000e+001
      vertex  8.326835e-001  1.748018e+001  0.000000e+000
      vertex  8.326835e-001  1.748018e+001  3.000000e+001
    endloop
  endfacet
  facet normal -9.505664e-002 -9.954718e-001  -0.000000e+000
    outer loop
      vertex  8.326835e-001  1.748018e+001  3.000000e+001
      vertex  8.326835e-001  1.748018e+001  0.000000e+000
      vertex  2.490510e+000  1.732187e+001  0.000000e+000
    endloop
  endfacet
  facet normal -9.505664e-002 -9.954718e-001  0.000000e+000
    outer loop
      vertex  8.326835e-001  1.748018e+001  3.000000e+001
      vertex  2.490510e+000  1.732187e+001  0.000000e+000
      vertex  2.490510e+000  1.732187e+001  3.000000e+001
    endloop
  endfacet
  facet normal -1.892509e-001 -9.819287e-001  -0.000000e+000
    outer loop
      vertex  2.490510e+000  1.732187e+001  3.000000e+001
      vertex  2.490510e+000  1.732187e+001  0.000000e+000
      vertex  4.125782e+000  1.700670e+001  0.000000e+000
    endloop
  endfacet
  facet normal -1.892509e-001 -9.819287e-001  0.000000e+000
    outer loop
      vertex  2.490510e+000  1.732187e+001  3.000000e+001
      vertex  4.125782e+000  1.700670e+001  0.000000e+000
      vertex  4.125782e+000  1.700670e+001  3.000000e+001
    endloop
  endfacet
  facet normal -2.817329e-001 -9.594929e-001  -0.000000e+000
    outer loop
      vertex  4.125782e+000  1.700670e+001  3.000000e+001
      vertex  4.125782e+000  1.700670e+001  0.000000e+000
      vertex  5.723690e+000  1.653751e+001  0.000000e+000
    endloop
  endfacet
  facet normal -2.817329e-001 -9.594929e-001  0.000000e+000
    outer loop
      vertex  4.125782e+000  1.700670e+001  3.000000e+001
      vertex  5.723690e+000  1.653751e+001  0.000000e+000
      vertex  5.723690e+000  1.653751e+001  3.000000e+001
    endloop
  endfacet
  facet normal -3.716622e-001 -9.283680e-001  -0.000000e+000
    outer loop
      vertex  5.723690e+000  1.653751e+001  3.000000e+001
      vertex  5.723690e+000  1.653751e+001  0.000000e+000
      vertex  7.269763e+000  1.591856e+001  0.000000e+000
    endloop
  endfacet
  facet normal -3.716622e-001 -9.283680e-001  0.000000e+000
    outer loop
      vertex  5.723690e+000  1.653751e+001  3.000000e+001
      vertex  7.269763e+000  1.591856e+001  0.000000e+000
      vertex  7.269763e+000  1.591856e+001  3.000000e+001
    endloop
  endfacet
  facet normal -4.582267e-001 -8.888354e-001  -0.000000e+000
    outer loop
      vertex  7.269763e+000  1.591856e+001  3.000000e+001
      vertex  7.269763e+000  1.591856e+001  0.000000e+000
      vertex  8.750000e+000  1.515544e+001  0.000000e+000
    endloop
  endfacet
  facet normal -4.582267e-001 -8.888354e-001  0.000000e+000
    outer loop
      vertex  7.269763e+000  1.591856e+001  3.000000e+001
      vertex  8.750000e+000  1.515544e+001  0.000000e+000
      vertex  8.750000e+000  1.515544e+001  3.000000e+001
    endloop
  endfacet
  facet normal -5.406405e-001 -8.412537e-001  -0.000000e+000
    outer loop
      vertex  8.750000e+000  1.515544e+001  3.000000e+001
      vertex  8.750000e+000  1.515544e+001  0.000000e+000
      vertex  1.015100e+001  1.425508e+001  0.000000e+000
    endloop
  endfacet
  facet normal -5.406405e-001 -8.412537e-001  0.000000e+000
    outer loop
      vertex  8.750000e+000  1.515544e+001  3.000000e+001
      vertex  1.015100e+001  1.425508e+001  0.000000e+000
      vertex  1.015100e+001  1.425508e+001  3.000000e+001
    endloop
  endfacet
  facet normal -6.181591e-001 -7.860529e-001  -0.000000e+000
    outer loop
      vertex  1.015100e+001  1.425508e+001  3.000000e+001
      vertex  1.015100e+001  1.425508e+001  0.000000e+000
      vertex  1.146006e+001  1.322562e+001  0.000000e+000
    endloop
  endfacet
  facet normal -6.181591e-001 -7.860529e-001  0.000000e+000
    outer loop
      vertex  1.015100e+001  1.425508e+001  3.000000e+001
      vertex  1.146006e+001  1.322562e+001  0.000000e+000
      vertex  1.146006e+001  1.322562e+001  3.000000e+001
    endloop
  endfacet
  facet normal -6.900792e-001 -7.237339e-001  -0.000000e+000
    outer loop
      vertex  1.146006e+001  1.322562e+001  3.000000e+001
      vertex  1.146006e+001  1.322562e+001  0.000000e+000
      vertex  1.266535e+001  1.207638e+001  0.000000e+000
    endloop
  endfacet
  facet normal -6.900792e-001 -7.237339e-001  0.000000e+000
    outer loop
      vertex  1.146006e+001  1.322562e+001  3.000000e+001
      vertex  1.266535e+001  1.207638e+001  0.000000e+000
      vertex  1.266535e+001  1.207638e+001  3.000000e+001
    endloop
  endfacet
  facet normal -7.557494e-001 -6.548609e-001  -0.000000e+000
    outer loop
      vertex  1.266535e+001  1.207638e+001  3.000000e+001
      vertex  1.266535e+001  1.207638e+001  0.000000e+000
      vertex  1.375593e+001  1.081778e+001  0.000000e+000
    endloop
  endfacet
  facet normal -7.557494e-001 -6.548609e-001  0.000000e+000
    outer loop
      vertex  1.266535e+001  1.207638e+001  3.000000e+001
      vertex  1.375593e+001  1.081778e+001  0.000000e+000
      vertex  1.375593e+001  1.081778e+001  3.000000e+001
    endloop
  endfacet
  facet normal -8.145760e-001 -5.800570e-001  -0.000000e+000
    outer loop
      vertex  1.375593e+001  1.081778e+001  3.000000e+001
      vertex  1.375593e+001  1.081778e+001  0.000000e+000
      vertex  1.472194e+001  9.461214e+000  0.000000e+000
    endloop
  endfacet
  facet normal -8.145760e-001 -5.800570e-001  0.000000e+000
    outer loop
      vertex  1.375593e+001  1.081778e+001  3.000000e+001
      vertex  1.472194e+001  9.461214e+000  0.000000e+000
      vertex  1.472194e+001  9.461214e+000  3.000000e+001
    endloop
  endfacet
  facet normal -8.660254e-001 -5.000000e-001  -0.000000e+000
    outer loop
      vertex  1.472194e+001  9.461214e+000  3.000000e+001
      vertex  1.472194e+001  9.461214e+000  0.000000e+000
      vertex  1.555462e+001  8.018964e+000  0.000000e+000
    endloop
  endfacet
  facet normal -8.660254e-001 -5.000000e-001  0.000000e+000
    outer loop
      vertex  1.472194e+001  9.461214e+000  3.000000e+001
      vertex  1.555462e+001  8.018964e+000  0.000000e+000
      vertex  1.555462e+001  8.018964e+000  3.000000e+001
    endloop
  endfacet
  facet normal -9.096320e-001 -4.154150e-001  -0.000000e+000
    outer loop
      vertex  1.555462e+001  8.018964e+000  3.000000e+001
      vertex  1.555462e+001  8.018964e+000  0.000000e+000
      vertex  1.624644e+001  6.504093e+000  0.000000e+000
    endloop
  endfacet
  facet normal -9.096320e-001 -4.154150e-001  0.000000e+000
    outer loop
      vertex  1.555462e+001  8.018964e+000  3.000000e+001
      vertex  1.624644e+001  6.504093e+000  0.000000e+000
      vertex  1.624644e+001  6.504093e+000  3.000000e+001
    endloop
  endfacet
  facet normal -9.450010e-001 -3.270674e-001  -0.000000e+000
    outer loop
      vertex  1.624644e+001  6.504093e+000  3.000000e+001
      vertex  1.624644e+001  6.504093e+000  0.000000e+000
      vertex  1.679113e+001  4.930320e+000  0.000000e+000
    endloop
  endfacet
  facet normal -9.450010e-001 -3.270674e-001  0.000000e+000
    outer loop
      vertex  1.624644e+001  6.504093e+000  3.000000e+001
      vertex  1.679113e+001  4.930320e+000  0.000000e+000
      vertex  1.679113e+001  4.930320e+000  3.000000e+001
    endloop
  endfacet
  facet normal -9.718115e-001 -2.357593e-001  -0.000000e+000
    outer loop
      vertex  1.679113e+001  4.930320e+000  3.000000e+001
      vertex  1.679113e+001  4.930320e+000  0.000000e+000
      vertex  1.718375e+001  3.311897e+000  0.000000e+000
    endloop
  endfacet
  facet normal -9.718115e-001 -2.357593e-001  0.000000e+000
    outer loop
      vertex  1.679113e+001  4.930320e+000  3.000000e+001
      vertex  1.718375e+001  3.311897e+000  0.000000e+000
      vertex  1.718375e+001  3.311897e+000  3.000000e+001
    endloop
  endfacet
  facet normal -9.898214e-001 -1.423153e-001  -0.000000e+000
    outer loop
      vertex  1.718375e+001  3.311897e+000  3.000000e+001
      vertex  1.718375e+001  3.311897e+000  0.000000e+000
      vertex  1.742076e+001  1.663481e+000  0.000000e+000
    endloop
  endfacet
  facet normal -9.898214e-001 -1.423153e-001  0.000000e+000
    outer loop
      vertex  1.718375e+001  3.311897e+000  3.000000e+001
      vertex  1.742076e+001  1.663481e+000  0.000000e+000
      vertex  1.742076e+001  1.663481e+000  3.000000e+001
    endloop
  endfacet
  facet normal -9.988674e-001 -4.758158e-002  -0.000000e+000
    outer loop
      vertex  1.742076e+001  1.663481e+000  3.000000e+001
      vertex  1.742076e+001  1.663481e+000  0.000000e+000
      vertex  1.750000e+001  0.000000e+000  0.000000e+000
    endloop
  endfacet
  facet normal -9.988674e-001 -4.758158e-002  0.000000e+000
    outer loop
      vertex  1.742076e+001  1.663481e+000  3.000000e+001
      vertex  1.750000e+001  0.000000e+000  0.000000e+000
      vertex  1.750000e+001  0.000000e+000  3.000000e+001
    endloop
  endfacet
  facet normal -9.505664e-002  9.954718e-001  0.000000e+000
    outer loop
      vertex  8.326835e-001 -1.748018e+001  0.000000e+000
      vertex  2.490510e+000 -1.732187e+001  3.000000e+001
      vertex  2.490510e+000 -1.732187e+001  0.000000e+000
    endloop
  endfacet
  facet normal -1.892509e-001  9.819287e-001  0.000000e+000
    outer loop
      vertex  2.490510e+000 -1.732187e+001  0.000000e+000
      vertex  2.490510e+000 -1.732187e+001  3.000000e+001
      vertex  4.125782e+000 -1.700670e+001  3.000000e+001
    endloop
  endfacet
  facet normal -1.892509e-001  9.819287e-001  0.000000e+000
    outer loop
      vertex  2.490510e+000 -1.732187e+001  0.000000e+000
      vertex  4.125782e+000 -1.700670e+001  3.000000e+001
      vertex  4.125782e+000 -1.700670e+001  0.000000e+000
    endloop
  endfacet
  facet normal -2.817329e-001  9.594929e-001  0.000000e+000
    outer loop
      vertex  4.125782e+000 -1.700670e+001  0.000000e+000
      vertex  4.125782e+000 -1.700670e+001  3.000000e+001
      vertex  5.723690e+000 -1.653751e+001  3.000000e+001
    endloop
  endfacet
  facet normal -2.817329e-001  9.594929e-001  0.000000e+000
    outer loop
      vertex  4.125782e+000 -1.700670e+001  0.000000e+000
      vertex  5.723690e+000 -1.653751e+001  3.000000e+001
      vertex  5.723690e+000 -1.653751e+001  0.000000e+000
    endloop
  endfacet
  facet normal -3.716622e-001  9.283680e-001  0.000000e+000
    outer loop
      vertex  5.723690e+000 -1.653751e+001  0.000000e+000
      vertex  5.723690e+000 -1.653751e+001  3.000000e+001
      vertex  7.269763e+000 -1.591856e+001  3.000000e+001
    endloop
  endfacet
  facet normal -3.716622e-001  9.283680e-001  0.000000e+000
    outer loop
      vertex  5.723690e+000 -1.653751e+001  0.000000e+000
      vertex  7.269763e+000 -1.591856e+001  3.000000e+001
      vertex  7.269763e+000 -1.591856e+001  0.000000e+000
    endloop
  endfacet
  facet normal -4.582267e-001  8.888354e-001  0.000000e+000
    outer loop
      vertex  7.269763e+000 -1.591856e+001  0.000000e+000
      vertex  7.269763e+000 -1.591856e+001  3.000000e+001
      vertex  8.750000e+000 -1.515544e+001  3.000000e+001
    endloop
  endfacet
  facet normal -4.582267e-001  8.888354e-001  0.000000e+000
    outer loop
      vertex  7.269763e+000 -1.591856e+001  0.000000e+000
      vertex  8.750000e+000 -1.515544e+001  3.000000e+001
      vertex  8.750000e+000 -1.515544e+001  0.000000e+000
    endloop
  endfacet
  facet normal -5.406405e-001  8.412537e-001  0.000000e+000
    outer loop
      vertex  8.750000e+000 -1.515544e+001  0.000000e+000
      vertex  8.750000e+000 -1.515544e+001  3.000000e+001
      vertex  1.015100e+001 -1.425508e+001  3.000000e+001
    endloop
  endfacet
  facet normal -5.406405e-001  8.412537e-001  0.000000e+000
    outer loop
      vertex  8.750000e+000 -1.515544e+001  0.000000e+000
      vertex  1.015100e+001 -1.425508e+001  3.000000e+001
      vertex  1.015100e+001 -1.425508e+001  0.000000e+000
    endloop
  endfacet
  facet normal -6.181591e-001  7.860529e-001  0.000000e+000
    outer loop
      vertex  1.015100e+001 -1.425508e+001  0.000000e+000
      vertex  1.015100e+001 -1.425508e+001  3.000000e+001
      vertex  1.146006e+001 -1.322562e+001  3.000000e+001
    endloop
  endfacet
  facet normal -6.181591e-001  7.860529e-001  0.000000e+000
    outer loop
      vertex  1.015100e+001 -1.425508e+001  0.000000e+000
      vertex  1.146006e+001 -1.322562e+001  3.000000e+001
      vertex  1.146006e+001 -1.322562e+001  0.000000e+000
    endloop
  endfacet
  facet normal -6.900792e-001  7.237339e-001  0.000000e+000
    outer loop
      vertex  1.146006e+001 -1.322562e+001  0.000000e+000
      vertex  1.146006e+001 -1.322562e+001  3.000000e+001
      vertex  1.266535e+001 -1.207638e+001  3.000000e+001
    endloop
  endfacet
  facet normal -6.900792e-001  7.237339e-001  0.000000e+000
    outer loop
      vertex  1.146006e+001 -1.322562e+001  0.000000e+000
      vertex  1.266535e+001 -1.207638e+001  3.000000e+001
      vertex  1.266535e+001 -1.207638e+001  0.000000e+000
    endloop
  endfacet
  facet normal -7.557494e-001  6.548609e-001  0.000000e+000
    outer loop
      vertex  1.266535e+001 -1.207638e+001  0.000000e+000
      vertex  1.266535e+001 -1.207638e+001  3.000000e+001
      vertex  1.375593e+001 -1.081778e+001  3.000000e+001
    endloop
  endfacet
  facet normal -7.557494e-001  6.548609e-001  0.000000e+000
    outer loop
      vertex  1.266535e+001 -1.207638e+001  0.000000e+000
      vertex  1.375593e+001 -1.081778e+001  3.000000e+001
      vertex  1.375593e+001 -1.081778e+001  0.000000e+000
    endloop
  endfacet
  facet normal -8.145760e-001  5.800570e-001  0.000000e+000
    outer loop
      vertex  1.375593e+001 -1.081778e+001  0.000000e+000
      vertex  1.375593e+001 -1.081778e+001  3.000000e+001
      vertex  1.472194e+001 -9.461214e+000  3.000000e+001
    endloop
  endfacet
  facet normal -8.145760e-001  5.800570e-001  0.000000e+000
    outer loop
      vertex  1.375593e+001 -1.081778e+001  0.000000e+000
      vertex  1.472194e+001 -9.461214e+000  3.000000e+001
      vertex  1.472194e+001 -9.461214e+000  0.000000e+000
    endloop
  endfacet
  facet normal -8.660254e-001  5.000000e-001  0.000000e+000
    outer loop
      vertex  1.472194e+001 -9.461214e+000  0.000000e+000
      vertex  1.472194e+001 -9.461214e+000  3.000000e+001
      vertex  1.555462e+001 -8.018964e+000  3.000000e+001
    endloop
  endfacet
  facet normal -8.660254e-001  5.000000e-001  0.000000e+000
    outer loop
      vertex  1.472194e+001 -9.461214e+000  0.000000e+000
      vertex  1.555462e+001 -8.018964e+000  3.000000e+001
      vertex  1.555462e+001 -8.018964e+000  0.000000e+000
    endloop
  endfacet
  facet normal -9.096320e-001  4.154150e-001  0.000000e+000
    outer loop
      vertex  1.555462e+001 -8.018964e+000  0.000000e+000
      vertex  1.555462e+001 -8.018964e+000  3.000000e+001
      vertex  1.624644e+001 -6.504093e+000  3.000000e+001
    endloop
  endfacet
  facet normal -9.096320e-001  4.154150e-001  0.000000e+000
    outer loop
      vertex  1.555462e+001 -8.018964e+000  0.000000e+000
      vertex  1.624644e+001 -6.504093e+000  3.000000e+001
      vertex  1.624644e+001 -6.504093e+000  0.000000e+000
    endloop
  endfacet
  facet normal -9.450010e-001  3.270674e-001  0.000000e+000
    outer loop
      vertex  1.624644e+001 -6.504093e+000  0.000000e+000
      vertex  1.624644e+001 -6.504093e+000  3.000000e+001
      vertex  1.679113e+001 -4.930320e+000  3.000000e+001
    endloop
  endfacet
  facet normal -9.450010e-001  3.270674e-001  0.000000e+000
    outer loop
      vertex  1.624644e+001 -6.504093e+000  0.000000e+000
      vertex  1.679113e+001 -4.930320e+000  3.000000e+001
      vertex  1.679113e+001 -4.930320e+000  0.000000e+000
    endloop
  endfacet
  facet normal -9.718115e-001  2.357593e-001  0.000000e+000
    outer loop
      vertex  1.679113e+001 -4.930320e+000  0.000000e+000
      vertex  1.679113e+001 -4.930320e+000  3.000000e+001
      vertex  1.718375e+001 -3.311897e+000  3.000000e+001
    endloop
  endfacet
  facet normal -9.718115e-001  2.357593e-001  0.000000e+000
    outer loop
      vertex  1.679113e+001 -4.930320e+000  0.000000e+000
      vertex  1.718375e+001 -3.311897e+000  3.000000e+001
      vertex  1.718375e+001 -3.311897e+000  0.000000e+000
    endloop
  endfacet
  facet normal -9.898214e-001  1.423153e-001  0.000000e+000
    outer loop
      vertex  1.718375e+001 -3.311897e+000  0.000000e+000
      vertex  1.718375e+001 -3.311897e+000  3.000000e+001
      vertex  1.742076e+001 -1.663481e+000  3.000000e+001
    endloop
  endfacet
  facet normal -9.898214e-001  1.423153e-001  0.000000e+000
    outer loop
      vertex  1.718375e+001 -3.311897e+000  0.000000e+000
      vertex  1.742076e+001 -1.663481e+000  3.000000e+001
      vertex  1.742076e+001 -1.663481e+000  0.000000e+000
    endloop
  endfacet
  facet normal -9.988674e-001  4.758158e-002  0.000000e+000
    outer loop
      vertex  1.742076e+001 -1.663481e+000  0.000000e+000
      vertex  1.742076e+001 -1.663481e+000  3.000000e+001
      vertex  1.750000e+001  0.000000e+000  3.000000e+001
    endloop
  endfacet
  facet normal -9.988674e-001  4.758158e-002  0.000000e+000
    outer loop
      vertex  1.742076e+001 -1.663481e+000  0.000000e+000
      vertex  1.750000e+001  0.000000e+000  3.000000e+001
      vertex  1.750000e+001  0.000000e+000  0.000000e+000
    endloop
  endfacet
  facet normal -9.505664e-002  9.954718e-001  0.000000e+000
    outer loop
      vertex  2.490510e+000 -1.732187e+001  3.000000e+001
      vertex  8.326835e-001 -1.748018e+001  0.000000e+000
      vertex  8.326835e-001 -1.748018e+001  3.000000e+001
    endloop
  endfacet
  facet normal  0.000000e+000  1.000000e+000  0.000000e+000
    outer loop
      vertex  8.326835e-001 -1.748018e+001  3.000000e+001
      vertex  8.326835e-001 -1.748018e+001  0.000000e+000
      vertex -8.326835e-001 -1.748018e+001  0.000000e+000
    endloop
  endfacet
  facet normal  0.000000e+000  1.000000e+000  0.000000e+000
    outer loop
      vertex  8.326835e-001 -1.748018e+001  3.000000e+001
      vertex -8.326835e-001 -1.748018e+001  0.000000e+000
      vertex -8.326835e-001 -1.748018e+001  3.000000e+001
    endloop
  endfacet
  facet normal  9.505664e-002  9.954718e-001  0.000000e+000
    outer loop
      vertex -8.326835e-001 -1.748018e+001  3.000000e+001
      vertex -8.326835e-001 -1.748018e+001  0.000000e+000
      vertex -2.490510e+000 -1.732187e+001  0.000000e+000
    endloop
  endfacet
  facet normal  9.505664e-002  9.954718e-001  -0.000000e+000
    outer loop
      vertex -8.326835e-001 -1.748018e+001  3.000000e+001
      vertex -2.490510e+000 -1.732187e+001  0.000000e+000
      vertex -2.490510e+000 -1.732187e+001  3.000000e+001
    endloop
  endfacet
  facet normal  1.892509e-001  9.819287e-001  0.000000e+000
    outer loop
      vertex -2.490510e+000 -1.732187e+001  3.000000e+001
      vertex -2.490510e+000 -1.732187e+001  0.000000e+000
      vertex -4.125782e+000 -1.700670e+001  0.000000e+000
    endloop
  endfacet
  facet normal  1.892509e-001  9.819287e-001  -0.000000e+000
    outer loop
      vertex -2.490510e+000 -1.732187e+001  3.000000e+001
      vertex -4.125782e+000 -1.700670e+001  0.000000e+000
      vertex -4.125782e+000 -1.700670e+001  3.000000e+001
    endloop
  endfacet
  facet normal  2.817329e-001  9.594929e-001  0.000000e+000
    outer loop
      vertex -4.125782e+000 -1.700670e+001  3.000000e+001
      vertex -4.125782e+000 -1.700670e+001  0.000000e+000
      vertex -5.723690e+000 -1.653751e+001  0.000000e+000
    endloop
  endfacet
  facet normal  2.817329e-001  9.594929e-001  -0.000000e+000
    outer loop
      vertex -4.125782e+000 -1.700670e+001  3.000000e+001
      vertex -5.723690e+000 -1.653751e+001  0.000000e+000
      vertex -5.723690e+000 -1.653751e+001  3.000000e+001
    endloop
  endfacet
  facet normal  3.716622e-001  9.283680e-001  0.000000e+000
    outer loop
      vertex -5.723690e+000 -1.653751e+001  3.000000e+001
      vertex -5.723690e+000 -1.653751e+001  0.000000e+000
      vertex -7.269763e+000 -1.591856e+001  0.000000e+000
    endloop
  endfacet
  facet normal  3.716622e-001  9.283680e-001  -0.000000e+000
    outer loop
      vertex -5.723690e+000 -1.653751e+001  3.000000e+001
      vertex -7.269763e+000 -1.591856e+001  0.000000e+000
      vertex -7.269763e+000 -1.591856e+001  3.000000e+001
    endloop
  endfacet
  facet normal  4.582267e-001  8.888354e-001  0.000000e+000
    outer loop
      vertex -7.269763e+000 -1.591856e+001  3.000000e+001
      vertex -7.269763e+000 -1.591856e+001  0.000000e+000
      vertex -8.750000e+000 -1.515544e+001  0.000000e+000
    endloop
  endfacet
  facet normal  4.582267e-001  8.888354e-001  -0.000000e+000
    outer loop
      vertex -7.269763e+000 -1.591856e+001  3.000000e+001
      vertex -8.750000e+000 -1.515544e+001  0.000000e+000
      vertex -8.750000e+000 -1.515544e+001  3.000000e+001
    endloop
  endfacet
  facet normal  5.406405e-001  8.412537e-001  0.000000e+000
    outer loop
      vertex -8.750000e+000 -1.515544e+001  3.000000e+001
      vertex -8.750000e+000 -1.515544e+001  0.000000e+000
      vertex -1.015100e+001 -1.425508e+001  0.000000e+000
    endloop
  endfacet
  facet normal  5.406405e-001  8.412537e-001  -0.000000e+000
    outer loop
      vertex -8.750000e+000 -1.515544e+001  3.000000e+001
      vertex -1.015100e+001 -1.425508e+001  0.000000e+000
      vertex -1.015100e+001 -1.425508e+001  3.000000e+001
    endloop
  endfacet
  facet normal  6.181591e-001  7.860529e-001  0.000000e+000
    outer loop
      vertex -1.015100e+001 -1.425508e+001  3.000000e+001
      vertex -1.015100e+001 -1.425508e+001  0.000000e+000
      vertex -1.146006e+001 -1.322562e+001  0.000000e+000
    endloop
  endfacet
  facet normal  6.181591e-001  7.860529e-001  -0.000000e+000
    outer loop
      vertex -1.015100e+001 -1.425508e+001  3.000000e+001
      vertex -1.146006e+001 -1.322562e+001  0.000000e+000
      vertex -1.146006e+001 -1.322562e+001  3.000000e+001
    endloop
  endfacet
  facet normal  6.900792e-001  7.237339e-001  0.000000e+000
    outer loop
      vertex -1.146006e+001 -1.322562e+001  3.000000e+001
      vertex -1.146006e+001 -1.322562e+001  0.000000e+000
      vertex -1.266535e+001 -1.207638e+001  0.000000e+000
    endloop
  endfacet
  facet normal  6.900792e-001  7.237339e-001  -0.000000e+000
    outer loop
      vertex -1.146006e+001 -1.322562e+001  3.000000e+001
      vertex -1.266535e+001 -1.207638e+001  0.000000e+000
      vertex -1.266535e+001 -1.207638e+001  3.000000e+001
    endloop
  endfacet
  facet normal  7.557494e-001  6.548609e-001  0.000000e+000
    outer loop
      vertex -1.266535e+001 -1.207638e+001  3.000000e+001
      vertex -1.266535e+001 -1.207638e+001  0.000000e+000
      vertex -1.375593e+001 -1.081778e+001  0.000000e+000
    endloop
  endfacet
  facet normal  7.557494e-001  6.548609e-001  -0.000000e+000
    outer loop
      vertex -1.266535e+001 -1.207638e+001  3.000000e+001
      vertex -1.375593e+001 -1.081778e+001  0.000000e+000
      vertex -1.375593e+001 -1.081778e+001  3.000000e+001
    endloop
  endfacet
  facet normal  8.145760e-001  5.800570e-001  0.000000e+000
    outer loop
      vertex -1.375593e+001 -1.081778e+001  3.000000e+001
      vertex -1.375593e+001 -1.081778e+001  0.000000e+000
      vertex -1.472194e+001 -9.461214e+000  0.000000e+000
    endloop
  endfacet
  facet normal  8.145760e-001  5.800570e-001  -0.000000e+000
    outer loop
      vertex -1.375593e+001 -1.081778e+001  3.000000e+001
      vertex -1.472194e+001 -9.461214e+000  0.000000e+000
      vertex -1.472194e+001 -9.461214e+000  3.000000e+001
    endloop
  endfacet
  facet normal  8.660254e-001  5.000000e-001  0.000000e+000
    outer loop
      vertex -1.472194e+001 -9.461214e+000  3.000000e+001
      vertex -1.472194e+001 -9.461214e+000  0.000000e+000
      vertex -1.555462e+001 -8.018964e+000  0.000000e+000
    endloop
  endfacet
  facet normal  8.660254e-001  5.000000e-001  -0.000000e+000
    outer loop
      vertex -1.472194e+001 -9.461214e+000  3.000000e+001
      vertex -1.555462e+001 -8.018964e+000  0.000000e+000
      vertex -1.555462e+001 -8.018964e+000  3.000000e+001
    endloop
  endfacet
  facet normal  9.096320e-001  4.154150e-001  0.000000e+000
    outer loop
      vertex -1.555462e+001 -8.018964e+000  3.000000e+001
      vertex -1.555462e+001 -8.018964e+000  0.000000e+000
      vertex -1.624644e+001 -6.504093e+000  0.000000e+000
    endloop
  endfacet
  facet normal  9.096320e-001  4.154150e-001  -0.000000e+000
    outer loop
      vertex -1.555462e+001 -8.018964e+000  3.000000e+001
      vertex -1.624644e+001 -6.504093e+000  0.000000e+000
      vertex -1.624644e+001 -6.504093e+000  3.000000e+001
    endloop
  endfacet
  facet normal  9.450010e-001  3.270674e-001  0.000000e+000
    outer loop
      vertex -1.624644e+001 -6.504093e+000  3.000000e+001
      vertex -1.624644e+001 -6.504093e+000  0.000000e+000
      vertex -1.679113e+001 -4.930320e+000  0.000000e+000
    endloop
  endfacet
  facet normal  9.450010e-001  3.270674e-001  -0.000000e+000
    outer loop
      vertex -1.624644e+001 -6.504093e+000  3.000000e+001
      vertex -1.679113e+001 -4.930320e+000  0.000000e+000
      vertex -1.679113e+001 -4.930320e+000  3.000000e+001
    endloop
  endfacet
  facet normal  9.718115e-001  2.357593e-001  0.000000e+000
    outer loop
      vertex -1.679113e+001 -4.930320e+000  3.000000e+001
      vertex -1.679113e+001 -4.930320e+000  0.000000e+000
      vertex -1.718375e+001 -3.311897e+000  0.000000e+000
    endloop
  endfacet
  facet normal  9.718115e-001  2.357593e-001  -0.000000e+000
    outer loop
      vertex -1.679113e+001 -4.930320e+000  3.000000e+001
      vertex -1.718375e+001 -3.311897e+000  0.000000e+000
      vertex -1.718375e+001 -3.311897e+000  3.000000e+001
    endloop
  endfacet
  facet normal  9.898214e-001  1.423153e-001  0.000000e+000
    outer loop
      vertex -1.718375e+001 -3.311897e+000  3.000000e+001
      vertex -1.718375e+001 -3.311897e+000  0.000000e+000
      vertex -1.742076e+001 -1.663481e+000  0.000000e+000
    endloop
  endfacet
  facet normal  9.898214e-001  1.423153e-001  -0.000000e+000
    outer loop
      vertex -1.718375e+001 -3.311897e+000  3.000000e+001
      vertex -1.742076e+001 -1.663481e+000  0.000000e+000
      vertex -1.742076e+001 -1.663481e+000  3.000000e+001
    endloop
  endfacet
  facet normal  9.988674e-001  4.758158e-002  0.000000e+000
    outer loop
      vertex -1.742076e+001 -1.663481e+000  3.000000e+001
      vertex -1.742076e+001 -1.663481e+000  0.000000e+000
      vertex -1.750000e+001  2.143132e-015  0.000000e+000
    endloop
  endfacet
  facet normal  9.988674e-001  4.758158e-002  -0.000000e+000
    outer loop
      vertex -1.742076e+001 -1.663481e+000  3.000000e+001
      vertex -1.750000e+001  2.143132e-015  0.000000e+000
      vertex -1.750000e+001  2.143132e-015  3.000000e+001
    endloop
  endfacet
  facet normal  1.000000e+000  0.000000e+000  0.000000e+000
    outer loop
      vertex  2.500000e+001 -2.000000e+001  3.000000e+001
      vertex  2.500000e+001 -2.000000e+001  0.000000e+000
      vertex  2.500000e+001  2.000000e+001  3.000000e+001
    endloop
  endfacet
  facet normal  1.000000e+000  0.000000e+000  0.000000e+000
    outer loop
      vertex  2.500000e+001  2.000000e+001  3.000000e+001
      vertex  2.500000e+001 -2.000000e+001  0.000000e+000
      vertex  2.500000e+001  2.000000e+001  0.000000e+000
    endloop
  endfacet
  facet normal  8.000000e-001 -6.000000e-001  0.000000e+000
    outer loop
      vertex  1.000000e+001 -4.000000e+001  0.000000e+000
      vertex  2.500000e+001 -2.000000e+001  0.000000e+000
      vertex  1.000000e+001 -4.000000e+001  3.000000e+001
    endloop
  endfacet
  facet normal  8.000000e-001 -6.000000e-001  0.000000e+000
    outer loop
      vertex  1.000000e+001 -4.000000e+001  3.000000e+001
      vertex  2.500000e+001 -2.000000e+001  0.000000e+000
      vertex  2.500000e+001 -2.000000e+001  3.000000e+001
    endloop
  endfacet
  facet normal  0.000000e+000 -1.000000e+000  -0.000000e+000
    outer loop
      vertex  1.000000e+001 -4.000000e+001  0.000000e+000
      vertex  1.000000e+001 -4.000000e+001  3.000000e+001
      vertex -1.000000e+001 -4.000000e+001  0.000000e+000
    endloop
  endfacet
  facet normal  0.000000e+000 -1.000000e+000  0.000000e+000
    outer loop
      vertex -1.000000e+001 -4.000000e+001  0.000000e+000
      vertex  1.000000e+001 -4.000000e+001  3.000000e+001
      vertex -1.000000e+001 -4.000000e+001  3.000000e+001
    endloop
  endfacet
  facet normal -8.000000e-001 -6.000000e-001  0.000000e+000
    outer loop
      vertex -2.500000e+001 -2.000000e+001  0.000000e+000
      vertex -1.000000e+001 -4.000000e+001  0.000000e+000
      vertex -2.500000e+001 -2.000000e+001  3.000000e+001
    endloop
  endfacet
  facet normal -8.000000e-001 -6.000000e-001  0.000000e+000
    outer loop
      vertex -2.500000e+001 -2.000000e+001  3.000000e+001
      vertex -1.000000e+001 -4.000000e+001  0.000000e+000
      vertex -1.000000e+001 -4.000000e+001  3.000000e+001
    endloop
  endfacet
  facet normal -1.000000e+000  0.000000e+000  0.000000e+000
    outer loop
      vertex -2.500000e+001  2.000000e+001  3.000000e+001
      vertex -2.500000e+001  2.000000e+001  0.000000e+000
      vertex -2.500000e+001 -2.000000e+001  3.000000e+001
    endloop
  endfacet
  facet normal -1.000000e+000  0.000000e+000  0.000000e+000
    outer loop
      vertex -2.500000e+001 -2.000000e+001  3.000000e+001
      vertex -2.500000e+001  2.000000e+001  0.000000e+000
      vertex -2.500000e+001 -2.000000e+001  0.000000e+000
    endloop
  endfacet
  facet normal -8.000000e-001  6.000000e-001  0.000000e+000
    outer loop
      vertex -1.000000e+001  4.000000e+001  0.000000e+000
      vertex -2.500000e+001  2.000000e+001  0.000000e+000
      vertex -1.000000e+001  4.000000e+001  3.000000e+001
    endloop
  endfacet
  facet normal -8.000000e-001  6.000000e-001  0.000000e+000
    outer loop
      vertex -1.000000e+001  4.000000e+001  3.000000e+001
      vertex -2.500000e+001  2.000000e+001  0.000000e+000
      vertex -2.500000e+001  2.000000e+001  3.000000e+001
    endloop
  endfacet
  facet normal  0.000000e+000  1.000000e+000  0.000000e+000
    outer loop
      vertex -1.000000e+001  4.000000e+001  0.000000e+000
      vertex -1.000000e+001  4.000000e+001  3.000000e+001
      vertex  1.000000e+001  4.000000e+001  0.000000e+000
    endloop
  endfacet
  facet normal  0.000000e+000  1.000000e+000  -0.000000e+000
    outer loop
      vertex  1.000000e+001  4.000000e+001  0.000000e+000
      vertex -1.000000e+001  4.000000e+001  3.000000e+001
      vertex  1.000000e+001  4.000000e+001  3.000000e+001
    endloop
  endfacet
  facet normal  8.000000e-001  6.000000e-001  0.000000e+000
    outer loop
      vertex  1.000000e+001  4.000000e+001  0.000000e+000
      vertex  1.000000e+001  4.000000e+001  3.000000e+001
      vertex  2.500000e+001  2.000000e+001  0.000000e+000
    endloop
  endfacet
  facet normal  8.000000e-001  6.000000e-001  -0.000000e+000
    outer loop
      vertex  2.500000e+001  2.000000e+001  0.000000e+000
      vertex  1.000000e+001  4.000000e+001  3.000000e+001
      vertex  2.500000e+001  2.000000e+001  3.000000e+001
    endloop
  endfacet
endsolid CATIA STL
